<?xml version="1.0" encoding="UTF-8"?>
<svg id="Layer_1" data-name="Layer 1" xmlns="http://www.w3.org/2000/svg" viewBox="0 0 1906.1 155.3">
  <defs>
    <style>
      .cls-1 {
        fill: #ff901d;
      }

      .cls-2 {
        fill: #5d6972;
      }

      .cls-3 {
        fill: #c6c6f1;
      }

      .cls-4 {
        fill: #ff881d;
      }

      .cls-5 {
        fill: #fff;
      }

      .cls-6 {
        fill: #f05543;
      }

      .cls-7 {
        fill: #a7d0e1;
      }

      .cls-8 {
        fill: #d8d5f7;
      }

      .cls-9 {
        fill: #d3a06c;
      }

      .cls-10 {
        fill: #e4e3ff;
      }

      .cls-11 {
        fill: #cee7f4;
      }

      .cls-12 {
        fill: #f8972c;
      }

      .cls-13 {
        fill: #80bbce;
      }

      .cls-14 {
        fill: #faaf42;
      }

      .cls-15 {
        fill: #f33939;
      }

      .cls-16 {
        fill: #ff99ca;
      }

      .cls-17 {
        fill: #eab478;
      }

      .cls-18 {
        fill: #e6e9ed;
      }

      .cls-19 {
        fill: #f4c892;
      }

      .cls-20 {
        fill: #d0d0f7;
      }

      .cls-21 {
        fill: none;
        stroke: #545454;
        stroke-miterlimit: 10;
        stroke-width: 3px;
      }

      .cls-22 {
        fill: #ffb125;
      }

      .cls-23 {
        fill: #ffdebb;
      }

      .cls-24 {
        fill: #969faa;
      }

      .cls-25 {
        fill: #1d4859;
      }

      .cls-26 {
        fill: #69d6f4;
      }

      .cls-27 {
        fill: #f8c460;
      }

      .cls-28 {
        fill: #7fc3ea;
      }

      .cls-29 {
        fill: #7a838b;
      }

      .cls-30 {
        fill: #fc6559;
      }

      .cls-31 {
        fill: #5e5e5e;
        font-family: Poppins-SemiBold, Poppins;
        font-size: 64.01px;
        font-weight: 600;
      }

      .cls-32 {
        fill: #fed9a8;
      }

      .cls-33 {
        fill: #efefef;
      }

      .cls-34 {
        fill: #1c0c12;
      }

      .cls-35 {
        fill: #e1effb;
      }

      .cls-36 {
        fill: #ccdfed;
      }

      .cls-37 {
        fill: #b27946;
      }

      .cls-38 {
        fill: #efc48f;
      }

      .cls-39 {
        fill: #ff4c4c;
      }

      .cls-40 {
        fill: #83ffe7;
      }

      .cls-41 {
        fill: #2d5871;
      }
    </style>
  </defs>
  <g id="Layer_2" data-name="Layer 2">
    <path class="cls-21" d="m1581.9,82.3h324.2"/>
    <path class="cls-21" d="m1389.6,82.3h165.8"/>
    <path class="cls-21" d="m1202.63,82.3h172.97"/>
    <path class="cls-21" d="m503.5,82.3h153.9"/>
    <path class="cls-21" d="m434.9,82.3h51.1"/>
    <path class="cls-21" d="m259.4,82.3h165"/>
    <path class="cls-21" d="m97.8,82.3h147"/>
    <path class="cls-21" d="m0,82.3h86.6"/>
  </g>
  <g>
    <path class="cls-28" d="m141.3,94.7h0c3.2-3.7,4.6-8.7,3.6-13.6-.8-4.1-3.2-7.6-6.7-10s-7.7-3.2-11.8-2.5c-3.6.7-6.9,2.5-9.2,5.3h0c-3.2-1.7-6.9-2.2-10.6-1.4-4.1.9-7.6,3.3-9.9,6.8-.5.8-1,1.6-1.3,2.4,0,.1-.1.2-.1.2-1.2,2.9-1.6,6-1,9.1.9,4.9,4.1,9,8.4,11.2h0l.8,4.2c1.4,7,5.8,13,12.1,16.3h0c.4.2.8.3,1.2.2h0c3.4-.7,5.7-4,5-7.4l-1.3-6.5c-.4-1.9.9-3.8,2.8-4.1,1.9-.3,3.6,1,4,2.8l1.3,6.4c.7,3.4,4,5.7,7.4,5,.4-.1.8-.3,1-.6,4.5-5.5,6.4-12.7,5-19.7l-.7-4.1Z"/>
    <path class="cls-11" d="m144.9,81.1c1,4.9-.3,9.9-3.6,13.6h0l.8,4.2c1.4,7-.5,14.2-5,19.7-.1.2-.3.3-.5.4s-.4.2-.6.2c-.9.2-1.8.2-2.7,0,4.4-5.5,6.2-12.6,4.9-19.5l-.8-4.1c2.7-3.2,3.7-8.6,2.9-13-1.2-6.3-6.7-11.3-13.1-10.7-7.1.6-8.3,5.5-14.4,6.7,2.3-.5,4.4-4.7,4.4-4.7h0c1.9-2.2,4.3-3.8,7.1-4.7.7-.2,1.4-.4,2.2-.5,4.1-.7,8.3.2,11.8,2.5,3.4,2.3,5.7,5.8,6.6,9.9h0Z"/>
  </g>
  <g>
    <circle class="cls-40" cx="91.5" cy="122.2" r="5.7"/>
    <circle class="cls-40" cx="133.8" cy="59.3" r="5.7"/>
    <circle class="cls-40" cx="82.3" cy="68.49" r="4.7"/>
  </g>
  <g>
    <path d="m134.1,102.6c-.5-.1-1,.3-1.1.9-.5,4.4-2.3,8.4-5.1,11.8h0c-.1.1-.3.2-.5.3-2.9.6-5.7-1.3-6.3-4.2l-1.3-6.5c-.2-1.2-.9-2.2-1.9-2.9-1-.7-2.2-.9-3.4-.6-2.3.5-3.8,2.9-3.4,5.3l1.3,6.4c.6,2.9-1.3,5.7-4.2,6.3-.2,0-.4,0-.5-.1-6.1-3.2-10.3-9-11.6-15.7l-.8-4.2c-.1-.3-.2-.5-.5-.7-1.1-.5-2.1-1.2-3-2-.4-.4-1-.3-1.4.1s-.3,1,.1,1.4c.9.8,1.9,1.5,3,2l.7,3.8c1.4,7.3,6,13.5,12.6,17,.6.3,1.2.4,1.8.3,3.9-.8,6.5-4.6,5.8-8.6l-1.3-6.4c-.3-1.4.6-2.7,1.9-3,.7-.1,1.3,0,1.9.3.6.4,1,.9,1.1,1.6l1.3,6.5c.8,4,4.6,6.5,8.6,5.8.6-.1,1.2-.5,1.6-.9h0c3-3.7,4.9-8.1,5.5-12.8.1-.6-.3-1.1-.9-1.2h0Z"/>
    <path d="m130.3,67.6c-3.7-2.5-8.1-3.5-12.5-2.7-3.6.7-6.8,2.4-9.3,5-3.3-1.5-6.9-1.9-10.5-1.2-4.3.9-8.1,3.5-10.5,7.2-2.5,3.7-3.4,8.2-2.5,12.5.4,2.1,1.2,4.1,2.3,5.9.3.5.9.6,1.4.3.5-.3.6-.9.3-1.4-1-1.6-1.7-3.4-2.1-5.2-.7-3.8.1-7.8,2.3-11.1,2.2-3.3,5.5-5.5,9.3-6.4,3-.6,6-.4,8.7.8-2,2.1-3.8,3.5-5.5,4.3-.5.2-.7.8-.4,1.3.2.4.6.6,1.1.5.1,0,.2,0,.2-.1,2.2-1.1,4.5-3,7-5.8,2.2-2.6,5.2-4.3,8.7-5,3.9-.7,7.8.1,11,2.4,3.3,2.2,5.5,5.5,6.3,9.4.9,4.6-.3,9.2-3.3,12.8-.2.2-.3.5-.2.8l.8,4.2c.2.9.3,1.9.4,2.8,0,.5.5.9,1,.9h.1c.5-.1.8-.5.8-1-.1-1-.2-2-.4-3l-.7-3.8c3.2-3.9,4.5-9.1,3.5-14.1-1.1-4.1-3.6-7.8-7.3-10.3h0Z"/>
    <path d="m96.9,120.2c-2.6.5-5-1.2-5.5-3.7-.1-.5-.6-.9-1.2-.8s-.9.6-.8,1.2c.5,2.6-1.2,5-3.7,5.5-.5.1-.9.6-.8,1.2s.6.9,1.2.8c2.6-.5,5,1.2,5.5,3.7.1.5.6.9,1.2.8.5-.1.9-.6.8-1.2-.5-2.6,1.2-5,3.7-5.5.5-.1.9-.6.8-1.2s-.7-.9-1.2-.8h0Zm-5,4.2c-.7-.8-1.6-1.4-2.6-1.7.8-.7,1.4-1.6,1.7-2.6.7.8,1.6,1.4,2.6,1.7-.7.7-1.3,1.6-1.7,2.6h0Z"/>
    <path d="m139.2,57.3c-2.6.5-5-1.2-5.5-3.7-.1-.5-.6-.9-1.2-.8-.5.1-.9.6-.8,1.2.5,2.6-1.2,5-3.7,5.5-.5.1-.9.6-.8,1.2.1.5.6.9,1.2.8,2.6-.5,5,1.2,5.5,3.7.1.5.6.9,1.2.8.5-.1.9-.6.8-1.2-.5-2.6,1.2-5,3.7-5.5.5-.1.9-.6.8-1.2-.2-.6-.7-.9-1.2-.8Zm-5,4.2c-.7-.8-1.6-1.4-2.6-1.7.8-.7,1.4-1.6,1.7-2.6.7.8,1.6,1.4,2.6,1.7-.7.7-1.3,1.6-1.7,2.6Z"/>
    <path d="m77.8,70.4c2-.4,4,.9,4.4,3,.1.5.6.9,1.2.8s.9-.6.8-1.2c-.4-2,.9-4,3-4.4.5-.1.9-.6.8-1.2-.1-.5-.6-.9-1.2-.8-2,.4-4-.9-4.4-3-.1-.5-.6-.9-1.2-.8s-.9.6-.8,1.2c.4,2-.9,4-3,4.4-.5.1-.9.6-.8,1.2.2.5.7.9,1.2.8Zm4.2-3.4c.5.5,1.1.9,1.8,1.2-.5.5-.9,1.1-1.2,1.8-.5-.5-1.1-.9-1.8-1.2.5-.5.9-1.1,1.2-1.8Z"/>
  </g>
  <g>
    <path class="cls-27" d="m251.3,93.9l1.5-3.6c3.9-9.2,12.4-15.7,22.4-16.8l3.9-.5c9.9-1.2,19.8,3,25.7,11.1l2.2,2.9c1,1.3,2.6,2.2,4.2,2.3l4.9.2c5.5.3,9.9,4.4,10.6,9.8l.5,4.5c.4,3.1-1.8,5.8-4.9,6.2l-74.8,9c-3.1.4-5.8-1.8-6.2-4.9l-1.1-9.5c-.3-2.5,1.2-5,3.6-5.9l4.5-1.7c1.3-.6,2.4-1.7,3-3.1Z"/>
    <path class="cls-7" d="m229.3,101.5l.5,4,4.2-.5.7-5.7-5.3.6c-.2.6-.2,1.1-.1,1.6Z"/>
    <path class="cls-13" d="m234.4,101.7c-.3-.7-.6-1.4-.9-2.2l-4.2.5c0,.1,0,.3-.1.4v1.2l.5,4,4.2-.5.5-3.4Z"/>
    <path class="cls-7" d="m306.7,90.7c.4,3.1,3.1,5.2,6.2,4.9h0l2.7-.3c-.4-2-1.4-3.8-2.8-5.3l-6.1.7Z"/>
    <path class="cls-14" d="m303,106.6c-.5-4.6-4.7-7.9-9.3-7.4-4.6.5-7.9,4.7-7.4,9.3.1.5.2,1,.3,1.5l16.4-2c.1-.4.1-.9,0-1.4Z"/>
    <circle class="cls-29" cx="297.3" cy="105.9" r="8.4"/>
    <circle class="cls-7" cx="297.3" cy="105.9" r="2.8"/>
    <circle class="cls-29" cx="250.2" cy="111.5" r="8.4"/>
    <path class="cls-2" d="m254.8,115.2c-4.6.6-8.8-2.7-9.3-7.3-.1-1.2,0-2.4.3-3.5-4,2.4-5.2,7.5-2.9,11.5,2.4,4,7.5,5.2,11.5,2.9,1.8-1.1,3.1-2.7,3.7-4.7-1,.6-2.1,1-3.3,1.1Z"/>
    <path class="cls-2" d="m302,109.6c-4.6.6-8.8-2.7-9.3-7.3-.1-1.2,0-2.4.3-3.5-4,2.4-5.2,7.5-2.9,11.5,2.4,4,7.5,5.2,11.5,2.9,1.8-1.1,3.1-2.7,3.7-4.7-1,.5-2.2.9-3.3,1.1Z"/>
    <circle class="cls-7" cx="250.2" cy="111.5" r="2.8"/>
    <g>
      <path class="cls-7" d="m266.3,80.4l.7-.1,1.7,13.9-19.4,2.3.5-1.7c2-7.7,8.5-13.4,16.5-14.4Z"/>
      <path class="cls-13" d="m254.3,91.7l.5-1.7c.6-2.3,1.7-4.5,3.1-6.4-4,2.6-6.9,6.6-8.1,11.2l-.5,1.7,19.4-2.3-.5-4.2-13.9,1.7Z"/>
    </g>
    <g>
      <path class="cls-7" d="m296.6,91.7l-19.4,2.3-1.7-13.9.7-.1c7.9-.9,15.6,3,19.5,10l.9,1.7Z"/>
      <path class="cls-5" d="m286.1,85.8c-.3,0-.5,0-.8-.1-.4-.2-.9-.4-1.4-.6-.7-.3-1.1-1.1-.8-1.8.3-.7,1.1-1.1,1.8-.8.5.2,1.1.4,1.6.7.7.3,1,1.2.7,1.9-.2.3-.7.6-1.1.7Z"/>
      <path class="cls-13" d="m294.2,87.8l-7.8.9c-3.1.4-5.8-1.8-6.2-4.9l-.5-3.8c-1.2-.1-2.3,0-3.5.1l-.7.1,1.7,13.9,19.4-2.3-.9-1.6c-.4-.9-.9-1.7-1.5-2.4Z"/>
    </g>
    <path d="m305.3,85.1l-4.9-.2c-1.3-.1-2.4-.7-3.2-1.7l-2.2-2.9c-6.3-8.4-16.6-12.9-27-11.6l-3.9.5c-10.4,1.3-19.4,8-23.5,17.7l-1.5,3.6c-.4,1-1.3,1.9-2.4,2.3l-4.5,1.7c-2.3.9-3.9,2.8-4.4,5.2v.1c-.1.7-.1,1.4-.1,2l1.1,9.5c.5,3.8,3.9,6.6,7.8,6.1l5.1-.6c2.9,4.6,8.9,5.9,13.4,3.1,1.9-1.2,3.3-3,4.1-5.2l29.6-3.5c2.9,4.6,8.9,5.9,13.4,3.1,1.9-1.2,3.3-3,4.1-5.2l5.1-.6c3.8-.5,6.6-3.9,6.1-7.8l-.5-4.5c-.5-6.1-5.5-10.8-11.7-11.1Zm7,6.4c.7.8,1.2,1.7,1.5,2.6l-1.1.1c-1.1.1-2.2-.2-3.1-.9-.5-.4-.9-.9-1.2-1.4l3.9-.4Zm-81.6,9.7l2.4-.3-.4,2.9-1.7.2-.3-2.6v-.2Zm20.3,17.3c-3.8.5-7.3-2.3-7.8-6.1-.5-3.8,2.3-7.3,6.1-7.8s7.3,2.3,7.8,6.1c.5,3.8-2.3,7.3-6.1,7.8Zm47.1-5.7c-3.8.5-7.3-2.3-7.8-6.1-.5-3.8,2.3-7.3,6.1-7.8s7.3,2.3,7.8,6.1c.5,3.9-2.2,7.4-6.1,7.8Zm13.2-7.2l-4.3.5c.2-5.4-4.1-9.9-9.5-10.1s-9.9,4.1-10.1,9.5c0,1,.1,2,.3,2.9l-27.9,3.3c.2-5.4-4.1-9.9-9.5-10.1s-9.9,4.1-10.1,9.5c0,1,.1,2,.3,2.9l-4.3.5c-2.3.3-4.4-1.4-4.7-3.7l-.5-4.2,2.8-.3c.6-.1,1.1-.6,1.2-1.2l.7-5.7c.1-.8-.4-1.5-1.2-1.6h-.3l-2.9.4c.5-.6,1.1-1,1.8-1.3l4.5-1.7c1.8-.7,3.2-2.1,3.9-3.8l1.5-3.6c3.7-8.8,11.8-14.9,21.3-16l3.9-.5c9.5-1.1,18.8,2.9,24.5,10.5l2.2,2.9c1.2,1.7,3.2,2.7,5.3,2.8l4.9.2c1.4.1,2.8.4,4.1,1.1l-2.7.3c-.8.1-1.3.8-1.2,1.6.5,3.8,3.9,6.6,7.7,6.1h0l1.4-.2.5,4.2c.4,2.5-1.3,4.6-3.6,4.8Z"/>
    <path d="m274.4,90.4l-2.8.3c-.8.1-1.3.8-1.2,1.6.1.8.8,1.3,1.6,1.2l2.8-.3c.8-.1,1.3-.8,1.2-1.6-.2-.8-.9-1.3-1.6-1.2Z"/>
    <path d="m248,93.5l-2.8.3c-.8.1-1.3.8-1.2,1.6s.8,1.3,1.6,1.2l2.8-.3c.8-.1,1.3-.8,1.2-1.6-.1-.7-.8-1.3-1.6-1.2Z"/>
    <path d="m296.8,101.7c-2.3.3-3.9,2.4-3.7,4.7.3,2.3,2.4,3.9,4.7,3.7,2.3-.3,3.9-2.4,3.7-4.7-.3-2.3-2.4-3.9-4.7-3.7Zm.7,5.6c-.8.1-1.5-.5-1.6-1.2-.1-.8.5-1.5,1.2-1.6.8-.1,1.5.5,1.6,1.2.1.8-.5,1.5-1.2,1.6Z"/>
    <path d="m249.7,107.4c-2.3.3-3.9,2.4-3.7,4.7s2.4,3.9,4.7,3.7c2.3-.3,3.9-2.4,3.7-4.7-.3-2.4-2.4-4-4.7-3.7Zm.6,5.5c-.8.1-1.5-.5-1.6-1.2s.5-1.5,1.2-1.6,1.5.5,1.6,1.2-.4,1.5-1.2,1.6Z"/>
    <path d="m263.9,73.3l-.7.1c-8.5,1-15.5,7.1-17.7,15.4l-.5,1.7c-.2.7.2,1.5,1,1.7.2,0,.4.1.5,0l19.4-2.3c.8-.1,1.3-.8,1.2-1.6l-1.7-13.9c-.1-.6-.8-1.1-1.5-1.1Zm.3,14.1l-16,1.9c1.9-6.8,7.6-11.9,14.6-13l1.4,11.1Z"/>
    <path d="m291,83.4c-1.5-2.7-3.6-5.1-6.1-6.9-.6-.5-1.5-.3-1.9.3s-.3,1.5.3,1.9h0c2.1,1.5,3.9,3.5,5.2,5.8l-16,1.9-1.3-11.1c2.7-.2,5.4.2,7.9,1.1.7.3,1.5-.1,1.8-.8.3-.7-.1-1.5-.8-1.8h0c-3.2-1.2-6.6-1.6-9.9-1.2l-.7.1c-.8.1-1.3.8-1.2,1.6l1.7,13.9c.1.8.8,1.3,1.6,1.2l19.4-2.3c.8-.1,1.3-.8,1.2-1.6,0-.2-.1-.3-.2-.5l-1-1.6Z"/>
  </g>
  <g>
    <path class="cls-10" d="m500.3,82.6v-.3h.3l2.5-30.8c.1-.7-.5-1.4-1.2-1.5s-1.4.2-2,.6c-2.9,2.3-4.8,5.7-5.4,9.3-1.2,9.2-.9,18.5.9,27.6l4.8.4.4-5.4h-.3v.1Z"/>
    <path class="cls-20" d="m500.3,82.6v-.3h.3l2.5-30.8c.1-.7-.5-1.4-1.2-1.5s-1.4.1-2,.6h.4c.7.1,1.3.7,1.2,1.5l-2.9,35.8,1.5.1.4-5.4s-.2,0-.2,0Z"/>
    <circle class="cls-10" cx="460.9" cy="78.9" r="27.3"/>
    <path class="cls-20" d="m484.8,65.8c5.8,14.3-1.1,30.6-15.3,36.4-9.6,3.9-20.5,2.2-28.5-4.5,10.3,11,27.6,11.5,38.6,1.2,9.1-8.6,11.3-22.2,5.2-33.1h0Z"/>
    <circle class="cls-20" cx="460.9" cy="78.9" r="18.6"/>
    <path class="cls-3" d="m442.5,79.6c.8-10.7,10.2-18.7,20.9-17.9,4.3.3,8.4,2.1,11.6,5.1-6.7-7.8-18.4-8.7-26.2-2-4.8,4.1-7.2,10.3-6.4,16.5,0-.6,0-1.1.1-1.7Z"/>
    <path class="cls-8" d="m476.4,68.6c4.3,9.3.2,20.4-9.1,24.7-8.3,3.8-18.2,1-23.3-6.6,4.3,9.3,15.3,13.4,24.7,9.2,9.3-4.3,13.4-15.3,9.2-24.7-.5-.9-1-1.8-1.5-2.6h0Z"/>
    <path class="cls-30" d="m496.9,111.9l-2.4-.2c-1.6-.1-2.7-1.5-2.6-3.1v-.2l3.1-21.8c.1-.7.8-1.3,1.5-1.2l2.5.2c.7.1,1.3.7,1.3,1.4l-.4,22c0,1.6-1.3,2.8-2.9,2.8q0,.1-.1.1h0Z"/>
    <path class="cls-6" d="m500.4,87.1c0-.8-.6-1.4-1.3-1.4h-.1c0,.1.1.3.1.4l-.4,22c0,1.6-1.3,2.8-2.9,2.8h-.2l-2.4-.2c-.2,0-.5-.1-.7-.2.5.7,1.2,1.1,2.1,1.2l2.4.2c1.6.1,2.9-1,3.1-2.6v-.2l.3-22Z"/>
    <path class="cls-10" d="m432,47.6c-.6-.1-1.2.4-1.3,1.1h0l-.8,10.2c-.1.8-.8,1.4-1.6,1.4s-1.4-.8-1.4-1.6l.8-10.3c.1-.6-.4-1.2-1-1.2-.6-.1-1.2.4-1.2,1l-.8,10.3c-.1.8-.8,1.4-1.6,1.4s-1.4-.8-1.4-1.6l.8-10.2c.1-.6-.4-1.2-1.1-1.3h0c-.6,0-1.2.4-1.2,1l-1.5,12c-.3,1.9.4,3.9,1.8,5.3,1.7,1.8,2.5,4.3,2.2,6.8l-1.4,10.5,5.1.4.3-10.4c0-2.6,1.3-5,3.4-6.4,1.6-1.2,2.6-3,2.7-5l.4-12.1c-.2-.7-.6-1.2-1.2-1.3h0Z"/>
    <g>
      <path class="cls-20" d="m421.8,47.5l-.8,10.2c0,.7.4,1.3,1,1.5-.2-.3-.3-.6-.3-1l.8-10.2c0-.6-.3-1.1-.9-1.2.1.2.2.5.2.7Z"/>
      <path class="cls-20" d="m427,47.9l-.8,10.3c0,.7.4,1.3,1,1.5-.2-.3-.3-.6-.3-1l.8-10.3c0-.6-.3-1.1-.9-1.2.2.2.2.5.2.7Z"/>
      <path class="cls-20" d="m433,48.8c0-.6-.4-1-.9-1.1.1.2.2.4.2.7l-.4,12.1c-.1,2-1.1,3.8-2.7,5-2.1,1.5-3.3,3.9-3.4,6.4l-.4,10.8.8.1.3-10.4c0-2.6,1.3-5,3.4-6.4,1.6-1.2,2.6-3,2.7-5l.4-12.2Z"/>
    </g>
    <path class="cls-30" d="m420.5,106l2.6.2c1.6.2,3.1-1,3.3-2.6v-.2l.3-22.4c0-.8-.6-1.4-1.4-1.5l-2.8-.2c-.8-.1-1.5.5-1.7,1.2l-3.3,22.2c-.2,1.6,1,3.1,2.6,3.3h.4Z"/>
    <path class="cls-6" d="m423.3,104.9l-2.8-.2c-1.3-.1-2.4-.9-2.9-2v.1c-.2,1.6,1,3.1,2.6,3.3h.2l2.6.2c1.6.2,3.1-1,3.3-2.6v-.3c-.5,1-1.7,1.6-3,1.5Z"/>
    <path class="cls-5" d="m450.8,57.6c-.4-.7-1.3-1-2-.6h0c-1.4.8-2.8,1.7-4,2.8-.6.5-.7,1.5-.2,2.1s1.5.7,2.1.2h0c1.1-.9,2.3-1.8,3.6-2.5.6-.4.9-1.3.5-2h0Z"/>
    <circle class="cls-5" cx="442.4" cy="64.4" r="1.6"/>
    <path d="m437.6,64.2l.5-14.9c0-.8-.6-1.5-1.5-1.5-.8,0-1.5.6-1.5,1.5l-.5,14.9c-.1,1.8-1,3.4-2.4,4.5-2.8,2-4.4,5.1-4.4,8.5v5.6l-2.5-.2.9-5.8c.5-3.3-.6-6.6-2.9-8.9-1.2-1.3-1.8-3-1.6-4.7l1.9-14.8c.1-.8-.5-1.6-1.3-1.7s-1.6.5-1.7,1.3l-1.9,14.8c-.3,2.6.5,5.3,2.4,7.2,1.7,1.7,2.4,4.1,2.1,6.4l-1.3,8.7-3.3,22.2c-.2,1.2.2,2.4.9,3.3.8,1,2,1.6,3.3,1.7l2.7.2c1.3.1,2.6-.3,3.5-1.2.9-.8,1.4-1.9,1.4-3.1l.3-22.4c0-.1.1-8.6.1-8.6,0-2.4,1.2-4.7,3.2-6.1,2.2-1.7,3.5-4.2,3.6-6.9Zm-10.2,43.9c0,.4-.2.7-.4.9-.4.3-.8.5-1.3.4l-2.6-.2c-.5,0-.9-.3-1.2-.6-.2-.3-.3-.6-.3-1l3.3-22.1,2.8.2-.3,22.4Z"/>
    <path d="m425.9,62.9c.8.1,1.5-.5,1.6-1.4l1-12.7c.1-.8-.5-1.5-1.4-1.6s-1.5.5-1.6,1.4l-1,12.7h0c0,.8.6,1.5,1.4,1.6Z"/>
    <path d="m430.6,63.2c.8.1,1.5-.5,1.6-1.4l1-12.7c.1-.8-.5-1.5-1.4-1.6s-1.5.5-1.6,1.4l-1,12.7h0c-.1.8.5,1.6,1.4,1.6Z"/>
    <path d="m453.6,69.3c.4,0,.8-.1,1.2-.4.7-.4,1-1.3.5-2-.4-.7-1.3-1-2-.5-.4.2-.7.5-.9.9-.2.4-.1.9.1,1.3.2.4.6.6,1.1.7Z"/>
    <path d="m504.2,91.3l2.8-34.9c.1-1.6-1-2.9-2.6-3.1-1.1-.1-2.2.2-3,.9-3.2,2.6-5.3,6.2-5.9,10.3-1.2,8.8-1,17.7.6,26.4,0,.1-3.2,22.1-3.2,22.1-.3,2.4,1.3,4.6,3.7,4.9h.3l2.4.2c2.4.2,4.5-1.6,4.7-4v-.3c-.1.1.3-22.3.2-22.5h0Zm-3.3,22.6c0,.4-.2.7-.4,1h0c-.3.3-.6.4-1,.3l-2.5-.2c-.7-.1-1.3-.7-1.2-1.4v-.1l3-21.7,2.5.1-.4,22Zm.5-25l-2.3-.2h-.4c-1.3-7.9-1.4-15.9-.3-23.8h0c.5-3.3,2.2-6.3,4.8-8.4.2-.2.5-.3.8-.3l-2.6,32.7Z"/>
    <path d="m465.7,55c-15.9-1.3-29.8,10.6-31,26.4-1.3,15.9,10.6,29.8,26.4,31,15.9,1.3,29.8-10.6,31-26.4,1.2-15.8-10.6-29.7-26.4-31Zm23.4,30.8c-1.2,14.2-13.6,24.8-27.8,23.7h0c-14.2-1.1-24.8-13.6-23.7-27.8,1.1-14.2,13.6-24.8,27.8-23.7,14.2,1.1,24.8,13.6,23.7,27.8Z"/>
    <path d="m457.8,64.4s-.1,0,0,0c-.8.3-1.3,1.1-1,1.9.2.8,1.1,1.2,1.9,1,5.9-1.7,12.4-.1,16.7,4.3,6.7,6.6,6.7,17.4.1,24.1s-17.4,6.7-24.1.1-6.7-17.4-.1-24.1c.6-.6.6-1.5,0-2.1s-1.5-.6-2.1,0c-3.4,3.4-5.4,7.8-5.8,12.6-.9,11.1,7.4,20.8,18.4,21.7,11.1.9,20.8-7.4,21.7-18.4.2-2.4-.1-4.8-.7-7.2-3.2-10.8-14.3-17-25-13.9Z"/>
  </g>
  <g>
    <path class="cls-12" d="m1378.3,45.2l2.9-.8c.2-.1.3-.4.1-.5l-2.6-1.6c-.1,0-.1-.1-.1-.2l-.8-2.9c-.1-.2-.4-.3-.5-.1l-1.6,2.6c0,.1-.1.1-.2.1l-2.9.8c-.2.1-.3.4-.1.5l2.6,1.6c.1,0,.1.1.1.2l.8,2.9c.1.2.4.3.5.1l1.6-2.6c.1,0,.2,0,.2-.1Z"/>
    <circle class="cls-4" cx="1373.5" cy="55.7" r=".9"/>
    <path class="cls-12" d="m1439.1,74.8l1.7-.5c.1,0,.2-.2,0-.3l-1.6-.9-.1-.1-.5-1.7c0-.1-.2-.2-.3,0l-.9,1.6-.1.1-1.7.5c-.1,0-.2.2,0,.3l1.6.9.1.1.5,1.7c0,.1.2.2.3,0l1-1.7c-.1,0,0,0,0,0Z"/>
    <circle class="cls-4" cx="1435.6" cy="63" r="2.2"/>
    <ellipse class="cls-12" cx="1403.39" cy="82.71" rx="19.7" ry="16.3" transform="translate(1132.81 1462.25) rotate(-82.28)"/>
    <path class="cls-12" d="m1409.5,49.2c7.3-9.4,14.1-11.5,17.4-12,1.2-.2,2.3.6,2.5,1.8.5,3.2.5,10.4-6.2,20.2l-13.7-10Z"/>
    <path class="cls-12" d="m1406.5,48.8c-4.6-11-10.6-14.9-13.6-16.2-1.1-.5-2.4,0-2.9,1.1-1.4,3-3.3,9.9.6,21.1l15.9-6Z"/>
    <path class="cls-16" d="m1393,50c-1.6-6.5-1-10.8-.2-13.2,2.2,1.3,5.6,4.1,8.6,10l-8.4,3.2Z"/>
    <path class="cls-16" d="m1422.2,53.9c3.3-5.8,3.8-10.2,3.7-12.7-2.4.7-6.5,2.5-11,7.4l7.3,5.3Z"/>
    <path class="cls-12" d="m1404.6,74.3c6.3.7,14.2.7,19.1-4,5.2-5.2,3.8-14.6,1.2-20.6,0-.1-.1-.1-.1-.2-5.8-13.1-24-15.6-33.1-4.5,0,.1-.1.1-.1.2-4.1,5.1-8,13.8-4.3,20.2,3.4,5.8,11,7.9,17.3,8.9h0Z"/>
    <path class="cls-4" d="m1423.7,70.2c-4.9,4.8-12.8,4.8-19.1,4-6.3-1-13.9-3.1-17.3-9-.4-.6-.7-1.3-.9-2,3.7,4.2,9.9,5.8,15.2,6.7,6,.7,13.6.7,18.3-3.9,5-5,3.7-14,1.2-19.8,0-.1-.1-.1-.1-.2-.9-1.9-2-3.6-3.3-5.1,3,1.9,5.6,4.7,7.2,8.4,0,.1.1.1.1.2,2.5,6.1,3.9,15.5-1.3,20.7h0Z"/>
    <path class="cls-33" d="m1415.2,61.8c-4.1-2.5-6.6-4.9-5.8-9,.8-4.1-1.4-4.1-1.4-4.1,0,0-2.1-.6-2.4,3.5s-3.4,5.8-8,7.2c-4.6,1.3,1.4,12.1,7.3,12.2,5.7,1.6,14.4-7.3,10.3-9.8Z"/>
    <path class="cls-38" d="m1434.3,88.7l-4.5,33.2c-.2,1.3-1.4,2.2-2.7,2l-46.9-6.4c-1.3-.2-2.2-1.4-2-2.7l4.5-33.2,51.6,7.1Z"/>
    <path class="cls-17" d="m1425.8,87.6l-.7,5.2-42.2-5.7c-.3,0-.7,0-.9.2l-1.7,12.6,40.4,5.5c1.5.2,2.6,1.6,2.3,3.1l-1.7,12.3c-.2,1.3-1.4,2.2-2.7,2l8.5,1.2c1.3.2,2.5-.7,2.7-2l2-15,1.7-12.6.8-5.6-8.5-1.2Z"/>
    <path class="cls-38" d="m1435.7,102.1l-57.9-7.9c-.9-.1-1.4-1.1-.9-1.9l5.5-9.9c.3-.5.8-.7,1.3-.6l49.9,6.8c.5.1.9.5,1.1,1l2.6,11c0,.8-.7,1.6-1.6,1.5h0Z"/>
    <path class="cls-17" d="m1435.7,102.1l-6.7-.9c.9.1,1.6-.7,1.4-1.6l-2.6-11c-.1-.5-.5-.9-1.1-1l6.7.9c.5.1.9.5,1.1,1l2.6,11c.2,1-.5,1.7-1.4,1.6Z"/>
    <path class="cls-23" d="m1395.9,86.8l-10.6-1.4c-.6-.1-1.2.3-1.2.9-.1.6.3,1.2.9,1.2l10.6,1.4c.6.1,1.2-.3,1.2-.9s-.3-1.1-.9-1.2Z"/>
    <path class="cls-23" d="m1401.9,87.6l-2-.3c-.6-.1-1.2.3-1.2.9-.1.6.3,1.2.9,1.2l2,.3c.6.1,1.2-.3,1.2-.9s-.3-1.1-.9-1.2Z"/>
    <g>
      <ellipse class="cls-34" cx="1398.72" cy="52.66" rx="3.2" ry="2.4" transform="translate(1158.55 1431.61) rotate(-82.28)"/>
      <ellipse class="cls-34" cx="1415.94" cy="54.95" rx="3.2" ry="2.4" transform="translate(1171.18 1450.66) rotate(-82.28)"/>
      <path class="cls-34" d="m1407.9,68c1.5.2,2.9-.4,3.6-1.4.3-.5.2-1.2-.4-1.5-.5-.3-1.2-.2-1.5.4-.2.3-.7.5-1.4.4-.6-.1-1.1-.5-1.2-.8v-.1h0l.1-1.1c1.3-.4,3.2-1.3,2.7-2.5-.4-1.1-1.5-1.3-2.3-1.4-.6,0-1.2-.1-1.8-.2-.8-.2-1.9-.2-2.6.7-.8,1,.8,2.3,1.9,3.1l-.1.9c0,.1-.1.2-.1.3-.2.3-.7.5-1.4.4-.7-.1-1.2-.5-1.3-.8-.2-.6-.8-.9-1.4-.7s-.9.8-.7,1.4c.4,1.2,1.6,2.1,3.1,2.3,1,.1,1.9-.1,2.6-.5.5.5,1.3,1,2.2,1.1h0Z"/>
      <path class="cls-34" d="m1433.4,95.7l-2.6-11c-.2-.9-1-1.7-2-1.8l-7.9-1.1c0-2.7-.4-5.3-1.3-7.7,1.9-.8,3.5-1.8,4.8-3.1,4.1-4.1,4.5-10.7,3.1-16.9,3.6-7.3,3.4-12.7,3-15.2-.3-1.7-2-3-3.7-2.7-2.1.3-5.2,1.2-9,3.7-2.4-1.5-5.2-2.5-8.1-2.9-3-.4-5.9-.2-8.6.6-2.9-3.4-5.8-5.1-7.7-6-1.7-.7-3.5,0-4.3,1.6-1.1,2.4-2.7,7.5-1.2,15.4-3,5.5-4.4,12.1-1.5,17.1.9,1.6,2.2,3,3.8,4.3-1.5,2.1-2.6,4.5-3.3,7.1l-7.9-1.1c-1-.1-1.9.4-2.4,1.2l-5.5,9.9c-.4.7-.4,1.5,0,2.2.3.7,1,1.2,1.8,1.3l2.1.3-2.6,19.1c-.3,1.9,1.1,3.6,3,3.9l46.9,6.4c1.9.3,3.6-1.1,3.9-3l2.6-19.1,2.1.3c.8.1,1.5-.2,2.1-.8.4-.4.6-1.2.4-2h0Zm-6.3-57.4c.6-.1,1.1.3,1.2.9.3,2,.5,6.1-1.8,11.6-.2-.7-.5-1.3-.7-1.9,0-.1-.1-.1-.1-.2.9-2.7,1.4-5.2,1.3-7.6,0-.3-.2-.7-.5-.9s-.6-.3-1-.2c-1.6.5-3.1,1.2-4.6,2.1-.4-.4-.8-.7-1.2-1,3.1-1.7,5.7-2.5,7.4-2.8Zm-2.9,7.8c-.5-.8-1.1-1.5-1.7-2.2.7-.4,1.5-.8,2.2-1.1,0,1-.2,2.1-.5,3.3Zm-33.2-11.9c.3-.5.9-.8,1.4-.5,1.6.7,3.8,2.1,6.3,4.8-.5.2-1,.4-1.4.7-1.2-1.3-2.5-2.4-3.9-3.3-.3-.2-.6-.2-1-.1-.3.1-.6.4-.7.7-.7,2.3-.9,4.8-.8,7.7-.1.1-.2.2-.3.3-.4.5-.7,1-1.1,1.5-.6-6.1.7-10,1.5-11.8h0Zm2.2,7.7c0-1.2.1-2.3.3-3.4.7.5,1.3,1.1,1.9,1.7-.8.5-1.5,1.1-2.2,1.7h0Zm-5,22.8c-3.6-6.3.9-14.9,4.3-19.1,4-4.9,10.3-7.3,16.8-6.5,6.5.9,11.9,4.9,14.5,10.9,2.1,4.8,4.2,14.3-1,19.4-3.6,3.5-9.5,4.8-18.1,3.7-8.6-1.3-14-4-16.5-8.4h0Zm3.8,6.6c3.1,1.9,7.2,3.2,12.4,4h0c5.2.6,9.5.4,13.1-.6.7,2.1,1.1,4.4,1.1,6.7l-29.6-4c.7-2.2,1.7-4.3,3-6.1h0Zm31.9,45.8c-.1.7-.7,1.2-1.4,1.1l-46.9-6.4c-.7-.1-1.2-.7-1.1-1.4l2.6-19.1,49.4,6.7-2.6,19.1h0Zm7.2-20.7l-58.1-8.1,5.6-10,50,6.9,2.6,11.2h-.1Z"/>
      <path class="cls-34" d="m1400.5,104.3c-2.4-.3-4.7,1.2-5.8,3.6-.6,1.3.1,2.8,1.5,3.2,1,.3,2.1.6,3.3.7,1.2.2,2.4.2,3.4.2,1.5,0,2.5-1.2,2.3-2.7-.5-2.6-2.3-4.7-4.7-5h0Z"/>
      <path class="cls-34" d="m1394.9,103.8c1,.1,1.9-.8,2.1-2s-.5-2.3-1.5-2.5c-1-.1-1.9.8-2.1,2-.1,1.2.5,2.4,1.5,2.5Z"/>
      <path class="cls-34" d="m1400.8,102.3c1,.1,1.9-.8,2.1-2s-.5-2.3-1.5-2.5-1.9.8-2.1,2c-.1,1.2.5,2.3,1.5,2.5Z"/>
      <path class="cls-34" d="m1406.1,105.3c1,.1,1.9-.8,2.1-2s-.5-2.3-1.5-2.5c-1-.1-1.9.8-2.1,2-.2,1.3.5,2.4,1.5,2.5Z"/>
    </g>
    <ellipse class="cls-33" cx="1399.44" cy="52.17" rx=".9" ry=".7" transform="translate(1159.65 1431.9) rotate(-82.28)"/>
    <ellipse class="cls-33" cx="1415.45" cy="54.33" rx=".9" ry=".7" transform="translate(1171.38 1449.64) rotate(-82.28)"/>
    <path class="cls-33" d="m1408.9,61.3c.1.6-.8,1.2-1,1.1-.1-.1.3-.4.1-.9-.1-.5-.5-.7-.5-.7.2-.3,1.2-.1,1.4.5h0Z"/>
  </g>
  <g>
    <circle class="cls-26" cx="1595.7" cy="46.7" r="13.1"/>
    <path class="cls-9" d="m1615.5,63.2l-34.6,4.4c-1.6.2-2.7,1.7-2.5,3.3l3.8,29.2c4.4.6,8.1,3.5,9.5,7.7h0l30.8-12.6-3.8-29.5c-.2-1.5-1.7-2.7-3.2-2.5Z"/>
    <path class="cls-37" d="m1590.7,78.5l-5.8.7-1.5-11.5,11.5-1.5,1.5,11.5-5.7.8Z"/>
    <path class="cls-24" d="m1575.1,105.2c4.4.6,8.1,3.5,9.5,7.7h0c.2.7.4,1.5.5,2.3.2,1.3.1,2.6-.1,3.8h0c-.9,4.7-4.8,8.5-9.9,9.2-6.4.8-12.2-3.7-13-10-.5-3.8,1-7.5,3.6-10,1.4-1.3,3.2-2.3,5.1-2.8.4-.1.9-.2,1.3-.2,1-.1,2-.1,3,0h0Z"/>
    <path class="cls-18" d="m1572.9,111c3.2-.4,6.1,1.8,6.5,5s-1.8,6.1-5,6.5-6.1-1.8-6.5-5c-.5-3.2,1.8-6.1,5-6.5Z"/>
    <path d="m1570.8,106c-4,.5-6.8,4.2-6.3,8.1.5,4,4.2,6.8,8.1,6.3,4-.5,6.8-4.2,6.3-8.1-.5-4-4.2-6.8-8.1-6.3Zm1.5,11.5c-2.4.3-4.6-1.4-4.9-3.8s1.4-4.6,3.8-4.9,4.6,1.4,4.9,3.8c.2,2.4-1.5,4.6-3.8,4.9Z"/>
    <circle cx="1571.7" cy="113.2" r="1.5"/>
    <path d="m1620.7,96.9c-.9-2.2-3.4-3.3-5.7-2.4l-.3.1-3.6-27.6c-.3-2.4-2.5-4.1-4.9-3.8l-34.6,4.4c-2.4.3-4.1,2.5-3.8,4.9l3.5,27.5c-.5,0-1,0-1.5.1h-.2l-13.5-34.5c-1.7-4.4-6.1-7-10.8-6.4l-15.7,2c-2.4.3-4.1,2.5-3.8,4.9.3,2.4,2.5,4.1,4.9,3.8l15.7-2c.7-.1,1.3.3,1.5.9l13.9,35.4c-2.5,2.7-3.8,6.5-3.3,10.5.9,7.2,7.5,12.2,14.6,11.3,5.4-.7,9.6-4.6,11-9.6l34-13.9c2.5-.8,3.6-3.3,2.6-5.6h0Zm-32.4-25.4l.7,5.8-2.9.4-1.1-8.6,8.6-1.1,1.1,8.6-2.9.4-.7-5.8-2.8.3Zm-17.5.8c-.1-.8.5-1.5,1.3-1.6l10.1-1.3,1.5,11.5,14.4-1.9-1.5-11.5,10.1-1.3c.8-.1,1.5.5,1.6,1.3l3.7,28.4-28.5,11.7c-1.8-3.6-5.1-6.2-9-7.1l-3.7-28.2Zm-41.8-6.4c-.1-.8.5-1.5,1.3-1.6l7.2-.9.4,2.9-7.2.9c-.9.1-1.6-.5-1.7-1.3Zm21.9,2c-.7-1.9-2.6-3-4.6-2.7l-5.6.7-.4-2.9,5.6-.7c3.3-.4,6.5,1.4,7.7,4.6l13.4,34.1c-.9.4-1.8.8-2.6,1.4l-13.5-34.5Zm22.1,55.4c-5.6.7-10.7-3.2-11.4-8.8-.7-5.6,3.2-10.7,8.8-11.4,5.6-.7,10.7,3.2,11.4,8.8.7,5.5-3.2,10.7-8.8,11.4Zm44.3-23.4l-32.5,13.3c0-.6,0-1.2-.1-1.7-.1-.4-.1-.9-.2-1.3l31.7-13c.8-.3,1.6.1,1.9.8.3.8-.1,1.6-.8,1.9h0Z"/>
    <path d="m1582.6,95.7l2.9-.4.4,2.9-2.9.4-.4-2.9Z"/>
    <path d="m1588.4,94.9l2.9-.4.4,2.9-2.9.4-.4-2.9Z"/>
    <path d="m1576.9,96.4l2.9-.4.4,2.9-2.9.4-.4-2.9Z"/>
    <path d="m1576.1,90.6l14.4-1.9.4,2.9-14.4,1.9-.4-2.9Z"/>
    <path d="m1588.6,62.6c7.9-1,13.6-8.3,12.6-16.3s-8.3-13.6-16.3-12.6c-7.9,1-13.6,8.3-12.6,16.3s8.4,13.7,16.3,12.6Zm-3.3-25.9c6.4-.8,12.2,3.7,13,10s-3.7,12.2-10,13c-6.4.8-12.2-3.7-13-10s3.6-12.2,10-13Z"/>
    <path d="m1590.9,49.6l-2.8-2.1-1-8.1-2.9.4,1.2,9.2,3.7,2.9,1.8-2.3Z"/>
  </g>
  <g>
    <path class="cls-22" d="m1759.9,61.3l-7.6-.8,1.4-12.9c0-.4.4-.6.7-.6l6.3.7c.4,0,.6.4.6.7l-1.4,12.9Z"/>
    <path class="cls-1" d="m1761.3,48.4c0-.4-.2-.7-.6-.7l-3.8-.4c.3.1.6.4.5.7l-1.4,12.9-3.8-.4h0l7.6.8,1.5-12.9Z"/>
    <path class="cls-35" d="m1774,48.9l-22.6,17-3.2,29.3c-.1.8.5,1.5,1.2,1.6l38.2,4.2c.8.1,1.5-.5,1.6-1.2l3.2-29.3-18.4-21.6Z"/>
    <path class="cls-36" d="m1792.4,70.4l-18.4-21.5-3.7,2.8,15.3,17.9-3.2,29.3c-.1.8-.8,1.3-1.6,1.2l6.8.8c.8.1,1.5-.5,1.6-1.2l3.2-29.3Z"/>
    <path class="cls-39" d="m1798.9,77.7c-.7-.1-1.4-.4-1.8-1l-23.1-27-28.5,21.3c-1.2.9-3,.7-4-.6-.9-1.2-.7-3,.6-4l30.6-23c1.2-.9,2.9-.7,3.9.4l24.9,29.1c1,1.2.9,3-.3,4-.7.6-1.5.8-2.3.8Z"/>
    <path class="cls-15" d="m1801.5,73.6c-.6.5-1.4.7-2.1.7-.7-.1-1.4-.4-1.8-1l-23.1-27-28.4,21.4c-1.2.9-3,.7-4-.6-.1-.1-.1-.2-.2-.3-.9,1-1,2.5-.2,3.6.9,1.2,2.7,1.5,4,.6l28.4-21.4,23.1,27c.5.6,1.2.9,1.8,1,.8.1,1.5-.1,2.1-.7,1.1-.9,1.3-2.4.6-3.6-.1.2-.2.2-.2.3Z"/>
    <path class="cls-41" d="m1776.7,73.6l-10.5-1.2c-.5-.1-.9.3-1,.8l-2.7,24.9,12.3,1.3,2.7-24.9c0-.4-.3-.8-.8-.9Z"/>
    <path class="cls-25" d="m1777.5,74.6c.1-.5-.3-.9-.8-1l-5.9-.7c.4.2.6.5.5.9l-2.7,24.9,6.2.7,2.7-24.8Z"/>
    <path class="cls-32" d="m1802,89.8l-16.7,8.7-4.6-.8v-1.8c0-2.7-1.8-5.1-4.5-5.8l-12.2-2.8c-2.8-.7-5.5-2-7.8-3.7h0c-3.2-2.4-6.9-3.8-10.9-4.3l-8.9-1-2.3,20.4,22.6,11.6c.9.4,1.8.5,2.7.5h0l24.1-.8c1.9-.1,3.7-.7,5.2-1.7l16.9-12.1c1.5-1.1,2-3.1,1.1-4.7h0c-.6-1.9-2.9-2.6-4.7-1.7Z"/>
    <path class="cls-19" d="m1807.2,91.8l-16.6,11.1c-1.6,1-4,1.5-5.9,1.6l-24.3-.9h0c-.9,0-1.9-.1-2.7-.5l-22.6-11.6-.8,7.2,22.6,11.6c.4.2.9.3,1.3.4.1,0,.2,0,.3.1.3,0,.7.1,1,0h0l24.1-.8c.6,0,1.2-.1,1.7-.2.1,0,.2-.1.3-.1.6-.1,1.1-.3,1.6-.6.1,0,.2-.1.3-.1.4-.2.8-.4,1.2-.7l16.9-12.1c1.7-1.1,2.2-2.9,1.6-4.4Z"/>
    <path class="cls-41" d="m1736.5,105.9l-3.5-.4c-1.6-.2-2.8-1.6-2.6-3.3l2.9-26.1c.2-1.6,1.6-2.8,3.3-2.6l3.5.4c1.6.2,2.8,1.6,2.6,3.3l-2.9,26.1c-.2,1.6-1.7,2.8-3.3,2.6Z"/>
    <path class="cls-25" d="m1740.1,73.9l-3.5-.4h-.6c1.3.4,2.2,1.7,2,3.1l-2.9,26.1c-.2,1.4-1.3,2.5-2.7,2.6.2.1.4.1.6.1l3.5.4c1.6.2,3.1-1,3.3-2.6l2.9-26.1c.1-1.5-1-3-2.6-3.2Z"/>
    <path d="m1807.6,94.7c-1.2-2.3-4.1-3.2-6.5-2l-10.6,5.5,2.3-20.6,3.1,3.6c.7.8,1.6,1.2,2.6,1.4h0c1.1.1,2.2-.2,3-.9.8-.7,1.3-1.6,1.4-2.7.1-1-.3-2.1-.9-2.9l-5.8-6.8c-.4-.5-1.1-.5-1.6-.1s-.5,1.1-.1,1.6l5.8,6.8c.3.3.4.8.4,1.3s-.2.9-.6,1.2c-.4.3-.8.5-1.3.4h0c-.4,0-.8-.3-1.1-.6l-4.7-5.5h0l-18.4-21.5c-.4-.4-1-.5-1.5-.2l-22.6,17h0l-5.8,4.4c-.4.3-.8.4-1.3.3s-.9-.3-1.1-.7c-.3-.4-.4-.8-.3-1.3s.3-.9.7-1.1l30.6-23c.7-.5,1.8-.4,2.3.3l14.5,17c.4.5,1.1.5,1.6.1s.5-1.1.1-1.6l-14.8-17.1c-1.3-1.6-3.7-1.8-5.4-.6l-9.8,7.4.2-1.5c.1-.5-.1-.9-.4-1.3-.3-.4-.7-.6-1.2-.7h0l-6.3-.7c-.5-.1-.9.1-1.3.4-.4.3-.6.7-.7,1.2l-1.2,10.7-9.9,7.5c-.8.6-1.4,1.6-1.5,2.6s.1,2.1.8,2.9c.6.8,1.6,1.4,2.6,1.5h.1c1,.1,2-.2,2.8-.8l3.8-2.8-1.1,9.7c-1.1-.3-2.2-.5-3.3-.6l-1.9-.2.1-.7c.2-2.2-1.4-4.2-3.6-4.5l-3.5-.4c-2.2-.2-4.2,1.4-4.5,3.6l-1.9,17.3c-.1.6.4,1.2,1,1.2.6.1,1.2-.4,1.2-1l1.9-17.3c.1-1,1-1.7,2-1.6l3.5.4c1,.1,1.7,1,1.6,2l-.2,1.8-2.5,22.6-.2,1.7c-.1,1-1,1.7-2,1.6l-3.5-.4c-1-.1-1.7-1-1.6-2l.2-1.9c.1-.6-.4-1.2-1-1.2-.6-.1-1.2.4-1.2,1l-.2,1.9c-.2,2.2,1.4,4.2,3.6,4.5l3.5.4c2.2.2,4.2-1.4,4.5-3.6v-.2l15.5,7.9h.1c.7.3,1.4.5,2.1.5.4,0,.8.1,1.1,0l24.1-.8h0c2.1-.1,4.1-.7,5.8-1.9h0l16.9-12.1c2-1.1,2.6-3.7,1.5-5.8Zm-47.9-42.2l-.3,3.1-6,4.5.9-8.2,5.4.6Zm-9.1,30.8l1.4-12.3,21.4-16.1,17.4,20.3-2.6,24.1-3.4,1.7-3.3-.6v-.9c0-3.1-2-5.9-4.9-6.8l1.6-14.3c.1-1.1-.7-2.1-1.8-2.2h0l-10.5-1.2c-.5-.1-1.1.1-1.5.4s-.7.8-.7,1.3l-1.4,12.5c-2-.7-3.9-1.7-5.7-3-.2-.2-.4-.3-.7-.5-.1-.1-.2-.1-.3-.2-.1-.1-.3-.2-.4-.3-.1-.1-.2-.1-.3-.2-.1-.1-.2-.1-.4-.2-.1-.1-.2-.1-.4-.2-.1-.1-.2-.1-.3-.2-.1-.1-.3-.1-.4-.2s-.2-.1-.3-.2c-.1-.1-.3-.1-.4-.2s-.2-.1-.4-.2c-.1-.1-.2-.1-.4-.2-.1-.1-.3-.1-.4-.2-.1,0-.2-.1-.3-.1-.1-.1-.3-.1-.4-.2,0,.4-.1.4-.2.4Zm15.2-5.9l10.1,1.1-1.5,13.9-9.1-2.1-.9-.2,1.4-12.7Zm39,21.6l-16.9,12.1c-1.4.9-3,1.4-4.7,1.5l-24.1.8h0c-.7,0-1.5-.1-2.2-.4l-16.2-8.3,2.3-20.7,1.9.2c1.6.2,3.2.5,4.7,1.1q.1,0,.2.1c.2.1.4.1.6.2h0c.2.1.4.1.6.2h.1c.2.1.4.2.6.3h.1c.4.2.8.4,1.2.6h.1c.2.1.4.2.6.3h0c.2.1.4.2.5.3h.1c.2.1.3.2.5.3,0,0,.1,0,.1.1.2.1.3.2.5.4,2.5,1.8,5.2,3.1,8.2,3.9h0l12.2,2.8q.1,0,.2.1c1.8.5,3.1,2,3.4,3.9,0,.3.1.5.1.8v.5l-23-4.6c-.6-.1-1.2.3-1.3.9-.1.6.3,1.2.9,1.3l24.3,4.9h0l4.6.8h.7q.1,0,.2-.1l4.2-2.2h0l12.4-6.5c1.3-.7,2.8-.2,3.5,1.1.2,1.2-.1,2.6-1.2,3.3Z"/>
  </g>
  <text class="cls-31" transform="translate(663.65 103.1) scale(1.03 1)"><tspan x="0" y="0">No Result Found</tspan></text>
</svg>