<?xml version="1.0" encoding="utf-8"?>
<!-- Generator: Adobe Illustrator 27.3.1, SVG Export Plug-In . SVG Version: 6.00 Build 0)  -->
<svg version="1.1" id="Layer_1" xmlns="http://www.w3.org/2000/svg" xmlns:xlink="http://www.w3.org/1999/xlink" x="0px" y="0px"
	 viewBox="0 0 1906.1 155.3" style="enable-background:new 0 0 1906.1 155.3;" xml:space="preserve">
<style type="text/css">
	.st0{fill:none;stroke:#231F20;stroke-width:3.1;stroke-miterlimit:10;}
	.st1{fill:#8A8C8E;}
	.st2{fill:none;stroke:#231F20;stroke-width:3.1;stroke-linecap:round;stroke-linejoin:round;}
	.st3{fill:#FFFFFF;}
	.st4{fill:none;stroke:#231F20;stroke-width:3.1;stroke-linecap:round;stroke-miterlimit:10;}
	.st5{fill:none;}
	.st6{fill:#00AABC;}
	.st7{fill:none;stroke:#231F20;stroke-width:3.1;stroke-linejoin:round;}
</style>
<line class="st0" x1="266.7" y1="81.6" x2="112.4" y2="81.6"/>
<polyline class="st0" points="289.9,81.6 331.6,81.6 339.5,81.6 452.3,81.6 "/>
<line class="st0" x1="687.9" y1="81.6" x2="565.5" y2="81.6"/>
<polyline class="st0" points="723.3,81.6 724.7,81.6 779.5,81.6 793.3,81.6 794.8,81.6 816.1,81.6 "/>
<polyline class="st0" points="949.6,81.6 951,81.6 955.6,81.6 962.7,81.6 969.7,81.6 976.4,81.6 988.9,81.6 "/>
<polyline class="st0" points="1197.3,81.6 1240.9,81.6 1245.6,81.6 1271.2,81.6 1285.1,81.6 1287.5,81.6 1393.6,81.6 1428.1,81.6 
	1462.5,81.6 1584.2,81.6 "/>
<polyline class="st0" points="1904.6,81.6 1854.5,81.6 1848,81.6 1827.8,81.6 1810.9,81.6 1806.1,81.6 "/>
<polyline class="st0" points="1794.9,81.6 1674.7,81.6 1669.2,81.6 1627.3,81.6 1621.3,81.6 1602.7,81.6 "/>
<polyline class="st0" points="1168.2,81.6 1052.3,81.6 1049,81.6 1020.1,81.6 1015.2,81.6 "/>
<line class="st0" x1="940.4" y1="81.6" x2="827.2" y2="81.6"/>
<line class="st0" x1="711" y1="81.6" x2="697.6" y2="81.6"/>
<polyline class="st0" points="546.4,81.6 506.8,81.6 471.3,81.6 "/>
<line class="st0" x1="103.4" y1="81.6" x2="1.5" y2="81.6"/>
</svg>
