<?xml version="1.0" encoding="utf-8"?>
<!-- Generator: Adobe Illustrator 27.3.1, SVG Export Plug-In . SVG Version: 6.00 Build 0)  -->
<svg version="1.1" xmlns="http://www.w3.org/2000/svg" xmlns:xlink="http://www.w3.org/1999/xlink" x="0px" y="0px"
	 viewBox="0 0 1906.1 155.3" style="enable-background:new 0 0 1906.1 155.3;" xml:space="preserve">
<style type="text/css">
	.st0{fill:none;stroke:#000000;stroke-width:3;stroke-miterlimit:10;}
	.st1{display:none;}
	.st2{display:inline;fill:none;stroke:#231F20;stroke-width:3.1;stroke-miterlimit:10;}
	.st3{fill:#8A8C8E;}
	.st4{fill:none;stroke:#231F20;stroke-width:3.1;stroke-linecap:round;stroke-linejoin:round;}
	.st5{fill:#FFFFFF;}
	.st6{fill:none;stroke:#231F20;stroke-width:3.1;stroke-linecap:round;stroke-miterlimit:10;}
	.st7{fill:none;stroke:#231F20;stroke-width:3.1;stroke-miterlimit:10;}
	.st8{fill:none;}
	.st9{fill:#00AABC;}
	.st10{fill:none;stroke:#231F20;stroke-width:3.1;stroke-linejoin:round;}
	.st11{fill:#7FC3EA;}
	.st12{fill:#CEE7F4;}
	.st13{fill:#83FFE7;}
	.st14{fill:#F8C460;}
	.st15{fill:#A7D0E1;}
	.st16{fill:#80BBCE;}
	.st17{fill:#FAAF42;}
	.st18{fill:#7A838B;}
	.st19{fill:#5D6972;}
	.st20{fill:#E4E3FF;}
	.st21{fill:#D0D0F7;}
	.st22{fill:#C6C6F1;}
	.st23{fill:#D8D5F7;}
	.st24{fill:#FC6559;}
	.st25{fill:#F05543;}
	.st26{fill:#3D6687;}
	.st27{fill:#CCDFED;}
	.st28{fill:#BAD5E5;}
	.st29{fill:#61AFF6;}
	.st30{fill:#399AEA;}
	.st31{fill:#499DE2;}
	.st32{fill:#E3F2FF;}
	.st33{fill:#EEF7FF;}
	.st34{fill:#585966;}
	.st35{fill:#6E6F80;}
	.st36{fill:#D8ECFE;}
	.st37{fill:#3C87D0;}
	.st38{fill:#C4E2FF;}
	.st39{fill:#60B8FE;}
	.st40{fill:none;stroke:#000000;stroke-width:3;stroke-linecap:round;stroke-linejoin:round;stroke-miterlimit:13.3333;}
	
		.st41{fill:none;stroke:#000000;stroke-width:3;stroke-linecap:round;stroke-linejoin:round;stroke-miterlimit:13.3333;stroke-dasharray:62.6667,46.6667,486.6666,0;}
	.st42{fill:#F8972C;}
	.st43{fill:#FF881D;}
	.st44{fill:#FF99CA;}
	.st45{fill:#EFEFEF;}
	.st46{fill:#EFC48F;}
	.st47{fill:#EAB478;}
	.st48{fill:#FFDEBB;}
	.st49{fill:#1C0C12;}
	.st50{fill:#69D6F4;}
	.st51{fill:#D3A06C;}
	.st52{fill:#B27946;}
	.st53{fill:#969FAA;}
	.st54{fill:#E6E9ED;}
	.st55{fill:#FFB125;}
	.st56{fill:#FF901D;}
	.st57{fill:#E1EFFB;}
	.st58{fill:#FF4C4C;}
	.st59{fill:#F33939;}
	.st60{fill:#2D5871;}
	.st61{fill:#1D4859;}
	.st62{fill:#FED9A8;}
	.st63{fill:#F4C892;}
</style>
<g id="Layer_2">
	<path class="st0" d="M1581.9,82.3c108.1,0,216.1,0,324.2,0"/>
	<path class="st0" d="M1389.6,82.3c55.4,0,110.4,0,165.8,0"/>
	<path class="st0" d="M1188,82.3c63,0,125,0,187.6,0"/>
	<path class="st0" d="M1046.1,82.3c40.9,0,82.9,0,123.7,0"/>
	<path class="st0" d="M814.6,82.3c69.4,0,138.4,0,207.7,0"/>
	<path class="st0" d="M685.9,82.3c38.1,0,77.1,0,114.8,0"/>
	<path class="st0" d="M503.5,82.3c54.5,0,110.5,0,165.6,0"/>
	<path class="st0" d="M434.9,82.3c17,0,34.1,0,51.1,0"/>
	<path class="st0" d="M259.4,82.3c54.6,0,109.6,0,165,0"/>
	<path class="st0" d="M97.8,82.3c49.2,0,98.2,0,147,0"/>
	<path class="st0" d="M0,82.3c28.9,0,57.7,0,86.6,0"/>
</g>
<g id="Layer_1">
	<g class="st1">
		<line class="st2" x1="266.7" y1="81.6" x2="112.4" y2="81.6"/>
		<polyline class="st2" points="289.9,81.6 331.6,81.6 339.5,81.6 452.3,81.6 		"/>
		<line class="st2" x1="687.9" y1="81.6" x2="565.5" y2="81.6"/>
		<polyline class="st2" points="723.3,81.6 724.7,81.6 779.5,81.6 793.3,81.6 794.8,81.6 816.1,81.6 		"/>
		<polyline class="st2" points="949.6,81.6 951,81.6 955.6,81.6 962.7,81.6 969.7,81.6 976.4,81.6 988.9,81.6 		"/>
		<polyline class="st2" points="1197.3,81.6 1240.9,81.6 1245.6,81.6 1271.2,81.6 1285.1,81.6 1287.5,81.6 1393.6,81.6 1428.1,81.6 
			1462.5,81.6 1584.2,81.6 		"/>
		<polyline class="st2" points="1904.6,81.6 1854.5,81.6 1848,81.6 1827.8,81.6 1810.9,81.6 1806.1,81.6 		"/>
		<polyline class="st2" points="1794.9,81.6 1674.7,81.6 1669.2,81.6 1627.3,81.6 1621.3,81.6 1602.7,81.6 		"/>
		<polyline class="st2" points="1168.2,81.6 1052.3,81.6 1049,81.6 1020.1,81.6 1015.2,81.6 		"/>
		<line class="st2" x1="940.4" y1="81.6" x2="827.2" y2="81.6"/>
		<line class="st2" x1="711" y1="81.6" x2="697.6" y2="81.6"/>
		<polyline class="st2" points="546.4,81.6 506.8,81.6 471.3,81.6 		"/>
		<line class="st2" x1="103.4" y1="81.6" x2="1.5" y2="81.6"/>
	</g>
	<g>
		<path class="st11" d="M141.3,94.7C141.3,94.7,141.3,94.7,141.3,94.7c3.2-3.7,4.6-8.7,3.6-13.6c-0.8-4.1-3.2-7.6-6.7-10
			c-3.5-2.4-7.7-3.2-11.8-2.5c-3.6,0.7-6.9,2.5-9.2,5.3c0,0,0,0,0,0c-3.2-1.7-6.9-2.2-10.6-1.4c-4.1,0.9-7.6,3.3-9.9,6.8
			c-0.5,0.8-1,1.6-1.3,2.4c0,0.1-0.1,0.2-0.1,0.2c-1.2,2.9-1.6,6-1,9.1c0.9,4.9,4.1,9,8.4,11.2c0,0,0,0,0,0l0.8,4.2
			c1.4,7,5.8,13,12.1,16.3l0,0c0.4,0.2,0.8,0.3,1.2,0.2l0,0c3.4-0.7,5.7-4,5-7.4l-1.3-6.5c-0.4-1.9,0.9-3.8,2.8-4.1
			c1.9-0.3,3.6,1,4,2.8l1.3,6.4c0.7,3.4,4,5.7,7.4,5c0.4-0.1,0.8-0.3,1-0.6c4.5-5.5,6.4-12.7,5-19.7L141.3,94.7z"/>
		<path class="st12" d="M144.9,81.1c1,4.9-0.3,9.9-3.6,13.6c0,0,0,0,0,0l0.8,4.2c1.4,7-0.5,14.2-5,19.7c-0.1,0.2-0.3,0.3-0.5,0.4
			c-0.2,0.1-0.4,0.2-0.6,0.2c-0.9,0.2-1.8,0.2-2.7,0c4.4-5.5,6.2-12.6,4.9-19.5l-0.8-4.1c2.7-3.2,3.7-8.6,2.9-13
			c-1.2-6.3-6.7-11.3-13.1-10.7c-7.1,0.6-8.3,5.5-14.4,6.7c2.3-0.5,4.4-4.7,4.4-4.7c0,0,0,0,0,0c1.9-2.2,4.3-3.8,7.1-4.7
			c0.7-0.2,1.4-0.4,2.2-0.5c4.1-0.7,8.3,0.2,11.8,2.5C141.7,73.5,144,77,144.9,81.1L144.9,81.1z"/>
	</g>
	<g>
		<circle class="st13" cx="91.5" cy="122.2" r="5.7"/>
		<circle class="st13" cx="133.8" cy="59.3" r="5.7"/>
		<ellipse transform="matrix(0.9812 -0.1928 0.1928 0.9812 -11.6586 17.146)" class="st13" cx="82.3" cy="68.5" rx="4.7" ry="4.7"/>
	</g>
	<g>
		<path d="M134.1,102.6c-0.5-0.1-1,0.3-1.1,0.9c-0.5,4.4-2.3,8.4-5.1,11.8c0,0,0,0,0,0c-0.1,0.1-0.3,0.2-0.5,0.3
			c-2.9,0.6-5.7-1.3-6.3-4.2l-1.3-6.5c-0.2-1.2-0.9-2.2-1.9-2.9c-1-0.7-2.2-0.9-3.4-0.6c-2.3,0.5-3.8,2.9-3.4,5.3l1.3,6.4
			c0.6,2.9-1.3,5.7-4.2,6.3c-0.2,0-0.4,0-0.5-0.1c-6.1-3.2-10.3-9-11.6-15.7l-0.8-4.2c-0.1-0.3-0.2-0.5-0.5-0.7
			c-1.1-0.5-2.1-1.2-3-2c-0.4-0.4-1-0.3-1.4,0.1c-0.4,0.4-0.3,1,0.1,1.4c0.9,0.8,1.9,1.5,3,2l0.7,3.8c1.4,7.3,6,13.5,12.6,17
			c0.6,0.3,1.2,0.4,1.8,0.3c3.9-0.8,6.5-4.6,5.8-8.6l-1.3-6.4c-0.3-1.4,0.6-2.7,1.9-3c0.7-0.1,1.3,0,1.9,0.3c0.6,0.4,1,0.9,1.1,1.6
			l1.3,6.5c0.8,4,4.6,6.5,8.6,5.8c0.6-0.1,1.2-0.5,1.6-0.9c0,0,0,0,0,0c3-3.7,4.9-8.1,5.5-12.8C135.1,103.2,134.7,102.7,134.1,102.6
			L134.1,102.6z"/>
		<path d="M130.3,67.6c-3.7-2.5-8.1-3.5-12.5-2.7c-3.6,0.7-6.8,2.4-9.3,5c-3.3-1.5-6.9-1.9-10.5-1.2c-4.3,0.9-8.1,3.5-10.5,7.2
			c-2.5,3.7-3.4,8.2-2.5,12.5c0.4,2.1,1.2,4.1,2.3,5.9c0.3,0.5,0.9,0.6,1.4,0.3c0.5-0.3,0.6-0.9,0.3-1.4c-1-1.6-1.7-3.4-2.1-5.2
			c-0.7-3.8,0.1-7.8,2.3-11.1c2.2-3.3,5.5-5.5,9.3-6.4c3-0.6,6-0.4,8.7,0.8c-2,2.1-3.8,3.5-5.5,4.3c-0.5,0.2-0.7,0.8-0.4,1.3
			c0.2,0.4,0.6,0.6,1.1,0.5c0.1,0,0.2,0,0.2-0.1c2.2-1.1,4.5-3,7-5.8c2.2-2.6,5.2-4.3,8.7-5c3.9-0.7,7.8,0.1,11,2.4
			c3.3,2.2,5.5,5.5,6.3,9.4c0.9,4.6-0.3,9.2-3.3,12.8c-0.2,0.2-0.3,0.5-0.2,0.8l0.8,4.2c0.2,0.9,0.3,1.9,0.4,2.8
			c0,0.5,0.5,0.9,1,0.9c0,0,0.1,0,0.1,0c0.5-0.1,0.8-0.5,0.8-1c-0.1-1-0.2-2-0.4-3l-0.7-3.8c3.2-3.9,4.5-9.1,3.5-14.1
			C136.5,73.8,134,70.1,130.3,67.6L130.3,67.6z"/>
		<path d="M96.9,120.2c-2.6,0.5-5-1.2-5.5-3.7c-0.1-0.5-0.6-0.9-1.2-0.8s-0.9,0.6-0.8,1.2c0.5,2.6-1.2,5-3.7,5.5
			c-0.5,0.1-0.9,0.6-0.8,1.2s0.6,0.9,1.2,0.8c2.6-0.5,5,1.2,5.5,3.7c0.1,0.5,0.6,0.9,1.2,0.8c0.5-0.1,0.9-0.6,0.8-1.2
			c-0.5-2.6,1.2-5,3.7-5.5c0.5-0.1,0.9-0.6,0.8-1.2S97.4,120.1,96.9,120.2L96.9,120.2z M91.9,124.4c-0.7-0.8-1.6-1.4-2.6-1.7
			c0.8-0.7,1.4-1.6,1.7-2.6c0.7,0.8,1.6,1.4,2.6,1.7C92.9,122.5,92.3,123.4,91.9,124.4L91.9,124.4z"/>
		<path d="M139.2,57.3c-2.6,0.5-5-1.2-5.5-3.7c-0.1-0.5-0.6-0.9-1.2-0.8c-0.5,0.1-0.9,0.6-0.8,1.2c0.5,2.6-1.2,5-3.7,5.5
			c-0.5,0.1-0.9,0.6-0.8,1.2c0.1,0.5,0.6,0.9,1.2,0.8c2.6-0.5,5,1.2,5.5,3.7c0.1,0.5,0.6,0.9,1.2,0.8c0.5-0.1,0.9-0.6,0.8-1.2
			c-0.5-2.6,1.2-5,3.7-5.5c0.5-0.1,0.9-0.6,0.8-1.2C140.2,57.5,139.7,57.2,139.2,57.3z M134.2,61.5c-0.7-0.8-1.6-1.4-2.6-1.7
			c0.8-0.7,1.4-1.6,1.7-2.6c0.7,0.8,1.6,1.4,2.6,1.7C135.2,59.6,134.6,60.5,134.2,61.5z"/>
		<path d="M77.8,70.4c2-0.4,4,0.9,4.4,3c0.1,0.5,0.6,0.9,1.2,0.8s0.9-0.6,0.8-1.2c-0.4-2,0.9-4,3-4.4c0.5-0.1,0.9-0.6,0.8-1.2
			c-0.1-0.5-0.6-0.9-1.2-0.8c-2,0.4-4-0.9-4.4-3c-0.1-0.5-0.6-0.9-1.2-0.8s-0.9,0.6-0.8,1.2c0.4,2-0.9,4-3,4.4
			c-0.5,0.1-0.9,0.6-0.8,1.2C76.8,70.1,77.3,70.5,77.8,70.4z M82,67c0.5,0.5,1.1,0.9,1.8,1.2c-0.5,0.5-0.9,1.1-1.2,1.8
			c-0.5-0.5-1.1-0.9-1.8-1.2C81.3,68.3,81.7,67.7,82,67z"/>
	</g>
	<g>
		<path class="st14" d="M251.3,93.9l1.5-3.6c3.9-9.2,12.4-15.7,22.4-16.8l3.9-0.5c9.9-1.2,19.8,3,25.7,11.1L307,87
			c1,1.3,2.6,2.2,4.2,2.3l4.9,0.2c5.5,0.3,9.9,4.4,10.6,9.8l0.5,4.5c0.4,3.1-1.8,5.8-4.9,6.2l-74.8,9c-3.1,0.4-5.8-1.8-6.2-4.9
			l-1.1-9.5c-0.3-2.5,1.2-5,3.6-5.9l4.5-1.7C249.6,96.4,250.7,95.3,251.3,93.9z"/>
		<path class="st15" d="M229.3,101.5l0.5,4l4.2-0.5l0.7-5.7l-5.3,0.6C229.2,100.5,229.2,101,229.3,101.5z"/>
		<path class="st16" d="M234.4,101.7c-0.3-0.7-0.6-1.4-0.9-2.2l-4.2,0.5c0,0.1,0,0.3-0.1,0.4c0,0.1,0,0.2,0,0.3c0,0.3,0,0.6,0,0.9
			l0.5,4l4.2-0.5L234.4,101.7z"/>
		<path class="st15" d="M306.7,90.7c0.4,3.1,3.1,5.2,6.2,4.9c0,0,0,0,0,0l2.7-0.3c-0.4-2-1.4-3.8-2.8-5.3L306.7,90.7z"/>
		<path class="st17" d="M303,106.6c-0.5-4.6-4.7-7.9-9.3-7.4c-4.6,0.5-7.9,4.7-7.4,9.3c0.1,0.5,0.2,1,0.3,1.5l16.4-2
			C303.1,107.6,303.1,107.1,303,106.6z"/>
		<circle class="st18" cx="297.3" cy="105.9" r="8.4"/>
		<circle class="st15" cx="297.3" cy="105.9" r="2.8"/>
		<circle class="st18" cx="250.2" cy="111.5" r="8.4"/>
		<path class="st19" d="M254.8,115.2c-4.6,0.6-8.8-2.7-9.3-7.3c-0.1-1.2,0-2.4,0.3-3.5c-4,2.4-5.2,7.5-2.9,11.5
			c2.4,4,7.5,5.2,11.5,2.9c1.8-1.1,3.1-2.7,3.7-4.7C257.1,114.7,256,115.1,254.8,115.2z"/>
		<path class="st19" d="M302,109.6c-4.6,0.6-8.8-2.7-9.3-7.3c-0.1-1.2,0-2.4,0.3-3.5c-4,2.4-5.2,7.5-2.9,11.5
			c2.4,4,7.5,5.2,11.5,2.9c1.8-1.1,3.1-2.7,3.7-4.7C304.3,109,303.1,109.4,302,109.6z"/>
		<circle class="st15" cx="250.2" cy="111.5" r="2.8"/>
		<g>
			<path class="st15" d="M266.3,80.4l0.7-0.1l1.7,13.9l-19.4,2.3l0.5-1.7C251.8,87.1,258.3,81.4,266.3,80.4z"/>
			<path class="st16" d="M254.3,91.7l0.5-1.7c0.6-2.3,1.7-4.5,3.1-6.4c-4,2.6-6.9,6.6-8.1,11.2l-0.5,1.7l19.4-2.3l-0.5-4.2
				L254.3,91.7z"/>
		</g>
		<g>
			<path class="st15" d="M296.6,91.7L277.2,94l-1.7-13.9l0.7-0.1c7.9-0.9,15.6,3,19.5,10L296.6,91.7z"/>
			<path class="st5" d="M286.1,85.8c-0.3,0-0.5,0-0.8-0.1c-0.4-0.2-0.9-0.4-1.4-0.6c-0.7-0.3-1.1-1.1-0.8-1.8
				c0.3-0.7,1.1-1.1,1.8-0.8c0.5,0.2,1.1,0.4,1.6,0.7c0.7,0.3,1,1.2,0.7,1.9C287,85.4,286.5,85.7,286.1,85.8z"/>
			<path class="st16" d="M294.2,87.8l-7.8,0.9c-3.1,0.4-5.8-1.8-6.2-4.9l-0.5-3.8c-1.2-0.1-2.3,0-3.5,0.1l-0.7,0.1l1.7,13.9
				l19.4-2.3l-0.9-1.6C295.3,89.3,294.8,88.5,294.2,87.8z"/>
		</g>
		<path d="M305.3,85.1l-4.9-0.2c-1.3-0.1-2.4-0.7-3.2-1.7l-2.2-2.9c-6.3-8.4-16.6-12.9-27-11.6l-3.9,0.5c-10.4,1.3-19.4,8-23.5,17.7
			l-1.5,3.6c-0.4,1-1.3,1.9-2.4,2.3l-4.5,1.7c-2.3,0.9-3.9,2.8-4.4,5.2c0,0,0,0.1,0,0.1c-0.1,0.7-0.1,1.4-0.1,2l1.1,9.5
			c0.5,3.8,3.9,6.6,7.8,6.1l5.1-0.6c2.9,4.6,8.9,5.9,13.4,3.1c1.9-1.2,3.3-3,4.1-5.2l29.6-3.5c2.9,4.6,8.9,5.9,13.4,3.1
			c1.9-1.2,3.3-3,4.1-5.2l5.1-0.6c3.8-0.5,6.6-3.9,6.1-7.8l-0.5-4.5C316.5,90.1,311.5,85.4,305.3,85.1z M312.3,91.5
			c0.7,0.8,1.2,1.7,1.5,2.6l-1.1,0.1c-1.1,0.1-2.2-0.2-3.1-0.9c-0.5-0.4-0.9-0.9-1.2-1.4L312.3,91.5z M230.7,101.2l2.4-0.3l-0.4,2.9
			L231,104l-0.3-2.6C230.7,101.3,230.7,101.3,230.7,101.2z M251,118.5c-3.8,0.5-7.3-2.3-7.8-6.1c-0.5-3.8,2.3-7.3,6.1-7.8
			c3.8-0.5,7.3,2.3,7.8,6.1C257.6,114.5,254.8,118,251,118.5z M298.1,112.8c-3.8,0.5-7.3-2.3-7.8-6.1c-0.5-3.8,2.3-7.3,6.1-7.8
			s7.3,2.3,7.8,6.1C304.7,108.9,302,112.4,298.1,112.8z M311.3,105.6l-4.3,0.5c0.2-5.4-4.1-9.9-9.5-10.1c-5.4-0.2-9.9,4.1-10.1,9.5
			c0,1,0.1,2,0.3,2.9l-27.9,3.3c0.2-5.4-4.1-9.9-9.5-10.1c-5.4-0.2-9.9,4.1-10.1,9.5c0,1,0.1,2,0.3,2.9l-4.3,0.5
			c-2.3,0.3-4.4-1.4-4.7-3.7l-0.5-4.2l2.8-0.3c0.6-0.1,1.1-0.6,1.2-1.2l0.7-5.7c0.1-0.8-0.4-1.5-1.2-1.6c-0.1,0-0.2,0-0.3,0
			l-2.9,0.4c0.5-0.6,1.1-1,1.8-1.3l4.5-1.7c1.8-0.7,3.2-2.1,3.9-3.8l1.5-3.6c3.7-8.8,11.8-14.9,21.3-16l3.9-0.5
			c9.5-1.1,18.8,2.9,24.5,10.5l2.2,2.9c1.2,1.7,3.2,2.7,5.3,2.8l4.9,0.2c1.4,0.1,2.8,0.4,4.1,1.1l-2.7,0.3c-0.8,0.1-1.3,0.8-1.2,1.6
			c0.5,3.8,3.9,6.6,7.7,6.1c0,0,0,0,0,0l1.4-0.2l0.5,4.2C315.3,103.3,313.6,105.4,311.3,105.6z"/>
		<path d="M274.4,90.4l-2.8,0.3c-0.8,0.1-1.3,0.8-1.2,1.6c0.1,0.8,0.8,1.3,1.6,1.2l2.8-0.3c0.8-0.1,1.3-0.8,1.2-1.6
			C275.8,90.8,275.1,90.3,274.4,90.4z"/>
		<path d="M248,93.5l-2.8,0.3c-0.8,0.1-1.3,0.8-1.2,1.6s0.8,1.3,1.6,1.2l2.8-0.3c0.8-0.1,1.3-0.8,1.2-1.6
			C249.5,94,248.8,93.4,248,93.5z"/>
		<path d="M296.8,101.7c-2.3,0.3-3.9,2.4-3.7,4.7c0.3,2.3,2.4,3.9,4.7,3.7c2.3-0.3,3.9-2.4,3.7-4.7
			C301.2,103.1,299.1,101.5,296.8,101.7z M297.5,107.3c-0.8,0.1-1.5-0.5-1.6-1.2c-0.1-0.8,0.5-1.5,1.2-1.6c0.8-0.1,1.5,0.5,1.6,1.2
			C298.8,106.5,298.2,107.2,297.5,107.3z"/>
		<path d="M249.7,107.4c-2.3,0.3-3.9,2.4-3.7,4.7s2.4,3.9,4.7,3.7c2.3-0.3,3.9-2.4,3.7-4.7C254.1,108.7,252,107.1,249.7,107.4z
			 M250.3,112.9c-0.8,0.1-1.5-0.5-1.6-1.2s0.5-1.5,1.2-1.6s1.5,0.5,1.6,1.2S251.1,112.8,250.3,112.9z"/>
		<path d="M263.9,73.3l-0.7,0.1c-8.5,1-15.5,7.1-17.7,15.4l-0.5,1.7c-0.2,0.7,0.2,1.5,1,1.7c0.2,0,0.4,0.1,0.5,0l19.4-2.3
			c0.8-0.1,1.3-0.8,1.2-1.6l-1.7-13.9C265.3,73.8,264.6,73.3,263.9,73.3z M264.2,87.4l-16,1.9c1.9-6.8,7.6-11.9,14.6-13L264.2,87.4z
			"/>
		<path d="M291,83.4c-1.5-2.7-3.6-5.1-6.1-6.9c-0.6-0.5-1.5-0.3-1.9,0.3s-0.3,1.5,0.3,1.9l0,0c2.1,1.5,3.9,3.5,5.2,5.8l-16,1.9
			l-1.3-11.1c2.7-0.2,5.4,0.2,7.9,1.1c0.7,0.3,1.5-0.1,1.8-0.8c0.3-0.7-0.1-1.5-0.8-1.8l0,0c-3.2-1.2-6.6-1.6-9.9-1.2l-0.7,0.1
			c-0.8,0.1-1.3,0.8-1.2,1.6l1.7,13.9c0.1,0.8,0.8,1.3,1.6,1.2l19.4-2.3c0.8-0.1,1.3-0.8,1.2-1.6c0-0.2-0.1-0.3-0.2-0.5L291,83.4z"
			/>
	</g>
	<g>
		<path class="st20" d="M500.3,82.6v-0.3h0.3l2.5-30.8c0.1-0.7-0.5-1.4-1.2-1.5c-0.7-0.1-1.4,0.2-2,0.6c-2.9,2.3-4.8,5.7-5.4,9.3
			c-1.2,9.2-0.9,18.5,0.9,27.6l4.8,0.4l0.4-5.4H500.3z"/>
		<path class="st21" d="M500.3,82.6v-0.3h0.3l2.5-30.8c0.1-0.7-0.5-1.4-1.2-1.5c-0.7-0.1-1.4,0.1-2,0.6c0.1,0,0.3,0,0.4,0
			c0.7,0.1,1.3,0.7,1.2,1.5l-2.9,35.8l1.5,0.1l0.4-5.4H500.3z"/>
		<circle class="st20" cx="460.9" cy="78.9" r="27.3"/>
		<path class="st21" d="M484.8,65.8c5.8,14.3-1.1,30.6-15.3,36.4c-9.6,3.9-20.5,2.2-28.5-4.5c10.3,11,27.6,11.5,38.6,1.2
			C488.7,90.3,490.9,76.7,484.8,65.8L484.8,65.8z"/>
		<circle class="st21" cx="460.9" cy="78.9" r="18.6"/>
		<path class="st22" d="M442.5,79.6c0.8-10.7,10.2-18.7,20.9-17.9c4.3,0.3,8.4,2.1,11.6,5.1c-6.7-7.8-18.4-8.7-26.2-2
			c-4.8,4.1-7.2,10.3-6.4,16.5C442.4,80.7,442.4,80.2,442.5,79.6z"/>
		<path class="st23" d="M476.4,68.6c4.3,9.3,0.2,20.4-9.1,24.7c-8.3,3.8-18.2,1-23.3-6.6c4.3,9.3,15.3,13.4,24.7,9.2
			c9.3-4.3,13.4-15.3,9.2-24.7C477.4,70.3,476.9,69.4,476.4,68.6L476.4,68.6z"/>
		<path class="st24" d="M496.9,111.9l-2.4-0.2c-1.6-0.1-2.7-1.5-2.6-3.1c0-0.1,0-0.1,0-0.2l3.1-21.8c0.1-0.7,0.8-1.3,1.5-1.2
			l2.5,0.2c0.7,0.1,1.3,0.7,1.3,1.4l-0.4,22c0,1.6-1.3,2.8-2.9,2.8C497,111.9,497,111.9,496.9,111.9L496.9,111.9z"/>
		<path class="st25" d="M500.4,87.1c0-0.8-0.6-1.4-1.3-1.4l-0.1,0c0,0.1,0.1,0.3,0.1,0.4l-0.4,22c0,1.6-1.3,2.8-2.9,2.8
			c-0.1,0-0.1,0-0.2,0l-2.4-0.2c-0.2,0-0.5-0.1-0.7-0.2c0.5,0.7,1.2,1.1,2.1,1.2l2.4,0.2c1.6,0.1,2.9-1,3.1-2.6c0-0.1,0-0.1,0-0.2
			L500.4,87.1z"/>
		<path class="st20" d="M432,47.6c-0.6-0.1-1.2,0.4-1.3,1.1l0,0l-0.8,10.2c-0.1,0.8-0.8,1.4-1.6,1.4s-1.4-0.8-1.4-1.6l0.8-10.3
			c0.1-0.6-0.4-1.2-1-1.2c-0.6-0.1-1.2,0.4-1.2,1l-0.8,10.3c-0.1,0.8-0.8,1.4-1.6,1.4s-1.4-0.8-1.4-1.6l0.8-10.2
			c0.1-0.6-0.4-1.2-1.1-1.3l0,0c-0.6,0-1.2,0.4-1.2,1l-1.5,12c-0.3,1.9,0.4,3.9,1.8,5.3c1.7,1.8,2.5,4.3,2.2,6.8l-1.4,10.5l5.1,0.4
			l0.3-10.4c0-2.6,1.3-5,3.4-6.4c1.6-1.2,2.6-3,2.7-5l0.4-12.1C433,48.2,432.6,47.7,432,47.6L432,47.6z"/>
		<g>
			<path class="st21" d="M421.8,47.5l-0.8,10.2c0,0.7,0.4,1.3,1,1.5c-0.2-0.3-0.3-0.6-0.3-1l0.8-10.2c0-0.6-0.3-1.1-0.9-1.2
				C421.7,47,421.8,47.3,421.8,47.5z"/>
			<path class="st21" d="M427,47.9l-0.8,10.3c0,0.7,0.4,1.3,1,1.5c-0.2-0.3-0.3-0.6-0.3-1l0.8-10.3c0-0.6-0.3-1.1-0.9-1.2
				C427,47.4,427,47.7,427,47.9z"/>
			<path class="st21" d="M433,48.8c0-0.6-0.4-1-0.9-1.1c0.1,0.2,0.2,0.4,0.2,0.7l-0.4,12.1c-0.1,2-1.1,3.8-2.7,5
				c-2.1,1.5-3.3,3.9-3.4,6.4l-0.4,10.8l0.8,0.1l0.3-10.4c0-2.6,1.3-5,3.4-6.4c1.6-1.2,2.6-3,2.7-5L433,48.8z"/>
		</g>
		<path class="st24" d="M420.5,106l2.6,0.2c1.6,0.2,3.1-1,3.3-2.6c0-0.1,0-0.1,0-0.2l0.3-22.4c0-0.8-0.6-1.4-1.4-1.5l-2.8-0.2
			c-0.8-0.1-1.5,0.5-1.7,1.2l-3.3,22.2c-0.2,1.6,1,3.1,2.6,3.3C420.4,106,420.4,106,420.5,106z"/>
		<path class="st25" d="M423.3,104.9l-2.8-0.2c-1.3-0.1-2.4-0.9-2.9-2l0,0.1c-0.2,1.6,1,3.1,2.6,3.3c0.1,0,0.1,0,0.2,0l2.6,0.2
			c1.6,0.2,3.1-1,3.3-2.6c0-0.1,0-0.1,0-0.2l0-0.1C425.8,104.4,424.6,105,423.3,104.9z"/>
		<path class="st5" d="M450.8,57.6c-0.4-0.7-1.3-1-2-0.6c0,0,0,0,0,0c-1.4,0.8-2.8,1.7-4,2.8c-0.6,0.5-0.7,1.5-0.2,2.1
			c0.5,0.6,1.5,0.7,2.1,0.2c0,0,0,0,0,0c1.1-0.9,2.3-1.8,3.6-2.5C450.9,59.2,451.2,58.3,450.8,57.6
			C450.8,57.6,450.8,57.6,450.8,57.6z"/>
		<circle class="st5" cx="442.4" cy="64.4" r="1.6"/>
		<path d="M437.6,64.2l0.5-14.9c0-0.8-0.6-1.5-1.5-1.5c-0.8,0-1.5,0.6-1.5,1.5l-0.5,14.9c-0.1,1.8-1,3.4-2.4,4.5
			c-2.8,2-4.4,5.1-4.4,8.5l0,5.6l-2.5-0.2l0.9-5.8c0.5-3.3-0.6-6.6-2.9-8.9c-1.2-1.3-1.8-3-1.6-4.7l1.9-14.8
			c0.1-0.8-0.5-1.6-1.3-1.7s-1.6,0.5-1.7,1.3l-1.9,14.8c-0.3,2.6,0.5,5.3,2.4,7.2c1.7,1.7,2.4,4.1,2.1,6.4c0,0-1.3,8.7-1.3,8.7
			l-3.3,22.2c-0.2,1.2,0.2,2.4,0.9,3.3c0.8,1,2,1.6,3.3,1.7l2.7,0.2c1.3,0.1,2.6-0.3,3.5-1.2c0.9-0.8,1.4-1.9,1.4-3.1l0.3-22.4
			c0-0.1,0.1-8.6,0.1-8.6c0-2.4,1.2-4.7,3.2-6.1C436.2,69.4,437.5,66.9,437.6,64.2z M427.4,108.1c0,0.4-0.2,0.7-0.4,0.9
			c-0.4,0.3-0.8,0.5-1.3,0.4l-2.6-0.2c-0.5,0-0.9-0.3-1.2-0.6c-0.2-0.3-0.3-0.6-0.3-1l3.3-22.1l2.8,0.2L427.4,108.1z"/>
		<path d="M425.9,62.9c0.8,0.1,1.5-0.5,1.6-1.4l1-12.7c0.1-0.8-0.5-1.5-1.4-1.6s-1.5,0.5-1.6,1.4l-1,12.7l0,0
			C424.5,62.1,425.1,62.8,425.9,62.9z"/>
		<path d="M430.6,63.2c0.8,0.1,1.5-0.5,1.6-1.4l1-12.7c0.1-0.8-0.5-1.5-1.4-1.6s-1.5,0.5-1.6,1.4l-1,12.7l0,0
			C429.1,62.4,429.7,63.2,430.6,63.2z"/>
		<path d="M453.6,69.3c0.4,0,0.8-0.1,1.2-0.4c0.7-0.4,1-1.3,0.5-2c-0.4-0.7-1.3-1-2-0.5c-0.4,0.2-0.7,0.5-0.9,0.9
			c-0.2,0.4-0.1,0.9,0.1,1.3C452.7,69,453.1,69.2,453.6,69.3z"/>
		<path d="M504.2,91.3l2.8-34.9c0.1-1.6-1-2.9-2.6-3.1c-1.1-0.1-2.2,0.2-3,0.9c-3.2,2.6-5.3,6.2-5.9,10.3c-1.2,8.8-1,17.7,0.6,26.4
			c0,0.1-3.2,22.1-3.2,22.1c-0.3,2.4,1.3,4.6,3.7,4.9c0.1,0,0.2,0,0.3,0l2.4,0.2c2.4,0.2,4.5-1.6,4.7-4c0-0.1,0-0.2,0-0.3
			C503.9,113.9,504.3,91.5,504.2,91.3L504.2,91.3z M500.9,113.9c0,0.4-0.2,0.7-0.4,1l0,0c-0.3,0.3-0.6,0.4-1,0.3L497,115
			c-0.7-0.1-1.3-0.7-1.2-1.4c0,0,0-0.1,0-0.1l3-21.7l2.5,0.1L500.9,113.9z M501.4,88.9l-2.3-0.2c-0.1,0-0.3,0-0.4,0
			c-1.3-7.9-1.4-15.9-0.3-23.8l0,0c0.5-3.3,2.2-6.3,4.8-8.4c0.2-0.2,0.5-0.3,0.8-0.3L501.4,88.9z"/>
		<path d="M465.7,55c-15.9-1.3-29.8,10.6-31,26.4c-1.3,15.9,10.6,29.8,26.4,31c15.9,1.3,29.8-10.6,31-26.4
			C493.3,70.2,481.5,56.3,465.7,55z M489.1,85.8c-1.2,14.2-13.6,24.8-27.8,23.7l0,0c-14.2-1.1-24.8-13.6-23.7-27.8
			c1.1-14.2,13.6-24.8,27.8-23.7C479.6,59.1,490.2,71.6,489.1,85.8z"/>
		<path d="M457.8,64.4C457.8,64.4,457.7,64.4,457.8,64.4c-0.8,0.3-1.3,1.1-1,1.9c0.2,0.8,1.1,1.2,1.9,1c5.9-1.7,12.4-0.1,16.7,4.3
			c6.7,6.6,6.7,17.4,0.1,24.1c-6.6,6.7-17.4,6.7-24.1,0.1c-6.7-6.6-6.7-17.4-0.1-24.1c0.6-0.6,0.6-1.5,0-2.1s-1.5-0.6-2.1,0
			c-3.4,3.4-5.4,7.8-5.8,12.6c-0.9,11.1,7.4,20.8,18.4,21.7c11.1,0.9,20.8-7.4,21.7-18.4c0.2-2.4-0.1-4.8-0.7-7.2
			C479.6,67.5,468.5,61.3,457.8,64.4z"/>
	</g>
	<g>
		<g>
			<path class="st26" d="M624.3,97l-4.4,1.7l-2.4-6.2c-0.2-0.6,0.1-1.3,0.7-1.6l2.1-0.8c0.6-0.2,1.3,0.1,1.6,0.7L624.3,97z"/>
			<path class="st26" d="M631.7,90.6l-4.4,1.7l-2.4-6.2c-0.2-0.6,0.1-1.3,0.7-1.6l2.1-0.8c0.6-0.2,1.3,0.1,1.6,0.7L631.7,90.6z"/>
			<path class="st26" d="M670.8,79l4.4-1.7l-2.4-6.2c-0.2-0.6-0.9-0.9-1.6-0.7l-2.1,0.8c-0.6,0.2-0.9,0.9-0.7,1.6L670.8,79z"/>
			<path class="st26" d="M660.8,79.7l4.4-1.7l-2.4-6.2c-0.2-0.6-0.9-0.9-1.6-0.7l-2.1,0.8c-0.6,0.2-0.9,0.9-0.7,1.6L660.8,79.7z"/>
		</g>
		<g>
			<path class="st27" d="M681.4,79.2l-1.5-3.8c-0.7-1.7-2.3-2.8-4.1-2.9l-37-0.8l-26.8,25.6c-1.3,1.3-1.7,3.2-1.1,4.9l1.5,3.8
				c0.4,1.1,1.8,1.6,2.9,1l30.5-17.2l28.7-6.6h-0.4V83h0.6v0.1l5.2-1.2C681.2,81.6,681.9,80.3,681.4,79.2z"/>
			<path class="st27" d="M672.3,114.3l-15.6,3.6l-14,7.8c-0.5,0.3-1,0-1.2-0.4l-0.8-1.9c-0.5-1.3-0.2-2.8,0.9-3.7l11.7-10.5
				l15.7-0.1c1.4,0,2.7,0.8,3.2,2.2l0.8,1.9C673.1,113.7,672.8,114.2,672.3,114.3z"/>
		</g>
		<g>
			<path class="st28" d="M664.3,110.9c0.6,1.6-0.3,3.3-2,3.7l-6.4,1.5l0,0l-14.9,8.3l0,0l0.3,0.9c0.2,0.5,0.8,0.7,1.2,0.4l14-7.8
				l15.6-3.6c0.5-0.1,0.8-0.7,0.6-1.2l-0.8-1.9c-0.5-1.3-1.8-2.2-3.2-2.2l-5.4,0.1l0,0L664.3,110.9z"/>
			<path class="st28" d="M681.4,79.2l-1.5-3.8c-0.2-0.5-0.5-1-0.8-1.3c-0.1-0.1-0.2-0.2-0.3-0.3c-0.2-0.2-0.4-0.4-0.7-0.5
				c-0.7-0.4-1.5-0.7-2.3-0.7l-5.4-0.1l-0.3,0c0.8,0.5,1.5,1.3,1.9,2.2l1.5,3.8c0.4,1.1-0.2,2.4-1.4,2.7l-27.2,6.2l-32.6,18.3
				l0.1,0.3c0.3,0.8,1,1.2,1.7,1.3c0.4,0,0.8,0,1.2-0.3l19.8-11.2l10.7-6l12-2.7l16.8-3.8h-0.4V83h0.6v0.1l5.2-1.2
				c0.4-0.1,0.8-0.3,1-0.6C681.5,80.7,681.7,79.9,681.4,79.2z"/>
		</g>
		<path class="st29" d="M659.8,119.4L659.8,119.4c0.1,2.4-3,3.6-4.5,1.8l0,0c-3.5-4.1-6.5-8.7-8.8-13.5L630.6,74
			c-2.3-5-2.7-10.7-0.9-15.9l0.5-1.4c0.7-2,3-2.9,4.8-1.9l1.3,0.7c4.8,2.7,8.4,7.1,10,12.3l10.9,35.5
			C658.8,108.6,659.7,114,659.8,119.4z"/>
		<path class="st30" d="M636.3,55.6l-1.3-0.7c-1.8-1-4.1-0.1-4.8,1.9l-0.5,1.4c0,0,0,0,0,0.1c4.8,2.7,8.3,7.1,10,12.3l18.6,51.3
			c0.9-0.4,1.7-1.3,1.6-2.5l0,0c-0.2-5.4-1-10.8-2.6-15.9l-10.9-35.5C644.7,62.7,641.1,58.3,636.3,55.6z"/>
		<path d="M633.5,68.6c-0.3,0.5-0.1,1,0.4,1.3c0.5,0.3,1,0.1,1.3-0.4c1.4-2.5,3.7-3.4,6.4-2.5c0.2,0.1,0.5,0.1,0.7,0
			c0.3-0.1,0.5-0.3,0.6-0.6c0.2-0.5-0.1-1-0.6-1.2C638.6,64,635.3,65.2,633.5,68.6z"/>
		<path d="M618.8,110.5l23.5-13.2l4.7,10c0.2,0.5,0.8,0.7,1.3,0.5c0.2-0.1,0.4-0.3,0.5-0.5c0.1-0.2,0.1-0.5,0-0.8l-5.1-10.9
			c0,0,0,0,0,0l0,0l-9.1-19.2c-2.3-4.8-2.6-10.1-0.9-15.1l0.5-1.4c0.2-0.7,0.7-1.2,1.4-1.5c0.7-0.3,1.4-0.2,2,0.1l1.3,0.7
			c3,1.7,5.6,4.1,7.4,7.1c0.3,0.5,0.9,0.6,1.3,0.3c0.5-0.3,0.6-0.9,0.3-1.3c-2-3.2-4.8-5.9-8.1-7.8l-1.3-0.7
			c-1.1-0.6-2.4-0.7-3.6-0.3c-1.2,0.5-2.1,1.4-2.5,2.6l-0.5,1.4c-1.8,5.5-1.5,11.4,1,16.6l1.5,3.2l-4.1,4l-0.1-0.4
			c-0.4-1.1-1.7-1.7-2.8-1.2l-2.1,0.8c-1.1,0.4-1.7,1.7-1.2,2.8l1.1,2.9l-2,1.9l-0.3-0.8c-0.4-1.1-1.7-1.7-2.8-1.2l-2.1,0.8
			c-1.1,0.4-1.7,1.7-1.2,2.8l1.3,3.4l-3.4,3.2c-1.6,1.5-2.1,3.9-1.3,5.9l1.5,3.8c0.3,0.8,1,1.4,1.8,1.7
			C617.2,111,618.1,111,618.8,110.5z M625.6,85.6c0-0.1,0-0.3,0.1-0.3l2.1-0.8c0.1,0,0.3,0,0.3,0.1l0.4,1.1l0,0l-2.2,2.1L625.6,85.6
			z M618.3,92c0-0.1,0-0.3,0.1-0.3l2.1-0.8c0.1,0,0.3,0,0.3,0.1l0.6,1.6l0,0l-2.2,2.1L618.3,92z M616.4,108.3l-1.5-3.8
			c-0.3-0.9-0.3-1.9,0.1-2.7c0.2-0.4,0.5-0.8,0.8-1.1l19.4-18.5c0,0,0,0,0,0l0,0l0,0c0,0,0,0,0,0l0,0l0,0l6.3,13.4l-23.6,13.3
			c-0.3,0.2-0.6,0.2-0.9,0.1C616.7,108.8,616.5,108.6,616.4,108.3z"/>
		<path d="M671.8,69.9l-2.1,0.8c-1.1,0.4-1.7,1.7-1.2,2.8l0.4,1l-3.2-0.1l-1-2.6c-0.4-1.1-1.7-1.7-2.8-1.2l-2.1,0.8
			c-1.1,0.4-1.7,1.7-1.2,2.8l0,0.1l-6.1-0.1l-1-3.3c-0.1-0.2-0.2-0.5-0.2-0.7c-0.2-0.5-0.7-0.8-1.2-0.6c-0.5,0.2-0.8,0.7-0.6,1.2
			c0.1,0.2,0.1,0.4,0.2,0.7l10.9,35.5c0.6,1.9,1,3.7,1.4,5.6c0.5,2.6,0.9,5.3,1.1,8c0,0,0,0,0,0c0,0.7,0.1,1.4,0.1,2.1
			c0,0.8-0.5,1.4-1,1.6c-0.5,0.2-1.3,0.2-1.8-0.5c-0.5-0.6-0.9-1.1-1.4-1.7c-0.2-0.2-0.3-0.4-0.5-0.7c0,0-0.1-0.1-0.1-0.1
			c-0.2-0.2-0.3-0.4-0.5-0.6c0,0-0.1-0.1-0.1-0.1c-0.2-0.2-0.3-0.4-0.5-0.7c0,0-0.1-0.1-0.1-0.1c-0.2-0.2-0.3-0.5-0.5-0.7
			c0,0-0.1-0.1-0.1-0.1c-0.2-0.2-0.3-0.5-0.5-0.7c0,0-0.1-0.1-0.1-0.1c-0.2-0.2-0.3-0.5-0.4-0.7c0-0.1-0.1-0.1-0.1-0.2
			c-0.1-0.2-0.3-0.4-0.4-0.7c0-0.1-0.1-0.1-0.1-0.2c-0.1-0.2-0.3-0.4-0.4-0.6c-0.9-1.5-1.8-3.1-2.6-4.7c-0.2-0.5-0.8-0.7-1.3-0.4
			c-0.5,0.2-0.7,0.8-0.4,1.3c0.7,1.4,1.4,2.7,2.2,4.1l-7.1,6.4c-1.3,1.2-1.8,3.1-1.2,4.8l0.8,1.9c0.2,0.5,0.6,0.9,1.1,1.1
			c0.5,0.2,1,0.1,1.5-0.1l10.6-5.9c0.3,0.3,0.6,0.7,0.9,1c1,1.2,2.5,1.5,4,1c0.9-0.4,1.6-1,2-1.9c0.2-0.5,0.3-1,0.3-1.6
			c0-0.4,0-0.9-0.1-1.3l11.8-2.8c0.5-0.1,1-0.5,1.2-0.9c0,0,0-0.1,0.1-0.1c0.2-0.4,0.2-0.9,0-1.4l-0.8-1.9c-0.6-1.7-2.3-2.8-4.1-2.8
			l-9.5,0.1c-0.4-1.7-0.8-3.4-1.3-5l-4.4-14.3l26.5-6.1c0.8-0.2,1.6-0.7,2-1.5c0-0.1,0.1-0.1,0.1-0.2c0.3-0.7,0.3-1.5,0.1-2.3
			l-1.5-3.8c-0.8-2.1-2.8-3.4-5-3.5l-4.1-0.1l-1.4-3.6C674.2,70,672.9,69.5,671.8,69.9z M646.5,128.2l-0.7-1.8
			c-0.4-0.9-0.1-2,0.6-2.7l6.8-6.1c0,0,0,0.1,0.1,0.1c0.1,0.2,0.2,0.3,0.3,0.5c0,0.1,0.1,0.2,0.1,0.2c0.3,0.5,0.7,1.1,1.1,1.6
			c0,0.1,0.1,0.1,0.1,0.2c0.1,0.2,0.2,0.3,0.3,0.5c0.1,0.1,0.1,0.2,0.2,0.2c0.1,0.1,0.2,0.3,0.3,0.4c0.1,0.1,0.1,0.2,0.2,0.2
			c0.2,0.2,0.4,0.5,0.6,0.7c0.1,0.1,0.1,0.2,0.2,0.3L646.5,128.2z M673.2,113.3c1,0,1.9,0.6,2.3,1.5l0.7,1.8l-11.4,2.7
			c0-0.2,0-0.3,0-0.5c0-0.2,0-0.5-0.1-0.7c0-0.1,0-0.2,0-0.3c0-0.2,0-0.4-0.1-0.6c0-0.1,0-0.2,0-0.3c-0.1-0.6-0.2-1.3-0.3-1.9
			c0-0.1,0-0.2,0-0.2c0-0.2-0.1-0.4-0.1-0.6c0-0.1,0-0.2,0-0.2c0-0.2-0.1-0.4-0.1-0.6L673.2,113.3z M660.3,73.6c0-0.1,0-0.3,0.1-0.3
			l2.1-0.8c0.1,0,0.3,0,0.3,0.1l0.7,1.9l-3-0.1l0,0L660.3,73.6z M683.3,79l1.5,3.8c0.1,0.3,0.1,0.6-0.1,0.9
			c-0.1,0.3-0.4,0.5-0.7,0.5l-26.7,6.1l0,0L653,76.1l0,0l0,0c0,0,0,0,0,0l27.1,0.6c0,0,0,0,0,0l0,0l0,0
			C681.5,76.8,682.8,77.7,683.3,79z M672.8,71.8l1.1,2.9l-3-0.1l-0.7-1.8c0-0.1,0-0.3,0.1-0.3l2.1-0.8l0,0
			C672.6,71.6,672.8,71.7,672.8,71.8z"/>
	</g>
	<g>
		<path class="st31" d="M854.8,57.7c-15.9-3.4-33.1,5-39.7,20.3s-0.7,33.6,12.7,42.7c15.9,3.4,33.1-5,39.7-20.3
			C874,85.2,868.2,66.9,854.8,57.7z"/>
		<polygon class="st5" points="835.4,85.7 839.8,75.3 846.1,78 848,73.6 837.6,69.1 833.1,79.5 822.7,75 818.2,85.5 822.4,87.3 
			824.9,81.3 		"/>
		<polygon class="st32" points="847.7,85.8 843.5,84 846.1,78 839.8,75.3 835.4,85.7 824.9,81.3 822.4,87.3 828.6,90 826.7,94.4 
			824.2,100.4 828.3,102.2 834.6,104.9 839.1,94.4 849.5,98.9 852.1,92.9 854,88.5 		"/>
		<path d="M828.6,60.1c0.7,0.3,1.6,0,1.9-0.7c0.3-0.7,0-1.6-0.7-1.9s-1.6,0-1.9,0.7C827.6,59,827.9,59.8,828.6,60.1z"/>
		<path d="M850.4,53.6c-18-7.7-40,1.1-47.7,19.1c-7.7,18,1.1,40,19.1,47.7c18,7.7,40-1.1,47.7-19.1
			C877.2,83.3,868.5,61.3,850.4,53.6z M822.9,117.8c-16.7-7.2-24.8-27.3-17.6-44c7.2-16.7,27.3-24.8,44-17.6s24.8,27.3,17.6,44
			S839.6,124.9,822.9,117.8z"/>
		<path d="M848,59.2c-4.2-1.8-9-2.7-13.3-2.6c-0.8,0-1.4,0.7-1.4,1.5c0,0.8,0.7,1.4,1.5,1.4c3.8-0.2,8.2,0.7,12,2.3
			c13.7,5.9,20.2,22.3,14.4,36s-22.3,20.2-36,14.4c-13.7-5.9-20.2-22.3-14.4-36c2.7-6.2,7.6-11.4,13.5-14.2c0.7-0.3,1-1.2,0.7-1.9
			c-0.3-0.7-1.2-1-1.9-0.7c-6.5,3.1-12,8.8-14.9,15.6c-6.5,15.1,0.8,33.2,15.9,39.7c15.1,6.5,33.2-0.8,39.7-15.9
			C870.4,83.8,863.1,65.7,848,59.2z"/>
		<path d="M848.6,72.3l-10.4-4.5c-0.7-0.3-1.6,0-1.9,0.7l-3.9,9.1l-9.1-3.9c-0.7-0.3-1.6,0-1.9,0.7l-4.5,10.4
			c-0.3,0.7,0,1.6,0.7,1.9l9.1,3.9l-3.9,9.1c-0.3,0.7,0,1.6,0.7,1.9l10.4,4.5c0.7,0.3,1.6,0,1.9-0.7l3.9-9.1l9.1,3.9
			c0.7,0.3,1.6,0,1.9-0.7l4.5-10.4c0.3-0.7,0-1.6-0.7-1.9l-9.1-3.9l3.9-9.1C849.7,73.4,849.3,72.6,848.6,72.3z M852.1,89.2l-3.4,7.8
			l-9.1-3.9c-0.7-0.3-1.6,0-1.9,0.7l-3.9,9.1l-7.8-3.4l3.9-9.1c0.3-0.7,0-1.6-0.7-1.9l-9.1-3.9l3.4-7.8l9.1,3.9
			c0.7,0.3,1.6,0,1.9-0.7l3.9-9.1l7.8,3.4l-3.9,9.1c-0.3,0.7,0,1.6,0.7,1.9L852.1,89.2z"/>
	</g>
	<g>
		<path class="st33" d="M1046.3,60.8c-0.6,0.1-1.2,0.4-1.7,0.9l-53.9,53.9c-1.2,1.2-1.2,2.5-0.6,3.6c-2.6,0.5-5.1-2.9-2.7-5.3
			l53.9-53.9C1043.1,58.2,1045.4,59.2,1046.3,60.8L1046.3,60.8z"/>
		<path class="st34" d="M1002.6,110.2c1.1,1.1,1.1,2.9,0,4.1l-2,2c-1.1,1.1-3,1.1-4.1,0l-16.4-16.4c-1.1-1.1-1.1-3,0-4.1l2-2
			c1.1-1.1,2.9-1.1,4.1,0L1002.6,110.2z"/>
		<path class="st35" d="M1000.4,116.4c-1.1,0.9-2.8,0.8-3.8-0.2l-16.4-16.4c-1.1-1.1-1.1-3,0-4.1l2-2c1.1-1.1,2.9-1.1,4.1,0l0.8,0.8
			c-0.2,0.2-0.1,0.1-2.2,2.2c-1.1,1.1-1.1,3,0,4.1L1000.4,116.4z"/>
		<path class="st34" d="M1011.9,107.4c1.1,1.1,1.1,3,0,4.1l-2,2c-1.1,1.1-3,1.1-4.1,0l-23-23c-1.1-1.1-1.1-3,0-4.1l2-2
			c1.1-1.1,3-1.1,4.1,0L1011.9,107.4z"/>
		<path class="st35" d="M1009.8,113.6c-1.1,1-2.8,0.9-3.9-0.2l-23-23c-1.1-1.1-1.1-3,0-4.1l2-2c1.1-1.1,3-1.1,4.1,0l0.8,0.8
			c-0.1,0.1,0,0-2.1,2.1c-1.1,1.1-1.1,3,0,4.1L1009.8,113.6z"/>
		<path class="st34" d="M1042.5,76.9l-23-23c-1.1-1.1-3-1.1-4.1,0l-2,2c-1.1,1.1-1.1,3,0,4.1l23,23c1.1,1.1,3,1.1,4.1,0l2-2
			C1043.6,79.8,1043.6,78,1042.5,76.9z"/>
		<rect x="1038" y="83.4" class="st34" width="0" height="0"/>
		<path class="st35" d="M1018,61.1c-1.1-1.1-1.1-3,0-4.1c2.1-2.1,2.1-2.1,2.3-2.3l-0.9-0.9c-1.1-1.1-3-1.1-4.1,0l-2,2
			c-1.1,1.1-1.1,3,0,4.1l23,23c1,1,2.6,1.1,3.7,0.3L1018,61.1z"/>
		<rect x="1038" y="83.4" class="st35" width="0" height="0"/>
		<path class="st34" d="M1045.2,67.5c1.1,1.1,1.1,3,0,4.1l-2,2c-1.1,1.1-3,1.1-4.1,0c0,0-16.4-16.4-16.4-16.4
			c-1.1-1.1-1.1-2.9,0-4.1l2-2c1.1-1.1,3-1.1,4.1,0L1045.2,67.5z"/>
		<path class="st35" d="M1042.7,74c-1.1,0.7-2.6,0.6-3.6-0.4c0,0-16.4-16.4-16.4-16.4c-1.1-1.1-1.1-2.9,0-4.1l2-2
			c1.1-1.1,3-1.1,4.1,0l0.9,0.9c-0.4,0.2-0.3,0.2-2.5,2.4c-1.1,1.1-1.1,3,0,4.1L1042.7,74z"/>
		<g>
			<path d="M1049.9,77.9c1.6-1.6,1.6-4.1,0-5.7l-5.2-5.2l1.8-1.8c4-4-2-10.1-6-6l-1.8,1.8l-5.2-5.2c-1.6-1.6-4.1-1.6-5.7,0l-2,2
				c-0.4,0.4-0.8,0.9-1,1.5l-0.7-0.7c-1.6-1.6-4.1-1.6-5.7,0l-2,2c-1.6,1.6-1.6,4.1,0,5.7l12.9,12.9l-22.8,22.8l-2.8-2.8l20-20
				c1.1-1.1-0.6-2.7-1.6-1.6l-20,20l-8.5-8.5c-1.6-1.6-4.1-1.6-5.7,0l-2,2c-1.6,1.6-1.6,4.1,0,5.7l0.7,0.7c-0.6,0.2-1.1,0.5-1.5,1
				l-2,2c-1.6,1.6-1.6,4.1,0,5.7l5.2,5.2l-1.8,1.8c-4,4,2,10.1,6,6l1.8-1.8l5.2,5.2c1.6,1.6,4.1,1.6,5.7,0l2-2c0.4-0.4,0.8-1,1-1.5
				l0.7,0.7c1.6,1.6,4.1,1.6,5.7,0l2-2c1.6-1.6,1.6-4.1,0-5.7l-8.5-8.5l22.8-22.8l8.5,8.5c1.6,1.6,4.1,1.6,5.7,0l2-2
				c1.6-1.6,1.6-4.1,0-5.7l-0.7-0.7c0.6-0.2,1.1-0.5,1.5-1L1049.9,77.9z M991.1,117.5c-1.9,1.9-4.7-0.9-2.8-2.8l1.8-1.8l2.8,2.8
				L991.1,117.5z M1015.1,116.1l-2,2c-0.7,0.7-1.8,0.7-2.5,0l-16.3-16.3c-1.1-1.1-2.7,0.6-1.6,1.6l13,13c0.7,0.7,0.7,1.8,0,2.5l-2,2
				c-0.7,0.7-1.8,0.7-2.5,0c-8.4-8.4,13.3,13.3-16.4-16.4c-0.7-0.7-0.7-1.8,0-2.5l2-2c0.7-0.7,1.8-0.7,2.5,0
				c1.1,1.1,2.7-0.6,1.6-1.6c-0.3-0.3,1.2,1.2-3.3-3.3c-0.7-0.7-0.7-1.8,0-2.5l2-2c0.7-0.7,1.8-0.7,2.5,0l23,23
				C1015.7,114.4,1015.7,115.5,1015.1,116.1L1015.1,116.1z M1042.1,60.8c1.8-1.8,4.6,0.9,2.8,2.8l-1.8,1.8l-2.8-2.8L1042.1,60.8z
				 M1046.4,78.2c-0.7,0.7-1.8,0.7-2.5,0c-1.1-1.1-2.7,0.6-1.6,1.6l3.3,3.3c0.7,0.7,0.7,1.8,0,2.5l-2,2c-0.7,0.7-1.8,0.7-2.5,0
				l-23-23c-0.7-0.7-0.7-1.8,0-2.5l2-2c0.7-0.7,1.8-0.7,2.5,0l16.1,16.1c1.1,1.1,2.7-0.6,1.6-1.6l-12.8-12.8c-0.7-0.7-0.7-1.8,0-2.5
				l2-2c0.7-0.7,1.8-0.7,2.5,0l16.4,16.4c0.7,0.7,0.7,1.8,0,2.5L1046.4,78.2z"/>
		</g>
	</g>
	<g>
		
			<rect x="1166.5" y="33.1" transform="matrix(0.9835 -0.1807 0.1807 0.9835 6.9112 218.8838)" class="st8" width="76.8" height="76.8"/>
		<path id="path957" class="st36" d="M1208.8,50.7c-1.1-0.8-2.6-0.5-3.3,0.6l-20.4,30.9l6,32.9c0.3,1.8,2.1,3.1,3.9,2.7l47.1-8.7
			c1.8-0.3,3.1-2.1,2.7-3.9l-6-32.9L1208.8,50.7z"/>
		<path id="path961" class="st37" d="M1208.2,112.1l-2.5-13.6c-0.9-5,2.4-9.7,7.3-10.6l0,0c5-0.9,9.7,2.4,10.6,7.3l2.5,13.6
			L1208.2,112.1z"/>
		<path id="path965" class="st38" d="M1208.8,50.7c-1.1-0.8-2.6-0.5-3.3,0.6l-3.7,5.6c0.7-0.2,1.5-0.2,2.1,0.3l30.1,21.7l5.7,30.8
			l2.5-0.5c1.8-0.3,3.1-2.1,2.7-3.9l-6-32.9L1208.8,50.7z"/>
		<path id="path969" class="st39" d="M1204.1,48.5l-23.8,36c-0.5,0.7-1.4,0.9-2.2,0.4l-3.6-2.4c-0.7-0.5-0.9-1.4-0.4-2.1l27.5-41.7
			c1-1.5,3-1.8,4.4-0.8l40.6,29.2c0.7,0.5,0.8,1.4,0.4,2.1l-2.4,3.6c-0.5,0.7-1.5,0.9-2.2,0.4l-35-25.2
			C1206.3,47.1,1204.8,47.4,1204.1,48.5"/>
		<path id="path973" class="st40" d="M1198.9,48.1l-23.8,36c-0.5,0.7-1.4,0.9-2.2,0.4l-3.6-2.4c-0.7-0.5-0.9-1.4-0.4-2.1l27.5-41.7
			c1-1.5,3-1.8,4.4-0.8l40.6,29.2c0.7,0.5,0.8,1.4,0.4,2.1l-2.4,3.6c-0.5,0.7-1.5,0.9-2.2,0.4l-35-25.2
			C1201.1,46.7,1199.6,47,1198.9,48.1z"/>
		<path id="path977" class="st40" d="M1202.3,107.8l-2.5-13.6c-0.9-5,2.4-9.7,7.3-10.6l0,0c5-0.9,9.7,2.4,10.6,7.3l2.5,13.6
			L1202.3,107.8z"/>
		<path id="path981" class="st41" d="M1237.5,97.8c0.3,1.8-0.9,3.6-2.7,3.9l-47.1,8.7c-1.8,0.3-3.6-0.9-3.9-2.7l-5.3-28.7l20.4-30.9
			c0.7-1.1,2.2-1.4,3.3-0.6l30.1,21.7L1237.5,97.8z"/>
	</g>
	<g>
		<path class="st42" d="M1378.3,45.2l2.9-0.8c0.2-0.1,0.3-0.4,0.1-0.5l-2.6-1.6c-0.1,0-0.1-0.1-0.1-0.2l-0.8-2.9
			c-0.1-0.2-0.4-0.3-0.5-0.1l-1.6,2.6c0,0.1-0.1,0.1-0.2,0.1l-2.9,0.8c-0.2,0.1-0.3,0.4-0.1,0.5l2.6,1.6c0.1,0,0.1,0.1,0.1,0.2
			l0.8,2.9c0.1,0.2,0.4,0.3,0.5,0.1l1.6-2.6C1378.2,45.3,1378.3,45.3,1378.3,45.2z"/>
		<circle class="st43" cx="1373.5" cy="55.7" r="0.9"/>
		<path class="st42" d="M1439.1,74.8l1.7-0.5c0.1,0,0.2-0.2,0-0.3l-1.6-0.9c0,0-0.1-0.1-0.1-0.1l-0.5-1.7c0-0.1-0.2-0.2-0.3,0
			l-0.9,1.6c0,0-0.1,0.1-0.1,0.1l-1.7,0.5c-0.1,0-0.2,0.2,0,0.3l1.6,0.9c0,0,0.1,0.1,0.1,0.1l0.5,1.7c0,0.1,0.2,0.2,0.3,0
			L1439.1,74.8C1439,74.8,1439.1,74.8,1439.1,74.8z"/>
		<circle class="st43" cx="1435.6" cy="63" r="2.2"/>
		
			<ellipse transform="matrix(0.1344 -0.9909 0.9909 0.1344 1132.9235 1462.2368)" class="st42" cx="1403.4" cy="82.6" rx="19.7" ry="16.3"/>
		<path class="st42" d="M1409.5,49.2c7.3-9.4,14.1-11.5,17.4-12c1.2-0.2,2.3,0.6,2.5,1.8c0.5,3.2,0.5,10.4-6.2,20.2L1409.5,49.2z"/>
		<path class="st42" d="M1406.5,48.8c-4.6-11-10.6-14.9-13.6-16.2c-1.1-0.5-2.4,0-2.9,1.1c-1.4,3-3.3,9.9,0.6,21.1L1406.5,48.8z"/>
		<path class="st44" d="M1393,50c-1.6-6.5-1-10.8-0.2-13.2c2.2,1.3,5.6,4.1,8.6,10L1393,50z"/>
		<path class="st44" d="M1422.2,53.9c3.3-5.8,3.8-10.2,3.7-12.7c-2.4,0.7-6.5,2.5-11,7.4L1422.2,53.9z"/>
		<path class="st42" d="M1404.6,74.3c6.3,0.7,14.2,0.7,19.1-4c5.2-5.2,3.8-14.6,1.2-20.6c0-0.1-0.1-0.1-0.1-0.2
			c-5.8-13.1-24-15.6-33.1-4.5c0,0.1-0.1,0.1-0.1,0.2c-4.1,5.1-8,13.8-4.3,20.2C1390.7,71.2,1398.3,73.3,1404.6,74.3L1404.6,74.3z"
			/>
		<path class="st43" d="M1423.7,70.2c-4.9,4.8-12.8,4.8-19.1,4c-6.3-1-13.9-3.1-17.3-9c-0.4-0.6-0.7-1.3-0.9-2
			c3.7,4.2,9.9,5.8,15.2,6.7c6,0.7,13.6,0.7,18.3-3.9c5-5,3.7-14,1.2-19.8c0-0.1-0.1-0.1-0.1-0.2c-0.9-1.9-2-3.6-3.3-5.1
			c3,1.9,5.6,4.7,7.2,8.4c0,0.1,0.1,0.1,0.1,0.2C1427.5,55.6,1428.9,65,1423.7,70.2L1423.7,70.2z"/>
		<path class="st45" d="M1415.2,61.8c-4.1-2.5-6.6-4.9-5.8-9c0.8-4.1-1.4-4.1-1.4-4.1s-2.1-0.6-2.4,3.5s-3.4,5.8-8,7.2
			c-4.6,1.3,1.4,12.1,7.3,12.2C1410.6,73.2,1419.3,64.3,1415.2,61.8z"/>
		<path class="st46" d="M1434.3,88.7l-4.5,33.2c-0.2,1.3-1.4,2.2-2.7,2l-46.9-6.4c-1.3-0.2-2.2-1.4-2-2.7l4.5-33.2L1434.3,88.7z"/>
		<path class="st47" d="M1425.8,87.6l-0.7,5.2l-42.2-5.7c-0.3,0-0.7,0-0.9,0.2l-1.7,12.6l40.4,5.5c1.5,0.2,2.6,1.6,2.3,3.1
			l-1.7,12.3c-0.2,1.3-1.4,2.2-2.7,2l8.5,1.2c1.3,0.2,2.5-0.7,2.7-2l2-15l1.7-12.6l0.8-5.6L1425.8,87.6z"/>
		<path class="st46" d="M1435.7,102.1l-57.9-7.9c-0.9-0.1-1.4-1.1-0.9-1.9l5.5-9.9c0.3-0.5,0.8-0.7,1.3-0.6l49.9,6.8
			c0.5,0.1,0.9,0.5,1.1,1l2.6,11C1437.3,101.4,1436.6,102.2,1435.7,102.1L1435.7,102.1z"/>
		<path class="st47" d="M1435.7,102.1l-6.7-0.9c0.9,0.1,1.6-0.7,1.4-1.6l-2.6-11c-0.1-0.5-0.5-0.9-1.1-1l6.7,0.9
			c0.5,0.1,0.9,0.5,1.1,1l2.6,11C1437.3,101.5,1436.6,102.2,1435.7,102.1z"/>
		<path class="st48" d="M1395.9,86.8l-10.6-1.4c-0.6-0.1-1.2,0.3-1.2,0.9c-0.1,0.6,0.3,1.2,0.9,1.2l10.6,1.4
			c0.6,0.1,1.2-0.3,1.2-0.9S1396.5,86.9,1395.9,86.8z"/>
		<path class="st48" d="M1401.9,87.6l-2-0.3c-0.6-0.1-1.2,0.3-1.2,0.9c-0.1,0.6,0.3,1.2,0.9,1.2l2,0.3c0.6,0.1,1.2-0.3,1.2-0.9
			S1402.5,87.7,1401.9,87.6z"/>
		<g>
			
				<ellipse transform="matrix(0.1344 -0.9909 0.9909 0.1344 1158.6154 1431.5634)" class="st49" cx="1398.7" cy="52.6" rx="3.2" ry="2.4"/>
			
				<ellipse transform="matrix(0.1344 -0.9909 0.9909 0.1344 1171.2299 1450.6843)" class="st49" cx="1416" cy="54.9" rx="3.2" ry="2.4"/>
			<path class="st49" d="M1407.9,68c1.5,0.2,2.9-0.4,3.6-1.4c0.3-0.5,0.2-1.2-0.4-1.5c-0.5-0.3-1.2-0.2-1.5,0.4
				c-0.2,0.3-0.7,0.5-1.4,0.4c-0.6-0.1-1.1-0.5-1.2-0.8c0-0.1,0-0.1,0-0.1c0,0,0,0,0,0l0.1-1.1c1.3-0.4,3.2-1.3,2.7-2.5
				c-0.4-1.1-1.5-1.3-2.3-1.4c-0.6,0-1.2-0.1-1.8-0.2c-0.8-0.2-1.9-0.2-2.6,0.7c-0.8,1,0.8,2.3,1.9,3.1l-0.1,0.9
				c0,0.1-0.1,0.2-0.1,0.3c-0.2,0.3-0.7,0.5-1.4,0.4c-0.7-0.1-1.2-0.5-1.3-0.8c-0.2-0.6-0.8-0.9-1.4-0.7c-0.6,0.2-0.9,0.8-0.7,1.4
				c0.4,1.2,1.6,2.1,3.1,2.3c1,0.1,1.9-0.1,2.6-0.5C1406.2,67.4,1407,67.9,1407.9,68L1407.9,68z"/>
			<path class="st49" d="M1433.4,95.7l-2.6-11c-0.2-0.9-1-1.7-2-1.8l-7.9-1.1c0-2.7-0.4-5.3-1.3-7.7c1.9-0.8,3.5-1.8,4.8-3.1
				c4.1-4.1,4.5-10.7,3.1-16.9c3.6-7.3,3.4-12.7,3-15.2c-0.3-1.7-2-3-3.7-2.7c-2.1,0.3-5.2,1.2-9,3.7c-2.4-1.5-5.2-2.5-8.1-2.9
				c-3-0.4-5.9-0.2-8.6,0.6c-2.9-3.4-5.8-5.1-7.7-6c-1.7-0.7-3.5,0-4.3,1.6c-1.1,2.4-2.7,7.5-1.2,15.4c-3,5.5-4.4,12.1-1.5,17.1
				c0.9,1.6,2.2,3,3.8,4.3c-1.5,2.1-2.6,4.5-3.3,7.1l-7.9-1.1c-1-0.1-1.9,0.4-2.4,1.2l-5.5,9.9c-0.4,0.7-0.4,1.5,0,2.2
				c0.3,0.7,1,1.2,1.8,1.3l2.1,0.3l-2.6,19.1c-0.3,1.9,1.1,3.6,3,3.9l46.9,6.4c1.9,0.3,3.6-1.1,3.9-3l2.6-19.1l2.1,0.3
				c0.8,0.1,1.5-0.2,2.1-0.8C1433.4,97.3,1433.6,96.5,1433.4,95.7L1433.4,95.7z M1427.1,38.3c0.6-0.1,1.1,0.3,1.2,0.9
				c0.3,2,0.5,6.1-1.8,11.6c-0.2-0.7-0.5-1.3-0.7-1.9c0-0.1-0.1-0.1-0.1-0.2c0.9-2.7,1.4-5.2,1.3-7.6c0-0.3-0.2-0.7-0.5-0.9
				c-0.3-0.2-0.6-0.3-1-0.2c-1.6,0.5-3.1,1.2-4.6,2.1c-0.4-0.4-0.8-0.7-1.2-1C1422.8,39.4,1425.4,38.6,1427.1,38.3z M1424.2,46.1
				c-0.5-0.8-1.1-1.5-1.7-2.2c0.7-0.4,1.5-0.8,2.2-1.1C1424.7,43.8,1424.5,44.9,1424.2,46.1z M1391,34.2c0.3-0.5,0.9-0.8,1.4-0.5
				c1.6,0.7,3.8,2.1,6.3,4.8c-0.5,0.2-1,0.4-1.4,0.7c-1.2-1.3-2.5-2.4-3.9-3.3c-0.3-0.2-0.6-0.2-1-0.1c-0.3,0.1-0.6,0.4-0.7,0.7
				c-0.7,2.3-0.9,4.8-0.8,7.7c-0.1,0.1-0.2,0.2-0.3,0.3c-0.4,0.5-0.7,1-1.1,1.5C1388.9,39.9,1390.2,36,1391,34.2L1391,34.2z
				 M1393.2,41.9c0-1.2,0.1-2.3,0.3-3.4c0.7,0.5,1.3,1.1,1.9,1.7C1394.6,40.7,1393.9,41.3,1393.2,41.9L1393.2,41.9z M1388.2,64.7
				c-3.6-6.3,0.9-14.9,4.3-19.1c4-4.9,10.3-7.3,16.8-6.5c6.5,0.9,11.9,4.9,14.5,10.9c2.1,4.8,4.2,14.3-1,19.4
				c-3.6,3.5-9.5,4.8-18.1,3.7C1396.1,71.8,1390.7,69.1,1388.2,64.7L1388.2,64.7z M1392,71.3c3.1,1.9,7.2,3.2,12.4,4l0,0
				c0,0,0,0,0,0c5.2,0.6,9.5,0.4,13.1-0.6c0.7,2.1,1.1,4.4,1.1,6.7l-29.6-4C1389.7,75.2,1390.7,73.1,1392,71.3L1392,71.3z
				 M1423.9,117.1c-0.1,0.7-0.7,1.2-1.4,1.1l-46.9-6.4c-0.7-0.1-1.2-0.7-1.1-1.4l2.6-19.1l49.4,6.7L1423.9,117.1L1423.9,117.1z
				 M1431.1,96.4l-58.1-8.1l5.6-10l50,6.9l2.6,11.2C1431.2,96.4,1431.1,96.4,1431.1,96.4L1431.1,96.4z"/>
			<path class="st49" d="M1400.5,104.3c-2.4-0.3-4.7,1.2-5.8,3.6c-0.6,1.3,0.1,2.8,1.5,3.2c1,0.3,2.1,0.6,3.3,0.7
				c1.2,0.2,2.4,0.2,3.4,0.2c1.5,0,2.5-1.2,2.3-2.7C1404.7,106.7,1402.9,104.6,1400.5,104.3L1400.5,104.3z"/>
			<path class="st49" d="M1394.9,103.8c1,0.1,1.9-0.8,2.1-2c0.2-1.2-0.5-2.3-1.5-2.5c-1-0.1-1.9,0.8-2.1,2
				C1393.3,102.5,1393.9,103.7,1394.9,103.8z"/>
			<path class="st49" d="M1400.8,102.3c1,0.1,1.9-0.8,2.1-2c0.2-1.2-0.5-2.3-1.5-2.5s-1.9,0.8-2.1,2
				C1399.2,101,1399.8,102.1,1400.8,102.3z"/>
			<path class="st49" d="M1406.1,105.3c1,0.1,1.9-0.8,2.1-2c0.2-1.2-0.5-2.3-1.5-2.5c-1-0.1-1.9,0.8-2.1,2
				C1404.4,104.1,1405.1,105.2,1406.1,105.3z"/>
		</g>
		
			<ellipse transform="matrix(0.1344 -0.9909 0.9909 0.1344 1159.7333 1431.837)" class="st45" cx="1399.4" cy="52.1" rx="0.9" ry="0.7"/>
		
			<ellipse transform="matrix(0.1344 -0.9909 0.9909 0.1344 1171.4181 1449.5488)" class="st45" cx="1415.4" cy="54.3" rx="0.9" ry="0.7"/>
		<path class="st45" d="M1408.9,61.3c0.1,0.6-0.8,1.2-1,1.1c-0.1-0.1,0.3-0.4,0.1-0.9c-0.1-0.5-0.5-0.7-0.5-0.7
			C1407.7,60.5,1408.7,60.7,1408.9,61.3L1408.9,61.3z"/>
	</g>
	<g>
		<g>
			<circle class="st50" cx="1595.7" cy="46.7" r="13.1"/>
		</g>
		<g>
			<path class="st51" d="M1615.5,63.2l-34.6,4.4c-1.6,0.2-2.7,1.7-2.5,3.3l3.8,29.2c4.4,0.6,8.1,3.5,9.5,7.7l0,0l30.8-12.6
				l-3.8-29.5C1618.5,64.2,1617,63,1615.5,63.2z"/>
		</g>
		<g>
			<path class="st52" d="M1590.7,78.5l-5.8,0.7l-1.5-11.5l11.5-1.5l1.5,11.5L1590.7,78.5z"/>
		</g>
		<g>
			<path class="st53" d="M1575.1,105.2c4.4,0.6,8.1,3.5,9.5,7.7l0,0c0.2,0.7,0.4,1.5,0.5,2.3c0.2,1.3,0.1,2.6-0.1,3.8l0,0
				c-0.9,4.7-4.8,8.5-9.9,9.2c-6.4,0.8-12.2-3.7-13-10c-0.5-3.8,1-7.5,3.6-10c1.4-1.3,3.2-2.3,5.1-2.8c0.4-0.1,0.9-0.2,1.3-0.2
				C1573.1,105.1,1574.1,105.1,1575.1,105.2L1575.1,105.2z"/>
		</g>
		<g>
			<path class="st54" d="M1572.9,111c3.2-0.4,6.1,1.8,6.5,5c0.4,3.2-1.8,6.1-5,6.5s-6.1-1.8-6.5-5
				C1567.4,114.3,1569.7,111.4,1572.9,111z"/>
		</g>
		<path d="M1570.8,106c-4,0.5-6.8,4.2-6.3,8.1c0.5,4,4.2,6.8,8.1,6.3c4-0.5,6.8-4.2,6.3-8.1C1578.4,108.3,1574.7,105.5,1570.8,106z
			 M1572.3,117.5c-2.4,0.3-4.6-1.4-4.9-3.8c-0.3-2.4,1.4-4.6,3.8-4.9s4.6,1.4,4.9,3.8C1576.3,115,1574.6,117.2,1572.3,117.5z"/>
		<circle cx="1571.7" cy="113.2" r="1.5"/>
		<path d="M1620.7,96.9c-0.9-2.2-3.4-3.3-5.7-2.4l-0.3,0.1l-3.6-27.6c-0.3-2.4-2.5-4.1-4.9-3.8l-34.6,4.4c-2.4,0.3-4.1,2.5-3.8,4.9
			l3.5,27.5c-0.5,0-1,0-1.5,0.1c-0.1,0-0.1,0-0.2,0l-13.5-34.5c-1.7-4.4-6.1-7-10.8-6.4l-15.7,2c-2.4,0.3-4.1,2.5-3.8,4.9
			c0.3,2.4,2.5,4.1,4.9,3.8l15.7-2c0.7-0.1,1.3,0.3,1.5,0.9l13.9,35.4c-2.5,2.7-3.8,6.5-3.3,10.5c0.9,7.2,7.5,12.2,14.6,11.3
			c5.4-0.7,9.6-4.6,11-9.6l34-13.9C1620.6,101.7,1621.7,99.2,1620.7,96.9L1620.7,96.9z M1588.3,71.5l0.7,5.8l-2.9,0.4l-1.1-8.6
			l8.6-1.1l1.1,8.6l-2.9,0.4l-0.7-5.8L1588.3,71.5z M1570.8,72.3c-0.1-0.8,0.5-1.5,1.3-1.6l10.1-1.3l1.5,11.5l14.4-1.9l-1.5-11.5
			l10.1-1.3c0.8-0.1,1.5,0.5,1.6,1.3l3.7,28.4l-28.5,11.7c-1.8-3.6-5.1-6.2-9-7.1L1570.8,72.3z M1529,65.9c-0.1-0.8,0.5-1.5,1.3-1.6
			l7.2-0.9l0.4,2.9l-7.2,0.9C1529.8,67.3,1529.1,66.7,1529,65.9z M1550.9,67.9c-0.7-1.9-2.6-3-4.6-2.7l-5.6,0.7l-0.4-2.9l5.6-0.7
			c3.3-0.4,6.5,1.4,7.7,4.6L1567,101c-0.9,0.4-1.8,0.8-2.6,1.4L1550.9,67.9z M1573,123.3c-5.6,0.7-10.7-3.2-11.4-8.8
			c-0.7-5.6,3.2-10.7,8.8-11.4c5.6-0.7,10.7,3.2,11.4,8.8C1582.5,117.4,1578.6,122.6,1573,123.3z M1617.3,99.9l-32.5,13.3
			c0-0.6,0-1.2-0.1-1.7c-0.1-0.4-0.1-0.9-0.2-1.3l31.7-13c0.8-0.3,1.6,0.1,1.9,0.8C1618.4,98.8,1618,99.6,1617.3,99.9L1617.3,99.9z"
			/>
		<path d="M1582.6,95.7l2.9-0.4l0.4,2.9l-2.9,0.4L1582.6,95.7z"/>
		<path d="M1588.4,94.9l2.9-0.4l0.4,2.9l-2.9,0.4L1588.4,94.9z"/>
		<path d="M1576.9,96.4l2.9-0.4l0.4,2.9l-2.9,0.4L1576.9,96.4z"/>
		<path d="M1576.1,90.6l14.4-1.9l0.4,2.9l-14.4,1.9L1576.1,90.6z"/>
		<path d="M1588.6,62.6c7.9-1,13.6-8.3,12.6-16.3s-8.3-13.6-16.3-12.6c-7.9,1-13.6,8.3-12.6,16.3S1580.7,63.7,1588.6,62.6z
			 M1585.3,36.7c6.4-0.8,12.2,3.7,13,10s-3.7,12.2-10,13c-6.4,0.8-12.2-3.7-13-10S1578.9,37.5,1585.3,36.7z"/>
		<path d="M1590.9,49.6l-2.8-2.1l-1-8.1l-2.9,0.4l1.2,9.2l3.7,2.9L1590.9,49.6z"/>
	</g>
	<g>
		<path class="st55" d="M1759.9,61.3l-7.6-0.8l1.4-12.9c0-0.4,0.4-0.6,0.7-0.6l6.3,0.7c0.4,0,0.6,0.4,0.6,0.7L1759.9,61.3z"/>
		<path class="st56" d="M1761.3,48.4c0-0.4-0.2-0.7-0.6-0.7l-3.8-0.4c0.3,0.1,0.6,0.4,0.5,0.7l-1.4,12.9l-3.8-0.4l0,0l7.6,0.8
			L1761.3,48.4z"/>
		<path class="st57" d="M1774,48.9l-22.6,17l-3.2,29.3c-0.1,0.8,0.5,1.5,1.2,1.6l38.2,4.2c0.8,0.1,1.5-0.5,1.6-1.2l3.2-29.3
			L1774,48.9z"/>
		<path class="st27" d="M1792.4,70.4L1774,48.9l-3.7,2.8l15.3,17.9l-3.2,29.3c-0.1,0.8-0.8,1.3-1.6,1.2l6.8,0.8
			c0.8,0.1,1.5-0.5,1.6-1.2L1792.4,70.4z"/>
		<path class="st58" d="M1798.9,77.7c-0.7-0.1-1.4-0.4-1.8-1l-23.1-27L1745.5,71c-1.2,0.9-3,0.7-4-0.6c-0.9-1.2-0.7-3,0.6-4l30.6-23
			c1.2-0.9,2.9-0.7,3.9,0.4l24.9,29.1c1,1.2,0.9,3-0.3,4C1800.5,77.5,1799.7,77.7,1798.9,77.7z"/>
		<path class="st59" d="M1801.5,73.6c-0.6,0.5-1.4,0.7-2.1,0.7c-0.7-0.1-1.4-0.4-1.8-1l-23.1-27l-28.4,21.4c-1.2,0.9-3,0.7-4-0.6
			c-0.1-0.1-0.1-0.2-0.2-0.3c-0.9,1-1,2.5-0.2,3.6c0.9,1.2,2.7,1.5,4,0.6l28.4-21.4l23.1,27c0.5,0.6,1.2,0.9,1.8,1
			c0.8,0.1,1.5-0.1,2.1-0.7c1.1-0.9,1.3-2.4,0.6-3.6C1801.6,73.5,1801.5,73.5,1801.5,73.6z"/>
		<path class="st60" d="M1776.7,73.6l-10.5-1.2c-0.5-0.1-0.9,0.3-1,0.8l-2.7,24.9l12.3,1.3l2.7-24.9
			C1777.5,74.1,1777.2,73.7,1776.7,73.6z"/>
		<path class="st61" d="M1777.5,74.6c0.1-0.5-0.3-0.9-0.8-1l-5.9-0.7c0.4,0.2,0.6,0.5,0.5,0.9l-2.7,24.9l6.2,0.7L1777.5,74.6z"/>
		<path class="st62" d="M1802,89.8l-16.7,8.7l-4.6-0.8l0-1.8c0-2.7-1.8-5.1-4.5-5.8l-12.2-2.8c-2.8-0.7-5.5-2-7.8-3.7l0,0
			c-3.2-2.4-6.9-3.8-10.9-4.3l-8.9-1l-2.3,20.4l22.6,11.6c0.9,0.4,1.8,0.5,2.7,0.5c0,0,0,0,0,0l24.1-0.8c1.9-0.1,3.7-0.7,5.2-1.7
			l16.9-12.1c1.5-1.1,2-3.1,1.1-4.7l0,0C1806.1,89.6,1803.8,88.9,1802,89.8z"/>
		<path class="st63" d="M1807.2,91.8l-16.6,11.1c-1.6,1-4,1.5-5.9,1.6l-24.3-0.9c0,0,0,0,0,0c-0.9,0-1.9-0.1-2.7-0.5l-22.6-11.6
			l-0.8,7.2l22.6,11.6c0.4,0.2,0.9,0.3,1.3,0.4c0.1,0,0.2,0,0.3,0.1c0.3,0,0.7,0.1,1,0c0,0,0,0,0,0l24.1-0.8c0.6,0,1.2-0.1,1.7-0.2
			c0.1,0,0.2-0.1,0.3-0.1c0.6-0.1,1.1-0.3,1.6-0.6c0.1,0,0.2-0.1,0.3-0.1c0.4-0.2,0.8-0.4,1.2-0.7l16.9-12.1
			C1807.3,95.1,1807.8,93.3,1807.2,91.8z"/>
		<path class="st60" d="M1736.5,105.9l-3.5-0.4c-1.6-0.2-2.8-1.6-2.6-3.3l2.9-26.1c0.2-1.6,1.6-2.8,3.3-2.6l3.5,0.4
			c1.6,0.2,2.8,1.6,2.6,3.3l-2.9,26.1C1739.6,104.9,1738.1,106.1,1736.5,105.9z"/>
		<path class="st61" d="M1740.1,73.9l-3.5-0.4c-0.2,0-0.4,0-0.6,0c1.3,0.4,2.2,1.7,2,3.1l-2.9,26.1c-0.2,1.4-1.3,2.5-2.7,2.6
			c0.2,0.1,0.4,0.1,0.6,0.1l3.5,0.4c1.6,0.2,3.1-1,3.3-2.6l2.9-26.1C1742.8,75.6,1741.7,74.1,1740.1,73.9z"/>
		<path d="M1807.6,94.7c-1.2-2.3-4.1-3.2-6.5-2l-10.6,5.5l2.3-20.6l3.1,3.6c0.7,0.8,1.6,1.2,2.6,1.4c0,0,0,0,0,0
			c1.1,0.1,2.2-0.2,3-0.9c0.8-0.7,1.3-1.6,1.4-2.7c0.1-1-0.3-2.1-0.9-2.9l-5.8-6.8c-0.4-0.5-1.1-0.5-1.6-0.1
			c-0.5,0.4-0.5,1.1-0.1,1.6l5.8,6.8c0.3,0.3,0.4,0.8,0.4,1.3c0,0.5-0.2,0.9-0.6,1.2c-0.4,0.3-0.8,0.5-1.3,0.4c0,0,0,0,0,0
			c-0.4,0-0.8-0.3-1.1-0.6l-4.7-5.5c0,0,0,0,0,0l-18.4-21.5c-0.4-0.4-1-0.5-1.5-0.2l-22.6,17c0,0,0,0,0,0l-5.8,4.4
			c-0.4,0.3-0.8,0.4-1.3,0.3c-0.5-0.1-0.9-0.3-1.1-0.7c-0.3-0.4-0.4-0.8-0.3-1.3c0.1-0.5,0.3-0.9,0.7-1.1l30.6-23
			c0.7-0.5,1.8-0.4,2.3,0.3l14.5,17c0.4,0.5,1.1,0.5,1.6,0.1c0.5-0.4,0.5-1.1,0.1-1.6L1777,47c-1.3-1.6-3.7-1.8-5.4-0.6l-9.8,7.4
			l0.2-1.5c0.1-0.5-0.1-0.9-0.4-1.3c-0.3-0.4-0.7-0.6-1.2-0.7c0,0,0,0,0,0l-6.3-0.7c-0.5-0.1-0.9,0.1-1.3,0.4
			c-0.4,0.3-0.6,0.7-0.7,1.2l-1.2,10.7l-9.9,7.5c-0.8,0.6-1.4,1.6-1.5,2.6c-0.1,1,0.1,2.1,0.8,2.9c0.6,0.8,1.6,1.4,2.6,1.5
			c0,0,0.1,0,0.1,0c1,0.1,2-0.2,2.8-0.8l3.8-2.8l-1.1,9.7c-1.1-0.3-2.2-0.5-3.3-0.6l-1.9-0.2l0.1-0.7c0.2-2.2-1.4-4.2-3.6-4.5
			l-3.5-0.4c-2.2-0.2-4.2,1.4-4.5,3.6l-1.9,17.3c-0.1,0.6,0.4,1.2,1,1.2c0.6,0.1,1.2-0.4,1.2-1l1.9-17.3c0.1-1,1-1.7,2-1.6l3.5,0.4
			c1,0.1,1.7,1,1.6,2l-0.2,1.8l-2.5,22.6l-0.2,1.7c-0.1,1-1,1.7-2,1.6l-3.5-0.4c-1-0.1-1.7-1-1.6-2l0.2-1.9c0.1-0.6-0.4-1.2-1-1.2
			c-0.6-0.1-1.2,0.4-1.2,1l-0.2,1.9c-0.2,2.2,1.4,4.2,3.6,4.5l3.5,0.4c2.2,0.2,4.2-1.4,4.5-3.6l0-0.2l15.5,7.9c0,0,0.1,0,0.1,0
			c0.7,0.3,1.4,0.5,2.1,0.5c0.4,0,0.8,0.1,1.1,0l24.1-0.8c0,0,0,0,0,0c2.1-0.1,4.1-0.7,5.8-1.9c0,0,0,0,0,0l16.9-12.1
			C1808.1,99.4,1808.7,96.8,1807.6,94.7z M1759.7,52.5l-0.3,3.1l-6,4.5l0.9-8.2L1759.7,52.5z M1750.6,83.3L1752,71l21.4-16.1
			l17.4,20.3l-2.6,24.1l-3.4,1.7l-3.3-0.6l0-0.9c0-3.1-2-5.9-4.9-6.8l1.6-14.3c0.1-1.1-0.7-2.1-1.8-2.2c0,0,0,0,0,0l-10.5-1.2
			c-0.5-0.1-1.1,0.1-1.5,0.4c-0.4,0.3-0.7,0.8-0.7,1.3l-1.4,12.5c-2-0.7-3.9-1.7-5.7-3c-0.2-0.2-0.4-0.3-0.7-0.5
			c-0.1-0.1-0.2-0.1-0.3-0.2c-0.1-0.1-0.3-0.2-0.4-0.3c-0.1-0.1-0.2-0.1-0.3-0.2c-0.1-0.1-0.2-0.1-0.4-0.2c-0.1-0.1-0.2-0.1-0.4-0.2
			c-0.1-0.1-0.2-0.1-0.3-0.2c-0.1-0.1-0.3-0.1-0.4-0.2c-0.1-0.1-0.2-0.1-0.3-0.2c-0.1-0.1-0.3-0.1-0.4-0.2c-0.1-0.1-0.2-0.1-0.4-0.2
			c-0.1-0.1-0.2-0.1-0.4-0.2c-0.1-0.1-0.3-0.1-0.4-0.2c-0.1,0-0.2-0.1-0.3-0.1c-0.1-0.1-0.3-0.1-0.4-0.2
			C1750.8,83.3,1750.7,83.3,1750.6,83.3z M1765.8,77.4l10.1,1.1l-1.5,13.9l-9.1-2.1l-0.9-0.2L1765.8,77.4z M1804.8,99l-16.9,12.1
			c-1.4,0.9-3,1.4-4.7,1.5l-24.1,0.8c0,0,0,0,0,0l0,0c-0.7,0-1.5-0.1-2.2-0.4l-16.2-8.3L1743,84l1.9,0.2c1.6,0.2,3.2,0.5,4.7,1.1
			c0.1,0,0.1,0,0.2,0.1c0.2,0.1,0.4,0.1,0.6,0.2c0,0,0,0,0,0c0.2,0.1,0.4,0.1,0.6,0.2c0,0,0.1,0,0.1,0c0.2,0.1,0.4,0.2,0.6,0.3
			c0,0,0,0,0.1,0c0.4,0.2,0.8,0.4,1.2,0.6c0,0,0,0,0.1,0c0.2,0.1,0.4,0.2,0.6,0.3c0,0,0,0,0,0c0.2,0.1,0.4,0.2,0.5,0.3
			c0,0,0,0,0.1,0c0.2,0.1,0.3,0.2,0.5,0.3c0,0,0.1,0,0.1,0.1c0.2,0.1,0.3,0.2,0.5,0.4c2.5,1.8,5.2,3.1,8.2,3.9c0,0,0,0,0,0l12.2,2.8
			c0.1,0,0.1,0,0.2,0.1c1.8,0.5,3.1,2,3.4,3.9c0,0.3,0.1,0.5,0.1,0.8l0,0.5l-23-4.6c-0.6-0.1-1.2,0.3-1.3,0.9
			c-0.1,0.6,0.3,1.2,0.9,1.3l24.3,4.9c0,0,0,0,0,0c0,0,0,0,0,0l4.6,0.8c0,0,0,0,0.1,0c0,0,0,0,0.1,0c0,0,0,0,0.1,0c0,0,0.1,0,0.1,0
			c0,0,0,0,0.1,0c0,0,0.1,0,0.1,0c0,0,0,0,0.1,0c0.1,0,0.1,0,0.2-0.1l4.2-2.2c0,0,0,0,0,0l12.4-6.5c1.3-0.7,2.8-0.2,3.5,1.1
			C1806.2,96.9,1805.9,98.3,1804.8,99z"/>
	</g>
</g>
</svg>
