<?xml version="1.0" encoding="utf-8"?>
<!-- Generator: Adobe Illustrator 27.2.0, SVG Export Plug-In . SVG Version: 6.00 Build 0)  -->
<svg version="1.1" id="Layer_1" xmlns="http://www.w3.org/2000/svg" xmlns:xlink="http://www.w3.org/1999/xlink" x="0px" y="0px"
	 viewBox="0 0 35 36" style="enable-background:new 0 0 35 36;" xml:space="preserve">
<style type="text/css">
	.st0{fill:#FFCD00;}
</style>
<path class="st0" d="M8.8,19.6c-4,0-7.3,3.3-7.3,7.3s3.3,7.3,7.3,7.3c4,0,7.3-3.3,7.3-7.3S12.8,19.6,8.8,19.6z M5.8,24h3
	c0.6,0,1,0.5,1,1c0,0.5-0.4,1-1,1h-3c-0.6,0-1-0.5-1-1C4.8,24.4,5.2,24,5.8,24z M11.7,29.9h-6c-0.6,0-1-0.5-1-1s0.5-1,1-1h6
	c0.6,0,1,0.5,1,1S12.3,29.9,11.7,29.9z"/>
<path class="st0" d="M24.8,5.1H10.2c-4.4,0-7.3,2.2-7.3,7.3v4.6C2.9,18,4,18.7,5,18.2c1.6-0.7,3.4-1,5.3-0.7
	c3.8,0.6,6.9,3.6,7.7,7.4c0.2,1.1,0.2,2.2,0.1,3.2c-0.1,0.9,0.6,1.6,1.4,1.6h5.2c4.4,0,7.3-2.2,7.3-7.3V12.3
	C32.1,7.2,29.2,5.1,24.8,5.1z M25.5,13.2l-4.6,3.6c-1,0.8-2.2,1.2-3.4,1.2s-2.5-0.4-3.4-1.2l-4.6-3.6c-0.5-0.4-0.5-1.1-0.2-1.5
	c0.4-0.5,1.1-0.6,1.5-0.2l4.6,3.6c1.1,0.9,3,0.9,4.1,0l4.6-3.6c0.5-0.4,1.2-0.3,1.5,0.2C26,12.1,25.9,12.8,25.5,13.2z"/>
</svg>
