<?xml version="1.0" encoding="utf-8"?>
<!-- Generator: Adobe Illustrator 27.2.0, SVG Export Plug-In . SVG Version: 6.00 Build 0)  -->
<svg version="1.1" id="Layer_1" xmlns="http://www.w3.org/2000/svg" xmlns:xlink="http://www.w3.org/1999/xlink" x="0px" y="0px"
	 viewBox="0 0 35 36" style="enable-background:new 0 0 35 36;" xml:space="preserve">
<style type="text/css">
	.st0{fill:#FFCD00;}
</style>
<path class="st0" d="M25.7,16.4c-0.6,0-1.1-0.5-1.1-1.1c0-0.5-0.5-1.7-1.4-2.6c-0.9-0.9-1.9-1.5-2.7-1.5c-0.6,0-1.1-0.5-1.1-1.1
	c0-0.6,0.5-1.1,1.1-1.1c1.5,0,3,0.8,4.3,2.2c1.3,1.3,2.1,3,2.1,4.2C26.8,15.8,26.3,16.4,25.7,16.4z"/>
<path class="st0" d="M31,16.4c-0.6,0-1.1-0.5-1.1-1.1c0-5.2-4.2-9.4-9.4-9.4c-0.6,0-1.1-0.5-1.1-1.1s0.5-1.1,1.1-1.1
	c6.4,0,11.6,5.2,11.6,11.6C32.1,15.8,31.6,16.4,31,16.4z"/>
<path class="st0" d="M16.1,22.5l-2.7,2.7c-0.6,0.6-1.5,0.6-2.1,0c-0.2-0.2-0.3-0.3-0.5-0.5C9.4,23.2,8,21.6,6.8,20
	c-1.2-1.7-2.2-3.3-2.9-5c-0.7-1.7-1-3.3-1-4.8c0-1,0.2-1.9,0.5-2.8C3.8,6.5,4.3,5.7,5.1,5c0.9-0.9,2-1.4,3-1.4
	c0.4,0,0.8,0.1,1.2,0.3c0.4,0.2,0.7,0.4,1,0.8l3.4,4.8c0.3,0.4,0.5,0.7,0.6,1c0.1,0.3,0.2,0.6,0.2,0.9c0,0.3-0.1,0.7-0.3,1
	c-0.2,0.3-0.5,0.7-0.8,1l-1.1,1.2c-0.2,0.2-0.2,0.4-0.2,0.6c0,0.1,0,0.2,0,0.3c0,0.1,0.1,0.2,0.1,0.3c0.3,0.5,0.7,1.1,1.4,1.9
	c0.7,0.8,1.4,1.5,2.1,2.3c0.1,0.1,0.3,0.3,0.5,0.4C16.7,21,16.7,21.9,16.1,22.5z"/>
<path class="st0" d="M32,27.4c0,0.4-0.1,0.8-0.2,1.2c0,0.1-0.1,0.2-0.1,0.4c-0.2,0.5-0.6,1-1,1.5c-0.7,0.8-1.5,1.4-2.4,1.7
	c0,0,0,0,0,0c-0.9,0.3-1.8,0.5-2.8,0.5c-1.5,0-3.1-0.4-4.8-1.1c-1.7-0.7-3.4-1.7-5-2.9c-0.6-0.4-1.1-0.8-1.7-1.3l4.8-4.8
	c0.4,0.3,0.8,0.5,1.1,0.7c0.1,0,0.2,0.1,0.3,0.1c0.1,0,0.2,0.1,0.4,0.1c0.2,0,0.4-0.1,0.6-0.2l1.1-1.1c0.4-0.4,0.7-0.6,1-0.8
	c0.3-0.2,0.7-0.3,1-0.3c0.3,0,0.6,0.1,0.9,0.2c0.3,0.1,0.7,0.3,1,0.6l4.8,3.4c0.4,0.3,0.6,0.6,0.8,0.9C32,26.6,32,27,32,27.4z"/>
</svg>
