<svg width="42" height="42" viewBox="0 0 42 42" fill="none" xmlns="http://www.w3.org/2000/svg">
<g id="car-mechanic" clip-path="url(#clip0_228_1119)">
<path id="Vector" d="M40.25 7.00008H37.625C37.1438 7.00008 36.75 6.60633 36.75 6.12508C36.75 5.64383 37.1438 5.25008 37.625 5.25008H40.25C41.2825 5.25008 41.7463 4.79333 41.9545 4.41008C42.28 3.80983 42.098 3.14483 41.846 2.75983C40.4793 0.679076 38.0065 -0.358674 35.5355 0.119076C33.1065 0.591576 31.1763 2.54633 30.7318 4.98058C30.716 5.07158 30.702 5.16083 30.6915 5.25008H11.4398C11.4293 5.16083 11.417 5.07158 11.3995 4.98058C10.9568 2.54458 9.02478 0.589826 6.59578 0.117326C4.12478 -0.358674 1.65378 0.675575 0.285276 2.75808C0.0315257 3.14308 -0.150474 3.80808 0.175026 4.40833C0.344776 4.72333 0.791026 5.24833 1.87953 5.24833H4.37503C4.85803 5.24833 5.25003 5.64208 5.25003 6.12333C5.25003 6.60458 4.85803 6.99833 4.37503 6.99833H1.87953C0.791026 6.99833 0.344776 7.52508 0.175026 7.83833C-0.150474 8.44033 0.0315257 9.10533 0.285276 9.48858C1.43328 11.2333 3.35653 12.2431 5.40053 12.2431C5.79603 12.2431 6.19678 12.2063 6.59578 12.1293C9.02653 11.6568 10.9568 9.70208 11.4013 7.26433C11.417 7.17508 11.4293 7.08583 11.4415 6.99833H30.6915C30.702 7.08758 30.7143 7.17858 30.7318 7.26783C31.1763 9.70383 33.1065 11.6586 35.5355 12.1293C35.9363 12.2063 36.337 12.2431 36.7325 12.2431C38.7765 12.2431 40.7015 11.2333 41.8478 9.48858C42.1015 9.10183 42.2818 8.43683 41.9563 7.83833C41.7498 7.45333 41.2843 6.99833 40.2518 6.99833L40.25 7.00008ZM9.73178 6.12683C9.73178 6.39983 9.73003 6.67283 9.67928 6.95458C9.36778 8.66258 7.96428 10.0836 6.26153 10.4143C4.56053 10.7433 2.91203 10.1098 1.90228 8.75183H4.37503C5.82228 8.75183 7.00003 7.57408 7.00003 6.12683C7.00003 4.67958 5.82228 3.50183 4.37503 3.50183H1.90053C2.91203 2.14208 4.56053 1.50683 6.26153 1.83933C7.96253 2.16833 9.36778 3.59108 9.67753 5.29558C9.72828 5.57733 9.73178 5.85208 9.73178 6.13033V6.12683ZM35.868 10.4126C34.167 10.0836 32.7635 8.66083 32.452 6.95458C32.3995 6.67108 32.3978 6.39808 32.3978 6.12333C32.3978 5.84858 32.3978 5.57733 32.452 5.29208C32.7635 3.58583 34.167 2.16483 35.868 1.83408C36.1673 1.77633 36.463 1.74658 36.7553 1.74658C38.129 1.74658 39.396 2.37483 40.2273 3.49658H37.625C36.1778 3.49658 35 4.67433 35 6.12158C35 7.56883 36.1778 8.74658 37.625 8.74658H40.229C39.2193 10.1063 37.5673 10.7433 35.868 10.4091V10.4126ZM35.1505 16.2173C33.7505 13.7708 31.1308 12.2483 28.3133 12.2483H13.6868C10.8693 12.2483 8.24953 13.7691 6.84953 16.2173L3.24803 22.5191C2.26628 24.2358 1.75003 26.1888 1.75003 28.1646V30.6251C1.75003 33.0628 3.18328 35.1733 5.25003 36.1586V37.6251C5.25003 40.0383 7.21353 42.0001 9.62503 42.0001C12.0365 42.0001 14 40.0383 14 37.6251V36.7501H28V37.6251C28 40.0383 29.9618 42.0001 32.375 42.0001C34.7883 42.0001 36.75 40.0383 36.75 37.6251V36.1586C38.8168 35.1733 40.25 33.0628 40.25 30.6251V28.1646C40.25 26.1871 39.732 24.2358 38.752 22.5191L35.1505 16.2173ZM8.36853 17.0853C9.45703 15.1813 11.4958 13.9983 13.6868 13.9983H28.3115C30.5043 13.9983 32.5413 15.1813 33.628 17.0853L37.2295 23.3871C37.4343 23.7458 37.6163 24.1186 37.7738 24.5001H4.22453C4.38203 24.1186 4.56228 23.7476 4.76703 23.3871L8.36853 17.0853ZM12.25 37.6233C12.25 39.0706 11.0723 40.2483 9.62503 40.2483C8.17778 40.2483 7.00003 39.0706 7.00003 37.6233V36.6853C7.28528 36.7256 7.57753 36.7483 7.87503 36.7483H12.25V37.6233ZM35 37.6233C35 39.0706 33.8223 40.2483 32.375 40.2483C30.9278 40.2483 29.75 39.0706 29.75 37.6233V36.7483H34.125C34.4225 36.7483 34.7148 36.7273 35 36.6853V37.6233ZM38.5 30.6233C38.5 33.0366 36.5383 34.9983 34.125 34.9983H7.87503C5.46353 34.9983 3.50003 33.0366 3.50003 30.6233V28.1628C3.50003 27.5188 3.56653 26.8766 3.69428 26.2483H8.75003V28.8733C8.75003 29.3563 9.14203 29.7483 9.62503 29.7483C10.108 29.7483 10.5 29.3563 10.5 28.8733V26.2483H31.5V28.8733C31.5 29.3563 31.892 29.7483 32.375 29.7483C32.858 29.7483 33.25 29.3563 33.25 28.8733V26.2483H38.3058C38.4335 26.8766 38.5 27.5171 38.5 28.1628V30.6233Z" fill="white" fill-opacity="0.8"/>
</g>
<defs>
<clipPath id="clip0_228_1119">
<rect width="42" height="42" fill="white"/>
</clipPath>
</defs>
</svg>
