<svg width="42" height="42" viewBox="0 0 42 42" fill="none" xmlns="http://www.w3.org/2000/svg">
<g id="elevator" clip-path="url(#clip0_228_1248)">
<path id="Vector" d="M34.125 12.25H7.875C3.53325 12.25 0 15.7832 0 20.125V34.125C0 38.4668 3.53325 42 7.875 42H34.125C38.4668 42 42 38.4668 42 34.125V20.125C42 15.7832 38.4668 12.25 34.125 12.25ZM17.5 40.25H8.75V35.875C8.75 33.4635 10.7118 31.5 13.125 31.5C15.5382 31.5 17.5 33.4635 17.5 35.875V40.25ZM33.25 40.25H24.5V35.875C24.5 33.4635 26.4618 31.5 28.875 31.5C31.2882 31.5 33.25 33.4635 33.25 35.875V40.25ZM40.25 34.125C40.25 37.205 37.9645 39.7618 35 40.187V35.875C35 32.4975 32.2525 29.75 28.875 29.75C25.4975 29.75 22.75 32.4975 22.75 35.875V40.25H19.25V35.875C19.25 32.4975 16.5025 29.75 13.125 29.75C9.7475 29.75 7 32.4975 7 35.875V40.187C4.0355 39.7618 1.75 37.205 1.75 34.125V20.125C1.75 16.7475 4.4975 14 7.875 14H34.125C37.5025 14 40.25 16.7475 40.25 20.125V34.125ZM13.125 17.5C10.7118 17.5 8.75 19.4635 8.75 21.875C8.75 24.2865 10.7118 26.25 13.125 26.25C15.5382 26.25 17.5 24.2865 17.5 21.875C17.5 19.4635 15.5382 17.5 13.125 17.5ZM13.125 24.5C11.6777 24.5 10.5 23.3223 10.5 21.875C10.5 20.4277 11.6777 19.25 13.125 19.25C14.5723 19.25 15.75 20.4277 15.75 21.875C15.75 23.3223 14.5723 24.5 13.125 24.5ZM28.875 17.5C26.4618 17.5 24.5 19.4635 24.5 21.875C24.5 24.2865 26.4618 26.25 28.875 26.25C31.2882 26.25 33.25 24.2865 33.25 21.875C33.25 19.4635 31.2882 17.5 28.875 17.5ZM28.875 24.5C27.4277 24.5 26.25 23.3223 26.25 21.875C26.25 20.4277 27.4277 19.25 28.875 19.25C30.3223 19.25 31.5 20.4277 31.5 21.875C31.5 23.3223 30.3223 24.5 28.875 24.5ZM8.8375 8.75H17.4125C18.319 8.75 19.1257 8.20925 19.474 7.37275C19.8223 6.53625 19.6315 5.5825 18.991 4.942L14.7017 0.6545C13.8337 -0.21525 12.4145 -0.21525 11.5465 0.6545L7.259 4.942C6.6185 5.5825 6.42775 6.53625 6.776 7.37275C7.12425 8.20925 7.931 8.75 8.8375 8.75ZM8.498 6.17925L12.7855 1.89175C12.88 1.79725 13.0025 1.75175 13.125 1.75175C13.2475 1.75175 13.3717 1.79725 13.4645 1.89175L17.752 6.17925C17.9568 6.384 17.8938 6.615 17.857 6.70425C17.8203 6.7935 17.703 7 17.4125 7H8.8375C8.547 7 8.4315 6.79175 8.393 6.70425C8.35625 6.615 8.2915 6.384 8.498 6.17925ZM27.2983 8.09725C27.7323 8.533 28.3045 8.75 28.875 8.75C29.4455 8.75 30.0177 8.53125 30.4517 8.09725L34.7393 3.808C35.3797 3.16925 35.5705 2.21375 35.2223 1.37725C34.8775 0.54075 34.0672 0 33.1607 0H24.5858C23.6792 0 22.8708 0.54075 22.5243 1.37725C22.1777 2.21375 22.3668 3.1675 23.0072 3.808L27.2948 8.09725H27.2983ZM24.143 2.0475C24.1797 1.95825 24.297 1.75 24.5875 1.75H33.1625C33.453 1.75 33.5703 1.95825 33.607 2.0475C33.6437 2.13675 33.7085 2.366 33.502 2.57075L29.2145 6.86C29.029 7.049 28.7245 7.049 28.5338 6.86L24.2463 2.57075C24.0415 2.366 24.1062 2.13675 24.143 2.0475Z" fill="white" fill-opacity="0.8"/>
</g>
<defs>
<clipPath id="clip0_228_1248">
<rect width="42" height="42" fill="white"/>
</clipPath>
</defs>
</svg>
