<svg width="106" height="80" viewBox="0 0 106 80" fill="none" xmlns="http://www.w3.org/2000/svg">
<path d="M14.688 68.128C11.296 68.128 8.768 65.712 8.768 62.4C8.768 59.088 11.296 56.672 14.704 56.672C16.432 56.672 17.936 57.264 18.96 58.416L17.92 59.424C17.056 58.512 16 58.096 14.768 58.096C12.24 58.096 10.368 59.92 10.368 62.4C10.368 64.88 12.24 66.704 14.768 66.704C16 66.704 17.056 66.272 17.92 65.36L18.96 66.368C17.936 67.52 16.432 68.128 14.688 68.128ZM24.2911 68.096C21.7471 68.096 19.8751 66.288 19.8751 63.76C19.8751 61.232 21.7471 59.44 24.2911 59.44C26.8351 59.44 28.6911 61.232 28.6911 63.76C28.6911 66.288 26.8351 68.096 24.2911 68.096ZM24.2911 66.752C25.9231 66.752 27.1391 65.568 27.1391 63.76C27.1391 61.952 25.9231 60.784 24.2911 60.784C22.6591 60.784 21.4271 61.952 21.4271 63.76C21.4271 65.568 22.6591 66.752 24.2911 66.752ZM35.3434 59.44C37.4074 59.44 38.8634 60.624 38.8634 63.12V68H37.3274V63.296C37.3274 61.632 36.4954 60.816 35.0394 60.816C33.4074 60.816 32.3514 61.792 32.3514 63.632V68H30.8154V59.52H32.2874V60.8C32.9114 59.936 33.9994 59.44 35.3434 59.44ZM44.138 68.096C42.73 68.096 41.338 67.664 40.634 67.104L41.274 65.888C41.994 66.4 43.146 66.768 44.25 66.768C45.674 66.768 46.266 66.336 46.266 65.616C46.266 63.712 40.906 65.36 40.906 61.984C40.906 60.464 42.266 59.44 44.442 59.44C45.546 59.44 46.794 59.728 47.53 60.208L46.874 61.424C46.106 60.928 45.258 60.752 44.426 60.752C43.082 60.752 42.426 61.248 42.426 61.92C42.426 63.92 47.802 62.288 47.802 65.584C47.802 67.12 46.394 68.096 44.138 68.096ZM56.0896 59.52H57.6256V68H56.1696V66.72C55.5456 67.6 54.4896 68.096 53.2896 68.096C51.0976 68.096 49.6416 66.896 49.6416 64.4V59.52H51.1776V64.224C51.1776 65.888 52.0096 66.72 53.4656 66.72C55.0656 66.72 56.0896 65.728 56.0896 63.904V59.52ZM60.5498 68V56.128H62.0858V68H60.5498ZM69.5096 66.4L69.9896 67.504C69.5256 67.904 68.8216 68.096 68.1336 68.096C66.4216 68.096 65.4456 67.152 65.4456 65.44V60.784H64.0056V59.52H65.4456V57.664H66.9816V59.52H69.4136V60.784H66.9816V65.376C66.9816 66.288 67.4616 66.8 68.3096 66.8C68.7576 66.8 69.1896 66.656 69.5096 66.4ZM74.9346 59.44C77.2546 59.44 78.5666 60.56 78.5666 62.88V68H77.1106V66.88C76.5986 67.648 75.6546 68.096 74.3266 68.096C72.4066 68.096 71.1906 67.072 71.1906 65.6C71.1906 64.24 72.0706 63.12 74.5986 63.12H77.0306V62.816C77.0306 61.52 76.2786 60.768 74.7586 60.768C73.7506 60.768 72.7266 61.12 72.0706 61.68L71.4306 60.528C72.3106 59.824 73.5746 59.44 74.9346 59.44ZM74.5826 66.912C75.7346 66.912 76.6466 66.384 77.0306 65.408V64.224H74.6626C73.1426 64.224 72.7106 64.816 72.7106 65.536C72.7106 66.384 73.4146 66.912 74.5826 66.912ZM85.9371 59.44C88.0011 59.44 89.4571 60.624 89.4571 63.12V68H87.9211V63.296C87.9211 61.632 87.0891 60.816 85.6331 60.816C84.0011 60.816 82.9451 61.792 82.9451 63.632V68H81.4091V59.52H82.8811V60.8C83.5051 59.936 84.5931 59.44 85.9371 59.44ZM96.5878 66.4L97.0678 67.504C96.6038 67.904 95.8998 68.096 95.2118 68.096C93.4998 68.096 92.5238 67.152 92.5238 65.44V60.784H91.0838V59.52H92.5238V57.664H94.0598V59.52H96.4918V60.784H94.0598V65.376C94.0598 66.288 94.5398 66.8 95.3878 66.8C95.8358 66.8 96.2678 66.656 96.5878 66.4Z" fill="#444444" fill-opacity="0.8"/>
<g clip-path="url(#clip0_650_540)">
<path d="M66.125 20.25H39.875C35.5333 20.25 32 23.7833 32 28.125V42.125C32 46.4667 35.5333 50 39.875 50H66.125C70.4667 50 74 46.4667 74 42.125V28.125C74 23.7833 70.4667 20.25 66.125 20.25ZM49.5 48.25H40.75V43.875C40.75 41.4635 42.7118 39.5 45.125 39.5C47.5382 39.5 49.5 41.4635 49.5 43.875V48.25ZM65.25 48.25H56.5V43.875C56.5 41.4635 58.4618 39.5 60.875 39.5C63.2882 39.5 65.25 41.4635 65.25 43.875V48.25ZM72.25 42.125C72.25 45.205 69.9645 47.7618 67 48.187V43.875C67 40.4975 64.2525 37.75 60.875 37.75C57.4975 37.75 54.75 40.4975 54.75 43.875V48.25H51.25V43.875C51.25 40.4975 48.5025 37.75 45.125 37.75C41.7475 37.75 39 40.4975 39 43.875V48.187C36.0355 47.7618 33.75 45.205 33.75 42.125V28.125C33.75 24.7475 36.4975 22 39.875 22H66.125C69.5025 22 72.25 24.7475 72.25 28.125V42.125ZM45.125 25.5C42.7118 25.5 40.75 27.4635 40.75 29.875C40.75 32.2865 42.7118 34.25 45.125 34.25C47.5382 34.25 49.5 32.2865 49.5 29.875C49.5 27.4635 47.5382 25.5 45.125 25.5ZM45.125 32.5C43.6777 32.5 42.5 31.3223 42.5 29.875C42.5 28.4277 43.6777 27.25 45.125 27.25C46.5723 27.25 47.75 28.4277 47.75 29.875C47.75 31.3223 46.5723 32.5 45.125 32.5ZM60.875 25.5C58.4618 25.5 56.5 27.4635 56.5 29.875C56.5 32.2865 58.4618 34.25 60.875 34.25C63.2882 34.25 65.25 32.2865 65.25 29.875C65.25 27.4635 63.2882 25.5 60.875 25.5ZM60.875 32.5C59.4277 32.5 58.25 31.3223 58.25 29.875C58.25 28.4277 59.4277 27.25 60.875 27.25C62.3223 27.25 63.5 28.4277 63.5 29.875C63.5 31.3223 62.3223 32.5 60.875 32.5ZM40.8375 16.75H49.4125C50.319 16.75 51.1258 16.2092 51.474 15.3727C51.8223 14.5362 51.6315 13.5825 50.991 12.942L46.7018 8.6545C45.8338 7.78475 44.4145 7.78475 43.5465 8.6545L39.259 12.942C38.6185 13.5825 38.4277 14.5362 38.776 15.3727C39.1242 16.2092 39.931 16.75 40.8375 16.75ZM40.498 14.1792L44.7855 9.89175C44.88 9.79725 45.0025 9.75175 45.125 9.75175C45.2475 9.75175 45.3717 9.79725 45.4645 9.89175L49.752 14.1792C49.9568 14.384 49.8938 14.615 49.857 14.7043C49.8203 14.7935 49.703 15 49.4125 15H40.8375C40.547 15 40.4315 14.7918 40.393 14.7043C40.3563 14.615 40.2915 14.384 40.498 14.1792ZM59.2982 16.0972C59.7322 16.533 60.3045 16.75 60.875 16.75C61.4455 16.75 62.0177 16.5312 62.4517 16.0972L66.7392 11.808C67.3797 11.1693 67.5705 10.2137 67.2223 9.37725C66.8775 8.54075 66.0672 8 65.1607 8H56.5857C55.6792 8 54.8708 8.54075 54.5243 9.37725C54.1778 10.2137 54.3668 11.1675 55.0073 11.808L59.2948 16.0972H59.2982ZM56.143 10.0475C56.1797 9.95825 56.297 9.75 56.5875 9.75H65.1625C65.453 9.75 65.5703 9.95825 65.607 10.0475C65.6438 10.1367 65.7085 10.366 65.502 10.5707L61.2145 14.86C61.029 15.049 60.7245 15.049 60.5338 14.86L56.2462 10.5707C56.0415 10.366 56.1062 10.1367 56.143 10.0475Z" fill="#444444" fill-opacity="0.8"/>
</g>
<rect x="0.5" y="0.5" width="105" height="79" rx="11.5" stroke="#323232" stroke-opacity="0.133333"/>
<defs>
<clipPath id="clip0_650_540">
<rect width="42" height="42" fill="white" transform="translate(32 8)"/>
</clipPath>
</defs>
</svg>
