<svg width="42" height="42" viewBox="0 0 42 42" fill="none" xmlns="http://www.w3.org/2000/svg">
<g id="transporter-2" clip-path="url(#clip0_228_1134)">
<path id="Vector" d="M10.6628 17.8657L13.5695 13.797C15.0448 11.732 17.4388 10.5 19.978 10.5H22.022C24.5612 10.5 26.9552 11.732 28.4305 13.7987L31.3372 17.8657C31.6172 18.2595 31.5263 18.8055 31.1343 19.0872C30.9785 19.1957 30.8018 19.25 30.625 19.25C30.3538 19.25 30.0825 19.124 29.9128 18.8843L27.006 14.8155C25.8615 13.209 23.996 12.25 22.022 12.25H19.978C18.004 12.25 16.1402 13.209 14.994 14.8138L12.0872 18.8843C11.8055 19.2763 11.2595 19.3655 10.8658 19.0872C10.472 18.8055 10.3827 18.2577 10.6628 17.8657ZM42 7C42 7.357 41.783 7.68075 41.4505 7.812L37.4238 9.42375L35.812 13.4505C35.6808 13.783 35.357 14 35 14C34.643 14 34.3192 13.783 34.188 13.4505L32.5728 9.415L28.5338 7.71225C28.2048 7.57225 27.9912 7.24675 27.9982 6.88975C28.0052 6.531 28.2292 6.2125 28.5635 6.0865L32.578 4.5675L34.1862 0.5495C34.4487 -0.11725 35.546 -0.11725 35.8102 0.5495L37.422 4.57625L41.4487 6.188C41.7812 6.31925 42 6.643 42 7ZM38.7677 7L36.4245 6.062C36.2022 5.97275 36.0255 5.79775 35.938 5.5755L35 3.23225L34.062 5.5755C33.971 5.803 33.789 5.9815 33.5597 6.069L31.2323 6.951L33.5912 7.94325C33.8065 8.03425 33.978 8.2075 34.0638 8.4245L35.0017 10.7677L35.9398 8.4245C36.029 8.20225 36.204 8.0255 36.4263 7.938L38.7677 7ZM16.625 4.375C16.625 1.96175 18.5868 0 21 0C23.4132 0 25.375 1.96175 25.375 4.375C25.375 6.78825 23.4132 8.75 21 8.75C18.5868 8.75 16.625 6.78825 16.625 4.375ZM18.375 4.375C18.375 5.82225 19.5527 7 21 7C22.4473 7 23.625 5.82225 23.625 4.375C23.625 2.92775 22.4473 1.75 21 1.75C19.5527 1.75 18.375 2.92775 18.375 4.375ZM34.125 40.25H7.875C7.392 40.25 7 40.642 7 41.125C7 41.608 7.392 42 7.875 42H34.125C34.608 42 35 41.608 35 41.125C35 40.642 34.608 40.25 34.125 40.25ZM14.875 33.25C14.392 33.25 14 33.642 14 34.125C14 34.608 14.392 35 14.875 35H27.125C27.608 35 28 34.608 28 34.125C28 33.642 27.608 33.25 27.125 33.25H14.875ZM29.75 25.375C29.75 24.892 29.358 24.5 28.875 24.5H13.125C12.642 24.5 12.25 24.892 12.25 25.375C12.25 25.858 12.642 26.25 13.125 26.25H28.875C29.358 26.25 29.75 25.858 29.75 25.375ZM9.8525 30.527L6.8495 31.3355L6.09875 34.3368C6.00075 34.727 5.65075 35 5.25 35C4.84925 35 4.4975 34.727 4.40125 34.3368L3.654 31.346L0.66325 30.5988C0.273 30.5008 0 30.1507 0 29.75C0 29.3493 0.273 28.9975 0.66325 28.9012L3.654 28.154L4.40125 25.1632C4.49925 24.773 4.84925 24.5 5.25 24.5C5.65075 24.5 6.0025 24.773 6.09875 25.1632L6.8425 28.1435L9.821 28.8313C10.213 28.9223 10.493 29.267 10.5 29.6695C10.507 30.072 10.241 30.4237 9.8525 30.527Z" fill="white" fill-opacity="0.8"/>
</g>
<defs>
<clipPath id="clip0_228_1134">
<rect width="42" height="42" fill="white"/>
</clipPath>
</defs>
</svg>
