<svg width="42" height="42" viewBox="0 0 42 42" fill="none" xmlns="http://www.w3.org/2000/svg">
<g id="people-carry-box" clip-path="url(#clip0_228_1204)">
<path id="Vector" d="M9.62501 8.75C12.0365 8.75 14 6.78825 14 4.375C14 1.96175 12.0365 0 9.62501 0C7.21351 0 5.25001 1.96175 5.25001 4.375C5.25001 6.78825 7.21351 8.75 9.62501 8.75ZM9.62501 1.75C11.0723 1.75 12.25 2.92775 12.25 4.375C12.25 5.82225 11.0723 7 9.62501 7C8.17776 7 7.00001 5.82225 7.00001 4.375C7.00001 2.92775 8.17776 1.75 9.62501 1.75ZM32.375 8.75C34.7865 8.75 36.75 6.78825 36.75 4.375C36.75 1.96175 34.7865 0 32.375 0C29.9635 0 28 1.96175 28 4.375C28 6.78825 29.9635 8.75 32.375 8.75ZM32.375 1.75C33.8223 1.75 35 2.92775 35 4.375C35 5.82225 33.8223 7 32.375 7C30.9278 7 29.75 5.82225 29.75 4.375C29.75 2.92775 30.9278 1.75 32.375 1.75ZM4.21576 32.6165L1.71501 41.3665C1.60476 41.7515 1.25476 42 0.875006 42C0.794506 42 0.714006 41.9895 0.633506 41.965C0.168006 41.8337 -0.0997441 41.3472 0.031506 40.8835L2.53226 32.1335C2.66526 31.6662 3.15176 31.3967 3.61376 31.5332C4.07926 31.6645 4.34701 32.151 4.21576 32.6147V32.6165ZM41.86 20.8145L40.348 15.2688C39.7775 12.5055 37.317 10.5 34.496 10.5C32.3943 10.5 30.4238 11.6217 29.3545 13.4277L27.2038 17.0555C26.5615 16.2663 25.5955 15.75 24.5 15.75H17.5C16.4045 15.75 15.4385 16.2663 14.7963 17.0555L12.6455 13.4277C11.5763 11.6217 9.60576 10.5 7.50401 10.5C4.68301 10.5 2.22076 12.5055 1.66426 15.2145L0.127756 20.867C-0.384994 23.3503 0.710506 25.928 2.84201 27.2773L8.75001 31.1273V41.125C8.75001 41.608 9.14201 42 9.62501 42C10.108 42 10.5 41.608 10.5 41.125V30.6548C10.5 30.359 10.3513 30.0842 10.1028 29.9215L7.05426 27.9335L10.997 14.1365C11.0408 14.2013 11.1003 14.252 11.1405 14.3185L14.0105 19.1572C14.0105 19.1887 14.0018 19.2167 14.0018 19.2482V26.2482C14.0018 28.1785 15.5715 29.7483 17.5018 29.7483H24.5018C26.432 29.7483 28.0018 28.1785 28.0018 26.2482V19.2482C28.0018 19.2167 27.993 19.1887 27.993 19.1572L30.863 14.3185C30.9033 14.2502 30.9628 14.1995 31.0065 14.1347L34.9475 27.9318L31.899 29.918C31.6505 30.0808 31.5018 30.3555 31.5018 30.6512V41.1215C31.5018 41.6045 31.8938 41.9965 32.3768 41.9965C32.8598 41.9965 33.2518 41.6045 33.2518 41.1215V31.1237L39.151 27.2808C41.293 25.9263 42.3868 23.3468 41.8618 20.811L41.86 20.8145ZM3.78701 25.8037C2.25576 24.836 1.47351 22.995 1.82701 21.273L3.36351 15.6222C3.76601 13.6692 5.50726 12.25 7.50226 12.25C8.23201 12.25 8.93726 12.446 9.55676 12.7908L5.51951 26.9325L3.78701 25.8037ZM26.2483 26.25C26.2483 27.216 25.4625 28 24.4983 28H17.4983C16.534 28 15.7483 27.216 15.7483 26.25V19.25C15.7483 18.284 16.534 17.5 17.4983 17.5H24.4983C25.4625 17.5 26.2483 18.284 26.2483 19.25V26.25ZM38.2025 25.8107L36.4805 26.9342L32.4398 12.7925C33.061 12.4478 33.7663 12.2517 34.4943 12.2517C36.4893 12.2517 38.2305 13.671 38.6453 15.6765L40.1573 21.2222C40.523 22.9967 39.7408 24.8377 38.2008 25.8125L38.2025 25.8107ZM41.3648 41.965C41.2843 41.9895 41.2038 42 41.1233 42C40.7435 42 40.3935 41.7498 40.2833 41.3665L37.7843 32.6165C37.6513 32.151 37.9208 31.6663 38.3863 31.535C38.8483 31.4003 39.3348 31.6698 39.4678 32.1353L41.9668 40.8853C42.0998 41.3507 41.8303 41.8355 41.3648 41.9668V41.965Z" fill="white" fill-opacity="0.8"/>
</g>
<defs>
<clipPath id="clip0_228_1204">
<rect width="42" height="42" fill="white"/>
</clipPath>
</defs>
</svg>
