<svg width="42" height="42" viewBox="0 0 42 42" fill="none" xmlns="http://www.w3.org/2000/svg">
<g id="dentist-svgrepo-com 1">
<path id="Vector" d="M27.4384 2.94492C33.1952 3.11063 37.7723 7.97729 37.7723 13.8138V14.5727C37.7723 22.7567 35.1193 30.5411 30.2927 36.9391L29.9353 37.4112C29.5781 37.838 29.2008 38.1905 28.7859 38.4934C27.2143 39.6415 24.9844 38.6608 24.7433 36.7134L23.6713 26.3557C23.51 25.0538 22.4035 24.076 21.0911 24.076H20.8807C19.5685 24.076 18.4622 25.0537 18.3025 26.339L17.2292 36.7064C16.9892 38.6411 14.7475 39.6263 13.1809 38.4636C12.7805 38.1664 12.4163 37.8233 12.0958 37.4413L11.6782 36.9379C6.85286 30.5409 4.20001 22.7565 4.20001 14.5727V13.8138C4.20001 7.97721 8.77674 3.11067 14.5335 2.94492C16.8782 2.87753 19.1231 3.57017 20.9861 4.88742C22.8491 3.57029 25.0941 2.87753 27.4384 2.94492ZM20.5516 5.21149L21.0706 5.87196V5.03196H20.9018V5.87196L21.4208 5.21149C21.2787 5.0998 21.1338 4.99173 20.9862 4.88738C20.8386 4.99173 20.6937 5.09982 20.5516 5.21149ZM28.9524 35.9261C33.5601 29.8183 36.0923 22.3883 36.0923 14.5727V13.8137C36.0923 8.87439 32.2259 4.76339 27.3901 4.62423C25.2569 4.56291 23.2264 5.24623 21.5896 6.53248C21.4416 6.64877 21.2588 6.71199 21.0706 6.712H20.9017C20.7135 6.71201 20.5307 6.64879 20.3827 6.53248C18.7458 5.2461 16.7154 4.56295 14.5818 4.62427C9.74606 4.76347 5.88001 8.87435 5.88001 13.8138V14.5727C5.88001 22.3882 8.41211 29.8182 12.9946 35.8949L13.3848 36.3639C13.6204 36.6443 13.888 36.8963 14.1821 37.1145C14.7081 37.5049 15.4793 37.166 15.56 36.5165L16.6333 26.1491C16.8993 24.0055 18.7206 22.396 20.8807 22.396H21.0911C23.2514 22.396 25.073 24.0056 25.3404 26.166L26.4124 36.5237C26.4948 37.1881 27.2625 37.5257 27.7951 37.1366C28.0955 36.9173 28.3688 36.6631 28.6092 36.3794L28.9524 35.9262L28.9524 35.9261Z" fill="white" fill-opacity="0.8"/>
</g>
</svg>
