<svg width="42" height="42" viewBox="0 0 42 42" fill="none" xmlns="http://www.w3.org/2000/svg">
<g id="garage-car" clip-path="url(#clip0_228_1177)">
<path id="Vector" d="M27.8582 27.5517C27.279 25.7265 25.6025 24.4997 23.688 24.4997H18.312C16.3975 24.4997 14.721 25.7265 14.1418 27.5517L12.7015 32.0912C12.4023 33.0345 12.25 34.0145 12.25 35.0032V37.6247C12.25 38.1077 12.642 38.4997 13.125 38.4997H14V41.1247C14 41.6077 14.392 41.9997 14.875 41.9997C15.358 41.9997 15.75 41.6077 15.75 41.1247V38.4997H26.25V41.1247C26.25 41.6077 26.642 41.9997 27.125 41.9997C27.608 41.9997 28 41.6077 28 41.1247V38.4997H28.875C29.358 38.4997 29.75 38.1077 29.75 37.6247V35.0032C29.75 34.0145 29.5978 33.0345 29.2985 32.0912L27.8582 27.5517ZM15.8095 28.082C16.156 26.9865 17.1622 26.2497 18.312 26.2497H23.688C24.836 26.2497 25.8422 26.9865 26.1905 28.082L27.2755 31.4997H14.7245L15.8095 28.082ZM28 36.7497H14V35.0032C14 34.4117 14.0683 33.8255 14.1995 33.2497H27.8022C27.9335 33.8255 28.0017 34.4117 28.0017 35.0032L28 36.7497ZM38.5298 10.204L25.4065 1.34898C22.7307 -0.458773 19.2693 -0.458773 16.597 1.34898L3.47025 10.2022C1.29675 11.6687 0 14.1065 0 16.7297V34.123C0 38.4647 3.53325 41.998 7.875 41.998C8.358 41.998 8.75 41.606 8.75 41.123V21.8747C8.75 19.4615 10.7118 17.4997 13.125 17.4997H28.875C31.2882 17.4997 33.25 19.4615 33.25 21.8747V41.1247C33.25 41.6077 33.642 41.9997 34.125 41.9997C38.4668 41.9997 42 38.4665 42 34.1247V16.7315C42 14.11 40.7033 11.667 38.5298 10.204ZM40.25 34.1247C40.25 37.2047 37.9645 39.7615 35 40.1885V21.8747C35 18.4972 32.2525 15.7497 28.875 15.7497H13.125C9.7475 15.7497 7 18.4972 7 21.8747V40.1885C4.0355 39.7615 1.75 37.2047 1.75 34.1247V16.7315C1.75 14.6927 2.758 12.794 4.4485 11.6547L17.5753 2.79798C19.6543 1.39273 22.3458 1.39273 24.4265 2.79798L37.5515 11.6547C39.242 12.794 40.25 14.6927 40.25 16.7315V34.1247Z" fill="white" fill-opacity="0.8"/>
</g>
<defs>
<clipPath id="clip0_228_1177">
<rect width="42" height="42" fill="white"/>
</clipPath>
</defs>
</svg>
