<svg width="42" height="42" viewBox="0 0 42 42" fill="none" xmlns="http://www.w3.org/2000/svg">
<g id="pencil-ruler" clip-path="url(#clip0_228_1129)">
<path id="Vector" d="M40.1362 28.5478C42.616 31.0293 42.616 35.0683 40.1362 37.5481L37.548 40.1363C36.3457 41.3403 34.748 42.0001 33.0488 42.0001C31.3495 42.0001 29.75 41.3386 28.5495 40.1363L22.2057 33.7943C21.8645 33.4531 21.8645 32.8983 22.2057 32.5571C22.547 32.2158 23.1017 32.2158 23.443 32.5571L29.7868 38.8991C31.5297 40.6421 34.5677 40.6421 36.3125 38.8991L38.9007 36.3108C40.698 34.5136 40.698 31.5858 38.9007 29.7851L38.4265 29.3108L35.1628 32.5746C34.9912 32.7461 34.7673 32.8301 34.5433 32.8301C34.3193 32.8301 34.0952 32.7443 33.9238 32.5746C33.5825 32.2333 33.5825 31.6786 33.9238 31.3373L37.1875 28.0736L33.2692 24.1553L30.0072 27.4173C29.666 27.7586 29.1113 27.7586 28.77 27.4173C28.4288 27.0761 28.4288 26.5213 28.77 26.1801L32.6515 22.2986C32.9928 21.9573 33.5475 21.9573 33.8887 22.2986L40.1362 28.5478ZM8.20575 19.7943C8.37725 19.9658 8.60125 20.0498 8.82525 20.0498C9.04925 20.0498 9.27325 19.9641 9.44475 19.7943C9.786 19.4531 9.786 18.8983 9.44475 18.5571L3.101 12.2133C1.30375 10.4143 1.30375 7.48657 3.101 5.68757L5.68925 3.09932C7.43225 1.35632 10.4703 1.35632 12.215 3.09932L13.1267 4.01107L9.86475 7.27307C9.5235 7.61432 9.5235 8.16907 9.86475 8.51032C10.0363 8.68182 10.2603 8.76582 10.4843 8.76582C10.7083 8.76582 10.9323 8.68007 11.1037 8.51032L14.3657 5.24832L17.8465 8.72907L14.5845 11.9911C14.2432 12.3323 14.2432 12.8871 14.5845 13.2283C14.9257 13.5696 15.4805 13.5696 15.8218 13.2283L19.7032 9.34682C20.0445 9.00557 20.0445 8.45082 19.7032 8.10957L13.4505 1.86382C11.0495 -0.540679 6.8565 -0.54243 4.45025 1.86382L1.862 4.45207C-0.61775 6.93182 -0.61775 10.9708 1.86375 13.4523L8.20575 19.7943ZM40.3112 9.83857L11.0863 39.0636C9.1945 40.9571 6.67625 42.0001 4.0005 42.0001H0.875C0.392 42.0001 0 41.6081 0 41.1251V38.0013C0 35.3256 1.043 32.8073 2.9365 30.9138L32.1598 1.68882C34.4067 -0.55643 38.0643 -0.55643 40.3112 1.68882C41.3997 2.77732 42 4.22457 42 5.76457C42 7.30457 41.3997 8.75007 40.3112 9.83857ZM32.8247 14.8506L27.1495 9.17532L4.17375 32.1511C2.611 33.7138 1.75 35.7911 1.75 38.0013V40.2501H4.0005C6.21075 40.2501 8.288 39.3891 9.849 37.8263L32.8247 14.8506ZM40.25 5.76457C40.25 4.69182 39.8335 3.68557 39.074 2.92607C37.5095 1.35982 34.9632 1.35982 33.397 2.92607L28.385 7.93807L34.0602 13.6133L39.0723 8.60132C39.8317 7.84182 40.25 6.83557 40.25 5.76457Z" fill="white" fill-opacity="0.8"/>
</g>
<defs>
<clipPath id="clip0_228_1129">
<rect width="42" height="42" fill="white"/>
</clipPath>
</defs>
</svg>
