<svg width="42" height="42" viewBox="0 0 42 42" fill="none" xmlns="http://www.w3.org/2000/svg">
<g id="electrician 1" clip-path="url(#clip0_228_1296)">
<path id="Vector" d="M20.9672 21.9681C20.8031 21.7959 20.5242 21.7877 20.352 21.9517C19.1297 23.1166 17.2102 23.1166 15.9879 21.9517C15.8156 21.7877 15.5367 21.7876 15.3727 21.9681C15.2086 22.1404 15.2086 22.4193 15.3891 22.5834C16.9477 24.0681 19.3922 24.0681 20.959 22.5834C21.123 22.4193 21.1313 22.1404 20.9672 21.9681ZM20.6965 17.1201C20.918 17.2103 21.1723 17.1037 21.2707 16.8822C21.402 16.5623 21.8613 16.5541 21.9926 16.8822C22.0828 17.1037 22.3453 17.2103 22.5668 17.1201C22.7883 17.0298 22.8949 16.7673 22.8047 16.5459C22.3699 15.5041 20.8934 15.5123 20.4668 16.5459C20.3684 16.7673 20.475 17.0216 20.6965 17.1201ZM15.6598 17.1201C15.8813 17.0298 15.9879 16.7673 15.8977 16.5459C15.4711 15.5123 13.9863 15.5041 13.5598 16.5459C13.4695 16.7673 13.5762 17.0216 13.7977 17.1201C14.0191 17.2103 14.2734 17.1037 14.3719 16.8822C14.5031 16.5623 14.9625 16.5623 15.0938 16.8822C15.184 17.1037 15.4383 17.2103 15.6598 17.1201Z" fill="white" fill-opacity="0.8"/>
<path id="Vector_2" d="M40.4004 27.3656H40.3019V23.8875C40.3019 23.6496 40.1051 23.4527 39.8672 23.4527C39.6293 23.4527 39.4324 23.6496 39.4324 23.8875V27.3656H35.0109V23.8875C35.0109 23.6496 34.8141 23.4527 34.5762 23.4527C34.3383 23.4527 34.1414 23.6496 34.1414 23.8875V27.3656H34.043C33.1734 27.3656 32.4598 28.0793 32.4598 28.9488V29.6461C30.3844 27.7758 27.6527 26.6273 24.6422 26.6273H24.1008L23.0754 25.5773C25.159 24.1336 26.4141 21.9434 26.7176 19.6055L26.8242 18.7934C27.784 18.6129 28.5223 17.7598 28.5223 16.7426C28.5223 15.9797 28.1039 15.3152 27.4887 14.9543C27.6199 14.7574 27.6937 14.5195 27.6937 14.2652V13.1906H27.743C28.5797 13.1906 29.2605 12.5098 29.2605 11.673C29.2605 10.9266 28.7191 10.3113 28.0055 10.1801C27.825 6.25898 25.1262 3.00234 21.484 1.96875L21.5824 1.41094C21.7055 0.689063 21.1312 0 20.3684 0H15.9879C15.225 0 14.6426 0.689063 14.7738 1.44375L14.8723 1.99336C11.2301 3.01875 8.53125 6.28359 8.35078 10.2047C7.63711 10.3277 7.0957 10.9512 7.0957 11.6977C7.0957 12.5344 7.77656 13.2152 8.61328 13.2152H8.6625V14.2898C8.6625 14.5441 8.73633 14.782 8.86758 14.9789C8.25234 15.3398 7.83398 16.0043 7.83398 16.7672C7.83398 17.7844 8.56406 18.6293 9.53203 18.818L9.63867 19.6301C9.95859 22.1156 11.3367 24.2402 13.2727 25.5938L12.2391 26.652H11.6977C5.25 26.652 0.00820303 31.8937 0.00820303 38.3414V41.5406C0.00820303 41.7785 0.205078 41.9754 0.442969 41.9754C38.2266 41.9754 36.3152 42.2051 36.3152 41.5406V40.2363C37.1355 39.3176 37.6441 38.1117 37.6441 36.7828V35.134H38.0953C38.7926 35.134 39.4078 34.691 39.5965 34.0512C39.8098 33.3457 40.3266 32.7551 40.95 32.5254C41.557 32.2957 41.9672 31.6805 41.9672 30.9996V28.9652C41.9836 28.0793 41.2699 27.3656 40.4004 27.3656ZM24.8309 28.6289L26.2336 32.5992L24.1746 31.4508C24.0352 31.377 23.8711 31.377 23.7316 31.459L19.6711 33.9035C20.9426 31.8363 22.8539 30.1793 22.9277 26.7012L24.8309 28.6289ZM27.1359 10.1801H20.0484L21.3281 2.86289C24.552 3.80625 26.9473 6.70195 27.1359 10.1801ZM15.9879 0.877734H20.3684C20.5898 0.877734 20.7539 1.07461 20.7211 1.29609L19.1625 10.1883H17.1937L15.6352 1.29609C15.6023 1.07461 15.7664 0.877734 15.9879 0.877734ZM15.0199 2.86289L16.2996 10.1801H9.21211C9.40078 6.70195 11.8043 3.80625 15.0199 2.86289ZM8.61328 12.3375C8.26055 12.3375 7.97344 12.0504 7.97344 11.6977C7.97344 11.3449 8.26055 11.0578 8.61328 11.0578C14.6098 11.0578 20.8359 11.0578 27.7348 11.0578C28.0875 11.0578 28.3746 11.3449 28.3746 11.6977C28.3746 12.0504 28.0875 12.3375 27.7348 12.3375H8.61328ZM26.0121 13.2152H26.8078V14.2898C26.8078 14.5031 26.6355 14.6754 26.4223 14.6754C26.209 14.6754 26.0367 14.5031 26.0367 14.2898C26.0285 13.7977 26.0531 13.6418 26.0121 13.2152ZM10.3195 14.2816C10.3195 14.4949 10.1473 14.6672 9.93398 14.6672C9.7207 14.6672 9.54844 14.4949 9.54844 14.2816V13.207H10.3441C10.3031 13.5598 10.3277 13.4859 10.3195 14.2816ZM10.5164 19.507L10.3688 18.3504C10.3441 18.1289 10.1555 17.973 9.93398 17.973C9.26133 17.973 8.71992 17.4316 8.71992 16.7672C8.71992 16.0863 9.25312 15.5531 9.93398 15.5531C10.6312 15.5531 11.1891 14.9871 11.1891 14.2898C11.1973 13.5352 11.1645 13.5598 11.2137 13.2152H25.1426C25.1754 13.5105 25.159 13.5598 25.159 14.2898C25.159 14.9789 25.7168 15.5449 26.4059 15.5531C27.1605 15.5777 27.6281 16.152 27.6281 16.7672C27.6281 17.4316 27.0867 17.973 26.4223 17.973C26.2008 17.973 26.0203 18.1371 25.9875 18.3504L25.8398 19.507C25.3477 23.3379 22.091 26.25 18.1781 26.25C14.298 26.25 11.0086 23.3461 10.5164 19.507ZM13.4121 26.7012C13.4859 30.1629 15.3809 31.8117 16.6687 33.9035L12.6082 31.459C12.477 31.377 12.3047 31.377 12.1652 31.4508L10.1145 32.5992L11.5172 28.6289L13.4121 26.7012ZM12.4031 41.0895H6.22617V39.3094L9.17109 40.3184C9.26133 40.3512 9.35977 40.3512 9.45 40.3184L12.3949 39.3094V41.0895H12.4031ZM12.4031 38.3906L9.31875 39.4488L6.22617 38.3906V37.7344C6.22617 37.5047 6.41484 37.3242 6.63633 37.3242H11.993C12.2227 37.3242 12.4031 37.5129 12.4031 37.7344V38.3906ZM17.7352 41.0895H13.2727C13.2727 40.9664 13.2727 37.5375 13.2727 37.7344C13.2727 37.0289 12.6984 36.4465 11.9848 36.4465H6.63633C5.93086 36.4465 5.34844 37.0207 5.34844 37.7344C5.34844 38.8008 5.34844 41.1551 5.34844 41.0895H0.89414V38.325C0.89414 32.468 5.56992 27.6938 11.3777 27.5215L10.8199 28.0875C10.7789 28.1367 10.7379 28.1859 10.7215 28.2516L8.90039 33.4031C8.76914 33.7805 9.1793 34.125 9.52383 33.9281L12.3703 32.3449L17.7352 35.577V41.0895ZM14.2898 26.1844C15.4629 26.7832 16.7836 27.1195 18.1699 27.1195C19.5316 27.1195 20.8605 26.7914 22.05 26.1926C22.2141 29.7035 20.2207 31.3277 18.1699 34.5516C16.1355 31.3441 14.1258 29.6953 14.2898 26.1844ZM30.1219 41.0895H23.9449V39.3094L26.8898 40.3184C26.9801 40.3512 27.0785 40.3512 27.1688 40.3184L30.1137 39.3094V41.0895H30.1219ZM30.1219 38.3906L27.0375 39.4488L23.9449 38.3906V37.7344C23.9449 37.5047 24.1336 37.3242 24.3551 37.3242H29.7117C29.9414 37.3242 30.1219 37.5129 30.1219 37.7344V38.3906ZM35.4539 39.8754C34.6746 40.6219 33.6246 41.0895 32.4598 41.0895H30.9914C30.9914 40.9664 30.9914 37.5375 30.9914 37.7344C30.9914 37.0289 30.4172 36.4465 29.7035 36.4465H24.3469C23.6414 36.4465 23.059 37.0207 23.059 37.7344C23.059 38.8008 23.059 41.1551 23.059 41.0895H18.5965V35.5688L23.9613 32.3367L26.8078 33.9199C27.1605 34.1168 27.5625 33.7723 27.4312 33.3949L25.6184 28.2434C25.5937 28.1859 25.5609 28.1285 25.5199 28.0793L24.9621 27.5133C27.8988 27.6035 30.5484 28.8668 32.4516 30.8602V30.975C32.4516 31.6641 32.8617 32.2793 33.4687 32.5008C33.6082 32.55 33.7395 32.6238 33.8707 32.7059C34.8633 34.3383 35.4457 36.2578 35.4457 38.3086L35.4539 39.8754ZM36.7828 36.7664C36.7828 37.4555 36.6187 38.1035 36.3316 38.6777C36.3152 38.4727 36.4219 36.9797 35.8559 35.0438C36.0117 35.093 36.1676 35.1176 36.3316 35.1176H36.7828V36.7664ZM41.1059 30.9832C41.1059 31.3113 40.9254 31.5902 40.6547 31.6969C39.777 32.025 39.0551 32.8207 38.768 33.7887C38.6859 34.0594 38.4152 34.248 38.1035 34.248H36.3316C36.0199 34.248 35.7492 34.0594 35.6672 33.7805C35.3801 32.8125 34.6582 32.0086 33.7805 31.6887C33.5098 31.5902 33.3293 31.3031 33.3293 30.975V28.9406C33.3293 28.5469 33.6492 28.2352 34.0348 28.2352H40.3922C40.7859 28.2352 41.0977 28.5551 41.0977 28.9406L41.1059 30.9832Z" fill="white" fill-opacity="0.8"/>
<path id="Vector_3" d="M35.3719 29.9738L39.0633 29.9574C39.3012 29.9574 39.498 29.7605 39.498 29.5227C39.498 29.2848 39.3012 29.0879 39.0633 29.0879L35.3719 29.1043C35.134 29.1043 34.9371 29.3012 34.9371 29.5391C34.9371 29.777 35.134 29.9738 35.3719 29.9738ZM39.0633 30.5809L35.3719 30.5973C35.134 30.5973 34.9371 30.7941 34.9371 31.032C34.9371 31.2699 35.134 31.4668 35.3719 31.4668L39.0633 31.4504C39.3012 31.4504 39.498 31.2535 39.498 31.0156C39.498 30.7695 39.3012 30.5809 39.0633 30.5809Z" fill="white" fill-opacity="0.8"/>
</g>
<defs>
<clipPath id="clip0_228_1296">
<rect width="42" height="42" fill="white"/>
</clipPath>
</defs>
</svg>
