<svg width="42" height="42" viewBox="0 0 42 42" fill="none" xmlns="http://www.w3.org/2000/svg">
<g id="calendar-star" clip-path="url(#clip0_228_1209)">
<path id="Vector" d="M34.125 3.5H31.5V0.875C31.5 0.392 31.108 0 30.625 0C30.142 0 29.75 0.392 29.75 0.875V3.5H12.25V0.875C12.25 0.392 11.858 0 11.375 0C10.892 0 10.5 0.392 10.5 0.875V3.5H7.875C3.53325 3.5 0 7.03325 0 11.375V34.125C0 38.4668 3.53325 42 7.875 42H34.125C38.4668 42 42 38.4668 42 34.125V11.375C42 7.03325 38.4668 3.5 34.125 3.5ZM7.875 5.25H34.125C37.5025 5.25 40.25 7.9975 40.25 11.375V14H1.75V11.375C1.75 7.9975 4.4975 5.25 7.875 5.25ZM34.125 40.25H7.875C4.4975 40.25 1.75 37.5025 1.75 34.125V15.75H40.25V34.125C40.25 37.5025 37.5025 40.25 34.125 40.25ZM27.5975 24.521H24.1955L23.2855 21.0298C23.016 20.0025 22.0833 19.2692 20.9843 19.2482C19.9167 19.2692 18.984 20.0007 18.7162 21.0298L17.8062 24.5192H14.4043C13.0445 24.5192 12.2028 25.6095 12.2028 26.621C12.2028 27.5572 12.7697 28.4515 13.6797 28.9573L15.8655 30.1717L14.8628 32.9053C14.4847 33.9395 14.8208 35.0805 15.701 35.7437C16.142 36.0762 16.6688 36.2407 17.1955 36.2407C17.7327 36.2407 18.2682 36.0675 18.7145 35.7245L21.0035 33.9552L23.2908 35.7245C24.1728 36.407 25.4118 36.414 26.3043 35.7437C27.1845 35.0805 27.5205 33.9395 27.1425 32.9053L26.1398 30.1717L28.3237 28.9573C29.2355 28.4515 29.8025 27.5555 29.8025 26.621C29.8025 25.6095 28.9608 24.5192 27.601 24.5192L27.5975 24.521ZM27.4697 27.4295L23.9767 29.372L25.494 33.509C25.6042 33.81 25.5028 34.1548 25.2472 34.3473C24.9848 34.5433 24.619 34.5415 24.3582 34.342L21 31.745L17.6418 34.342C17.381 34.5433 17.0152 34.5468 16.7528 34.3473C16.4972 34.1548 16.3958 33.81 16.5042 33.509L18.0233 29.3703L14.5303 27.4277C14.2433 27.2685 13.9528 26.9552 13.9528 26.621C13.9528 26.5265 14.0595 26.2692 14.4043 26.2692H19.1572L20.4085 21.4708C20.4802 21.1978 20.7305 21.0018 20.9843 20.9965C21.2712 21.0018 21.5215 21.196 21.5915 21.469L22.8428 26.2675H27.5958C27.9405 26.2675 28.0473 26.5248 28.0473 26.6193C28.0473 26.9553 27.7568 27.2668 27.468 27.426L27.4697 27.4295Z" fill="white" fill-opacity="0.8"/>
</g>
<defs>
<clipPath id="clip0_228_1209">
<rect width="42" height="42" fill="white"/>
</clipPath>
</defs>
</svg>
