<svg width="42" height="42" viewBox="0 0 42 42" fill="none" xmlns="http://www.w3.org/2000/svg">
<g id="barbell-thin-svgrepo-com 1">
<path id="Vector" d="M40.6875 20.3438H38.7188V14.4375C38.7182 13.9155 38.5105 13.4151 38.1415 13.046C37.7724 12.677 37.272 12.4693 36.75 12.4688H33.4688V10.5C33.4682 9.97804 33.2605 9.47763 32.8915 9.10854C32.5224 8.73946 32.022 8.53185 31.5 8.53125H27.5625C27.0405 8.53185 26.5401 8.73946 26.171 9.10854C25.802 9.47763 25.5943 9.97804 25.5938 10.5V20.3438H16.4062V10.5C16.4057 9.97804 16.198 9.47763 15.829 9.10854C15.4599 8.73946 14.9595 8.53185 14.4375 8.53125H10.5C9.97804 8.53185 9.47763 8.73946 9.10854 9.10854C8.73946 9.47763 8.53185 9.97804 8.53125 10.5V12.4688H5.25C4.72804 12.4693 4.22763 12.677 3.85854 13.046C3.48946 13.4151 3.28185 13.9155 3.28125 14.4375V20.3438H1.3125C1.13845 20.3438 0.971532 20.4129 0.848461 20.536C0.72539 20.659 0.65625 20.826 0.65625 21C0.65625 21.174 0.72539 21.341 0.848461 21.464C0.971532 21.5871 1.13845 21.6562 1.3125 21.6562H3.28125V27.5625C3.28185 28.0845 3.48946 28.5849 3.85854 28.954C4.22763 29.323 4.72804 29.5307 5.25 29.5312H8.53125V31.5C8.53185 32.022 8.73946 32.5224 9.10854 32.8915C9.47763 33.2605 9.97804 33.4682 10.5 33.4688H14.4375C14.9595 33.4682 15.4599 33.2605 15.829 32.8915C16.198 32.5224 16.4057 32.022 16.4062 31.5V21.6562H25.5938V31.5C25.5943 32.022 25.802 32.5224 26.171 32.8915C26.5401 33.2605 27.0405 33.4682 27.5625 33.4688H31.5C32.022 33.4682 32.5224 33.2605 32.8915 32.8915C33.2605 32.5224 33.4682 32.022 33.4688 31.5V29.5312H36.75C37.272 29.5307 37.7724 29.323 38.1415 28.954C38.5105 28.5849 38.7182 28.0845 38.7188 27.5625V21.6562H40.6875C40.8615 21.6562 41.0285 21.5871 41.1515 21.464C41.2746 21.341 41.3438 21.174 41.3438 21C41.3438 20.826 41.2746 20.659 41.1515 20.536C41.0285 20.4129 40.8615 20.3438 40.6875 20.3438ZM5.25 28.2188C5.07601 28.2186 4.90921 28.1493 4.78618 28.0263C4.66315 27.9033 4.59395 27.7365 4.59375 27.5625V14.4375C4.59395 14.2635 4.66315 14.0967 4.78618 13.9737C4.90921 13.8507 5.07601 13.7814 5.25 13.7812H8.53125V28.2188H5.25ZM15.0938 31.5C15.0936 31.674 15.0243 31.8408 14.9013 31.9638C14.7783 32.0868 14.6115 32.1561 14.4375 32.1562H10.5C10.326 32.1561 10.1592 32.0868 10.0362 31.9638C9.91315 31.8408 9.84395 31.674 9.84375 31.5V10.5C9.84395 10.326 9.91315 10.1592 10.0362 10.0362C10.1592 9.91315 10.326 9.84395 10.5 9.84375H14.4375C14.6115 9.84395 14.7783 9.91315 14.9013 10.0362C15.0243 10.1592 15.0936 10.326 15.0938 10.5V31.5ZM32.1562 31.5C32.1561 31.674 32.0868 31.8408 31.9638 31.9638C31.8408 32.0868 31.674 32.1561 31.5 32.1562H27.5625C27.3885 32.1561 27.2217 32.0868 27.0987 31.9638C26.9757 31.8408 26.9064 31.674 26.9062 31.5V10.5C26.9064 10.326 26.9757 10.1592 27.0987 10.0362C27.2217 9.91315 27.3885 9.84395 27.5625 9.84375H31.5C31.674 9.84395 31.8408 9.91315 31.9638 10.0362C32.0868 10.1592 32.1561 10.326 32.1562 10.5V31.5ZM37.4062 27.5625C37.4061 27.7365 37.3368 27.9033 37.2138 28.0263C37.0908 28.1493 36.924 28.2186 36.75 28.2188H33.4688V13.7812H36.75C36.924 13.7814 37.0908 13.8507 37.2138 13.9737C37.3368 14.0967 37.4061 14.2635 37.4062 14.4375V27.5625Z" fill="white" fill-opacity="0.8"/>
</g>
</svg>
