<svg width="42" height="42" viewBox="0 0 42 42" fill="none" xmlns="http://www.w3.org/2000/svg">
<g id="house-laptop" clip-path="url(#clip0_228_1114)">
<path id="Vector" d="M1.75 27.9997H8.75V29.7497H0V12.8447C0 11.4972 0.6125 10.2372 1.68 9.39719L12.18 1.18969C13.7725 -0.0528125 15.9775 -0.0528125 17.57 1.18969L24.5 6.61469V1.74969H26.25V7.97969L28.07 9.39719C29.1375 10.2372 29.75 11.4797 29.75 12.8447V13.9997H28V12.8447C28 12.0397 27.6325 11.2872 26.985 10.7797L16.485 2.57219C15.54 1.81969 14.21 1.81969 13.2475 2.57219L2.765 10.7797C2.1175 11.2872 1.75 12.0397 1.75 12.8447V27.9997ZM42 33.2497V37.6247C42 40.0397 40.04 41.9997 37.625 41.9997H14.875C12.46 41.9997 10.5 40.0397 10.5 37.6247V33.2497H12.25V21.8747C12.25 19.4597 14.21 17.4997 16.625 17.4997H35.875C38.29 17.4997 40.25 19.4597 40.25 21.8747V33.2497H42ZM14 33.2497H20.4925L22.2425 34.9997H30.275L32.025 33.2497H38.5175V21.8747C38.5175 20.4222 37.345 19.2497 35.8925 19.2497H16.625C15.1725 19.2497 14 20.4222 14 21.8747V33.2497ZM40.25 34.9997H32.7425L30.9925 36.7497H21.525L19.775 34.9997H12.25V37.6247C12.25 39.0772 13.4225 40.2497 14.875 40.2497H37.625C39.0775 40.2497 40.25 39.0772 40.25 37.6247V34.9997Z" fill="white" fill-opacity="0.8"/>
</g>
<defs>
<clipPath id="clip0_228_1114">
<rect width="42" height="42" fill="white"/>
</clipPath>
</defs>
</svg>
