<svg width="42" height="42" viewBox="0 0 42 42" fill="none" xmlns="http://www.w3.org/2000/svg">
<g id="hospital" clip-path="url(#clip0_228_1139)">
<path id="Vector" d="M37.625 10.5H35V4.375C35 1.9635 33.0382 0 30.625 0H11.375C8.96175 0 7 1.9635 7 4.375V10.5H4.375C1.96175 10.5 0 12.4635 0 14.875V42H42V14.875C42 12.4635 40.0382 10.5 37.625 10.5ZM1.75 40.25V14.875C1.75 13.4277 2.92775 12.25 4.375 12.25H7V40.25H1.75ZM33.25 40.25H8.75V4.375C8.75 2.92775 9.92775 1.75 11.375 1.75H30.625C32.0723 1.75 33.25 2.92775 33.25 4.375V40.25ZM40.25 40.25H35V12.25H37.625C39.0723 12.25 40.25 13.4277 40.25 14.875V40.25ZM14 24.5H19.25V26.25H14V24.5ZM22.75 24.5H28V26.25H22.75V24.5ZM14 31.5H19.25V33.25H14V31.5ZM22.75 31.5H28V33.25H22.75V31.5ZM21.875 13.125V17.5H20.125V13.125H15.75V11.375H20.125V7H21.875V11.375H26.25V13.125H21.875Z" fill="white" fill-opacity="0.8"/>
</g>
<defs>
<clipPath id="clip0_228_1139">
<rect width="42" height="42" fill="white"/>
</clipPath>
</defs>
</svg>
