<svg width="42" height="42" viewBox="0 0 42 42" fill="none" xmlns="http://www.w3.org/2000/svg">
<g id="hostel-svgrepo-com">
<path id="Vector" d="M20.9704 0.840351C20.7926 0.846688 20.6214 0.909305 20.4815 1.01918L1.16152 16.1392C1.07467 16.2072 1.00207 16.2918 0.947879 16.3879C0.893689 16.484 0.858967 16.5899 0.845697 16.6994C0.832426 16.809 0.840868 16.9201 0.870538 17.0264C0.900209 17.1327 0.950528 17.2321 1.01862 17.3189C1.08671 17.4058 1.17125 17.4783 1.26739 17.5325C1.36354 17.5867 1.46942 17.6214 1.57897 17.6346C1.68853 17.6478 1.79962 17.6394 1.9059 17.6097C2.01219 17.58 2.11158 17.5296 2.1984 17.4615L3.68645 16.2967H5.03996V15.2368L21 2.74676L36.96 15.2368V16.2967H38.3135L39.8015 17.4615C39.8883 17.5296 39.9877 17.58 40.094 17.6097C40.2003 17.6394 40.3114 17.6478 40.4209 17.6346C40.5305 17.6213 40.6364 17.5866 40.7325 17.5325C40.8287 17.4783 40.9132 17.4057 40.9813 17.3189C41.0494 17.2321 41.0997 17.1327 41.1294 17.0264C41.159 16.9201 41.1675 16.809 41.1542 16.6994C41.1409 16.5899 41.1062 16.484 41.052 16.3879C40.9978 16.2918 40.9253 16.2073 40.8384 16.1392L21.5184 1.01918C21.3625 0.89681 21.1685 0.83347 20.9704 0.840351ZM9.23996 17.6404V37.8004H7.47137V39.4804H10.6542V38.6404H10.92V36.9604H31.08V38.6404H31.3457V39.4804H34.5286V37.8004H32.76V36.1203V35.2803V26.0404V25.2004V24.3604V17.6404H31.08V20.6181C30.1864 19.8146 29.0098 19.3204 27.72 19.3204H21V24.3604H18.1535C18.8612 23.7428 19.32 22.8459 19.32 21.8404C19.32 19.9946 17.8057 18.4804 15.96 18.4804C14.1142 18.4804 12.6 19.9946 12.6 21.8404C12.6 22.8459 13.0588 23.7428 13.7664 24.3604H10.92V17.6404H9.23996ZM3.35996 17.8864V21.066H5.03996V17.8864H3.35996ZM36.96 17.8864V21.0643H38.64V17.8864H36.96ZM15.96 20.1604C16.8977 20.1604 17.64 20.9026 17.64 21.8404C17.64 22.7781 16.8977 23.5204 15.96 23.5204C15.0222 23.5204 14.28 22.7781 14.28 21.8404C14.28 20.9026 15.0222 20.1604 15.96 20.1604ZM22.68 21.0004H27.72C29.5851 21.0004 31.08 22.4952 31.08 24.3604H22.68V21.0004ZM3.35996 22.6541V25.8336H5.03996V22.6541H3.35996ZM36.96 22.6541V25.8336H38.64V22.6541H36.96ZM10.92 26.0404H31.08V31.5381C30.1864 30.7346 29.0098 30.2404 27.72 30.2404H21V35.2803H18.1535C18.8612 34.6628 19.32 33.7659 19.32 32.7604C19.32 30.9146 17.8057 29.4004 15.96 29.4004C14.1142 29.4004 12.6 30.9146 12.6 32.7604C12.6 33.7659 13.0588 34.6628 13.7664 35.2803H10.92V26.0404ZM3.35996 27.4234V30.6029H5.03996V27.4234H3.35996ZM36.96 27.4234V30.6013H38.64V27.4234H36.96ZM15.96 31.0804C16.8977 31.0804 17.64 31.8226 17.64 32.7604C17.64 33.6981 16.8977 34.4403 15.96 34.4403C15.0222 34.4403 14.28 33.6981 14.28 32.7604C14.28 31.8226 15.0222 31.0804 15.96 31.0804ZM22.68 31.9204H27.72C29.5851 31.9204 31.08 33.4152 31.08 35.2803H22.68V31.9204ZM36.96 32.1911V35.3706H38.64V32.1911H36.96ZM3.35996 32.1927V35.3706H5.03996V32.1927H3.35996ZM3.35996 36.9604V38.6404C3.35998 38.8631 3.44849 39.0768 3.60602 39.2343C3.76354 39.3918 3.97719 39.4803 4.19996 39.4804H5.87996V37.8004H5.03996V36.9604H3.35996ZM36.96 36.9604V37.8004H36.12V39.4804H37.8C38.0227 39.4803 38.2364 39.3918 38.3939 39.2343C38.5514 39.0768 38.6399 38.8631 38.64 38.6404V36.9604H36.96ZM12.2456 37.8004V39.4804H15.43V37.8004H12.2456ZM17.0214 37.8004V39.4804H20.2043V37.8004H17.0214ZM21.7957 37.8004V39.4804H24.9785V37.8004H21.7957ZM26.5699 37.8004V39.4804H29.7527V37.8004H26.5699Z" fill="white" fill-opacity="0.8"/>
</g>
</svg>
