<svg width="42" height="13" viewBox="0 0 42 13" fill="none" xmlns="http://www.w3.org/2000/svg">
<path d="M8.712 0.799999H10.312V12H8.712V7.008H2.28V12H0.68V0.799999H2.28V5.616H8.712V0.799999ZM17.0724 12.096C14.5284 12.096 12.6564 10.288 12.6564 7.76C12.6564 5.232 14.5284 3.44 17.0724 3.44C19.6164 3.44 21.4724 5.232 21.4724 7.76C21.4724 10.288 19.6164 12.096 17.0724 12.096ZM17.0724 10.752C18.7044 10.752 19.9204 9.568 19.9204 7.76C19.9204 5.952 18.7044 4.784 17.0724 4.784C15.4404 4.784 14.2084 5.952 14.2084 7.76C14.2084 9.568 15.4404 10.752 17.0724 10.752ZM27.8846 10.4L28.3646 11.504C27.9006 11.904 27.1966 12.096 26.5086 12.096C24.7966 12.096 23.8206 11.152 23.8206 9.44V4.784H22.3806V3.52H23.8206V1.664H25.3566V3.52H27.7886V4.784H25.3566V9.376C25.3566 10.288 25.8366 10.8 26.6846 10.8C27.1326 10.8 27.5646 10.656 27.8846 10.4ZM37.6044 7.808C37.6044 7.936 37.5884 8.128 37.5724 8.272H30.6924C30.8844 9.76 32.0844 10.752 33.7644 10.752C34.7564 10.752 35.5884 10.416 36.2124 9.728L37.0604 10.72C36.2924 11.616 35.1244 12.096 33.7164 12.096C30.9804 12.096 29.1564 10.288 29.1564 7.76C29.1564 5.248 30.9644 3.44 33.4124 3.44C35.8604 3.44 37.6044 5.2 37.6044 7.808ZM33.4124 4.736C31.9404 4.736 30.8524 5.728 30.6924 7.168H36.1324C35.9724 5.744 34.9004 4.736 33.4124 4.736ZM39.7373 12V0.127999H41.2733V12H39.7373Z" fill="white" fill-opacity="0.8"/>
</svg>
