<svg width="42" height="42" viewBox="0 0 42 42" fill="none" xmlns="http://www.w3.org/2000/svg">
<g id="hospital-user" clip-path="url(#clip0_228_1194)">
<path id="Vector" d="M26.25 21.875V7.875C26.25 4.4975 23.5025 1.75 20.125 1.75H7.875C4.4975 1.75 1.75 4.4975 1.75 7.875V34.125C1.75 37.5025 4.4975 40.25 7.875 40.25H21.875C22.358 40.25 22.75 40.642 22.75 41.125C22.75 41.608 22.358 42 21.875 42H7.875C3.53325 42 0 38.4668 0 34.125V7.875C0 3.53325 3.53325 0 7.875 0H20.125C24.4668 0 28 3.53325 28 7.875V21.875C28 22.358 27.608 22.75 27.125 22.75C26.642 22.75 26.25 22.358 26.25 21.875ZM11.375 24.5H7.875C7.392 24.5 7 24.892 7 25.375C7 25.858 7.392 26.25 7.875 26.25H11.375C11.858 26.25 12.25 25.858 12.25 25.375C12.25 24.892 11.858 24.5 11.375 24.5ZM20.125 24.5H16.625C16.142 24.5 15.75 24.892 15.75 25.375C15.75 25.858 16.142 26.25 16.625 26.25H20.125C20.608 26.25 21 25.858 21 25.375C21 24.892 20.608 24.5 20.125 24.5ZM11.375 31.5H7.875C7.392 31.5 7 31.892 7 32.375C7 32.858 7.392 33.25 7.875 33.25H11.375C11.858 33.25 12.25 32.858 12.25 32.375C12.25 31.892 11.858 31.5 11.375 31.5ZM20.125 31.5H16.625C16.142 31.5 15.75 31.892 15.75 32.375C15.75 32.858 16.142 33.25 16.625 33.25H20.125C20.608 33.25 21 32.858 21 32.375C21 31.892 20.608 31.5 20.125 31.5ZM14 17.5C14.483 17.5 14.875 17.108 14.875 16.625V13.125H18.375C18.858 13.125 19.25 12.733 19.25 12.25C19.25 11.767 18.858 11.375 18.375 11.375H14.875V7.875C14.875 7.392 14.483 7 14 7C13.517 7 13.125 7.392 13.125 7.875V11.375H9.625C9.142 11.375 8.75 11.767 8.75 12.25C8.75 12.733 9.142 13.125 9.625 13.125H13.125V16.625C13.125 17.108 13.517 17.5 14 17.5ZM29.75 27.125C29.75 24.7135 31.7118 22.75 34.125 22.75C36.5383 22.75 38.5 24.7135 38.5 27.125C38.5 29.5365 36.5383 31.5 34.125 31.5C31.7118 31.5 29.75 29.5365 29.75 27.125ZM31.5 27.125C31.5 28.5723 32.6778 29.75 34.125 29.75C35.5723 29.75 36.75 28.5723 36.75 27.125C36.75 25.6777 35.5723 24.5 34.125 24.5C32.6778 24.5 31.5 25.6777 31.5 27.125ZM41.972 40.9062C41.09 37.4832 37.7895 35 34.125 35C30.4605 35 27.16 37.4832 26.278 40.9062C26.159 41.3735 26.439 41.8512 26.9063 41.972C27.377 42.0928 27.8513 41.8092 27.972 41.342C28.6458 38.724 31.29 36.7483 34.125 36.7483C36.96 36.7483 39.6043 38.7223 40.278 41.342C40.3813 41.7375 40.7365 41.9983 41.125 41.9983C41.1968 41.9983 41.2703 41.9895 41.3438 41.9702C41.8128 41.8495 42.0928 41.3735 41.972 40.9062Z" fill="white" fill-opacity="0.8"/>
</g>
<defs>
<clipPath id="clip0_228_1194">
<rect width="42" height="42" fill="white"/>
</clipPath>
</defs>
</svg>
