<svg width="21" height="21" viewBox="0 0 21 21" fill="none" xmlns="http://www.w3.org/2000/svg">
<g id="paw (1) 1" clip-path="url(#clip0_228_1216)">
<path id="Vector" d="M2.78077 12.2504C2.3074 12.2504 1.84277 12.0745 1.4254 11.735C0.678149 11.1277 0.165399 10.0515 0.0516485 8.85448C-0.132976 6.91023 0.798899 5.4341 2.31702 5.26348C2.93565 5.1961 3.54902 5.37723 4.04252 5.77798C4.70315 6.31523 5.12402 7.20685 5.22727 8.2901C5.42327 10.342 4.44327 12.0762 2.99602 12.2381C2.92427 12.246 2.8534 12.2504 2.78252 12.2504H2.78077ZM2.57777 6.12535C2.52352 6.12535 2.4684 6.12798 2.41415 6.13498C1.39915 6.24785 0.785774 7.33285 0.922274 8.7731C1.01415 9.74085 1.40877 10.5949 1.97752 11.0569C2.18227 11.224 2.50602 11.4139 2.89715 11.3692C3.83252 11.2651 4.50015 9.8931 4.35577 8.3741C4.27527 7.52623 3.96815 6.84635 3.4904 6.45873C3.22002 6.23998 2.90765 6.12535 2.57777 6.12535ZM18.2193 12.2504C18.1484 12.2504 18.0766 12.246 18.0058 12.2381C16.5594 12.0762 15.5794 10.342 15.7745 8.2901C15.8778 7.20773 16.2978 6.31523 16.9593 5.77798C17.4519 5.37723 18.0679 5.1961 18.6848 5.26348C20.2038 5.43323 21.1356 6.91023 20.9501 8.85448C20.8364 10.0506 20.3228 11.1277 19.5764 11.735C19.1581 12.0745 18.6935 12.2504 18.221 12.2504H18.2193ZM18.4223 6.12535C18.0924 6.12535 17.78 6.2391 17.5096 6.45785C17.0328 6.84548 16.7256 7.52623 16.6443 8.37323C16.4999 9.89223 17.1675 11.2642 18.1029 11.3684C18.4914 11.4121 18.8178 11.2222 19.0225 11.056C19.5913 10.594 19.9859 9.74085 20.0778 8.77223C20.2151 7.33198 19.6018 6.24785 18.5859 6.1341C18.5316 6.12798 18.4765 6.12535 18.4223 6.12535ZM13.8215 7.00035C13.7533 7.00035 13.6859 6.99685 13.6176 6.98985C12.8905 6.9146 12.2614 6.43948 11.8466 5.65285C11.4625 4.92398 11.305 3.99998 11.4039 3.05235C11.6078 1.10285 12.8293 -0.148398 14.3465 0.0134765C15.0771 0.0896015 15.7071 0.490351 16.1193 1.14223C16.5314 1.7941 16.6976 2.64198 16.597 3.59485C16.3923 5.55398 15.1935 7.00123 13.8224 7.00123L13.8215 7.00035ZM14.098 0.875352C13.1556 0.875352 12.4163 1.78098 12.2736 3.14335C12.1923 3.92123 12.3156 4.6676 12.6201 5.24423C12.894 5.76398 13.2808 6.0746 13.7078 6.11923C14.6501 6.20848 15.568 5.01848 15.7264 3.5021C15.8051 2.74785 15.6853 2.09335 15.379 1.6086C15.1086 1.18248 14.721 0.931352 14.2555 0.882352C14.2021 0.877102 14.1505 0.874477 14.0989 0.874477L14.098 0.875352ZM7.17765 7.00035C5.80565 7.00035 4.60777 5.55398 4.40302 3.59398C4.30327 2.64198 4.46865 1.79323 4.88077 1.14135C5.29377 0.490352 5.92377 0.0896015 6.65352 0.0134765C8.18477 -0.151023 9.39227 1.10285 9.59527 3.05148C9.69415 3.99998 9.53752 4.92398 9.15252 5.65285C8.73777 6.43948 8.10865 6.91373 7.38152 6.98985C7.31327 6.99685 7.24502 7.00035 7.17765 7.00035ZM6.90115 0.875352C6.84952 0.875352 6.79702 0.877976 6.74452 0.883227C6.27902 0.932226 5.89052 1.18335 5.62102 1.60948C5.31477 2.09335 5.1949 2.74785 5.27365 3.50298C5.43202 5.01935 6.35952 6.20935 7.29227 6.1201C7.71927 6.07548 8.10602 5.76485 8.3799 5.2451C8.6844 4.6676 8.80777 3.92123 8.7264 3.14335C8.58377 1.78185 7.8444 0.876227 6.90202 0.876227L6.90115 0.875352ZM15.3125 21.0004C14.6703 21.0004 14.021 20.8157 13.3341 20.6206C12.5178 20.3887 11.5929 20.1254 10.5 20.1254C9.40715 20.1254 8.4814 20.3887 7.6659 20.6206C6.97902 20.8157 6.33065 21.0004 5.68752 21.0004C4.21227 21.0004 2.62502 20.0422 2.62502 17.9379C2.62502 13.8184 6.93265 10.5004 10.5 10.5004C14.0674 10.5004 18.375 13.8184 18.375 17.9379C18.375 20.0422 16.7878 21.0004 15.3125 21.0004ZM10.5 19.2504C11.7154 19.2504 12.7033 19.5312 13.5739 19.7789C14.2275 19.9644 14.7928 20.1254 15.3125 20.1254C16.3214 20.1254 17.5 19.5522 17.5 17.9379C17.5 14.4037 13.6509 11.3754 10.5 11.3754C7.34915 11.3754 3.50002 14.4037 3.50002 17.9379C3.50002 19.5522 4.67865 20.1254 5.68752 20.1254C6.20815 20.1254 6.77252 19.9644 7.42615 19.7789C8.29677 19.5312 9.28465 19.2504 10.5 19.2504Z" fill="white" fill-opacity="0.8"/>
</g>
<defs>
<clipPath id="clip0_228_1216">
<rect width="21" height="21" fill="white"/>
</clipPath>
</defs>
</svg>
