<svg width="42" height="42" viewBox="0 0 42 42" fill="none" xmlns="http://www.w3.org/2000/svg">
<g id="photographer-with-cap-and-glasses-svgrepo-com" clip-path="url(#clip0_228_1279)">
<path id="Vector" d="M10.9351 12.342C10.9472 11.9541 10.9817 10.7733 11.8212 10.4561C12.651 10.14 13.5037 10.9928 13.6663 11.1663C13.883 11.3985 13.8703 11.7622 13.6387 11.9788C13.4089 12.1949 13.0446 12.184 12.8268 11.9518C12.632 11.7461 12.3338 11.545 12.2137 11.5369C12.2223 11.5565 12.1033 11.7432 12.0844 12.3753C12.0229 14.4727 13.6249 15.0583 13.6933 15.0824C13.872 15.145 14.0128 15.2927 14.0622 15.4754L14.0881 15.5702C14.0973 15.6041 14.103 15.6386 14.1059 15.6731C14.5714 21.2159 18.9546 23.0094 21.0049 23.0094C23.0551 23.0094 27.4384 21.2159 27.9038 15.6731C27.9067 15.638 27.913 15.6036 27.9216 15.5702L27.9475 15.4754C27.9981 15.2898 28.1377 15.1421 28.3199 15.0812C28.3842 15.0588 29.9863 14.4727 29.9248 12.3759C29.9041 11.6674 29.757 11.518 29.7559 11.5163C29.6932 11.5346 29.3732 11.7478 29.1824 11.9518C28.9646 12.184 28.6003 12.1949 28.3704 11.9788C28.1389 11.7622 28.1262 11.3985 28.3428 11.1663C28.5055 10.9928 29.3571 10.1406 30.188 10.4561C31.0275 10.7733 31.062 11.9535 31.074 12.342C31.135 14.4296 29.9053 15.5846 29.0244 16.0282C28.4279 21.6337 24.0073 24.1586 21.0049 24.1586C18.0025 24.1586 13.5819 21.6337 12.9854 16.0282C12.1039 15.5846 10.8736 14.4296 10.9351 12.342ZM33.3312 31.6264C34.0087 32.3074 34.0035 33.2601 33.9983 34.1008L33.9977 38.0163C33.9977 39.7178 32.614 41.102 30.9126 41.102C29.2111 41.102 27.8268 39.7178 27.8268 38.0163L27.8263 34.1008C27.8211 33.2601 27.8159 32.3068 28.4934 31.6264C28.9991 31.1179 29.7903 30.8708 30.9126 30.8708C32.0342 30.8708 32.8255 31.1179 33.3312 31.6264ZM32.8491 34.0945C32.8531 33.4176 32.8565 32.778 32.5164 32.4367C32.2411 32.1603 31.7015 32.0195 30.9126 32.0195C30.123 32.0195 29.5835 32.1597 29.3082 32.4367C29.0841 32.6619 29.0146 33.0222 28.9905 33.4313H30.2868C30.6046 33.4313 30.8614 33.6888 30.8614 34.006C30.8614 34.3232 30.6046 34.5806 30.2868 34.5806H28.9755V35.5873H30.2868C30.6046 35.5873 30.8614 35.8448 30.8614 36.162C30.8614 36.4792 30.6046 36.7366 30.2868 36.7366H28.9755V37.6686H30.2862C30.604 37.6686 30.8609 37.9261 30.8609 38.2433C30.8609 38.5605 30.604 38.8179 30.2862 38.8179H29.1542C29.4599 39.4856 30.1305 39.9528 30.912 39.9528C31.9791 39.9528 32.8479 39.0839 32.8479 38.0163L32.8491 34.0945ZM13.5117 31.6264C14.1892 32.3074 14.1841 33.2601 14.1789 34.1008L14.1783 38.0163C14.1783 39.7178 12.794 41.102 11.0926 41.102C9.3911 41.102 8.0074 39.7178 8.0074 38.0163L8.00683 34.1002C8.00166 33.2595 7.99649 32.3068 8.6734 31.6264C9.17907 31.1179 9.9709 30.8708 11.0926 30.8708C12.2148 30.8708 13.0061 31.1179 13.5117 31.6264ZM12.8504 38.8185H11.7183C11.4006 38.8185 11.1437 38.561 11.1437 38.2438C11.1437 37.9266 11.4006 37.6692 11.7183 37.6692H13.0291V36.7372H11.7178C11.4 36.7372 11.1431 36.4797 11.1431 36.1625C11.1431 35.8454 11.4 35.5879 11.7178 35.5879H13.0291V34.5812H11.7178C11.4 34.5812 11.1431 34.3237 11.1431 34.0065C11.1431 33.6894 11.4 33.4319 11.7178 33.4319H13.0141C12.99 33.0228 12.9205 32.6625 12.6964 32.4372C12.4211 32.1603 11.8815 32.0201 11.092 32.0201C10.3025 32.0201 9.76289 32.1603 9.48764 32.4372C9.14804 32.7791 9.15148 33.4181 9.15551 34.0945L9.15608 38.0174C9.15608 39.0851 10.0249 39.9539 11.092 39.9539C11.8735 39.9534 12.5441 39.4862 12.8504 38.8185ZM26.4115 13.5763C26.5661 13.5763 26.7132 13.6383 26.8212 13.7481C26.9293 13.8579 26.989 14.0067 26.9862 14.1607C26.9764 14.698 26.8844 16.5 26.0949 17.1418C25.5904 17.5516 24.8032 17.8061 24.04 17.8061C23.3108 17.8061 22.6983 17.5751 22.315 17.1556C21.9007 16.7017 21.6249 15.7495 21.4674 15.0422H20.5412C20.3837 15.7495 20.1079 16.7017 19.6936 17.1556C19.3103 17.5751 18.6978 17.8061 17.9685 17.8061C17.2054 17.8061 16.4182 17.5516 15.9137 17.1418C15.1241 16.5 15.0322 14.698 15.0224 14.1607C15.0196 14.0067 15.0793 13.8579 15.1874 13.7481C15.2954 13.6383 15.4425 13.5763 15.5971 13.5763H20.1263C20.2941 13.5763 20.4532 13.6493 20.5624 13.7768C20.5917 13.8113 20.6049 13.8538 20.625 13.8935H21.3841C21.4042 13.8544 21.4175 13.8113 21.4468 13.7768C21.5554 13.6498 21.7151 13.5763 21.8829 13.5763H26.4115ZM19.4327 14.7255H16.2085C16.2786 15.4099 16.4406 16.0897 16.6389 16.2506C16.9382 16.4937 17.4726 16.6574 17.9685 16.6574C18.365 16.6574 18.6845 16.5569 18.8449 16.381C19.0609 16.1443 19.2844 15.399 19.4327 14.7255ZM25.8007 14.7255H22.5765C22.7247 15.399 22.9477 16.1443 23.1637 16.3805C23.3241 16.5563 23.6436 16.6569 24.04 16.6569C24.5359 16.6569 25.0709 16.4937 25.3697 16.25C25.568 16.0891 25.7306 15.4099 25.8007 14.7255ZM27.4062 32.8067V39.6304C27.4062 39.9476 27.1494 40.205 26.8316 40.205H15.1529C14.8351 40.205 14.5783 39.9476 14.5783 39.6304V32.8067C14.5783 32.4895 14.8351 32.2321 15.1529 32.2321H26.831C27.1488 32.2321 27.4062 32.4895 27.4062 32.8067ZM26.257 33.3814H15.7275V39.0558H26.2564L26.257 33.3814ZM18.2628 36.2183C18.2628 34.7133 19.4873 33.4888 20.9922 33.4888C22.4972 33.4888 23.7217 34.7133 23.7217 36.2183C23.7217 37.7232 22.4972 38.9478 20.9922 38.9478C19.4873 38.9478 18.2628 37.7232 18.2628 36.2183ZM19.412 36.2183C19.412 37.09 20.1205 37.7985 20.9922 37.7985C21.8639 37.7985 22.5725 37.09 22.5725 36.2183C22.5725 35.3466 21.8639 34.6381 20.9922 34.6381C20.1205 34.6381 19.412 35.3471 19.412 36.2183ZM22.9506 27.2639C23.1247 27.2639 23.289 27.3426 23.3982 27.4782C23.5068 27.6138 23.5493 27.7914 23.5114 27.9615L22.8465 30.9938C22.7885 31.257 22.5552 31.4454 22.2851 31.4454H19.6993C19.4292 31.4454 19.1959 31.2575 19.1379 30.9938L18.4731 27.9615C18.4357 27.7914 18.4777 27.6138 18.5863 27.4782C18.6955 27.3426 18.8604 27.2639 19.0339 27.2639H22.9506ZM22.2363 28.4131H19.7493L20.1625 30.2962H21.8237L22.2363 28.4131ZM12.7067 23.4788L12.8429 25.548C12.8549 25.7377 12.9607 25.9089 13.1244 26.0055C13.2141 26.0583 13.3152 26.0853 13.4164 26.0853C13.4997 26.0853 13.583 26.0675 13.6606 26.0307L16.4061 24.7418C16.6935 24.6068 16.817 24.2649 16.682 23.9776C16.5481 23.6903 16.2044 23.5667 15.9177 23.7018L13.9341 24.6332L13.7721 22.1652C13.7508 21.8486 13.4744 21.6113 13.1612 21.6291C12.844 21.6504 12.6044 21.9239 12.6251 22.2399L12.6291 22.3049C10.5823 22.9755 2.03589 26.6634 2.03589 41.4244C2.03589 41.7416 2.29275 41.999 2.61051 41.999C2.92828 41.999 3.18514 41.7416 3.18514 41.4244C3.18514 27.7787 10.5076 24.2356 12.7067 23.4788ZM29.3789 22.3077L29.3835 22.2399C29.4042 21.9233 29.1646 21.6498 28.8474 21.6291C28.5313 21.6107 28.2572 21.848 28.2365 22.1652L28.0745 24.6332L26.0909 23.7018C25.8013 23.5667 25.4611 23.6909 25.3266 23.9776C25.1922 24.2649 25.3151 24.6068 25.6025 24.7418L28.348 26.0307C28.4256 26.0669 28.5089 26.0853 28.5922 26.0853C28.6934 26.0853 28.7945 26.0589 28.8841 26.0055C29.0479 25.9089 29.1536 25.7377 29.1657 25.548L29.3013 23.4909C31.4872 24.2822 38.8148 27.9408 38.8148 41.4244C38.8148 41.7416 39.0717 41.999 39.3895 41.999C39.7072 41.999 39.9641 41.7416 39.9641 41.4244C39.9641 26.6829 31.4401 22.9858 29.3789 22.3077ZM12.151 9.18385C12.0269 9.07467 11.9551 8.91837 11.9551 8.75288C11.9551 4.4495 11.9551 -0.000976562 20.9514 -0.000976562C29.8673 -0.000976562 29.9466 4.3702 29.9472 8.63795C29.9547 8.6753 29.9587 8.7138 29.9587 8.75288C29.9587 9.07007 29.7018 9.3275 29.3841 9.3275C29.3812 9.32808 29.3783 9.3275 29.3726 9.3275C29.349 9.3275 29.3249 9.32635 29.3013 9.32291H29.299C29.2347 9.31486 29.1766 9.28728 29.1192 9.25912C29.0985 9.27349 29.0835 9.29418 29.0606 9.30624L26.8149 10.4618C26.7333 10.5038 26.6431 10.5256 26.5523 10.5256C26.5201 10.5256 26.488 10.5227 26.4558 10.5176C22.9804 9.92684 19.154 9.92684 15.6798 10.5176C15.5637 10.5359 15.4465 10.521 15.3402 10.4716L12.8613 9.31601C12.8354 9.30394 12.8182 9.28211 12.7946 9.26717C12.7377 9.29418 12.6768 9.31371 12.6038 9.32291C12.4372 9.34532 12.2746 9.29303 12.151 9.18385ZM27.9038 8.6098C26.4851 8.09608 23.774 7.41917 20.9658 7.47893C20.8043 7.47548 20.6716 7.47434 20.5389 7.47434C17.9059 7.47434 15.4189 8.09723 14.0456 8.60003L15.6654 9.35509C19.154 8.78333 22.9712 8.78276 26.4598 9.35336L27.9038 8.6098ZM13.1084 7.74326C14.7604 7.00601 17.968 6.25325 20.9658 6.33083C21.079 6.32738 21.2215 6.32566 21.3634 6.32566C24.2222 6.32566 27.2206 7.04164 28.7945 7.74326C28.7474 3.98463 28.1647 1.14885 20.9514 1.14885C13.7376 1.14885 13.1555 3.98463 13.1084 7.74326Z" fill="white" fill-opacity="0.8"/>
</g>
<defs>
<clipPath id="clip0_228_1279">
<rect width="42" height="42" fill="white"/>
</clipPath>
</defs>
</svg>
