<svg width="42" height="42" viewBox="0 0 42 42" fill="none" xmlns="http://www.w3.org/2000/svg">
<path d="M22.3772 20.8599L1.49445 41.7444C1.32295 41.9159 1.09895 41.9999 0.874949 41.9999C0.650949 41.9999 0.426949 41.9142 0.255449 41.7444C-0.0858008 41.4032 -0.0858008 40.8484 0.255449 40.5072L21.1399 19.6227C18.4432 16.3029 18.6374 11.4012 21.7262 8.31069L29.7815 0.255442C30.1227 -0.0858084 30.6775 -0.0858084 31.0187 0.255442C31.36 0.596692 31.36 1.15144 31.0187 1.49269L22.9634 9.54794C20.559 11.9542 20.3664 15.7482 22.386 18.3767L35.2555 5.50719C35.5967 5.16594 36.1515 5.16594 36.4927 5.50719C36.834 5.84844 36.834 6.40319 36.4927 6.74444L23.6232 19.6139C26.2517 21.6352 30.0457 21.4409 32.452 19.0364L40.5072 10.9812C40.8484 10.6399 41.4032 10.6399 41.7445 10.9812C42.0857 11.3224 42.0857 11.8772 41.7445 12.2184L33.6892 20.2737C32.0407 21.9222 29.8742 22.7464 27.7077 22.7464C25.816 22.7464 23.926 22.1182 22.3772 20.8599ZM11.6952 24.0642C11.858 24.1972 12.054 24.2619 12.2482 24.2619C12.502 24.2619 12.754 24.1534 12.9272 23.9399C13.2334 23.5672 13.1775 23.0142 12.8029 22.7079C4.37145 15.8112 1.7517 6.27544 1.7517 3.58394V2.94169C1.7517 2.22594 2.18745 1.94419 2.44645 1.84094C2.82795 1.69219 3.44045 1.68869 3.90245 2.17694L14.5809 13.7199C14.9099 14.0752 15.4612 14.0962 15.8182 13.7689C16.1734 13.4399 16.1945 12.8869 15.8672 12.5317L5.17995 0.979942C4.29795 0.0471916 2.9697 -0.255558 1.79895 0.215192C0.689449 0.656192 -5.07869e-05 1.70094 -5.07869e-05 2.94519V3.58394C-5.07869e-05 7.00344 2.9452 16.9067 11.6952 24.0642ZM28.6422 26.3427C28.3132 25.9857 27.7602 25.9647 27.405 26.2937C27.0497 26.6227 27.0287 27.1757 27.356 27.5309L29.2547 29.5837C26.1274 29.1847 23.1787 28.4147 20.4592 27.2859C20.0112 27.1022 19.5019 27.3122 19.3147 27.7584C19.1292 28.2047 19.341 28.7174 19.7872 28.9029C23.2312 30.3327 27.02 31.2129 31.0502 31.5244L40.4792 41.7182C40.6525 41.9054 40.887 41.9999 41.1214 41.9999C41.3349 41.9999 41.5467 41.9229 41.7147 41.7672C42.07 41.4382 42.091 40.8852 41.7637 40.5299L28.6387 26.3409L28.6422 26.3427Z" fill="white" fill-opacity="0.8"/>
</svg>
