<svg width="42" height="42" viewBox="0 0 42 42" fill="none" xmlns="http://www.w3.org/2000/svg">
<g id="service-svgrepo-com">
<g id="&#233;&#161;&#181;&#233;&#157;&#162;-1">
<g id="&#229;&#175;&#188;&#232;&#136;&#170;&#229;&#155;&#190;&#230;&#160;&#135;">
<g id="&#230;&#156;&#141;&#229;&#138;&#161;">
<g id="&#231;&#188;&#150;&#231;&#187;&#132;">
<path id="&#232;&#183;&#175;&#229;&#190;&#132;" d="M17.5 27.125L22.75 28.875C22.75 28.875 35.875 26.25 37.625 26.25C39.375 26.25 39.375 28 37.625 29.75C35.875 31.5 29.75 36.75 24.5 36.75C19.25 36.75 15.75 34.125 12.25 34.125C8.75002 34.125 3.50002 34.125 3.50002 34.125" stroke="white" stroke-opacity="0.8" stroke-width="1.4" stroke-linecap="round" stroke-linejoin="round"/>
<path id="&#232;&#183;&#175;&#229;&#190;&#132;_2" d="M3.50002 23.625C5.25002 21.875 8.75001 19.25 12.25 19.25C15.75 19.25 24.0625 22.75 25.375 24.5C26.6875 26.25 22.75 28.875 22.75 28.875" stroke="white" stroke-opacity="0.8" stroke-width="1.4" stroke-linecap="round" stroke-linejoin="round"/>
<path id="&#232;&#183;&#175;&#229;&#190;&#132;_3" d="M14 14V7C14 6.0335 14.7835 5.25 15.75 5.25H36.75C37.7165 5.25 38.5 6.0335 38.5 7V21" stroke="white" stroke-opacity="0.8" stroke-width="1.4" stroke-linecap="round" stroke-linejoin="round"/>
<path id="&#231;&#159;&#169;&#229;&#189;&#162;" d="M30.625 5.25H21.875V13.125H30.625V5.25Z" stroke="white" stroke-opacity="0.8" stroke-width="1.4" stroke-linecap="round" stroke-linejoin="round"/>
</g>
</g>
</g>
</g>
</g>
</svg>
