<svg width="42" height="42" viewBox="0 0 42 42" fill="none" xmlns="http://www.w3.org/2000/svg">
<g id="meditation-relaxation-calm-meditating-spirituality-tranquility-concentration-svgrepo-com">
<g id="Meditation">
<path id="Vector" d="M39.2633 25.1861C39.1724 24.8234 38.9854 24.4921 38.7218 24.2269C38.5059 24.01 38.2468 23.8409 37.9614 23.7304C37.6759 23.62 37.3705 23.5707 37.0648 23.5858C36.7426 23.5715 36.4248 23.6649 36.1617 23.8515C35.9687 23.7283 35.7375 23.6796 35.5112 23.7142C35.2701 23.7477 35.0396 23.8351 34.8369 23.97C34.6342 24.1048 34.4645 24.2836 34.3404 24.4931C34.1653 24.7679 34.0616 25.082 34.0388 25.4071C34.0159 25.7321 34.0746 26.0577 34.2095 26.3543H32.3757C31.3445 26.3543 30.6314 26.123 30.1956 25.6473C29.4103 24.7898 29.5534 23.1602 29.6919 21.5843C29.7395 21.0424 29.7888 20.4821 29.7961 19.9675C29.8605 18.6895 29.4599 17.6039 28.6053 16.7411C26.6189 14.7353 22.7352 14.5469 21.4199 14.5432C21.2046 14.5425 20.8339 14.5437 20.6646 14.5432C19.4399 14.5393 15.4256 14.6904 13.3946 16.7411C12.54 17.6039 12.1394 18.6894 12.2038 19.9675C12.2112 20.4821 12.2604 21.0424 12.3081 21.5843C12.4466 23.1602 12.5898 24.7898 11.8044 25.6472C11.3686 26.123 10.6555 26.3542 9.62422 26.3542H7.79045C7.92535 26.0576 7.98404 25.7321 7.96121 25.4071C7.93838 25.0821 7.83475 24.7679 7.65971 24.4931C7.53561 24.2837 7.36592 24.1049 7.16324 23.9701C6.96057 23.8352 6.73011 23.7478 6.489 23.7142C6.27661 23.6817 6.05947 23.7226 5.87344 23.8301C5.59126 23.6873 5.28249 23.6047 4.9667 23.5875C4.65595 23.5677 4.34457 23.6145 4.05337 23.7248C3.76217 23.8351 3.49788 24.0063 3.27817 24.2269C3.0147 24.4921 2.82765 24.8234 2.73671 25.186C2.41508 26.3463 2.8717 27.6145 3.87298 28.3419C5.03167 29.1836 6.7725 30.2813 9.13336 30.7201C8.49583 31.7022 8.13753 32.8393 8.09686 34.0095C8.09494 34.0745 8.09397 34.645 8.09397 34.645C8.09397 35.8571 8.57545 37.0194 9.43248 37.8765C10.2895 38.7335 11.4519 39.215 12.6639 39.215H29.3361C30.5481 39.215 31.7105 38.7335 32.5675 37.8764C33.4245 37.0194 33.906 35.857 33.906 34.645C33.906 34.645 33.9051 34.0745 33.9031 34.0096C33.866 32.8432 33.51 31.7092 32.8738 30.7309C35.151 30.2991 37.088 29.0967 38.127 28.3419C39.1283 27.6145 39.5849 26.3463 39.2633 25.1861ZM37.5485 27.5455C36.4112 28.3717 34.1217 29.7762 31.5665 29.8992L31.5669 29.906C30.8592 29.7127 30.0391 29.5849 29.1318 29.4437C28.9587 29.4166 28.7815 29.3887 28.6002 29.36C27.914 29.2572 27.2795 28.9352 26.7914 28.4421C26.4814 28.1347 26.2644 27.746 26.1655 27.3207C26.0154 26.6259 26.0942 25.1092 26.3829 23.1576C26.4014 23.0288 26.3681 22.8978 26.2902 22.7935C26.2124 22.6891 26.0963 22.6199 25.9675 22.6009C25.8388 22.5819 25.7077 22.6147 25.603 22.6922C25.4984 22.7696 25.4287 22.8854 25.4092 23.0141C25.1902 24.4956 24.9769 26.4815 25.2033 27.5291C25.3402 28.1334 25.645 28.6868 26.0827 29.1254C26.7198 29.7719 27.5487 30.1951 28.446 30.3321C28.6289 30.3608 28.8072 30.3887 28.9808 30.4158C30.2701 30.6162 31.2188 30.7773 31.8997 31.0472C32.5283 31.9212 32.8832 32.9623 32.9193 34.0383C32.9209 34.0938 32.9217 34.645 32.9217 34.645C32.9216 35.596 32.5438 36.508 31.8714 37.1804C31.199 37.8528 30.287 38.2306 29.3361 38.2306H25.4201V35.9333C25.4201 35.2943 25.2266 34.7811 24.8955 34.3881H27.4967C27.6272 34.3881 27.7524 34.3363 27.8447 34.244C27.937 34.1517 27.9888 34.0265 27.9888 33.896C27.9888 33.7654 27.937 33.6402 27.8447 33.5479C27.7524 33.4556 27.6272 33.4038 27.4967 33.4038H14.9551C14.8246 33.4038 14.6994 33.4556 14.6071 33.5479C14.5148 33.6402 14.4629 33.7654 14.4629 33.896C14.4629 34.0265 14.5148 34.1517 14.6071 34.244C14.6994 34.3363 14.8246 34.3881 14.9551 34.3881H22.3025C23.4788 34.3881 24.4357 34.757 24.4357 35.9333V38.2306H12.6639C12.1931 38.2306 11.7268 38.1379 11.2918 37.9577C10.8568 37.7775 10.4615 37.5134 10.1285 37.1805C9.45612 36.508 9.07835 35.596 9.07835 34.6451C9.07835 34.6451 9.07917 34.0938 9.08076 34.0382C9.11974 32.9657 9.47235 31.9283 10.0949 31.0543C10.7791 30.7724 11.7427 30.6082 13.0635 30.4027C13.2374 30.3756 13.4154 30.3477 13.5975 30.319C14.4948 30.182 15.3237 29.7588 15.9608 29.1123C16.3986 28.6735 16.7035 28.1198 16.8402 27.5152C17.0674 26.4676 16.8541 24.4817 16.6351 23.0002C16.6257 22.9362 16.6038 22.8748 16.5706 22.8193C16.5374 22.7639 16.4936 22.7155 16.4418 22.6769C16.3899 22.6384 16.3309 22.6104 16.2683 22.5947C16.2056 22.5789 16.1404 22.5757 16.0765 22.5851C16.0126 22.5945 15.9511 22.6164 15.8956 22.6496C15.8402 22.6828 15.7918 22.7266 15.7533 22.7784C15.7147 22.8303 15.6868 22.8893 15.671 22.9519C15.6552 23.0146 15.652 23.0798 15.6614 23.1437C15.9493 25.0952 16.0289 26.6128 15.878 27.3068C15.7794 27.732 15.5627 28.1207 15.2529 28.4282C14.7646 28.9215 14.1298 29.2435 13.4433 29.3461C13.262 29.3748 13.0848 29.4027 12.9117 29.4298C11.9938 29.5732 11.1659 29.7022 10.4514 29.9006C10.4498 29.9005 10.4482 29.9001 10.4464 29.9C7.72596 29.6969 5.81361 28.535 4.45152 27.5455C4.12649 27.3148 3.8792 26.9908 3.74238 26.6164C3.60556 26.2421 3.58567 25.835 3.68535 25.449C3.73681 25.2587 3.83146 25.0828 3.96196 24.9351C4.08094 24.8004 4.23105 24.6968 4.39921 24.6333C4.56737 24.5699 4.74849 24.5485 4.9268 24.571C5.09043 24.5823 5.25053 24.6239 5.39896 24.6937C5.39214 24.818 5.34411 24.9365 5.26246 25.0305C5.2385 25.0522 5.1644 25.1179 4.94755 25.1021C4.8828 25.0968 4.81763 25.1043 4.75581 25.1243C4.69399 25.1443 4.63673 25.1763 4.58735 25.2185C4.53797 25.2608 4.49744 25.3123 4.46809 25.3703C4.43874 25.4283 4.42116 25.4915 4.41636 25.5563C4.41156 25.6211 4.41963 25.6862 4.44012 25.7478C4.4606 25.8095 4.49309 25.8665 4.53571 25.9155C4.57833 25.9645 4.63024 26.0047 4.68844 26.0335C4.74664 26.0624 4.80998 26.0795 4.87481 26.0838C5.40978 26.1238 5.74631 25.9243 5.93401 25.7503C6.34424 25.3699 6.38149 24.818 6.38461 24.6953C6.47507 24.7128 6.5607 24.7496 6.63569 24.8031C6.71068 24.8566 6.77327 24.9257 6.81921 25.0056C7.04199 25.3709 7.03605 25.7381 6.80116 26.1282C6.72879 26.2489 6.68973 26.3867 6.68796 26.5274C6.68618 26.6681 6.72176 26.8068 6.79106 26.9294C6.8612 27.0534 6.96298 27.1566 7.08602 27.2285C7.20905 27.3004 7.34895 27.3384 7.49145 27.3386H9.62426C10.8888 27.3386 11.8123 27.0309 12.444 26.4005C12.4988 26.4675 12.5425 26.5427 12.5738 26.6234C12.6213 26.745 12.7151 26.8426 12.8347 26.8949C12.8939 26.9208 12.9576 26.9348 13.0222 26.9361C13.0868 26.9373 13.151 26.9259 13.2111 26.9024C13.2713 26.8788 13.3262 26.8437 13.3728 26.7989C13.4194 26.7541 13.4567 26.7006 13.4826 26.6414C13.5085 26.5822 13.5225 26.5185 13.5238 26.4539C13.525 26.3893 13.5136 26.3251 13.49 26.265C13.3889 26.0003 13.2256 25.7639 13.0141 25.5754C13.5452 24.4173 13.4104 22.8827 13.2887 21.4981C13.2402 20.9465 13.1945 20.4255 13.188 19.945L13.1874 19.9259C13.1349 18.9187 13.4311 18.1038 14.093 17.4349C15.8484 15.6608 19.5919 15.5285 20.6782 15.5289C20.864 15.529 21.1344 15.5292 21.3178 15.529C22.3991 15.5284 26.1496 15.6588 27.907 17.4349C28.5689 18.1038 28.8651 18.9187 28.8125 19.9259L28.812 19.945C28.8055 20.4255 28.7598 20.9465 28.7113 21.4981C28.5896 22.8825 28.4548 24.4169 28.9857 25.575C28.7739 25.7635 28.6104 26.0001 28.5091 26.265C28.4616 26.3865 28.4642 26.5219 28.5165 26.6414C28.5688 26.761 28.6665 26.8548 28.788 26.9024C28.9095 26.9499 29.0449 26.9472 29.1645 26.8949C29.284 26.8426 29.3778 26.745 29.4254 26.6234C29.4569 26.5427 29.501 26.4675 29.556 26.4006C30.1877 27.0309 31.1113 27.3386 32.3757 27.3386H34.5086C34.651 27.3384 34.7909 27.3004 34.9139 27.2285C35.0369 27.1566 35.1387 27.0534 35.2089 26.9294C35.2782 26.8069 35.3138 26.6682 35.312 26.5274C35.3103 26.3867 35.2712 26.2489 35.1988 26.1281C34.9639 25.7381 34.958 25.3708 35.1808 25.0055C35.2269 24.9253 35.2897 24.8561 35.3651 24.8025C35.4404 24.7489 35.5264 24.7122 35.6172 24.6949C35.6562 25.2176 36.021 25.9762 36.8828 25.9762C37.0134 25.9762 37.1386 25.9244 37.2309 25.8321C37.3232 25.7398 37.375 25.6146 37.375 25.484C37.375 25.3535 37.3232 25.2283 37.2309 25.136C37.1386 25.0437 37.0134 24.9918 36.8828 24.9918C36.7275 24.9918 36.6565 24.8651 36.6242 24.7547C36.7737 24.5767 37.0883 24.5703 37.0883 24.5703C37.2636 24.5588 37.4392 24.5855 37.6032 24.6485C37.7671 24.7115 37.9155 24.8093 38.038 24.9351C38.1742 25.0788 38.2696 25.2561 38.3145 25.4489C38.4142 25.8349 38.3944 26.242 38.2576 26.6164C38.1208 26.9907 37.8735 27.3147 37.5485 27.5455Z" fill="white" fill-opacity="0.8"/>
<path id="Vector_2" d="M21.0103 13.7902C23.2438 13.7902 25.061 12.0665 25.061 9.94781C25.061 7.82913 23.2438 6.10547 21.0103 6.10547C18.7767 6.10547 16.9595 7.82913 16.9595 9.94781C16.9595 12.0665 18.7767 13.7902 21.0103 13.7902ZM21.0103 7.08984C22.701 7.08984 24.0766 8.3719 24.0766 9.94781C24.0766 11.5237 22.701 12.8058 21.0103 12.8058C19.3195 12.8058 17.9439 11.5237 17.9439 9.94781C17.9439 8.3719 19.3195 7.08984 21.0103 7.08984Z" fill="white" fill-opacity="0.8"/>
<path id="Vector_3" d="M20.5963 10.2381C20.635 10.2001 20.6657 10.1549 20.6868 10.105C20.7079 10.0551 20.7189 10.0016 20.7192 9.9474C20.7195 9.89324 20.709 9.83956 20.6884 9.78946C20.6679 9.73936 20.6376 9.69384 20.5993 9.65551C20.561 9.61718 20.5155 9.58681 20.4655 9.56616C20.4154 9.5455 20.3617 9.53497 20.3076 9.53516C20.2534 9.53535 20.1998 9.54627 20.1499 9.56728C20.1 9.5883 20.0547 9.61899 20.0167 9.65759C19.7181 9.95584 19.4466 9.78425 19.311 9.65499C19.2335 9.57936 19.1292 9.53744 19.0209 9.53839C18.9127 9.53933 18.8091 9.58306 18.733 9.66003C18.6568 9.737 18.6142 9.84097 18.6144 9.94926C18.6146 10.0575 18.6576 10.1614 18.734 10.2381C18.9889 10.4901 19.3308 10.6348 19.6891 10.6421C19.8598 10.6396 20.0282 10.6024 20.1841 10.533C20.34 10.4635 20.4803 10.3632 20.5963 10.2381Z" fill="white" fill-opacity="0.8"/>
<path id="Vector_4" d="M22.3792 10.6418C22.5499 10.6392 22.7183 10.6021 22.8742 10.5327C23.0301 10.4632 23.1704 10.3629 23.2865 10.2377C23.3624 10.1607 23.4049 10.0567 23.4045 9.94848C23.4042 9.84025 23.3611 9.73655 23.2846 9.65996C23.2082 9.58338 23.1045 9.54012 22.9963 9.53962C22.8881 9.53911 22.784 9.5814 22.7069 9.65727C22.4082 9.95552 22.1367 9.78392 22.0011 9.65471C21.9237 9.57908 21.8194 9.53716 21.7111 9.5381C21.6028 9.53904 21.4993 9.58276 21.4232 9.65972C21.347 9.73669 21.3043 9.84065 21.3045 9.94893C21.3047 10.0572 21.3477 10.161 21.4241 10.2377C21.679 10.4898 22.0208 10.6344 22.3792 10.6418Z" fill="white" fill-opacity="0.8"/>
<path id="Vector_5" d="M21.0101 19.9242C21.2876 19.5361 21.7474 19.1307 22.1591 18.8505C22.0099 18.4472 21.8048 18.0668 21.5497 17.7206C21.4883 17.6365 21.4079 17.5681 21.3151 17.521C21.2223 17.4738 21.1197 17.4492 21.0156 17.4492C20.9115 17.4492 20.8088 17.4738 20.716 17.521C20.6232 17.5681 20.5428 17.6365 20.4814 17.7206C20.225 18.0682 20.0193 18.4505 19.8702 18.8559C20.2774 19.1362 20.7353 19.5415 21.0101 19.9242Z" fill="white" fill-opacity="0.8"/>
<path id="Vector_6" d="M23.8742 18.912C21.4445 19.3425 21.0561 21.2136 21.0102 22.0929C20.9643 21.2136 20.576 19.3425 18.1462 18.912C18.0534 18.896 17.9581 18.9022 17.8681 18.93C17.7781 18.9578 17.6959 19.0065 17.6283 19.0721C17.5607 19.1377 17.5095 19.2183 17.479 19.3075C17.4484 19.3966 17.4394 19.4917 17.4525 19.5849C17.9226 22.8045 21.0102 22.6412 21.0102 22.6412C21.0102 22.6412 24.0978 22.8045 24.5679 19.5849C24.5811 19.4917 24.572 19.3966 24.5415 19.3075C24.511 19.2183 24.4598 19.1377 24.3922 19.0721C24.3245 19.0065 24.2424 18.9578 24.1524 18.93C24.0624 18.9022 23.9671 18.896 23.8742 18.912Z" fill="white" fill-opacity="0.8"/>
<path id="Vector_7" d="M21.0048 5.02154C21.1353 5.02154 21.2605 4.96969 21.3528 4.87738C21.4451 4.78508 21.4969 4.65989 21.4969 4.52935V3.27734C21.4969 3.14681 21.4451 3.02162 21.3528 2.92931C21.2605 2.83701 21.1353 2.78516 21.0048 2.78516C20.8742 2.78516 20.749 2.83701 20.6567 2.92931C20.5644 3.02162 20.5126 3.14681 20.5126 3.27734V4.52935C20.5126 4.65989 20.5644 4.78508 20.6567 4.87738C20.749 4.96969 20.8742 5.02154 21.0048 5.02154Z" fill="white" fill-opacity="0.8"/>
<path id="Vector_8" d="M25.9004 8.10601C25.9735 8.10599 26.0456 8.08963 26.1116 8.0581L27.2421 7.52005C27.359 7.46338 27.4488 7.36277 27.4918 7.24018C27.5349 7.11758 27.5277 6.98293 27.4718 6.86561C27.416 6.74829 27.316 6.65781 27.1937 6.61391C27.0714 6.57001 26.9368 6.57624 26.819 6.63125L25.6885 7.1693C25.5876 7.21732 25.5061 7.29823 25.4573 7.39874C25.4085 7.49925 25.3953 7.61337 25.42 7.72234C25.4446 7.83132 25.5056 7.92867 25.5929 7.99839C25.6802 8.06812 25.7886 8.10607 25.9004 8.10601Z" fill="white" fill-opacity="0.8"/>
<path id="Vector_9" d="M14.8183 7.41812L15.9389 7.97644C16.0557 8.03465 16.1909 8.04407 16.3147 8.00261C16.4385 7.96116 16.5407 7.87222 16.599 7.75538C16.6572 7.63854 16.6666 7.50336 16.6251 7.37957C16.5837 7.25579 16.4947 7.15354 16.3779 7.09533L15.2573 6.537C15.1994 6.50818 15.1364 6.49103 15.072 6.48654C15.0075 6.48205 14.9427 6.4903 14.8814 6.51083C14.8202 6.53136 14.7635 6.56376 14.7147 6.60618C14.666 6.6486 14.626 6.70021 14.5972 6.75806C14.5684 6.81592 14.5512 6.87888 14.5467 6.94336C14.5422 7.00785 14.5505 7.07258 14.571 7.13387C14.5916 7.19516 14.624 7.25181 14.6664 7.30058C14.7088 7.34936 14.7604 7.38929 14.8183 7.41812Z" fill="white" fill-opacity="0.8"/>
<path id="Vector_10" d="M23.5555 5.84314C23.6079 5.88102 23.6672 5.90821 23.7301 5.92316C23.793 5.93811 23.8582 5.94052 23.922 5.93027C23.9859 5.92001 24.047 5.89728 24.1021 5.86338C24.1571 5.82947 24.2049 5.78506 24.2428 5.73267L24.9764 4.71809C25.0529 4.61231 25.0842 4.48047 25.0635 4.35159C25.0428 4.2227 24.9717 4.10733 24.8659 4.03084C24.7601 3.95435 24.6283 3.92302 24.4994 3.94374C24.3705 3.96446 24.2551 4.03552 24.1787 4.14131L23.4451 5.15589C23.3686 5.26167 23.3373 5.39351 23.358 5.52239C23.3787 5.65127 23.4498 5.76664 23.5555 5.84314Z" fill="white" fill-opacity="0.8"/>
<path id="Vector_11" d="M17.9005 5.62572C17.9364 5.67957 17.9826 5.72579 18.0364 5.76177C18.0902 5.79774 18.1506 5.82274 18.2141 5.83535C18.2775 5.84796 18.3429 5.84792 18.4064 5.83525C18.4698 5.82257 18.5302 5.7975 18.5839 5.76147C18.6377 5.72544 18.6838 5.67916 18.7197 5.62528C18.7556 5.5714 18.7804 5.51098 18.7929 5.44747C18.8054 5.38397 18.8052 5.31862 18.7924 5.25518C18.7796 5.19174 18.7544 5.13145 18.7183 5.07776L18.0213 4.03766C17.9485 3.92952 17.8358 3.85468 17.7079 3.82955C17.58 3.80442 17.4473 3.83106 17.339 3.90362C17.2307 3.97619 17.1556 4.08875 17.1303 4.21662C17.1049 4.34448 17.1312 4.47719 17.2036 4.58563L17.9005 5.62572Z" fill="white" fill-opacity="0.8"/>
</g>
</g>
</svg>
