<svg width="42" height="42" viewBox="0 0 42 42" fill="none" xmlns="http://www.w3.org/2000/svg">
<g id="travel-svgrepo-com 1">
<path id="Vector" d="M31.5 11.8125H26.25V5.25C26.9745 5.25 27.5625 4.662 27.5625 3.9375C27.5625 1.76269 25.7998 0 23.625 0H18.375C16.2002 0 14.4375 1.76269 14.4375 3.9375C14.4375 4.662 15.0255 5.25 15.75 5.25V11.8125H10.5C8.32519 11.8125 6.5625 13.5752 6.5625 15.75V34.125C6.5625 36.2998 8.32519 38.0625 10.5 38.0625H10.8636C10.5354 38.6269 10.3911 39.3133 10.5919 40.0549C10.8557 41.0327 11.676 41.7966 12.6748 41.9619C14.3233 42.2363 15.75 40.9723 15.75 39.375C15.75 38.8946 15.6109 38.4497 15.3864 38.0625H26.6149C26.2868 38.6269 26.1424 39.3133 26.3432 40.0549C26.607 41.0327 27.4273 41.7966 28.4261 41.9619C30.0733 42.2363 31.5 40.9723 31.5 39.375C31.5 38.8946 31.3609 38.4497 31.1364 38.0625H31.5C33.6748 38.0625 35.4375 36.2998 35.4375 34.125V15.75C35.4375 13.5752 33.6748 11.8125 31.5 11.8125ZM18.375 1.3125H23.625C25.0753 1.3125 26.25 2.48719 26.25 3.9375H24.9375C24.9375 3.213 24.3495 2.625 23.625 2.625H18.375C17.6505 2.625 17.0625 3.213 17.0625 3.9375H15.75C15.75 2.48719 16.9247 1.3125 18.375 1.3125ZM24.9375 5.25V11.8125H17.0625V5.25C17.787 5.25 18.375 4.662 18.375 3.9375H23.625C23.625 4.662 24.213 5.25 24.9375 5.25ZM13.125 40.6875C12.4018 40.6875 11.8125 40.0982 11.8125 39.375C11.8125 38.6518 12.4018 38.0625 13.125 38.0625C13.8482 38.0625 14.4375 38.6518 14.4375 39.375C14.4375 40.0982 13.8482 40.6875 13.125 40.6875ZM28.875 40.6875C28.1518 40.6875 27.5625 40.0982 27.5625 39.375C27.5625 38.6518 28.1518 38.0625 28.875 38.0625C29.5982 38.0625 30.1875 38.6518 30.1875 39.375C30.1875 40.0982 29.5982 40.6875 28.875 40.6875ZM34.125 34.125C34.125 35.5753 32.9503 36.75 31.5 36.75H10.5C9.04969 36.75 7.875 35.5753 7.875 34.125V21H18.375V22.3125C18.375 23.037 18.963 23.625 19.6875 23.625H22.3125C23.037 23.625 23.625 23.037 23.625 22.3125V21H34.125V34.125ZM19.6875 22.3125V18.375H22.3125V22.3125H19.6875ZM34.125 19.6875H23.625V18.375C23.625 17.6505 23.037 17.0625 22.3125 17.0625H19.6875C18.963 17.0625 18.375 17.6505 18.375 18.375V19.6875H7.875V15.75C7.875 14.2997 9.04969 13.125 10.5 13.125H31.5C32.9503 13.125 34.125 14.2997 34.125 15.75V19.6875Z" fill="white" fill-opacity="0.8"/>
</g>
</svg>
