<svg width="20" height="20" viewBox="0 0 20 20" fill="none" xmlns="http://www.w3.org/2000/svg">
<g clip-path="url(#clip0_650_371)">
<path fill-rule="evenodd" clip-rule="evenodd" d="M12.735 1.82795L13.6 0.253948C13.6161 0.214791 13.6172 0.171077 13.603 0.131174C13.5889 0.0912711 13.5605 0.057981 13.5234 0.0376756C13.4863 0.0173702 13.4429 0.0114756 13.4017 0.0211202C13.3605 0.0307647 13.3243 0.0552708 13.3 0.0899483L12.426 1.67995C11.661 1.34297 10.8339 1.16992 9.998 1.17195C9.129 1.17195 8.308 1.35295 7.574 1.67795L6.698 0.0899483C6.68731 0.07017 6.67283 0.0526934 6.65538 0.0385184C6.63793 0.0243435 6.61786 0.0137485 6.59631 0.00733965C6.57476 0.000930819 6.55216 -0.00116603 6.5298 0.0011691C6.50744 0.00350422 6.48576 0.0102255 6.466 0.0209483C6.44603 0.0314351 6.42836 0.0458141 6.41403 0.0632376C6.3997 0.0806612 6.38901 0.100777 6.38258 0.122398C6.37615 0.14402 6.37411 0.16671 6.37659 0.189132C6.37906 0.211553 6.386 0.233252 6.397 0.252948L7.263 1.82495C5.563 2.69895 4.413 4.36195 4.414 6.27195L15.58 6.27095C15.58 4.36095 14.434 2.70195 12.735 1.82795ZM7.457 4.25795C7.39567 4.25788 7.33496 4.24574 7.27833 4.22221C7.22169 4.19868 7.17025 4.16423 7.12693 4.12081C7.08361 4.0774 7.04927 4.02588 7.02586 3.9692C7.00245 3.91252 6.99043 3.85178 6.9905 3.79045C6.99057 3.72912 7.00271 3.66841 7.02624 3.61177C7.04977 3.55514 7.08422 3.50369 7.12763 3.46038C7.17105 3.41706 7.22256 3.38271 7.27925 3.35931C7.33593 3.3359 7.39667 3.32388 7.458 3.32395C7.58199 3.32395 7.7009 3.3732 7.78857 3.46088C7.87625 3.54855 7.9255 3.66746 7.9255 3.79145C7.9255 3.91544 7.87625 4.03435 7.78857 4.12202C7.7009 4.20969 7.58199 4.25895 7.458 4.25895L7.457 4.25795ZM15.542 6.69995L15.544 14.7119C15.544 15.1929 15.282 15.6089 14.896 15.8389C14.6924 15.9624 14.4591 16.0281 14.221 16.0289L13.317 16.0299V18.7639C13.3168 18.9477 13.2758 19.1291 13.1967 19.295C13.1177 19.4608 13.0027 19.607 12.8601 19.7229C12.7175 19.8388 12.5509 19.9214 12.3724 19.9648C12.1938 20.0083 12.0079 20.0114 11.828 19.9739C11.5492 19.9169 11.2985 19.7656 11.1182 19.5454C10.9378 19.3252 10.8389 19.0496 10.838 18.7649V16.0299H9.163V18.7649C9.16247 19.0928 9.03177 19.4071 8.79963 19.6387C8.56749 19.8703 8.2529 20.0002 7.925 19.9999C7.59726 19.9997 7.28298 19.8696 7.05095 19.6381C6.81892 19.4067 6.68806 19.0927 6.687 18.7649V16.0299H5.786C5.265 16.0299 4.819 15.7299 4.604 15.2939C4.51243 15.1139 4.46415 14.9149 4.463 14.7129L4.461 6.70295L15.542 6.69995ZM2.74 6.46995C3.424 6.46995 3.98 7.02295 3.98 7.70395V12.8739C3.97966 13.0976 3.91875 13.317 3.80373 13.5088C3.68871 13.7006 3.52389 13.8576 3.32677 13.9633C3.12965 14.0689 2.9076 14.1192 2.6842 14.1087C2.4608 14.0983 2.24441 14.0275 2.058 13.9039C1.88693 13.792 1.74643 13.6392 1.64919 13.4594C1.55194 13.2796 1.50101 13.0784 1.501 12.8739L1.5 7.70295C1.5 7.02295 2.055 6.46995 2.74 6.46995ZM17.26 6.46895C17.944 6.46895 18.5 7.02095 18.5 7.70295V12.8719C18.5 13.5549 17.945 14.1069 17.261 14.1069C16.576 14.1069 16.021 13.5549 16.021 12.8719V7.70195C16.021 7.01995 16.575 6.46695 17.259 6.46795L17.26 6.46895ZM12.54 3.32495C12.6031 3.32203 12.6661 3.33193 12.7252 3.35405C12.7844 3.37618 12.8384 3.41007 12.8841 3.45368C12.9298 3.49728 12.9661 3.5497 12.991 3.60776C13.0158 3.66581 13.0286 3.7283 13.0286 3.79145C13.0286 3.85459 13.0158 3.91708 12.991 3.97514C12.9661 4.0332 12.9298 4.08561 12.8841 4.12922C12.8384 4.17283 12.7844 4.20672 12.7252 4.22884C12.6661 4.25097 12.6031 4.26087 12.54 4.25795C12.4769 4.26087 12.4139 4.25097 12.3548 4.22884C12.2956 4.20672 12.2416 4.17283 12.1959 4.12922C12.1502 4.08561 12.1139 4.0332 12.089 3.97514C12.0642 3.91708 12.0514 3.85459 12.0514 3.79145C12.0514 3.7283 12.0642 3.66581 12.089 3.60776C12.1139 3.5497 12.1502 3.49728 12.1959 3.45368C12.2416 3.41007 12.2956 3.37618 12.3548 3.35405C12.4139 3.33193 12.4769 3.32203 12.54 3.32495Z" fill="#676767"/>
</g>
<defs>
<clipPath id="clip0_650_371">
<rect width="20" height="20" fill="white"/>
</clipPath>
</defs>
</svg>
