<svg width="32" height="32" viewBox="0 0 32 32" fill="none" xmlns="http://www.w3.org/2000/svg">
<g id="Chat">
<g id="Iconly/Light-Outline/Chat">
<g id="Chat_2">
<path id="Combined-Shape" fill-rule="evenodd" clip-rule="evenodd" d="M15.6645 1.3335C19.4952 1.3335 23.0952 2.82283 25.7992 5.52816C31.3885 11.1175 31.3885 20.2108 25.7992 25.8002C23.0592 28.5415 19.3698 29.9922 15.6325 29.9922C13.5952 29.9922 11.5445 29.5615 9.62583 28.6735C9.0605 28.4468 8.53117 28.2335 8.15117 28.2335C7.71383 28.2362 7.12583 28.4388 6.55783 28.6348C5.3925 29.0348 3.94183 29.5335 2.8685 28.4642C1.79917 27.3935 2.2925 25.9468 2.68983 24.7828C2.88583 24.2095 3.08717 23.6175 3.08717 23.1695C3.08717 22.8015 2.90983 22.3322 2.63783 21.6562C0.140501 16.2628 1.29517 9.76283 5.53117 5.5295C8.23517 2.82416 11.8338 1.3335 15.6645 1.3335ZM15.6658 3.3335C12.3685 3.3335 9.27117 4.61616 6.9445 6.94416C3.29917 10.5868 2.30717 16.1802 4.47383 20.8642C4.78583 21.6362 5.08717 22.3882 5.08717 23.1695C5.08717 23.9495 4.81917 24.7348 4.58317 25.4282C4.3885 25.9988 4.09383 26.8602 4.28317 27.0495C4.4685 27.2415 5.33517 26.9388 5.90717 26.7428C6.59383 26.5082 7.3725 26.2388 8.1445 26.2335C8.91783 26.2335 9.64717 26.5268 10.4192 26.8375C15.1485 29.0242 20.7418 28.0295 24.3858 24.3868C29.1938 19.5762 29.1938 11.7508 24.3858 6.94283C22.0578 4.61483 18.9618 3.3335 15.6658 3.3335ZM20.9284 14.8838C21.6644 14.8838 22.2617 15.4798 22.2617 16.2171C22.2617 16.9544 21.6644 17.5504 20.9284 17.5504C20.1924 17.5504 19.5897 16.9544 19.5897 16.2171C19.5897 15.4798 20.1804 14.8838 20.9164 14.8838H20.9284ZM15.5833 14.8838C16.3193 14.8838 16.9166 15.4798 16.9166 16.2171C16.9166 16.9544 16.3193 17.5504 15.5833 17.5504C14.8473 17.5504 14.2446 16.9544 14.2446 16.2171C14.2446 15.4798 14.834 14.8838 15.5713 14.8838H15.5833ZM10.2377 14.8838C10.9737 14.8838 11.571 15.4798 11.571 16.2171C11.571 16.9544 10.9737 17.5504 10.2377 17.5504C9.5017 17.5504 8.89903 16.9544 8.89903 16.2171C8.89903 15.4798 9.4897 14.8838 10.2257 14.8838H10.2377Z" fill="#5448C8"/>
</g>
</g>
</g>
</svg>
