<svg width="104" height="80" viewBox="0 0 104 80" fill="none" xmlns="http://www.w3.org/2000/svg">
<path d="M14.688 68.128C11.296 68.128 8.768 65.712 8.768 62.4C8.768 59.088 11.296 56.672 14.704 56.672C16.432 56.672 17.936 57.264 18.96 58.416L17.92 59.424C17.056 58.512 16 58.096 14.768 58.096C12.24 58.096 10.368 59.92 10.368 62.4C10.368 64.88 12.24 66.704 14.768 66.704C16 66.704 17.056 66.272 17.92 65.36L18.96 66.368C17.936 67.52 16.432 68.128 14.688 68.128ZM24.2911 68.096C21.7471 68.096 19.8751 66.288 19.8751 63.76C19.8751 61.232 21.7471 59.44 24.2911 59.44C26.8351 59.44 28.6911 61.232 28.6911 63.76C28.6911 66.288 26.8351 68.096 24.2911 68.096ZM24.2911 66.752C25.9231 66.752 27.1391 65.568 27.1391 63.76C27.1391 61.952 25.9231 60.784 24.2911 60.784C22.6591 60.784 21.4271 61.952 21.4271 63.76C21.4271 65.568 22.6591 66.752 24.2911 66.752ZM35.3434 59.44C37.4074 59.44 38.8634 60.624 38.8634 63.12V68H37.3274V63.296C37.3274 61.632 36.4954 60.816 35.0394 60.816C33.4074 60.816 32.3514 61.792 32.3514 63.632V68H30.8154V59.52H32.2874V60.8C32.9114 59.936 33.9994 59.44 35.3434 59.44ZM45.994 66.4L46.474 67.504C46.01 67.904 45.306 68.096 44.618 68.096C42.906 68.096 41.93 67.152 41.93 65.44V60.784H40.49V59.52H41.93V57.664H43.466V59.52H45.898V60.784H43.466V65.376C43.466 66.288 43.946 66.8 44.794 66.8C45.242 66.8 45.674 66.656 45.994 66.4ZM49.803 60.944C50.347 59.952 51.403 59.44 52.891 59.44V60.928C52.763 60.912 52.651 60.912 52.539 60.912C50.891 60.912 49.867 61.92 49.867 63.776V68H48.331V59.52H49.803V60.944ZM57.8565 59.44C60.1765 59.44 61.4885 60.56 61.4885 62.88V68H60.0325V66.88C59.5205 67.648 58.5765 68.096 57.2485 68.096C55.3285 68.096 54.1125 67.072 54.1125 65.6C54.1125 64.24 54.9925 63.12 57.5205 63.12H59.9525V62.816C59.9525 61.52 59.2005 60.768 57.6805 60.768C56.6725 60.768 55.6485 61.12 54.9925 61.68L54.3525 60.528C55.2325 59.824 56.4965 59.44 57.8565 59.44ZM57.5045 66.912C58.6565 66.912 59.5685 66.384 59.9525 65.408V64.224H57.5845C56.0645 64.224 55.6325 64.816 55.6325 65.536C55.6325 66.384 56.3365 66.912 57.5045 66.912ZM68.0739 68.096C65.4659 68.096 63.5939 66.288 63.5939 63.76C63.5939 61.232 65.4659 59.44 68.0739 59.44C69.5939 59.44 70.8579 60.064 71.5299 61.248L70.3619 62C69.8179 61.168 68.9859 60.784 68.0579 60.784C66.3939 60.784 65.1459 61.952 65.1459 63.76C65.1459 65.6 66.3939 66.752 68.0579 66.752C68.9859 66.752 69.8179 66.368 70.3619 65.536L71.5299 66.272C70.8579 67.456 69.5939 68.096 68.0739 68.096ZM77.9159 66.4L78.3959 67.504C77.9319 67.904 77.2279 68.096 76.5399 68.096C74.8279 68.096 73.8519 67.152 73.8519 65.44V60.784H72.4119V59.52H73.8519V57.664H75.3879V59.52H77.8199V60.784H75.3879V65.376C75.3879 66.288 75.8679 66.8 76.7159 66.8C77.1639 66.8 77.5959 66.656 77.9159 66.4ZM83.6036 68.096C81.0596 68.096 79.1876 66.288 79.1876 63.76C79.1876 61.232 81.0596 59.44 83.6036 59.44C86.1476 59.44 88.0036 61.232 88.0036 63.76C88.0036 66.288 86.1476 68.096 83.6036 68.096ZM83.6036 66.752C85.2356 66.752 86.4516 65.568 86.4516 63.76C86.4516 61.952 85.2356 60.784 83.6036 60.784C81.9716 60.784 80.7396 61.952 80.7396 63.76C80.7396 65.568 81.9716 66.752 83.6036 66.752ZM91.5999 60.944C92.1439 59.952 93.1999 59.44 94.6879 59.44V60.928C94.5599 60.912 94.4479 60.912 94.3359 60.912C92.6879 60.912 91.6639 61.92 91.6639 63.776V68H90.1279V59.52H91.5999V60.944Z" fill="#444444" fill-opacity="0.8"/>
<g clip-path="url(#clip0_650_426)">
<path d="M41.6627 25.8657L44.5695 21.797C46.0448 19.732 48.4388 18.5 50.978 18.5H53.022C55.5612 18.5 57.9553 19.732 59.4305 21.7988L62.3372 25.8657C62.6172 26.2595 62.5263 26.8055 62.1343 27.0872C61.9785 27.1957 61.8018 27.25 61.625 27.25C61.3537 27.25 61.0825 27.124 60.9128 26.8843L58.006 22.8155C56.8615 21.209 54.996 20.25 53.022 20.25H50.978C49.004 20.25 47.1402 21.209 45.994 22.8138L43.0873 26.8843C42.8055 27.2763 42.2595 27.3655 41.8658 27.0872C41.472 26.8055 41.3827 26.2577 41.6627 25.8657ZM73 15C73 15.357 72.783 15.6808 72.4505 15.812L68.4238 17.4238L66.812 21.4505C66.6808 21.783 66.357 22 66 22C65.643 22 65.3192 21.783 65.188 21.4505L63.5728 17.415L59.5338 15.7123C59.2048 15.5723 58.9912 15.2468 58.9982 14.8898C59.0052 14.531 59.2293 14.2125 59.5635 14.0865L63.578 12.5675L65.1862 8.5495C65.4487 7.88275 66.546 7.88275 66.8102 8.5495L68.422 12.5763L72.4487 14.188C72.7812 14.3193 73 14.643 73 15ZM69.7677 15L67.4245 14.062C67.2022 13.9727 67.0255 13.7978 66.938 13.5755L66 11.2323L65.062 13.5755C64.971 13.803 64.789 13.9815 64.5598 14.069L62.2323 14.951L64.5912 15.9433C64.8065 16.0343 64.978 16.2075 65.0638 16.4245L66.0017 18.7677L66.9398 16.4245C67.029 16.2023 67.204 16.0255 67.4263 15.938L69.7677 15ZM47.625 12.375C47.625 9.96175 49.5868 8 52 8C54.4132 8 56.375 9.96175 56.375 12.375C56.375 14.7882 54.4132 16.75 52 16.75C49.5868 16.75 47.625 14.7882 47.625 12.375ZM49.375 12.375C49.375 13.8223 50.5527 15 52 15C53.4473 15 54.625 13.8223 54.625 12.375C54.625 10.9277 53.4473 9.75 52 9.75C50.5527 9.75 49.375 10.9277 49.375 12.375ZM65.125 48.25H38.875C38.392 48.25 38 48.642 38 49.125C38 49.608 38.392 50 38.875 50H65.125C65.608 50 66 49.608 66 49.125C66 48.642 65.608 48.25 65.125 48.25ZM45.875 41.25C45.392 41.25 45 41.642 45 42.125C45 42.608 45.392 43 45.875 43H58.125C58.608 43 59 42.608 59 42.125C59 41.642 58.608 41.25 58.125 41.25H45.875ZM60.75 33.375C60.75 32.892 60.358 32.5 59.875 32.5H44.125C43.642 32.5 43.25 32.892 43.25 33.375C43.25 33.858 43.642 34.25 44.125 34.25H59.875C60.358 34.25 60.75 33.858 60.75 33.375ZM40.8525 38.527L37.8495 39.3355L37.0987 42.3368C37.0007 42.727 36.6508 43 36.25 43C35.8492 43 35.4975 42.727 35.4013 42.3368L34.654 39.346L31.6633 38.5988C31.273 38.5008 31 38.1508 31 37.75C31 37.3492 31.273 36.9975 31.6633 36.9012L34.654 36.154L35.4013 33.1632C35.4993 32.773 35.8492 32.5 36.25 32.5C36.6508 32.5 37.0025 32.773 37.0987 33.1632L37.8425 36.1435L40.821 36.8313C41.213 36.9223 41.493 37.267 41.5 37.6695C41.507 38.072 41.241 38.4238 40.8525 38.527Z" fill="#444444" fill-opacity="0.8"/>
</g>
<rect x="0.5" y="0.5" width="103" height="79" rx="11.5" stroke="#323232" stroke-opacity="0.133333"/>
<defs>
<clipPath id="clip0_650_426">
<rect width="42" height="42" fill="white" transform="translate(31 8)"/>
</clipPath>
</defs>
</svg>
