<svg width="76" height="80" viewBox="0 0 76 80" fill="none" xmlns="http://www.w3.org/2000/svg">
<path d="M9.68 68V56.8H14.4C18 56.8 20.448 59.072 20.448 62.4C20.448 65.728 18 68 14.4 68H9.68ZM11.28 66.608H14.304C17.072 66.608 18.848 64.912 18.848 62.4C18.848 59.888 17.072 58.192 14.304 58.192H11.28V66.608ZM30.3388 63.808C30.3388 63.936 30.3228 64.128 30.3068 64.272H23.4268C23.6188 65.76 24.8188 66.752 26.4988 66.752C27.4908 66.752 28.3228 66.416 28.9468 65.728L29.7948 66.72C29.0268 67.616 27.8588 68.096 26.4508 68.096C23.7148 68.096 21.8908 66.288 21.8908 63.76C21.8908 61.248 23.6988 59.44 26.1468 59.44C28.5948 59.44 30.3388 61.2 30.3388 63.808ZM26.1468 60.736C24.6748 60.736 23.5868 61.728 23.4268 63.168H28.8668C28.7068 61.744 27.6348 60.736 26.1468 60.736ZM36.9996 59.44C39.0636 59.44 40.5196 60.624 40.5196 63.12V68H38.9836V63.296C38.9836 61.632 38.1516 60.816 36.6956 60.816C35.0636 60.816 34.0076 61.792 34.0076 63.632V68H32.4716V59.52H33.9436V60.8C34.5676 59.936 35.6556 59.44 36.9996 59.44ZM47.6503 66.4L48.1303 67.504C47.6663 67.904 46.9623 68.096 46.2743 68.096C44.5623 68.096 43.5863 67.152 43.5863 65.44V60.784H42.1463V59.52H43.5863V57.664H45.1223V59.52H47.5543V60.784H45.1223V65.376C45.1223 66.288 45.6023 66.8 46.4503 66.8C46.8983 66.8 47.3303 66.656 47.6503 66.4ZM50.7553 57.888C50.1633 57.888 49.7153 57.456 49.7153 56.896C49.7153 56.336 50.1633 55.888 50.7553 55.888C51.3473 55.888 51.7953 56.32 51.7953 56.864C51.7953 57.44 51.3633 57.888 50.7553 57.888ZM49.9873 68V59.52H51.5233V68H49.9873ZM56.888 68.096C55.48 68.096 54.088 67.664 53.384 67.104L54.024 65.888C54.744 66.4 55.896 66.768 57 66.768C58.424 66.768 59.016 66.336 59.016 65.616C59.016 63.712 53.656 65.36 53.656 61.984C53.656 60.464 55.016 59.44 57.192 59.44C58.296 59.44 59.544 59.728 60.28 60.208L59.624 61.424C58.856 60.928 58.008 60.752 57.176 60.752C55.832 60.752 55.176 61.248 55.176 61.92C55.176 63.92 60.552 62.288 60.552 65.584C60.552 67.12 59.144 68.096 56.888 68.096ZM66.7596 66.4L67.2396 67.504C66.7756 67.904 66.0716 68.096 65.3836 68.096C63.6716 68.096 62.6956 67.152 62.6956 65.44V60.784H61.2556V59.52H62.6956V57.664H64.2316V59.52H66.6636V60.784H64.2316V65.376C64.2316 66.288 64.7116 66.8 65.5596 66.8C66.0076 66.8 66.4396 66.656 66.7596 66.4Z" fill="#444444" fill-opacity="0.8"/>
<rect x="0.5" y="0.5" width="75" height="79" rx="11.5" stroke="#323232" stroke-opacity="0.133333"/>
<path d="M44.4386 10.9444C50.1954 11.1101 54.7725 15.9768 54.7725 21.8133V22.5722C54.7725 30.7562 52.1195 38.5406 47.2929 44.9386L46.9355 45.4107C46.5783 45.8375 46.201 46.19 45.7861 46.4929C44.2145 47.641 41.9845 46.6603 41.7435 44.7129L40.6715 34.3552C40.5102 33.0533 39.4037 32.0756 38.0913 32.0756H37.8809C36.5687 32.0756 35.4624 33.0532 35.3027 34.3385L34.2293 44.7059C33.9894 46.6406 31.7477 47.6258 30.1811 46.4631C29.7807 46.1659 29.4165 45.8228 29.0959 45.4408L28.6784 44.9374C23.853 38.5404 21.2002 30.756 21.2002 22.5722V21.8133C21.2002 15.9767 25.7769 11.1102 31.5337 10.9444C33.8784 10.877 36.1233 11.5697 37.9863 12.8869C39.8493 11.5698 42.0943 10.877 44.4386 10.9444ZM37.5518 13.211L38.0708 13.8715V13.0315H37.902V13.8715L38.421 13.211C38.2789 13.0993 38.134 12.9912 37.9864 12.8869C37.8388 12.9912 37.6939 13.0993 37.5518 13.211ZM45.9526 43.9256C50.5603 37.8178 53.0925 30.3878 53.0925 22.5722V21.8132C53.0925 16.8739 49.2261 12.7629 44.3903 12.6237C42.257 12.5624 40.2266 13.2457 38.5898 14.532C38.4417 14.6483 38.259 14.7115 38.0707 14.7115H37.9019C37.7137 14.7115 37.5309 14.6483 37.3829 14.532C35.746 13.2456 33.7156 12.5625 31.582 12.6238C26.7462 12.763 22.8802 16.8739 22.8802 21.8133V22.5722C22.8802 30.3877 25.4123 37.8177 29.9948 43.8944L30.3849 44.3634C30.6205 44.6438 30.8881 44.8958 31.1823 45.1141C31.7083 45.5044 32.4795 45.1655 32.5602 44.516L33.6335 34.1486C33.8995 32.005 35.7208 30.3956 37.8809 30.3956H38.0913C40.2516 30.3956 42.0732 32.0051 42.3406 34.1655L43.4126 44.5232C43.4949 45.1876 44.2627 45.5252 44.7953 45.1361C45.0957 44.9168 45.369 44.6626 45.6094 44.3789L45.9526 43.9257L45.9526 43.9256Z" fill="#444444" fill-opacity="0.8"/>
</svg>
