<svg width="100" height="80" viewBox="0 0 100 80" fill="none" xmlns="http://www.w3.org/2000/svg">
<path d="M11.28 66.608H17.808V68H9.68V56.8H17.584V58.192H11.28V61.632H16.896V62.992H11.28V66.608ZM26.5294 56.128H28.0654V68H26.5934V66.656C25.9054 67.616 24.8174 68.096 23.5694 68.096C21.0894 68.096 19.2814 66.352 19.2814 63.76C19.2814 61.168 21.0894 59.44 23.5694 59.44C24.7694 59.44 25.8254 59.888 26.5294 60.8V56.128ZM23.6974 66.752C25.3134 66.752 26.5454 65.568 26.5454 63.76C26.5454 61.952 25.3134 60.784 23.6974 60.784C22.0654 60.784 20.8334 61.952 20.8334 63.76C20.8334 65.568 22.0654 66.752 23.6974 66.752ZM37.3396 59.52H38.8756V68H37.4196V66.72C36.7956 67.6 35.7396 68.096 34.5396 68.096C32.3476 68.096 30.8916 66.896 30.8916 64.4V59.52H32.4276V64.224C32.4276 65.888 33.2596 66.72 34.7156 66.72C36.3156 66.72 37.3396 65.728 37.3396 63.904V59.52ZM45.4958 68.096C42.8878 68.096 41.0158 66.288 41.0158 63.76C41.0158 61.232 42.8878 59.44 45.4958 59.44C47.0158 59.44 48.2798 60.064 48.9518 61.248L47.7838 62C47.2398 61.168 46.4078 60.784 45.4798 60.784C43.8158 60.784 42.5678 61.952 42.5678 63.76C42.5678 65.6 43.8158 66.752 45.4798 66.752C46.4078 66.752 47.2398 66.368 47.7838 65.536L48.9518 66.272C48.2798 67.456 47.0158 68.096 45.4958 68.096ZM54.0284 59.44C56.3484 59.44 57.6604 60.56 57.6604 62.88V68H56.2044V66.88C55.6924 67.648 54.7484 68.096 53.4204 68.096C51.5004 68.096 50.2844 67.072 50.2844 65.6C50.2844 64.24 51.1644 63.12 53.6924 63.12H56.1244V62.816C56.1244 61.52 55.3724 60.768 53.8524 60.768C52.8444 60.768 51.8204 61.12 51.1644 61.68L50.5244 60.528C51.4044 59.824 52.6684 59.44 54.0284 59.44ZM53.6764 66.912C54.8284 66.912 55.7404 66.384 56.1244 65.408V64.224H53.7564C52.2364 64.224 51.8044 64.816 51.8044 65.536C51.8044 66.384 52.5084 66.912 53.6764 66.912ZM64.7909 66.4L65.2709 67.504C64.8069 67.904 64.1029 68.096 63.4149 68.096C61.7029 68.096 60.7269 67.152 60.7269 65.44V60.784H59.2869V59.52H60.7269V57.664H62.2629V59.52H64.6949V60.784H62.2629V65.376C62.2629 66.288 62.7429 66.8 63.5909 66.8C64.0389 66.8 64.4709 66.656 64.7909 66.4ZM67.8959 57.888C67.3039 57.888 66.8559 57.456 66.8559 56.896C66.8559 56.336 67.3039 55.888 67.8959 55.888C68.4879 55.888 68.9359 56.32 68.9359 56.864C68.9359 57.44 68.5039 57.888 67.8959 57.888ZM67.1279 68V59.52H68.6639V68H67.1279ZM75.2286 68.096C72.6846 68.096 70.8126 66.288 70.8126 63.76C70.8126 61.232 72.6846 59.44 75.2286 59.44C77.7726 59.44 79.6286 61.232 79.6286 63.76C79.6286 66.288 77.7726 68.096 75.2286 68.096ZM75.2286 66.752C76.8606 66.752 78.0766 65.568 78.0766 63.76C78.0766 61.952 76.8606 60.784 75.2286 60.784C73.5966 60.784 72.3646 61.952 72.3646 63.76C72.3646 65.568 73.5966 66.752 75.2286 66.752ZM86.2809 59.44C88.3449 59.44 89.8009 60.624 89.8009 63.12V68H88.2649V63.296C88.2649 61.632 87.4329 60.816 85.9769 60.816C84.3449 60.816 83.2889 61.792 83.2889 63.632V68H81.7529V59.52H83.2249V60.8C83.8489 59.936 84.9369 59.44 86.2809 59.44Z" fill="#444444" fill-opacity="0.8"/>
<g clip-path="url(#clip0_650_421)">
<path d="M69.1362 36.5478C71.616 39.0293 71.616 43.0683 69.1362 45.5481L66.548 48.1363C65.3457 49.3403 63.748 50.0001 62.0488 50.0001C60.3495 50.0001 58.75 49.3386 57.5495 48.1363L51.2058 41.7943C50.8645 41.4531 50.8645 40.8983 51.2058 40.5571C51.547 40.2158 52.1017 40.2158 52.443 40.5571L58.7867 46.8991C60.5297 48.6421 63.5678 48.6421 65.3125 46.8991L67.9008 44.3108C69.698 42.5136 69.698 39.5858 67.9008 37.7851L67.4265 37.3108L64.1628 40.5746C63.9913 40.7461 63.7673 40.8301 63.5433 40.8301C63.3193 40.8301 63.0953 40.7443 62.9238 40.5746C62.5825 40.2333 62.5825 39.6786 62.9238 39.3373L66.1875 36.0736L62.2692 32.1553L59.0072 35.4173C58.666 35.7586 58.1113 35.7586 57.77 35.4173C57.4288 35.0761 57.4288 34.5213 57.77 34.1801L61.6515 30.2986C61.9928 29.9573 62.5475 29.9573 62.8887 30.2986L69.1362 36.5478ZM37.2058 27.7943C37.3773 27.9658 37.6013 28.0498 37.8253 28.0498C38.0493 28.0498 38.2732 27.9641 38.4447 27.7943C38.786 27.4531 38.786 26.8983 38.4447 26.5571L32.101 20.2133C30.3038 18.4143 30.3038 15.4866 32.101 13.6876L34.6892 11.0993C36.4322 9.35632 39.4703 9.35632 41.215 11.0993L42.1267 12.0111L38.8648 15.2731C38.5235 15.6143 38.5235 16.1691 38.8648 16.5103C39.0363 16.6818 39.2603 16.7658 39.4843 16.7658C39.7083 16.7658 39.9322 16.6801 40.1037 16.5103L43.3657 13.2483L46.8465 16.7291L43.5845 19.9911C43.2432 20.3323 43.2432 20.8871 43.5845 21.2283C43.9257 21.5696 44.4805 21.5696 44.8218 21.2283L48.7032 17.3468C49.0445 17.0056 49.0445 16.4508 48.7032 16.1096L42.4505 9.86382C40.0495 7.45932 35.8565 7.45757 33.4502 9.86382L30.862 12.4521C28.3822 14.9318 28.3823 18.9708 30.8638 21.4523L37.2058 27.7943ZM69.3112 17.8386L40.0863 47.0636C38.1945 48.9571 35.6763 50.0001 33.0005 50.0001H29.875C29.392 50.0001 29 49.6081 29 49.1251V46.0013C29 43.3256 30.043 40.8073 31.9365 38.9138L61.1598 9.68882C63.4068 7.44357 67.0642 7.44357 69.3112 9.68882C70.3997 10.7773 71 12.2246 71 13.7646C71 15.3046 70.3997 16.7501 69.3112 17.8386ZM61.8247 22.8506L56.1495 17.1753L33.1737 40.1511C31.611 41.7138 30.75 43.7911 30.75 46.0013V48.2501H33.0005C35.2108 48.2501 37.288 47.3891 38.849 45.8263L61.8247 22.8506ZM69.25 13.7646C69.25 12.6918 68.8335 11.6856 68.074 10.9261C66.5095 9.35982 63.9632 9.35982 62.397 10.9261L57.385 15.9381L63.0602 21.6133L68.0722 16.6013C68.8317 15.8418 69.25 14.8356 69.25 13.7646Z" fill="#444444" fill-opacity="0.8"/>
</g>
<rect x="0.5" y="0.5" width="99" height="79" rx="11.5" stroke="#323232" stroke-opacity="0.133333"/>
<defs>
<clipPath id="clip0_650_421">
<rect width="42" height="42" fill="white" transform="translate(29 8)"/>
</clipPath>
</defs>
</svg>
