<svg width="153" height="80" viewBox="0 0 153 80" fill="none" xmlns="http://www.w3.org/2000/svg">
<path d="M17.584 58.192H11.28V62.096H16.896V63.472H11.28V68H9.68V56.8H17.584V58.192ZM20.224 57.888C19.632 57.888 19.184 57.456 19.184 56.896C19.184 56.336 19.632 55.888 20.224 55.888C20.816 55.888 21.264 56.32 21.264 56.864C21.264 57.44 20.832 57.888 20.224 57.888ZM19.456 68V59.52H20.992V68H19.456ZM28.4528 59.44C30.5168 59.44 31.9728 60.624 31.9728 63.12V68H30.4368V63.296C30.4368 61.632 29.6048 60.816 28.1488 60.816C26.5168 60.816 25.4608 61.792 25.4608 63.632V68H23.9248V59.52H25.3968V60.8C26.0208 59.936 27.1088 59.44 28.4528 59.44ZM37.9034 59.44C40.2234 59.44 41.5354 60.56 41.5354 62.88V68H40.0794V66.88C39.5674 67.648 38.6234 68.096 37.2954 68.096C35.3754 68.096 34.1594 67.072 34.1594 65.6C34.1594 64.24 35.0394 63.12 37.5674 63.12H39.9994V62.816C39.9994 61.52 39.2474 60.768 37.7274 60.768C36.7194 60.768 35.6954 61.12 35.0394 61.68L34.3994 60.528C35.2794 59.824 36.5434 59.44 37.9034 59.44ZM37.5514 66.912C38.7034 66.912 39.6154 66.384 39.9994 65.408V64.224H37.6314C36.1114 64.224 35.6794 64.816 35.6794 65.536C35.6794 66.384 36.3834 66.912 37.5514 66.912ZM48.9059 59.44C50.9699 59.44 52.4259 60.624 52.4259 63.12V68H50.8899V63.296C50.8899 61.632 50.0579 60.816 48.6019 60.816C46.9699 60.816 45.9139 61.792 45.9139 63.632V68H44.3779V59.52H45.8499V60.8C46.4739 59.936 47.5619 59.44 48.9059 59.44ZM59.0114 68.096C56.4034 68.096 54.5314 66.288 54.5314 63.76C54.5314 61.232 56.4034 59.44 59.0114 59.44C60.5314 59.44 61.7954 60.064 62.4674 61.248L61.2994 62C60.7554 61.168 59.9234 60.784 58.9954 60.784C57.3314 60.784 56.0834 61.952 56.0834 63.76C56.0834 65.6 57.3314 66.752 58.9954 66.752C59.9234 66.752 60.7554 66.368 61.2994 65.536L62.4674 66.272C61.7954 67.456 60.5314 68.096 59.0114 68.096ZM65.224 57.888C64.632 57.888 64.184 57.456 64.184 56.896C64.184 56.336 64.632 55.888 65.224 55.888C65.816 55.888 66.264 56.32 66.264 56.864C66.264 57.44 65.832 57.888 65.224 57.888ZM64.456 68V59.52H65.992V68H64.456ZM72.0128 59.44C74.3328 59.44 75.6448 60.56 75.6448 62.88V68H74.1888V66.88C73.6768 67.648 72.7328 68.096 71.4048 68.096C69.4848 68.096 68.2688 67.072 68.2688 65.6C68.2688 64.24 69.1488 63.12 71.6768 63.12H74.1088V62.816C74.1088 61.52 73.3568 60.768 71.8368 60.768C70.8288 60.768 69.8048 61.12 69.1488 61.68L68.5088 60.528C69.3888 59.824 70.6528 59.44 72.0128 59.44ZM71.6608 66.912C72.8128 66.912 73.7248 66.384 74.1088 65.408V64.224H71.7408C70.2208 64.224 69.7888 64.816 69.7888 65.536C69.7888 66.384 70.4928 66.912 71.6608 66.912ZM78.4873 68V56.128H80.0233V68H78.4873ZM90.7409 68.128C89.0289 68.128 87.3489 67.552 86.4529 66.72L87.0449 65.472C87.8769 66.224 89.3009 66.768 90.7409 66.768C92.6769 66.768 93.5089 66.016 93.5089 65.04C93.5089 62.304 86.7249 64.032 86.7249 59.872C86.7249 58.144 88.0689 56.672 91.0129 56.672C92.3249 56.672 93.6849 57.024 94.6129 57.664L94.0849 58.944C93.1089 58.32 92.0049 58.032 91.0129 58.032C89.1089 58.032 88.2929 58.832 88.2929 59.808C88.2929 62.544 95.0769 60.832 95.0769 64.944C95.0769 66.656 93.7009 68.128 90.7409 68.128ZM104.854 63.808C104.854 63.936 104.838 64.128 104.822 64.272H97.9424C98.1344 65.76 99.3344 66.752 101.014 66.752C102.006 66.752 102.838 66.416 103.462 65.728L104.31 66.72C103.542 67.616 102.374 68.096 100.966 68.096C98.2304 68.096 96.4064 66.288 96.4064 63.76C96.4064 61.248 98.2144 59.44 100.662 59.44C103.11 59.44 104.854 61.2 104.854 63.808ZM100.662 60.736C99.1904 60.736 98.1024 61.728 97.9424 63.168H103.382C103.222 61.744 102.15 60.736 100.662 60.736ZM108.459 60.944C109.003 59.952 110.059 59.44 111.547 59.44V60.928C111.419 60.912 111.307 60.912 111.195 60.912C109.547 60.912 108.523 61.92 108.523 63.776V68H106.987V59.52H108.459V60.944ZM119.784 59.52H121.288L117.576 68H116.008L112.296 59.52H113.896L116.808 66.32L119.784 59.52ZM123.49 57.888C122.898 57.888 122.45 57.456 122.45 56.896C122.45 56.336 122.898 55.888 123.49 55.888C124.082 55.888 124.53 56.32 124.53 56.864C124.53 57.44 124.098 57.888 123.49 57.888ZM122.722 68V59.52H124.258V68H122.722ZM130.886 68.096C128.278 68.096 126.406 66.288 126.406 63.76C126.406 61.232 128.278 59.44 130.886 59.44C132.406 59.44 133.67 60.064 134.342 61.248L133.174 62C132.63 61.168 131.798 60.784 130.87 60.784C129.206 60.784 127.958 61.952 127.958 63.76C127.958 65.6 129.206 66.752 130.87 66.752C131.798 66.752 132.63 66.368 133.174 65.536L134.342 66.272C133.67 67.456 132.406 68.096 130.886 68.096ZM143.87 63.808C143.87 63.936 143.854 64.128 143.838 64.272H136.958C137.15 65.76 138.35 66.752 140.03 66.752C141.022 66.752 141.854 66.416 142.478 65.728L143.326 66.72C142.558 67.616 141.39 68.096 139.982 68.096C137.246 68.096 135.422 66.288 135.422 63.76C135.422 61.248 137.23 59.44 139.678 59.44C142.126 59.44 143.87 61.2 143.87 63.808ZM139.678 60.736C138.206 60.736 137.118 61.728 136.958 63.168H142.398C142.238 61.744 141.166 60.736 139.678 60.736Z" fill="#444444" fill-opacity="0.8"/>
<path d="M82.9062 42.125L86.8438 42.125L86.8438 36.875L82.9063 36.875L82.9062 42.125Z" stroke="#444444" stroke-opacity="0.8" stroke-miterlimit="10" stroke-linecap="round" stroke-linejoin="round"/>
<path d="M75.0312 42.125L78.9688 42.125L78.9688 29L75.0313 29L75.0312 42.125Z" stroke="#444444" stroke-opacity="0.8" stroke-miterlimit="10" stroke-linecap="round" stroke-linejoin="round"/>
<path d="M67.1562 42.125L71.0938 42.125L71.0938 21.125L67.1563 21.125L67.1562 42.125Z" stroke="#444444" stroke-opacity="0.8" stroke-miterlimit="10" stroke-linecap="round" stroke-linejoin="round"/>
<path d="M74.375 15.875L90.125 31.625" stroke="#444444" stroke-opacity="0.8" stroke-miterlimit="10" stroke-linecap="round" stroke-linejoin="round"/>
<path d="M86.1875 31.625H90.125V27.6875" stroke="#444444" stroke-opacity="0.8" stroke-miterlimit="10" stroke-linecap="round" stroke-linejoin="round"/>
<path d="M63.875 42.125H90.125" stroke="#444444" stroke-opacity="0.8" stroke-miterlimit="10" stroke-linecap="round" stroke-linejoin="round"/>
<rect x="0.5" y="0.5" width="152" height="79" rx="11.5" stroke="#323232" stroke-opacity="0.133333"/>
</svg>
