<svg width="58" height="80" viewBox="0 0 58 80" fill="none" xmlns="http://www.w3.org/2000/svg">
<path d="M19.44 65.984V62.336H20.976V66.704C19.856 67.648 18.304 68.128 16.736 68.128C13.296 68.128 10.768 65.712 10.768 62.4C10.768 59.088 13.296 56.672 16.768 56.672C18.544 56.672 20.048 57.264 21.072 58.4L20.08 59.392C19.152 58.496 18.096 58.096 16.832 58.096C14.24 58.096 12.368 59.904 12.368 62.4C12.368 64.864 14.24 66.704 16.816 66.704C17.76 66.704 18.64 66.496 19.44 65.984ZM29.8154 59.52H31.3194L27.2074 68.848C26.4554 70.64 25.4794 71.2 24.1834 71.2C23.3674 71.2 22.5354 70.928 22.0074 70.416L22.6634 69.264C23.0794 69.664 23.6074 69.888 24.1834 69.888C24.9194 69.888 25.3834 69.552 25.7994 68.576L26.0714 67.984L22.3274 59.52H23.9274L26.8874 66.304L29.8154 59.52ZM43.3609 59.44C45.4249 59.44 46.8329 60.624 46.8329 63.12V68H45.2969V63.296C45.2969 61.632 44.4969 60.816 43.1049 60.816C41.5689 60.816 40.5609 61.792 40.5609 63.632V68H39.0249V63.296C39.0249 61.632 38.2249 60.816 36.8329 60.816C35.2969 60.816 34.2889 61.792 34.2889 63.632V68H32.7529V59.52H34.2249V60.784C34.8329 59.92 35.8729 59.44 37.1529 59.44C38.4489 59.44 39.5369 59.952 40.0969 61.008C40.7369 60.048 41.9209 59.44 43.3609 59.44Z" fill="#444444" fill-opacity="0.8"/>
<rect x="0.5" y="0.5" width="57" height="79" rx="11.5" stroke="#323232" stroke-opacity="0.133333"/>
<path d="M48.6875 28.3438H46.7188V22.4375C46.7182 21.9155 46.5105 21.4151 46.1415 21.046C45.7724 20.677 45.272 20.4693 44.75 20.4688H41.4688V18.5C41.4682 17.978 41.2605 17.4776 40.8915 17.1085C40.5224 16.7395 40.022 16.5318 39.5 16.5312H35.5625C35.0405 16.5318 34.5401 16.7395 34.171 17.1085C33.802 17.4776 33.5943 17.978 33.5938 18.5V28.3438H24.4062V18.5C24.4057 17.978 24.198 17.4776 23.829 17.1085C23.4599 16.7395 22.9595 16.5318 22.4375 16.5312H18.5C17.978 16.5318 17.4776 16.7395 17.1085 17.1085C16.7395 17.4776 16.5318 17.978 16.5312 18.5V20.4688H13.25C12.728 20.4693 12.2276 20.677 11.8585 21.046C11.4895 21.4151 11.2818 21.9155 11.2812 22.4375V28.3438H9.3125C9.13845 28.3438 8.97153 28.4129 8.84846 28.536C8.72539 28.659 8.65625 28.826 8.65625 29C8.65625 29.174 8.72539 29.341 8.84846 29.464C8.97153 29.5871 9.13845 29.6562 9.3125 29.6562H11.2812V35.5625C11.2818 36.0845 11.4895 36.5849 11.8585 36.954C12.2276 37.323 12.728 37.5307 13.25 37.5312H16.5312V39.5C16.5318 40.022 16.7395 40.5224 17.1085 40.8915C17.4776 41.2605 17.978 41.4682 18.5 41.4688H22.4375C22.9595 41.4682 23.4599 41.2605 23.829 40.8915C24.198 40.5224 24.4057 40.022 24.4062 39.5V29.6562H33.5938V39.5C33.5943 40.022 33.802 40.5224 34.171 40.8915C34.5401 41.2605 35.0405 41.4682 35.5625 41.4688H39.5C40.022 41.4682 40.5224 41.2605 40.8915 40.8915C41.2605 40.5224 41.4682 40.022 41.4688 39.5V37.5312H44.75C45.272 37.5307 45.7724 37.323 46.1415 36.954C46.5105 36.5849 46.7182 36.0845 46.7188 35.5625V29.6562H48.6875C48.8615 29.6562 49.0285 29.5871 49.1515 29.464C49.2746 29.341 49.3438 29.174 49.3438 29C49.3438 28.826 49.2746 28.659 49.1515 28.536C49.0285 28.4129 48.8615 28.3438 48.6875 28.3438ZM13.25 36.2188C13.076 36.2186 12.9092 36.1493 12.7862 36.0263C12.6632 35.9033 12.5939 35.7365 12.5938 35.5625V22.4375C12.5939 22.2635 12.6632 22.0967 12.7862 21.9737C12.9092 21.8507 13.076 21.7814 13.25 21.7812H16.5312V36.2188H13.25ZM23.0938 39.5C23.0936 39.674 23.0243 39.8408 22.9013 39.9638C22.7783 40.0868 22.6115 40.1561 22.4375 40.1562H18.5C18.326 40.1561 18.1592 40.0868 18.0362 39.9638C17.9132 39.8408 17.8439 39.674 17.8438 39.5V18.5C17.8439 18.326 17.9132 18.1592 18.0362 18.0362C18.1592 17.9132 18.326 17.8439 18.5 17.8438H22.4375C22.6115 17.8439 22.7783 17.9132 22.9013 18.0362C23.0243 18.1592 23.0936 18.326 23.0938 18.5V39.5ZM40.1562 39.5C40.1561 39.674 40.0868 39.8408 39.9638 39.9638C39.8408 40.0868 39.674 40.1561 39.5 40.1562H35.5625C35.3885 40.1561 35.2217 40.0868 35.0987 39.9638C34.9757 39.8408 34.9064 39.674 34.9062 39.5V18.5C34.9064 18.326 34.9757 18.1592 35.0987 18.0362C35.2217 17.9132 35.3885 17.8439 35.5625 17.8438H39.5C39.674 17.8439 39.8408 17.9132 39.9638 18.0362C40.0868 18.1592 40.1561 18.326 40.1562 18.5V39.5ZM45.4062 35.5625C45.4061 35.7365 45.3368 35.9033 45.2138 36.0263C45.0908 36.1493 44.924 36.2186 44.75 36.2188H41.4688V21.7812H44.75C44.924 21.7814 45.0908 21.8507 45.2138 21.9737C45.3368 22.0967 45.4061 22.2635 45.4062 22.4375V35.5625Z" fill="#444444" fill-opacity="0.8"/>
</svg>
