<svg width="119" height="80" viewBox="0 0 119 80" fill="none" xmlns="http://www.w3.org/2000/svg">
<path d="M17.712 56.8H19.312V68H17.712V63.008H11.28V68H9.68V56.8H11.28V61.616H17.712V56.8ZM26.0724 68.096C23.5284 68.096 21.6564 66.288 21.6564 63.76C21.6564 61.232 23.5284 59.44 26.0724 59.44C28.6164 59.44 30.4724 61.232 30.4724 63.76C30.4724 66.288 28.6164 68.096 26.0724 68.096ZM26.0724 66.752C27.7044 66.752 28.9204 65.568 28.9204 63.76C28.9204 61.952 27.7044 60.784 26.0724 60.784C24.4404 60.784 23.2084 61.952 23.2084 63.76C23.2084 65.568 24.4404 66.752 26.0724 66.752ZM43.2046 59.44C45.2686 59.44 46.6766 60.624 46.6766 63.12V68H45.1406V63.296C45.1406 61.632 44.3406 60.816 42.9486 60.816C41.4126 60.816 40.4046 61.792 40.4046 63.632V68H38.8686V63.296C38.8686 61.632 38.0686 60.816 36.6766 60.816C35.1406 60.816 34.1326 61.792 34.1326 63.632V68H32.5966V59.52H34.0686V60.784C34.6766 59.92 35.7166 59.44 36.9966 59.44C38.2926 59.44 39.3806 59.952 39.9406 61.008C40.5806 60.048 41.7646 59.44 43.2046 59.44ZM57.2138 63.808C57.2138 63.936 57.1978 64.128 57.1818 64.272H50.3018C50.4938 65.76 51.6938 66.752 53.3738 66.752C54.3658 66.752 55.1978 66.416 55.8218 65.728L56.6698 66.72C55.9018 67.616 54.7338 68.096 53.3258 68.096C50.5898 68.096 48.7658 66.288 48.7658 63.76C48.7658 61.248 50.5738 59.44 53.0218 59.44C55.4698 59.44 57.2138 61.2 57.2138 63.808ZM53.0218 60.736C51.5498 60.736 50.4618 61.728 50.3018 63.168H55.7418C55.5818 61.744 54.5098 60.736 53.0218 60.736ZM63.8675 68V56.8H68.5875C72.1875 56.8 74.6355 59.072 74.6355 62.4C74.6355 65.728 72.1875 68 68.5875 68H63.8675ZM65.4675 66.608H68.4915C71.2595 66.608 73.0355 64.912 73.0355 62.4C73.0355 59.888 71.2595 58.192 68.4915 58.192H65.4675V66.608ZM84.5263 63.808C84.5263 63.936 84.5103 64.128 84.4943 64.272H77.6143C77.8063 65.76 79.0063 66.752 80.6863 66.752C81.6783 66.752 82.5103 66.416 83.1343 65.728L83.9823 66.72C83.2143 67.616 82.0463 68.096 80.6383 68.096C77.9023 68.096 76.0783 66.288 76.0783 63.76C76.0783 61.248 77.8863 59.44 80.3343 59.44C82.7823 59.44 84.5263 61.2 84.5263 63.808ZM80.3343 60.736C78.8623 60.736 77.7743 61.728 77.6143 63.168H83.0543C82.8943 61.744 81.8223 60.736 80.3343 60.736ZM90.3551 68.096C87.7471 68.096 85.8751 66.288 85.8751 63.76C85.8751 61.232 87.7471 59.44 90.3551 59.44C91.8751 59.44 93.1391 60.064 93.8111 61.248L92.6431 62C92.0991 61.168 91.2671 60.784 90.3391 60.784C88.6751 60.784 87.4271 61.952 87.4271 63.76C87.4271 65.6 88.6751 66.752 90.3391 66.752C91.2671 66.752 92.0991 66.368 92.6431 65.536L93.8111 66.272C93.1391 67.456 91.8751 68.096 90.3551 68.096ZM99.3068 68.096C96.7628 68.096 94.8908 66.288 94.8908 63.76C94.8908 61.232 96.7628 59.44 99.3068 59.44C101.851 59.44 103.707 61.232 103.707 63.76C103.707 66.288 101.851 68.096 99.3068 68.096ZM99.3068 66.752C100.939 66.752 102.155 65.568 102.155 63.76C102.155 61.952 100.939 60.784 99.3068 60.784C97.6748 60.784 96.4428 61.952 96.4428 63.76C96.4428 65.568 97.6748 66.752 99.3068 66.752ZM107.303 60.944C107.847 59.952 108.903 59.44 110.391 59.44V60.928C110.263 60.912 110.151 60.912 110.039 60.912C108.391 60.912 107.367 61.92 107.367 63.776V68H105.831V59.52H107.303V60.944Z" fill="#444444" fill-opacity="0.8"/>
<g clip-path="url(#clip0_650_406)">
<path d="M40.75 35.9999H47.75V37.7499H39V20.8449C39 19.4974 39.6125 18.2374 40.68 17.3974L51.18 9.18993C52.7725 7.94743 54.9775 7.94743 56.57 9.18993L63.5 14.6149V9.74993H65.25V15.9799L67.07 17.3974C68.1375 18.2374 68.75 19.4799 68.75 20.8449V21.9999H67V20.8449C67 20.0399 66.6325 19.2874 65.985 18.7799L55.485 10.5724C54.54 9.81993 53.21 9.81993 52.2475 10.5724L41.765 18.7799C41.1175 19.2874 40.75 20.0399 40.75 20.8449V35.9999ZM81 41.2499V45.6249C81 48.0399 79.04 49.9999 76.625 49.9999H53.875C51.46 49.9999 49.5 48.0399 49.5 45.6249V41.2499H51.25V29.8749C51.25 27.4599 53.21 25.4999 55.625 25.4999H74.875C77.29 25.4999 79.25 27.4599 79.25 29.8749V41.2499H81ZM53 41.2499H59.4925L61.2425 42.9999H69.275L71.025 41.2499H77.5175V29.8749C77.5175 28.4224 76.345 27.2499 74.8925 27.2499H55.625C54.1725 27.2499 53 28.4224 53 29.8749V41.2499ZM79.25 42.9999H71.7425L69.9925 44.7499H60.525L58.775 42.9999H51.25V45.6249C51.25 47.0774 52.4225 48.2499 53.875 48.2499H76.625C78.0775 48.2499 79.25 47.0774 79.25 45.6249V42.9999Z" fill="#444444" fill-opacity="0.8"/>
</g>
<rect x="0.5" y="0.5" width="118" height="79" rx="11.5" stroke="#323232" stroke-opacity="0.133333"/>
<defs>
<clipPath id="clip0_650_406">
<rect width="42" height="42" fill="white" transform="translate(39 8)"/>
</clipPath>
</defs>
</svg>
