<svg width="84" height="80" viewBox="0 0 84 80" fill="none" xmlns="http://www.w3.org/2000/svg">
<path d="M17.712 56.8H19.312V68H17.712V63.008H11.28V68H9.68V56.8H11.28V61.616H17.712V56.8ZM26.0724 68.096C23.5284 68.096 21.6564 66.288 21.6564 63.76C21.6564 61.232 23.5284 59.44 26.0724 59.44C28.6164 59.44 30.4724 61.232 30.4724 63.76C30.4724 66.288 28.6164 68.096 26.0724 68.096ZM26.0724 66.752C27.7044 66.752 28.9204 65.568 28.9204 63.76C28.9204 61.952 27.7044 60.784 26.0724 60.784C24.4404 60.784 23.2084 61.952 23.2084 63.76C23.2084 65.568 24.4404 66.752 26.0724 66.752ZM35.0286 68.096C33.6206 68.096 32.2286 67.664 31.5246 67.104L32.1646 65.888C32.8846 66.4 34.0366 66.768 35.1406 66.768C36.5646 66.768 37.1566 66.336 37.1566 65.616C37.1566 63.712 31.7966 65.36 31.7966 61.984C31.7966 60.464 33.1566 59.44 35.3326 59.44C36.4366 59.44 37.6846 59.728 38.4206 60.208L37.7646 61.424C36.9966 60.928 36.1486 60.752 35.3166 60.752C33.9726 60.752 33.3166 61.248 33.3166 61.92C33.3166 63.92 38.6926 62.288 38.6926 65.584C38.6926 67.12 37.2846 68.096 35.0286 68.096ZM45.1083 59.44C47.5883 59.44 49.3963 61.168 49.3963 63.76C49.3963 66.368 47.5883 68.096 45.1083 68.096C43.9083 68.096 42.8523 67.632 42.1483 66.72V71.104H40.6123V59.52H42.0843V60.864C42.7723 59.92 43.8602 59.44 45.1083 59.44ZM44.9803 66.752C46.6123 66.752 47.8443 65.568 47.8443 63.76C47.8443 61.968 46.6123 60.784 44.9803 60.784C43.3643 60.784 42.1323 61.968 42.1323 63.76C42.1323 65.568 43.3643 66.752 44.9803 66.752ZM52.2865 57.888C51.6945 57.888 51.2465 57.456 51.2465 56.896C51.2465 56.336 51.6945 55.888 52.2865 55.888C52.8785 55.888 53.3265 56.32 53.3265 56.864C53.3265 57.44 52.8945 57.888 52.2865 57.888ZM51.5185 68V59.52H53.0545V68H51.5185ZM60.2753 66.4L60.7553 67.504C60.2913 67.904 59.5873 68.096 58.8993 68.096C57.1873 68.096 56.2113 67.152 56.2113 65.44V60.784H54.7713V59.52H56.2113V57.664H57.7473V59.52H60.1793V60.784H57.7473V65.376C57.7473 66.288 58.2273 66.8 59.0753 66.8C59.5233 66.8 59.9553 66.656 60.2753 66.4ZM65.7003 59.44C68.0203 59.44 69.3323 60.56 69.3323 62.88V68H67.8763V66.88C67.3643 67.648 66.4203 68.096 65.0923 68.096C63.1723 68.096 61.9563 67.072 61.9563 65.6C61.9563 64.24 62.8363 63.12 65.3643 63.12H67.7963V62.816C67.7963 61.52 67.0443 60.768 65.5243 60.768C64.5163 60.768 63.4923 61.12 62.8363 61.68L62.1963 60.528C63.0763 59.824 64.3403 59.44 65.7003 59.44ZM65.3483 66.912C66.5003 66.912 67.4123 66.384 67.7963 65.408V64.224H65.4283C63.9083 64.224 63.4763 64.816 63.4763 65.536C63.4763 66.384 64.1803 66.912 65.3483 66.912ZM72.1748 68V56.128H73.7108V68H72.1748Z" fill="#444444" fill-opacity="0.8"/>
<g clip-path="url(#clip0_650_431)">
<path d="M58.625 18.5H56V12.375C56 9.9635 54.0382 8 51.625 8H32.375C29.9618 8 28 9.9635 28 12.375V18.5H25.375C22.9618 18.5 21 20.4635 21 22.875V50H63V22.875C63 20.4635 61.0382 18.5 58.625 18.5ZM22.75 48.25V22.875C22.75 21.4277 23.9277 20.25 25.375 20.25H28V48.25H22.75ZM54.25 48.25H29.75V12.375C29.75 10.9277 30.9277 9.75 32.375 9.75H51.625C53.0723 9.75 54.25 10.9277 54.25 12.375V48.25ZM61.25 48.25H56V20.25H58.625C60.0723 20.25 61.25 21.4277 61.25 22.875V48.25ZM35 32.5H40.25V34.25H35V32.5ZM43.75 32.5H49V34.25H43.75V32.5ZM35 39.5H40.25V41.25H35V39.5ZM43.75 39.5H49V41.25H43.75V39.5ZM42.875 21.125V25.5H41.125V21.125H36.75V19.375H41.125V15H42.875V19.375H47.25V21.125H42.875Z" fill="#444444" fill-opacity="0.8"/>
</g>
<rect x="0.5" y="0.5" width="83" height="79" rx="11.5" stroke="#323232" stroke-opacity="0.133333"/>
<defs>
<clipPath id="clip0_650_431">
<rect width="42" height="42" fill="white" transform="translate(21 8)"/>
</clipPath>
</defs>
</svg>
