<svg width="96" height="80" viewBox="0 0 96 80" fill="none" xmlns="http://www.w3.org/2000/svg">
<path d="M14.048 56.8C16.96 56.8 18.72 58.272 18.72 60.704C18.72 63.136 16.96 64.608 14.048 64.608H11.28V68H9.68V56.8H14.048ZM14 63.216C16.048 63.216 17.12 62.304 17.12 60.704C17.12 59.104 16.048 58.192 14 58.192H11.28V63.216H14ZM27.4714 59.52H28.9274V66.848C28.9274 69.84 27.4074 71.2 24.5274 71.2C22.9754 71.2 21.4074 70.768 20.4794 69.936L21.2154 68.752C21.9994 69.424 23.2314 69.856 24.4794 69.856C26.4794 69.856 27.3914 68.928 27.3914 67.008V66.336C26.6554 67.216 25.5514 67.648 24.3354 67.648C21.8874 67.648 20.0314 65.984 20.0314 63.536C20.0314 61.088 21.8874 59.44 24.3354 59.44C25.5994 59.44 26.7514 59.904 27.4714 60.832V59.52ZM24.5114 66.304C26.2074 66.304 27.4234 65.168 27.4234 63.536C27.4234 61.888 26.2074 60.784 24.5114 60.784C22.7994 60.784 21.5834 61.888 21.5834 63.536C21.5834 65.168 22.7994 66.304 24.5114 66.304ZM29.9582 69.6L35.2383 54.528H36.6303L31.3503 69.6H29.9582ZM45.7433 56.8H47.3433V68H45.7433V63.008H39.3113V68H37.7113V56.8H39.3113V61.616H45.7433V56.8ZM54.1036 68.096C51.5596 68.096 49.6876 66.288 49.6876 63.76C49.6876 61.232 51.5596 59.44 54.1036 59.44C56.6476 59.44 58.5036 61.232 58.5036 63.76C58.5036 66.288 56.6476 68.096 54.1036 68.096ZM54.1036 66.752C55.7356 66.752 56.9516 65.568 56.9516 63.76C56.9516 61.952 55.7356 60.784 54.1036 60.784C52.4716 60.784 51.2396 61.952 51.2396 63.76C51.2396 65.568 52.4716 66.752 54.1036 66.752ZM63.0599 68.096C61.6519 68.096 60.2599 67.664 59.5559 67.104L60.1959 65.888C60.9159 66.4 62.0679 66.768 63.1719 66.768C64.5959 66.768 65.1879 66.336 65.1879 65.616C65.1879 63.712 59.8279 65.36 59.8279 61.984C59.8279 60.464 61.1879 59.44 63.3639 59.44C64.4679 59.44 65.7159 59.728 66.4519 60.208L65.7959 61.424C65.0279 60.928 64.1799 60.752 63.3479 60.752C62.0039 60.752 61.3479 61.248 61.3479 61.92C61.3479 63.92 66.7239 62.288 66.7239 65.584C66.7239 67.12 65.3159 68.096 63.0599 68.096ZM72.9315 66.4L73.4115 67.504C72.9475 67.904 72.2435 68.096 71.5555 68.096C69.8435 68.096 68.8675 67.152 68.8675 65.44V60.784H67.4275V59.52H68.8675V57.664H70.4035V59.52H72.8355V60.784H70.4035V65.376C70.4035 66.288 70.8835 66.8 71.7315 66.8C72.1795 66.8 72.6115 66.656 72.9315 66.4ZM82.6513 63.808C82.6513 63.936 82.6353 64.128 82.6193 64.272H75.7393C75.9313 65.76 77.1313 66.752 78.8113 66.752C79.8033 66.752 80.6353 66.416 81.2593 65.728L82.1073 66.72C81.3393 67.616 80.1713 68.096 78.7633 68.096C76.0273 68.096 74.2033 66.288 74.2033 63.76C74.2033 61.248 76.0113 59.44 78.4593 59.44C80.9073 59.44 82.6513 61.2 82.6513 63.808ZM78.4593 60.736C76.9873 60.736 75.8993 61.728 75.7393 63.168H81.1793C81.0193 61.744 79.9473 60.736 78.4593 60.736ZM84.7841 68V56.128H86.3201V68H84.7841Z" fill="#444444" fill-opacity="0.8"/>
<path d="M47.9704 8.84035C47.7926 8.84669 47.6214 8.9093 47.4815 9.01918L28.1615 24.1392C28.0747 24.2072 28.0021 24.2918 27.9479 24.3879C27.8937 24.484 27.859 24.5899 27.8457 24.6994C27.8324 24.809 27.8409 24.9201 27.8705 25.0264C27.9002 25.1327 27.9505 25.2321 28.0186 25.3189C28.0867 25.4058 28.1712 25.4783 28.2674 25.5325C28.3635 25.5867 28.4694 25.6214 28.579 25.6346C28.6885 25.6478 28.7996 25.6394 28.9059 25.6097C29.0122 25.58 29.1116 25.5296 29.1984 25.4615L30.6864 24.2967H32.04V23.2368L48 10.7468L63.96 23.2368V24.2967H65.3135L66.8015 25.4615C66.8883 25.5296 66.9877 25.58 67.094 25.6097C67.2003 25.6394 67.3114 25.6478 67.4209 25.6346C67.5305 25.6213 67.6364 25.5866 67.7325 25.5325C67.8287 25.4783 67.9132 25.4057 67.9813 25.3189C68.0494 25.2321 68.0997 25.1327 68.1294 25.0264C68.159 24.9201 68.1675 24.809 68.1542 24.6994C68.1409 24.5899 68.1062 24.484 68.052 24.3879C67.9978 24.2918 67.9253 24.2073 67.8384 24.1392L48.5184 9.01918C48.3625 8.89681 48.1685 8.83347 47.9704 8.84035ZM36.24 25.6404V45.8004H34.4714V47.4804H37.6542V46.6404H37.92V44.9604H58.08V46.6404H58.3457V47.4804H61.5286V45.8004H59.76V44.1203V43.2803V34.0404V33.2004V32.3604V25.6404H58.08V28.6181C57.1864 27.8146 56.0098 27.3204 54.72 27.3204H48V32.3604H45.1535C45.8612 31.7428 46.32 30.8459 46.32 29.8404C46.32 27.9946 44.8057 26.4804 42.96 26.4804C41.1142 26.4804 39.6 27.9946 39.6 29.8404C39.6 30.8459 40.0588 31.7428 40.7664 32.3604H37.92V25.6404H36.24ZM30.36 25.8864V29.066H32.04V25.8864H30.36ZM63.96 25.8864V29.0643H65.64V25.8864H63.96ZM42.96 28.1604C43.8977 28.1604 44.64 28.9026 44.64 29.8404C44.64 30.7781 43.8977 31.5204 42.96 31.5204C42.0222 31.5204 41.28 30.7781 41.28 29.8404C41.28 28.9026 42.0222 28.1604 42.96 28.1604ZM49.68 29.0004H54.72C56.5851 29.0004 58.08 30.4952 58.08 32.3604H49.68V29.0004ZM30.36 30.6541V33.8336H32.04V30.6541H30.36ZM63.96 30.6541V33.8336H65.64V30.6541H63.96ZM37.92 34.0404H58.08V39.5381C57.1864 38.7346 56.0098 38.2404 54.72 38.2404H48V43.2803H45.1535C45.8612 42.6628 46.32 41.7659 46.32 40.7604C46.32 38.9146 44.8057 37.4004 42.96 37.4004C41.1142 37.4004 39.6 38.9146 39.6 40.7604C39.6 41.7659 40.0588 42.6628 40.7664 43.2803H37.92V34.0404ZM30.36 35.4234V38.6029H32.04V35.4234H30.36ZM63.96 35.4234V38.6013H65.64V35.4234H63.96ZM42.96 39.0804C43.8977 39.0804 44.64 39.8226 44.64 40.7604C44.64 41.6981 43.8977 42.4403 42.96 42.4403C42.0222 42.4403 41.28 41.6981 41.28 40.7604C41.28 39.8226 42.0222 39.0804 42.96 39.0804ZM49.68 39.9204H54.72C56.5851 39.9204 58.08 41.4152 58.08 43.2803H49.68V39.9204ZM63.96 40.1911V43.3706H65.64V40.1911H63.96ZM30.36 40.1927V43.3706H32.04V40.1927H30.36ZM30.36 44.9604V46.6404C30.36 46.8631 30.4485 47.0768 30.606 47.2343C30.7635 47.3918 30.9772 47.4803 31.2 47.4804H32.88V45.8004H32.04V44.9604H30.36ZM63.96 44.9604V45.8004H63.12V47.4804H64.8C65.0227 47.4803 65.2364 47.3918 65.3939 47.2343C65.5514 47.0768 65.6399 46.8631 65.64 46.6404V44.9604H63.96ZM39.2456 45.8004V47.4804H42.43V45.8004H39.2456ZM44.0214 45.8004V47.4804H47.2043V45.8004H44.0214ZM48.7957 45.8004V47.4804H51.9785V45.8004H48.7957ZM53.5699 45.8004V47.4804H56.7527V45.8004H53.5699Z" fill="#444444" fill-opacity="0.8"/>
<rect x="0.5" y="0.5" width="95" height="79" rx="11.5" stroke="#323232" stroke-opacity="0.133333"/>
</svg>
