<svg width="60" height="80" viewBox="0 0 60 80" fill="none" xmlns="http://www.w3.org/2000/svg">
<rect x="0.5" y="0.5" width="59" height="79" rx="11.5" stroke="#323232" stroke-opacity="0.133333"/>
<path d="M17.712 56.8H19.312V68H17.712V63.008H11.28V68H9.68V56.8H11.28V61.616H17.712V56.8ZM26.0724 68.096C23.5284 68.096 21.6564 66.288 21.6564 63.76C21.6564 61.232 23.5284 59.44 26.0724 59.44C28.6164 59.44 30.4724 61.232 30.4724 63.76C30.4724 66.288 28.6164 68.096 26.0724 68.096ZM26.0724 66.752C27.7044 66.752 28.9204 65.568 28.9204 63.76C28.9204 61.952 27.7044 60.784 26.0724 60.784C24.4404 60.784 23.2084 61.952 23.2084 63.76C23.2084 65.568 24.4404 66.752 26.0724 66.752ZM36.8846 66.4L37.3646 67.504C36.9006 67.904 36.1966 68.096 35.5086 68.096C33.7966 68.096 32.8206 67.152 32.8206 65.44V60.784H31.3806V59.52H32.8206V57.664H34.3566V59.52H36.7886V60.784H34.3566V65.376C34.3566 66.288 34.8366 66.8 35.6846 66.8C36.1326 66.8 36.5646 66.656 36.8846 66.4ZM46.6044 63.808C46.6044 63.936 46.5884 64.128 46.5724 64.272H39.6924C39.8844 65.76 41.0844 66.752 42.7644 66.752C43.7564 66.752 44.5884 66.416 45.2124 65.728L46.0604 66.72C45.2924 67.616 44.1244 68.096 42.7164 68.096C39.9804 68.096 38.1564 66.288 38.1564 63.76C38.1564 61.248 39.9644 59.44 42.4124 59.44C44.8604 59.44 46.6044 61.2 46.6044 63.808ZM42.4124 60.736C40.9404 60.736 39.8524 61.728 39.6924 63.168H45.1324C44.9724 61.744 43.9004 60.736 42.4124 60.736ZM48.7373 68V56.128H50.2733V68H48.7373Z" fill="#444444" fill-opacity="0.8"/>
<g clip-path="url(#clip0_650_436)">
<path d="M48.1481 45.2581H12.2299C10.451 45.2459 9.01219 43.8071 9 42.0296V21.8723C9.01219 20.0934 10.451 18.6545 12.2286 18.6423H48.1481C49.927 18.6545 51.3658 20.0934 51.378 21.8709V42.0323C51.378 43.8139 49.9337 45.2581 48.1521 45.2581H48.1481ZM12.2299 20.7965C12.2272 20.7965 12.2232 20.7965 12.2205 20.7965C11.6311 20.7965 11.1542 21.2734 11.1542 21.8628V21.8736V42.0336V42.0431C11.1542 42.6325 11.6311 43.1094 12.2205 43.1094H12.2313H48.1494H48.1589C48.7483 43.1094 49.2252 42.6325 49.2252 42.0431C49.2252 42.039 49.2252 42.0363 49.2252 42.0323V21.8723C49.2252 21.8696 49.2252 21.8655 49.2252 21.8628C49.2252 21.2734 48.7483 20.7965 48.1589 20.7965C48.1548 20.7965 48.1521 20.7965 48.1481 20.7965H12.2299Z" fill="#444444" fill-opacity="0.8"/>
<path d="M39.707 15.3255V15.331C39.707 15.9704 39.1881 16.488 38.5499 16.488C38.5486 16.488 38.5459 16.488 38.5445 16.488H21.8353C21.8339 16.488 21.8312 16.488 21.8299 16.488C21.1904 16.488 20.6729 15.9691 20.6729 15.331C20.6729 15.3296 20.6729 15.3269 20.6729 15.3255C20.6729 15.3242 20.6729 15.3215 20.6729 15.3201C20.6729 14.6806 21.1918 14.1631 21.8299 14.1631H21.8353H38.5445C39.1759 14.1915 39.6799 14.6969 39.707 15.3255Z" fill="#444444" fill-opacity="0.8"/>
<path d="M43.7553 16.1873V16.2063C43.7553 17.1709 42.9736 17.9527 42.0089 17.9527C42.0022 17.9527 41.9954 17.9527 41.9886 17.9527C41.9832 17.9527 41.9778 17.9527 41.971 17.9527C41.0064 17.9527 40.2246 17.1709 40.2246 16.2063C40.2246 16.1995 40.2246 16.1927 40.2246 16.1859V14.5073C40.2246 14.5019 40.2246 14.4951 40.2246 14.4883C40.2246 13.5237 41.0064 12.7419 41.971 12.7419H41.9913H42.0089C42.9736 12.7419 43.7553 13.5237 43.7553 14.4883V14.5087V14.5073V16.1873Z" fill="#444444" fill-opacity="0.8"/>
<path d="M20.1547 16.1873V16.2063C20.1547 17.1709 19.373 17.9527 18.4083 17.9527C18.4016 17.9527 18.3948 17.9527 18.388 17.9527C18.3826 17.9527 18.3772 17.9527 18.3704 17.9527C17.4058 17.9527 16.624 17.1709 16.624 16.2063C16.624 16.1995 16.624 16.1927 16.624 16.1859V14.5073C16.624 14.5019 16.624 14.4951 16.624 14.4883C16.624 13.5237 17.4058 12.7419 18.3704 12.7419H18.3907H18.3894H18.4083C19.373 12.7419 20.1547 13.5237 20.1547 14.4883V14.5087V14.5073V16.1873Z" fill="#444444" fill-opacity="0.8"/>
<path d="M49.3988 15.3255V15.331C49.3988 15.9704 48.8799 16.488 48.2418 16.488C48.2404 16.488 48.2377 16.488 48.2364 16.488H45.3519C45.3505 16.488 45.3478 16.488 45.3465 16.488C44.707 16.488 44.1895 15.9691 44.1895 15.331C44.1895 15.3296 44.1895 15.3269 44.1895 15.3255C44.1895 15.3242 44.1895 15.3215 44.1895 15.3201C44.1895 14.6806 44.7084 14.1631 45.3465 14.1631H45.3519H48.2364C48.8677 14.1915 49.3717 14.6969 49.3988 15.3255Z" fill="#444444" fill-opacity="0.8"/>
<path d="M16.1498 15.3255V15.331C16.1498 15.9704 15.6309 16.488 14.9927 16.488H12.1449C12.1435 16.488 12.1408 16.488 12.1395 16.488C11.5 16.488 10.9824 15.9691 10.9824 15.331C10.9824 15.3296 10.9824 15.3269 10.9824 15.3255C10.9824 15.3242 10.9824 15.3215 10.9824 15.3201C10.9824 14.6806 11.5013 14.1631 12.1395 14.1631H12.1449H15.0293C15.6498 14.1942 16.143 14.701 16.1498 15.3255Z" fill="#444444" fill-opacity="0.8"/>
<path d="M16.6656 32.4656V35.1753H19.2926V32.4656H20.8859V39.5297H19.2926V36.5572H16.6656V39.5297H15.0723V32.4656H16.6656Z" fill="#444444" fill-opacity="0.8"/>
<path d="M28.7683 35.9138C28.7805 36.0195 28.7859 36.1414 28.7859 36.2647C28.7859 38.1412 27.2644 39.6627 25.388 39.6627C25.35 39.6627 25.3107 39.6627 25.2728 39.6613H25.2782C25.266 39.6613 25.2525 39.6613 25.2389 39.6613C23.4194 39.6613 21.9453 38.1872 21.9453 36.3677C21.9453 36.2539 21.9507 36.1401 21.9629 36.029L21.9616 36.0425C21.9534 35.9558 21.9494 35.8569 21.9494 35.7553C21.9494 33.8667 23.4803 32.337 25.3676 32.337H25.4096H25.4069C25.4313 32.337 25.4611 32.3357 25.4896 32.3357C27.3064 32.3357 28.7778 33.8084 28.7778 35.6239C28.7778 35.7255 28.7737 35.8271 28.7642 35.926L28.7656 35.9138H28.7683ZM23.6863 35.9992C23.6863 37.3784 24.3366 38.3674 25.4083 38.3674C26.48 38.3674 27.0883 37.3337 27.0883 35.9558C27.0883 34.6633 26.4854 33.5876 25.3663 33.5876C24.2905 33.5849 23.6863 34.62 23.6863 35.9965V35.9992Z" fill="#444444" fill-opacity="0.8"/>
<path d="M30.9214 33.8014H29.0273V32.4656H34.4548V33.8014H32.5174V39.5297H30.9241L30.9214 33.8014Z" fill="#444444" fill-opacity="0.8"/>
<path d="M39.4918 36.5138H36.9081V38.1938H39.8346V39.4864H35.2715V32.4656H39.6205V33.7581H36.8648V35.2227H39.4485V36.5152L39.4918 36.5138Z" fill="#444444" fill-opacity="0.8"/>
<path d="M40.9131 32.4656H42.5064V38.1938H45.3055V39.5297H40.9131V32.4656Z" fill="#444444" fill-opacity="0.8"/>
<path d="M30.1899 27.946L27.8636 29.1992L28.2972 26.6155L26.4424 24.7553L29.0261 24.3678L30.1885 22.0457L31.351 24.3719L33.9346 24.7594L32.0826 26.6115L32.5161 29.1951L30.1899 27.946Z" fill="#444444" fill-opacity="0.8"/>
<path d="M38.2432 28.2453L36.4779 29.1924L36.822 27.2116L35.3994 25.8337L37.3368 25.5763L38.2405 23.7676L39.1022 25.5763L41.083 25.8337L39.6617 27.2129L39.9625 29.1937L38.2432 28.2453Z" fill="#444444" fill-opacity="0.8"/>
<path d="M43.3673 28.5909L42.2049 29.1938L42.4216 27.9013L41.4746 26.9976L42.7671 26.7809L43.37 25.6184L43.9309 26.7809L45.2234 26.9976L44.3198 27.9013L44.5365 29.1938L43.3673 28.5909Z" fill="#444444" fill-opacity="0.8"/>
<path d="M22.179 28.2453L23.901 29.1924L23.5569 27.2116L24.9781 25.8324L23.0407 25.5749L22.1803 23.7676L21.2767 25.5763L19.3379 25.8337L20.7591 27.2129L20.415 29.1937L22.179 28.2453Z" fill="#444444" fill-opacity="0.8"/>
<path d="M17.011 28.5909L18.1735 29.1938L17.9567 27.9013L18.9037 26.9976L17.6112 26.7809L17.0097 25.6184L16.4488 26.7809L15.1562 26.9976L16.1033 27.9013L15.8865 29.1938L17.011 28.5909Z" fill="#444444" fill-opacity="0.8"/>
</g>
<defs>
<clipPath id="clip0_650_436">
<rect width="42" height="42" fill="white" transform="translate(9 8)"/>
</clipPath>
</defs>
</svg>
