<svg width="28" height="28" viewBox="0 0 28 28" fill="none" xmlns="http://www.w3.org/2000/svg">
<g id="Location">
<g id="Iconly/Light-Outline/Location">
<g id="Location_2">
<path id="Combined-Shape" fill-rule="evenodd" clip-rule="evenodd" d="M14.2911 2.3335C19.5983 2.3335 23.9161 6.684 23.9161 12.032C23.9161 18.6062 16.3841 25.0835 14.2911 25.0835C12.1981 25.0835 4.66608 18.6062 4.66608 12.032C4.66608 6.684 8.98392 2.3335 14.2911 2.3335ZM14.2911 4.0835C9.94875 4.0835 6.41608 7.65 6.41608 12.032C6.41608 17.6075 12.9774 23.0395 14.2911 23.3288C15.6048 23.0383 22.1661 17.6063 22.1661 12.032C22.1661 7.65 18.6334 4.0835 14.2911 4.0835ZM14.2922 8.16683C16.3829 8.16683 18.0839 9.86783 18.0839 11.9597C18.0839 14.0503 16.3829 15.7502 14.2922 15.7502C12.2016 15.7502 10.5006 14.0503 10.5006 11.9597C10.5006 9.86783 12.2016 8.16683 14.2922 8.16683ZM14.2922 9.91683C13.1664 9.91683 12.2506 10.8327 12.2506 11.9597C12.2506 13.0855 13.1664 14.0002 14.2922 14.0002C15.4181 14.0002 16.3339 13.0855 16.3339 11.9597C16.3339 10.8327 15.4181 9.91683 14.2922 9.91683Z" fill="#C51D00"/>
</g>
</g>
</g>
</svg>
