<svg width="182" height="54" viewBox="0 0 182 54" fill="none" xmlns="http://www.w3.org/2000/svg">
<g id="Group 15">
<path id="Vector" d="M0 53.6518C0 35.7423 0 17.9163 0 0.0373266C0.225617 0.0249177 0.439954 0.00235631 0.653162 0.00235631C6.35112 0.000100142 12.0491 -0.0010256 17.747 0.00123057C20.1363 0.00235865 22.5267 0.00122974 24.916 0.0215353C26.2629 0.0328161 27.6087 0.146753 28.9173 0.469385C29.9416 0.722076 30.9546 1.03455 31.9462 1.39554C32.6219 1.64146 33.2841 1.96297 33.8955 2.34088C35.2662 3.18807 36.5567 4.1492 37.6058 5.39009C38.1428 6.0252 38.6188 6.70092 39.0565 7.41613C39.5258 8.1821 39.7808 9.01575 40.1057 9.83248C40.699 11.3249 40.7227 12.8794 40.6855 14.443C40.6641 15.3285 40.5648 16.2129 40.2986 17.0601C40.0526 17.8396 39.8124 18.6372 39.4277 19.3513C39.0678 20.0202 38.7689 20.7433 38.2274 21.3119C38.0559 21.4924 37.9454 21.7281 37.7999 21.9346C37.7186 22.0496 37.6273 22.1602 37.5325 22.2651C37.334 22.4862 37.1298 22.7017 36.9278 22.9205C36.8951 22.9555 36.868 22.995 36.832 23.0254C36.3559 23.4327 35.8866 23.8467 35.4015 24.2415C34.9672 24.5935 34.5149 24.924 34.0467 25.2827C34.5025 25.6888 35.0496 25.8987 35.5414 26.1987C35.7411 26.3206 35.9261 26.465 36.1145 26.6026C36.1901 26.6579 36.2521 26.7346 36.3322 26.7831C37.0677 27.2242 37.6859 27.7938 38.2364 28.4481C38.5974 28.8779 39.0046 29.2682 39.378 29.6879C39.5134 29.8402 39.6138 30.0229 39.7277 30.1933C39.9026 30.4539 40.0831 30.7099 40.2467 30.9773C40.3527 31.151 40.4407 31.336 40.5264 31.521C40.7836 32.0772 41.0634 32.6243 41.2822 33.1951C41.6872 34.2476 41.8677 35.3554 42.0121 36.4699C42.0708 36.9223 42.152 37.3713 42.1937 37.8248C42.2953 38.9224 42.0753 39.9941 41.8756 41.0624C41.7335 41.8204 41.5462 42.574 41.324 43.3118C41.1943 43.7427 40.9359 44.133 40.769 44.5549C40.4238 45.4269 39.8552 46.167 39.3487 46.9397C39.0441 47.4045 38.6109 47.7857 38.2364 48.2054C38.0683 48.3938 37.9149 48.5946 37.7355 48.7706C37.5799 48.9229 37.3904 49.0413 37.2279 49.1868C36.6774 49.6798 36.075 50.0994 35.4704 50.5247C34.4303 51.2569 33.3067 51.7826 32.1448 52.2755C31.055 52.7369 29.9112 52.9388 28.7797 53.2242C27.2094 53.6213 25.6188 53.6495 24.0214 53.6507C16.2501 53.6552 8.47868 53.6529 0.707309 53.6529C0.490717 53.6518 0.271868 53.6518 0 53.6518ZM14.2116 41.5666C14.4113 41.5666 14.5985 41.5666 14.7847 41.5666C17.0611 41.5666 19.3388 41.5598 21.6152 41.57C22.6316 41.5745 23.6198 41.5091 24.5821 41.1086C25.3751 40.7781 26.0542 40.2987 26.5709 39.6534C26.9443 39.1875 27.2094 38.5998 27.3933 38.0244C27.6606 37.1885 27.6685 36.303 27.4531 35.4501C27.2376 34.5951 26.8552 33.8291 26.1761 33.2019C25.8106 32.8646 25.4541 32.5555 25.0017 32.3603C24.3678 32.0873 23.7462 31.7681 23.0321 31.7444C22.6846 31.7331 22.3372 31.7015 21.9897 31.7004C19.5711 31.697 17.1514 31.6981 14.7317 31.6981C14.5613 31.6981 14.391 31.6981 14.2398 31.6981C14.1101 32.0997 14.083 40.9507 14.2116 41.5666ZM14.2229 20.7918C14.3831 20.7997 14.5241 20.8133 14.664 20.8133C17.0679 20.8144 19.4719 20.8155 21.8758 20.811C22.1601 20.811 22.4455 20.7884 22.7264 20.7512C24.1252 20.5673 25.2725 19.9604 25.9967 18.7105C26.2697 18.2401 26.5551 17.7652 26.6296 17.2034C26.7864 16.011 26.7333 14.8728 26.1129 13.7751C25.7575 13.1457 25.3029 12.6256 24.7242 12.277C23.8736 11.7638 22.9373 11.4242 21.9006 11.4321C19.4809 11.4502 17.0611 11.4366 14.6414 11.4389C14.4902 11.4389 14.3391 11.4626 14.2026 11.475C14.0954 11.9984 14.1101 20.371 14.2229 20.7918Z" fill="#5448C8"/>
<path id="Vector_2" d="M58.2487 29.8606C58.8793 29.9238 59.8472 29.9678 60.7926 30.1347C61.5157 30.2622 62.2094 30.5521 62.9179 30.7597C63.7899 31.0158 64.5119 31.5696 65.323 31.9476C65.7234 32.4394 66.4161 32.5883 66.7522 33.1591C66.7827 33.211 66.8391 33.2527 66.8921 33.2855C67.2351 33.4987 67.4415 33.8348 67.7043 34.1259C68.1849 34.6583 68.5053 35.2833 68.8933 35.8699C69.2972 36.4791 69.4957 37.1435 69.7315 37.808C69.894 38.266 70.0891 38.7082 70.1703 39.1955C70.4287 40.7331 70.4873 42.2707 70.2538 43.815C70.2109 44.0959 70.1997 44.3869 70.1117 44.6532C69.8218 45.5331 69.5454 46.422 69.1821 47.2726C68.9373 47.8456 68.6249 48.4244 68.2097 48.8801C67.7799 49.3528 67.5024 49.971 66.9158 50.3026C66.8098 50.3624 66.741 50.482 66.6462 50.5666C66.4612 50.7324 66.2728 50.8949 66.0822 51.0539C65.9976 51.1239 65.8915 51.1712 65.8125 51.2457C65.3365 51.6969 64.7217 51.9203 64.1791 52.2587C63.3251 52.7889 62.3674 52.9604 61.4424 53.265C59.8574 53.7873 58.2397 53.7647 56.613 53.6767C56.0614 53.6474 55.5019 53.5966 54.9683 53.4669C54.2046 53.2819 53.4544 53.0315 52.7087 52.7788C51.8694 52.4945 51.0944 52.0534 50.377 51.557C49.8998 51.2265 49.4283 50.8531 48.9872 50.4459C48.4626 49.9608 48.0892 49.3562 47.5601 48.8857C47.4372 48.7763 47.383 48.5913 47.2939 48.4424C46.7671 47.567 46.3283 46.6612 45.9899 45.6865C45.1788 43.3547 45.2239 41.0083 45.7417 38.6506C45.9086 37.8914 46.2189 37.1537 46.5404 36.4418C46.8032 35.8598 47.1078 35.263 47.5286 34.7937C47.9538 34.3188 48.3092 33.7852 48.7931 33.3441C49.2951 32.8872 49.8332 32.4856 50.3646 32.075C50.6849 31.8268 51.0707 31.6633 51.4295 31.467C51.7442 31.2944 52.0477 31.0868 52.3816 30.9672C53.0043 30.7428 53.6608 30.6074 54.2768 30.3682C55.4533 29.908 56.6863 29.935 58.2487 29.8606ZM57.8945 47.9585C58.4777 47.9742 59.0023 47.8287 59.5415 47.7001C60.4282 47.4892 61.1784 47.0639 61.871 46.5111C62.6404 45.8963 63.1988 45.0773 63.4988 44.1816C64.0888 42.4162 64.1373 40.6304 63.2315 38.9045C62.9653 38.3979 62.6889 37.9162 62.2907 37.5022C61.8518 37.0442 61.3589 36.6438 60.8016 36.3595C59.9623 35.9319 59.0271 35.7966 58.1066 35.6465C57.8787 35.6093 57.6306 35.6409 57.3993 35.6826C56.965 35.7616 56.5374 35.8801 56.1043 35.968C55.1443 36.1632 54.3569 36.6799 53.671 37.3387C53.2096 37.7809 52.7775 38.266 52.5564 38.8977C52.3962 39.3557 52.121 39.7866 52.0319 40.2559C51.7363 41.8081 51.8096 43.3186 52.5756 44.7705C52.9073 45.3977 53.3134 45.9493 53.8221 46.4028C54.2835 46.8123 54.7754 47.2207 55.3958 47.4136C56.2227 47.6719 57.027 48.0205 57.8945 47.9585Z" fill="#C51D00"/>
<path id="Vector_3" d="M100.897 3.52758C101.059 3.52758 101.2 3.52758 101.341 3.52758C102.861 3.52758 104.38 3.53661 105.899 3.52082C106.219 3.51743 106.427 3.61558 106.603 3.8818C106.948 4.40524 107.309 4.91964 107.684 5.42164C108.078 5.94845 108.497 6.45722 108.901 6.97614C108.977 7.07428 109.03 7.19048 109.102 7.29313C109.556 7.93388 110.003 8.57915 110.467 9.212C110.978 9.9069 111.512 10.5849 112.023 11.2798C112.394 11.784 112.737 12.3109 113.109 12.814C113.689 13.598 114.284 14.3719 114.874 15.148C114.901 15.183 114.947 15.2033 114.981 15.2281C115.003 15.2191 115.019 15.2145 115.032 15.2055C115.043 15.1976 115.058 15.1852 115.06 15.1728C115.07 15.1265 115.082 15.0803 115.082 15.034C115.089 11.2403 115.095 7.44768 115.102 3.65393C115.102 3.63926 115.112 3.62573 115.117 3.61107C115.448 3.50728 120.302 3.4678 121.128 3.57045C121.14 3.77125 121.165 3.98446 121.165 4.19767C121.167 8.10197 121.167 12.0063 121.167 15.9106C121.167 19.12 121.167 22.3282 121.167 25.5376C121.167 25.7384 121.167 25.9404 121.167 26.184C120.942 26.1976 120.774 26.2156 120.604 26.2156C119.211 26.2179 117.819 26.1998 116.426 26.228C116.033 26.2359 115.819 26.078 115.623 25.7802C115.296 25.2838 114.952 24.7976 114.599 24.3182C114.095 23.6357 113.571 22.9701 113.068 22.2876C112.677 21.7586 112.315 21.2092 111.926 20.679C111.471 20.0619 110.998 19.4595 110.54 18.8447C110.37 18.618 110.233 18.3664 110.061 18.1408C109.665 17.6185 109.256 17.1052 108.857 16.5852C108.762 16.4611 108.691 16.3201 108.6 16.1926C108.112 15.4999 107.621 14.8084 107.128 14.1192C107.096 14.0729 107.036 14.0447 106.953 13.9815C106.904 14.0853 106.846 14.1587 106.837 14.2365C106.819 14.3922 106.827 14.5524 106.827 14.7103C106.827 18.3145 106.827 21.9187 106.827 25.523C106.827 25.726 106.827 25.9291 106.827 26.1152C106.444 26.237 101.719 26.2788 100.919 26.1818C100.821 25.8512 100.79 4.22474 100.897 3.52758Z" fill="#C51D00"/>
<path id="Vector_4" d="M73.7936 53.161C73.7936 45.5746 73.7936 38.0706 73.7936 30.517C73.9278 30.5034 74.0621 30.4775 74.1974 30.4775C77.2827 30.4752 80.3692 30.4673 83.4545 30.4809C84.5972 30.4854 85.7321 30.6354 86.8286 30.9581C87.9048 31.275 88.9009 31.7782 89.862 32.3682C90.4328 32.719 90.9337 33.1488 91.4041 33.5944C91.8734 34.0389 92.3743 34.4867 92.6845 35.0891C92.8774 35.4648 93.1729 35.7874 93.3737 36.1596C94.1047 37.5224 94.53 38.9708 94.653 40.5219C94.776 42.0652 94.671 43.5813 94.3247 45.0839C94.2232 45.525 94.1171 45.9729 93.8543 46.3609C93.7844 46.4647 93.737 46.5865 93.6975 46.705C93.5102 47.2623 93.1808 47.7394 92.8808 48.2392C92.5198 48.8416 92.0561 49.3571 91.5801 49.8456C91.139 50.2991 90.681 50.7638 90.1012 51.074C89.7977 51.2365 89.536 51.4745 89.2359 51.6449C87.3464 52.7132 85.3 53.1633 83.1409 53.161C80.2451 53.1587 77.3493 53.161 74.4535 53.161C74.2516 53.161 74.0485 53.161 73.7936 53.161ZM79.989 47.427C80.112 47.4484 80.1887 47.4721 80.2643 47.4721C81.2288 47.4743 82.1944 47.5048 83.1567 47.4619C83.9745 47.4258 84.7947 47.3232 85.4839 46.7997C85.5448 46.7535 85.6306 46.7388 85.696 46.6971C86.0141 46.4952 86.3943 46.3451 86.6334 46.0733C87.2324 45.3919 87.8247 44.6947 88.0368 43.7629C88.4553 41.923 88.4722 40.1395 87.3893 38.488C87.0869 38.0266 86.7587 37.581 86.2837 37.2832C85.7276 36.9335 85.185 36.5601 84.5329 36.3819C83.6959 36.1529 82.8465 36.1484 81.9925 36.1551C81.4397 36.1596 80.8858 36.1506 80.3331 36.1596C79.9924 36.1653 79.9665 36.2025 79.9462 36.5488C79.9439 36.5962 79.945 36.6436 79.945 36.691C79.945 40.1012 79.9439 43.5114 79.9473 46.9216C79.9461 47.0897 79.9744 47.2577 79.989 47.427Z" fill="#C51D00"/>
<path id="Vector_5" d="M129.58 30.5002C131.659 30.5002 133.712 30.5002 135.833 30.5002C135.833 31.8788 135.833 33.2336 135.833 34.5884C135.833 35.9421 135.832 37.2947 135.834 38.68C138.15 38.68 140.389 38.68 142.68 38.68C142.696 38.4668 142.723 38.2694 142.723 38.0708C142.727 35.747 142.725 33.4242 142.725 31.1004C142.725 30.9142 142.725 30.7281 142.725 30.5093C144.836 30.5093 146.901 30.5093 148.999 30.5093C148.999 38.0505 148.999 45.5793 148.999 53.1353C146.911 53.1353 144.858 53.1353 142.744 53.1353C142.705 51.6947 142.731 50.2631 142.727 48.8327C142.722 47.3967 142.725 45.9595 142.725 44.537C142.326 44.4073 136.338 44.3926 135.834 44.5201C135.833 47.3741 135.834 50.2428 135.833 53.1353C133.709 53.1353 131.656 53.1353 129.607 53.1353C129.505 52.7889 129.477 31.1308 129.58 30.5002Z" fill="#C51D00"/>
<path id="Vector_6" d="M45.3747 3.55005C47.5395 3.55005 49.6242 3.55005 51.7585 3.55005C51.7675 3.77003 51.7822 3.97083 51.7822 4.17162C51.7833 8.45496 51.7811 12.7383 51.7867 17.0216C51.7879 17.43 51.8228 17.8417 51.8792 18.2467C51.9424 18.7013 52.0823 19.1345 52.4094 19.4854C52.4952 19.5779 52.5719 19.6805 52.6384 19.7877C53.0197 20.398 53.6323 20.6338 54.2843 20.7973C54.59 20.874 54.9025 20.9564 55.215 20.9722C55.4925 20.9868 55.7756 20.9214 56.0531 20.8774C56.8394 20.75 57.5433 20.4521 58.0532 19.8136C58.2281 19.5948 58.3488 19.3342 58.4954 19.0939C58.9738 18.3144 58.9591 17.4492 58.958 16.5783C58.9501 12.4371 58.9546 8.2959 58.9546 4.1547C58.9546 3.96857 58.9546 3.78243 58.9546 3.56246C61.0979 3.56246 63.1939 3.56246 65.335 3.56246C65.3452 3.72264 65.3621 3.87607 65.3621 4.02948C65.3632 8.5813 65.3756 13.1331 65.3497 17.6849C65.3463 18.3392 65.1726 18.9958 65.0462 19.6456C64.956 20.1092 64.8398 20.5717 64.683 21.0162C64.5589 21.367 64.3513 21.6896 64.1844 22.0258C63.8177 22.7636 63.3203 23.419 62.7472 23.9954C62.1956 24.5493 61.5458 24.9938 60.8689 25.4033C60.0996 25.8692 59.2592 26.1061 58.4153 26.3746C56.774 26.8969 55.1067 26.8935 53.4405 26.6532C52.3519 26.4953 51.2701 26.1873 50.2875 25.6831C49.1357 25.0919 48.0934 24.3147 47.3082 23.2633C46.7555 22.5233 46.3223 21.719 45.9714 20.847C45.4559 19.5632 45.3747 18.2524 45.3747 16.91C45.3758 12.6582 45.3747 8.40645 45.3747 4.1547C45.3747 3.96969 45.3747 3.78356 45.3747 3.55005Z" fill="#C51D00"/>
<path id="Vector_7" d="M79.6949 10.2522C79.6791 10.1507 79.6622 10.0424 79.6453 9.93524C79.5212 9.16025 78.956 8.55898 78.1889 8.37172C77.5436 8.21378 76.8995 8.22958 76.2621 8.38751C75.4691 8.5838 74.9863 9.24485 75.063 9.98036C75.1205 10.5331 75.5176 10.8501 75.9316 11.087C76.3501 11.3262 76.8431 11.4333 77.2977 11.6138C78.3153 12.0188 79.4084 12.1429 80.4473 12.4599C81.3058 12.7216 82.1823 12.9811 82.9742 13.3894C83.9737 13.9061 84.9089 14.5265 85.5925 15.4978C86.0178 16.1014 86.2197 16.75 86.46 17.4144C86.8278 18.432 86.8199 19.4721 86.6326 20.4941C86.4781 21.339 86.2942 22.2246 85.8114 22.9443C85.4617 23.4644 85.2045 24.1017 84.5942 24.4221C84.2151 25.0324 83.5236 25.24 82.9799 25.6291C82.5963 25.9044 82.0887 26.0285 81.6194 26.1616C80.7113 26.4188 79.8134 26.72 78.8522 26.7617C77.6632 26.8136 76.4742 26.8441 75.3021 26.6331C74.5926 26.5057 73.8977 26.2733 73.2118 26.042C71.8953 25.5976 70.8417 24.7594 69.9133 23.752C69.7869 23.6144 69.7035 23.4373 69.6008 23.2782C68.8281 22.0667 68.4129 20.7491 68.4208 19.3062C68.422 19.1968 68.4378 19.0874 68.4468 18.9836C68.7818 18.8595 74.0748 18.8155 74.7945 18.9272C74.8825 19.2543 74.9727 19.5849 75.0607 19.9165C75.1329 20.1861 75.2593 20.4118 75.5199 20.5471C75.5875 20.5832 75.6417 20.6475 75.7004 20.6994C76.6152 21.5049 77.6734 21.471 78.7338 21.136C79.5212 20.8867 80.0051 20.2809 80.189 19.4732C80.2781 19.0829 80.0017 18.7884 79.819 18.4827C79.4727 17.9052 78.8635 17.7359 78.2803 17.5476C76.9875 17.1279 75.6518 16.8673 74.3455 16.5063C73.469 16.2638 72.6015 15.9175 71.8028 15.482C71.2117 15.1594 70.642 14.768 70.1603 14.2366C69.6753 13.703 69.3921 13.1085 69.1146 12.4723C68.4558 10.9595 68.563 9.41519 68.9352 7.88551C69.0954 7.22784 69.4124 6.56791 69.8129 6.02192C70.1344 5.58422 70.5123 5.15216 70.9771 4.80697C71.7487 4.23165 72.588 3.83795 73.4859 3.50516C74.5159 3.12274 75.5751 3.01895 76.6468 2.97045C77.7862 2.91856 78.9312 2.93886 80.048 3.19945C80.6267 3.33482 81.1761 3.58526 81.7491 3.74883C82.6144 3.99701 83.3172 4.54187 83.9376 5.1217C84.6562 5.79291 85.2282 6.62319 85.4966 7.61816C85.6771 8.28485 85.9479 8.92786 85.9513 9.63291C85.9524 9.83597 85.9513 10.039 85.9513 10.2353C85.5869 10.3594 80.1529 10.3741 79.6949 10.2522Z" fill="#C51D00"/>
<path id="Vector_8" d="M163.814 18.9124C165.966 18.9124 168.063 18.9124 170.15 18.9124C170.236 19.2497 170.311 19.5532 170.391 19.8555C170.497 20.2582 170.776 20.5008 171.098 20.7591C171.927 21.4269 172.851 21.445 173.791 21.2171C174.59 21.0231 175.366 20.4489 175.45 19.5611C175.503 18.988 175.283 18.3585 174.63 17.9885C174.277 17.7877 173.879 17.6602 173.494 17.5237C172.346 17.1165 171.156 16.8695 169.974 16.5897C169.565 16.4927 169.174 16.3122 168.775 16.1712C168.492 16.0708 168.21 15.9681 167.924 15.8767C167.252 15.6624 166.683 15.2416 166.143 14.8299C165.632 14.4407 165.193 13.9466 164.847 13.3611C163.758 11.5201 163.859 9.58655 164.346 7.63722C164.498 7.02692 164.825 6.41212 165.228 5.92817C165.618 5.45889 166.014 4.97268 166.56 4.61395C167.227 4.17626 167.924 3.85588 168.658 3.55919C169.738 3.1215 170.864 3.01433 172 2.96582C173.22 2.91393 174.439 2.96018 175.634 3.2422C175.966 3.32117 176.282 3.46669 176.609 3.56935C177.811 3.94613 178.839 4.59816 179.655 5.55026C180.296 6.29705 180.78 7.13297 180.976 8.1223C181.077 8.62881 181.3 9.10937 181.305 9.63844C181.307 9.84037 181.305 10.0434 181.305 10.2375C180.948 10.3491 175.658 10.3762 175.084 10.2736C175.066 10.2397 175.027 10.198 175.028 10.1585C175.059 9.53917 174.647 9.13982 174.283 8.7371C173.996 8.41898 173.56 8.34453 173.154 8.29828C172.457 8.21931 171.768 8.23623 171.121 8.58932C170.537 8.90857 170.23 9.6768 170.502 10.2871C170.636 10.5883 170.812 10.8737 171.14 11.0158C171.472 11.1591 171.799 11.3182 172.137 11.4468C173.289 11.8867 174.495 12.1394 175.69 12.4316C176.069 12.5241 176.43 12.6899 176.799 12.8241C177.274 12.9979 177.776 13.122 178.215 13.3611C178.884 13.7244 179.556 14.0696 180.134 14.6155C180.564 15.0217 180.912 15.4763 181.249 15.9365C181.484 16.2569 181.608 16.6754 181.714 17.068C182.092 18.468 182.079 19.8803 181.769 21.2904C181.609 22.018 181.306 22.6757 180.904 23.3165C180.534 23.9065 180.062 24.4062 179.55 24.8078C178.698 25.4767 177.743 26.0363 176.649 26.2596C175.893 26.4142 175.17 26.6985 174.383 26.7424C173.178 26.809 171.967 26.8722 170.786 26.6432C169.8 26.4525 168.826 26.1446 167.89 25.7757C167.287 25.5377 166.69 25.1744 166.224 24.7266C165.622 24.1479 165.074 23.5127 164.645 22.7524C164.031 21.6616 163.846 20.5154 163.774 19.3151C163.767 19.1978 163.797 19.0737 163.814 18.9124Z" fill="#C51D00"/>
<path id="Vector_9" d="M160.559 10.3028C158.528 10.3028 156.509 10.3028 154.513 10.3028C154.384 9.99371 154.265 9.71056 154.148 9.42628C153.867 8.74267 153.321 8.4065 152.622 8.31174C151.959 8.22149 151.301 8.23615 150.664 8.50464C150.014 8.77763 149.616 9.55376 149.864 10.2103C150.008 10.5916 150.228 10.9233 150.647 11.1094C151.778 11.6148 152.963 11.9408 154.163 12.2217C154.729 12.3537 155.304 12.4484 155.831 12.7271C156.107 12.8715 156.426 12.9414 156.732 13.017C157.627 13.2392 158.341 13.8111 159.122 14.2522C159.318 14.3628 159.437 14.6019 159.615 14.7531C160.903 15.8485 161.32 17.3116 161.38 18.9214C161.419 19.9389 161.32 20.9497 160.986 21.9108C160.809 22.4229 160.524 22.908 160.228 23.366C159.656 24.2482 158.867 24.8878 157.964 25.4406C157.117 25.9584 156.197 26.1671 155.276 26.4367C153.566 26.9375 151.831 26.8823 150.11 26.633C149.198 26.501 148.3 26.1885 147.437 25.8501C146.828 25.6109 146.224 25.2668 145.741 24.8337C145.296 24.4343 144.847 24.0226 144.478 23.5172C143.826 22.6215 143.494 21.6367 143.268 20.5785C143.189 20.2108 143.084 19.852 143.072 19.4741C143.066 19.3038 143.071 19.1335 143.071 18.98C143.474 18.8593 148.943 18.8379 149.443 18.9372C149.576 19.3072 149.691 19.6806 149.845 20.0382C149.924 20.2221 150.047 20.4003 150.189 20.5413C150.795 21.1414 151.544 21.3874 152.384 21.3355C152.744 21.3129 153.148 21.3039 153.448 21.1369C153.94 20.8639 154.514 20.6519 154.726 20.0235C155.098 18.9146 154.607 18.1949 153.456 17.7087C153.109 17.562 152.718 17.5237 152.367 17.386C151.168 16.9168 149.876 16.8073 148.662 16.4136C147.961 16.1858 147.256 15.9252 146.617 15.5653C145.94 15.184 145.282 14.7452 144.764 14.1372C144.04 13.2877 143.602 12.3198 143.48 11.2053C143.329 9.81998 143.397 8.46064 143.892 7.14417C143.962 6.95803 144.087 6.79333 144.187 6.61848C144.273 6.46845 144.346 6.30939 144.449 6.17063C144.624 5.93261 144.815 5.70473 145.004 5.47686C145.083 5.38097 145.176 5.2975 145.262 5.20725C145.382 5.08203 145.484 4.93087 145.623 4.83724C146.353 4.34991 147.092 3.90544 147.935 3.59409C150.006 2.8315 152.116 2.8755 154.248 3.10788C154.774 3.16542 155.311 3.22633 155.789 3.51963C155.971 3.63131 156.205 3.66178 156.417 3.72382C157.126 3.93477 157.715 4.37134 158.275 4.81693C158.848 5.2738 159.292 5.8559 159.692 6.49552C160.374 7.58976 160.52 8.78666 160.624 10.0129C160.627 10.0591 160.621 10.1076 160.615 10.1539C160.607 10.1832 160.592 10.2126 160.559 10.3028Z" fill="#C51D00"/>
<path id="Vector_10" d="M125.26 37.2246C124.466 37.3261 119.386 37.2878 119.022 37.1817C119.003 37.0847 118.98 36.9787 118.961 36.8715C118.811 36.0243 118.284 35.4321 117.382 35.2696C116.77 35.1602 116.156 35.1624 115.552 35.3587C114.452 35.7163 114.107 36.911 114.875 37.7694C114.996 37.9048 115.177 37.9962 115.345 38.0752C116.493 38.6166 117.713 38.9257 118.945 39.1999C119.357 39.2912 119.754 39.4514 120.158 39.58C120.73 39.7628 121.316 39.9094 121.87 40.1373C122.346 40.3336 122.775 40.6393 123.241 40.8627C123.856 41.1571 124.253 41.7042 124.747 42.134C125.007 42.3608 125.137 42.7387 125.326 43.0489C126.028 44.2119 126.088 45.4991 126.026 46.8009C126.004 47.2713 125.937 47.7474 125.828 48.2065C125.578 49.2466 125.078 50.1603 124.375 50.9737C123.904 51.5185 123.333 51.9122 122.746 52.3138C122.088 52.7628 121.354 52.958 120.624 53.2084C118.51 53.9349 116.352 53.8571 114.207 53.4848C113.289 53.3246 112.419 52.8835 111.528 52.5688C111.056 52.0837 110.31 51.9461 109.952 51.3189C109.381 51.0335 109.184 50.4187 108.792 49.9742C108.534 49.6809 108.425 49.2477 108.278 48.8653C108.127 48.4693 107.988 48.0655 107.888 47.6537C107.749 47.0852 107.71 46.5031 107.757 45.9266C108.111 45.8059 113.511 45.7721 114.071 45.8713C114.2 46.2053 114.319 46.5223 114.446 46.8347C114.921 47.9955 115.896 48.2922 117.022 48.2753C117.396 48.2697 117.802 48.2268 118.135 48.0734C119.058 47.6492 119.695 47.04 119.469 45.921C119.413 45.6502 119.244 45.463 119.05 45.2611C118.375 44.5616 117.465 44.4534 116.607 44.2176C115.527 43.9209 114.429 43.6851 113.361 43.3546C112.628 43.1278 111.9 42.8391 111.224 42.4769C110.248 41.9535 109.407 41.244 108.818 40.2772C108.414 39.6139 108.245 38.8772 108.152 38.1225C107.973 36.6899 108.075 35.2843 108.621 33.9317C108.695 33.7467 108.822 33.5831 108.927 33.4105C109.009 33.2763 109.087 33.1387 109.183 33.0157C109.365 32.7822 109.557 32.5566 109.75 32.3321C109.831 32.2385 109.927 32.1572 110.015 32.0692C110.137 31.9474 110.241 31.8008 110.381 31.7049C111.107 31.2051 111.865 30.7911 112.714 30.5001C114.81 29.7792 116.936 29.7883 119.086 30.0838C119.517 30.1436 119.936 30.3072 120.352 30.4459C120.846 30.6106 121.334 30.7945 121.819 30.984C121.948 31.0337 122.059 31.1318 122.173 31.2141C122.248 31.2694 122.305 31.3642 122.387 31.3958C123.006 31.6349 123.327 32.2204 123.806 32.622C123.99 32.7754 124.069 33.0473 124.216 33.2503C124.977 34.3074 125.182 35.5313 125.284 36.7858C125.297 36.9256 125.27 37.0655 125.26 37.2246Z" fill="#C51D00"/>
<path id="Vector_11" d="M175.471 53.1373C173.176 53.1373 170.949 53.1373 168.691 53.1373C168.649 53.0448 168.596 52.9512 168.562 52.8508C168.228 51.8705 167.895 50.889 167.564 49.9076C167.417 49.4677 167.42 49.4631 166.937 49.4631C165.165 49.462 163.393 49.462 161.622 49.462C160.973 49.462 160.324 49.4586 159.676 49.4643C159.304 49.4677 159.314 49.4778 159.19 49.832C158.811 50.9161 158.424 51.9968 158.036 53.0888C157.71 53.1779 152.094 53.2106 151.353 53.1181C151.374 53.0155 151.37 52.9004 151.419 52.8169C151.829 52.1175 152.001 51.3256 152.291 50.5811C152.462 50.1456 152.675 49.726 152.843 49.2894C153.283 48.1467 153.646 46.9678 154.163 45.8612C154.558 45.0151 154.819 44.1284 155.167 43.27C155.449 42.5717 155.713 41.8666 155.996 41.1683C156.136 40.822 156.306 40.4881 156.451 40.1429C156.699 39.5473 156.941 38.9505 157.176 38.3493C157.325 37.968 157.448 37.5754 157.598 37.1941C157.837 36.5827 158.095 35.9769 158.334 35.3655C158.49 34.9695 158.621 34.5634 158.772 34.1663C159.09 33.3304 159.41 32.4945 159.741 31.6642C159.873 31.3314 160.045 31.0144 160.185 30.6839C160.251 30.526 160.357 30.4707 160.515 30.4775C160.578 30.4797 160.641 30.4764 160.705 30.4764C162.477 30.4764 164.249 30.4752 166.02 30.4775C166.45 30.4775 166.457 30.4797 166.604 30.8712C166.755 31.2694 166.877 31.6789 167.033 32.0748C167.193 32.4821 167.393 32.8735 167.553 33.2819C168.019 34.4698 168.396 35.6994 168.958 36.8387C169.427 37.7909 169.645 38.8343 170.167 39.7594C170.351 40.0854 170.432 40.4667 170.573 40.8186C170.836 41.474 171.107 42.1261 171.376 42.7792C171.621 43.3749 171.873 43.9682 172.112 44.5661C172.253 44.917 172.371 45.2779 172.509 45.631C172.827 46.45 173.109 47.2871 173.481 48.0812C173.898 48.969 174.166 49.9121 174.57 50.7954C174.872 51.4565 175.109 52.1356 175.37 52.8079C175.401 52.8903 175.423 52.9805 175.471 53.1373ZM160.936 44.5932C162.567 44.5932 164.17 44.5932 165.8 44.5932C165.788 44.4635 165.797 44.3665 165.767 44.283C165.602 43.8261 165.413 43.3783 165.255 42.9191C165.045 42.3077 164.92 41.6591 164.643 41.0826C164.366 40.5084 164.207 39.9071 164.002 39.3149C163.815 38.7745 163.673 38.2139 163.316 37.739C163.039 38.1315 160.988 44.0145 160.936 44.5932Z" fill="#C51D00"/>
<path id="Vector_12" d="M140.161 8.78687C139.974 8.79928 139.774 8.82523 139.573 8.82523C137.216 8.82748 134.857 8.82635 132.499 8.82748C131.861 8.82748 131.857 8.83312 131.856 9.4547C131.855 10.1981 131.856 10.9404 131.856 11.6838C131.856 11.8395 131.856 11.9963 131.856 12.2072C132.072 12.2253 132.253 12.2523 132.434 12.2535C134.539 12.2569 136.644 12.2557 138.749 12.2557C138.935 12.2557 139.121 12.2557 139.292 12.2557C139.405 12.6539 139.431 16.7365 139.33 17.3626C139.16 17.3738 138.979 17.3953 138.796 17.3953C136.691 17.3975 134.586 17.3964 132.481 17.3975C132.295 17.3975 132.11 17.4145 131.891 17.4246C131.891 18.5471 131.891 19.6289 131.891 20.7728C132.092 20.7863 132.289 20.8111 132.486 20.8123C134.971 20.8145 137.455 20.8145 139.94 20.8145C140.127 20.8145 140.314 20.8145 140.487 20.8145C140.601 21.1958 140.626 25.5942 140.53 26.1413C140.189 26.235 126.442 26.2677 125.794 26.1763C125.701 25.83 125.681 4.12224 125.778 3.55933C130.561 3.55933 135.349 3.55933 140.135 3.55933C140.251 3.89324 140.278 8.2138 140.161 8.78687Z" fill="#C51D00"/>
<path id="Vector_13" d="M90.0652 3.55933C92.1567 3.55933 94.2222 3.55933 96.3205 3.55933C96.3205 11.1028 96.3205 18.6147 96.3205 26.1244C95.9866 26.2383 90.7805 26.2778 90.0844 26.1752C89.9953 25.8322 89.9716 4.17413 90.0652 3.55933Z" fill="#C51D00"/>
<path id="Vector_14" d="M98.1434 30.4922C100.222 30.4922 102.278 30.4922 104.326 30.4922C104.444 30.8408 104.473 52.5293 104.356 53.1238C102.298 53.1238 100.233 53.1238 98.1671 53.1238C98.0689 52.7933 98.0385 31.1499 98.1434 30.4922Z" fill="#C51D00"/>
<path id="Vector_15" d="M57.9597 36.919C60.6795 36.8242 62.9312 39.2124 62.9142 41.8589C62.8973 44.4963 60.6942 46.8055 57.8706 46.7762C55.0989 46.748 52.9217 44.4727 52.9307 41.8149C52.9408 39.1966 55.1395 36.7972 57.9597 36.919Z" fill="#5448C8"/>
</g>
</svg>
