<svg width="131" height="80" viewBox="0 0 131 80" fill="none" xmlns="http://www.w3.org/2000/svg">
<path d="M14.048 56.8C16.96 56.8 18.72 58.272 18.72 60.704C18.72 63.136 16.96 64.608 14.048 64.608H11.28V68H9.68V56.8H14.048ZM14 63.216C16.048 63.216 17.12 62.304 17.12 60.704C17.12 59.104 16.048 58.192 14 58.192H11.28V63.216H14ZM25.5309 59.44C27.5949 59.44 29.0509 60.624 29.0509 63.12V68H27.5149V63.296C27.5149 61.632 26.6829 60.816 25.2269 60.816C23.5949 60.816 22.5389 61.792 22.5389 63.632V68H21.0029V56.128H22.5389V60.72C23.1789 59.904 24.2349 59.44 25.5309 59.44ZM35.5724 68.096C33.0284 68.096 31.1564 66.288 31.1564 63.76C31.1564 61.232 33.0284 59.44 35.5724 59.44C38.1164 59.44 39.9724 61.232 39.9724 63.76C39.9724 66.288 38.1164 68.096 35.5724 68.096ZM35.5724 66.752C37.2044 66.752 38.4204 65.568 38.4204 63.76C38.4204 61.952 37.2044 60.784 35.5724 60.784C33.9404 60.784 32.7084 61.952 32.7084 63.76C32.7084 65.568 33.9404 66.752 35.5724 66.752ZM46.3846 66.4L46.8646 67.504C46.4006 67.904 45.6966 68.096 45.0086 68.096C43.2966 68.096 42.3206 67.152 42.3206 65.44V60.784H40.8806V59.52H42.3206V57.664H43.8566V59.52H46.2886V60.784H43.8566V65.376C43.8566 66.288 44.3366 66.8 45.1846 66.8C45.6326 66.8 46.0646 66.656 46.3846 66.4ZM52.0724 68.096C49.5284 68.096 47.6564 66.288 47.6564 63.76C47.6564 61.232 49.5284 59.44 52.0724 59.44C54.6164 59.44 56.4724 61.232 56.4724 63.76C56.4724 66.288 54.6164 68.096 52.0724 68.096ZM52.0724 66.752C53.7044 66.752 54.9204 65.568 54.9204 63.76C54.9204 61.952 53.7044 60.784 52.0724 60.784C50.4404 60.784 49.2084 61.952 49.2084 63.76C49.2084 65.568 50.4404 66.752 52.0724 66.752ZM65.2526 59.52H66.7086V66.848C66.7086 69.84 65.1886 71.2 62.3086 71.2C60.7566 71.2 59.1886 70.768 58.2606 69.936L58.9966 68.752C59.7806 69.424 61.0126 69.856 62.2606 69.856C64.2606 69.856 65.1726 68.928 65.1726 67.008V66.336C64.4366 67.216 63.3326 67.648 62.1166 67.648C59.6686 67.648 57.8126 65.984 57.8126 63.536C57.8126 61.088 59.6686 59.44 62.1166 59.44C63.3806 59.44 64.5326 59.904 65.2526 60.832V59.52ZM62.2926 66.304C63.9886 66.304 65.2046 65.168 65.2046 63.536C65.2046 61.888 63.9886 60.784 62.2926 60.784C60.5806 60.784 59.3646 61.888 59.3646 63.536C59.3646 65.168 60.5806 66.304 62.2926 66.304ZM71.1155 60.944C71.6595 59.952 72.7155 59.44 74.2035 59.44V60.928C74.0755 60.912 73.9635 60.912 73.8515 60.912C72.2035 60.912 71.1795 61.92 71.1795 63.776V68H69.6435V59.52H71.1155V60.944ZM79.169 59.44C81.489 59.44 82.801 60.56 82.801 62.88V68H81.345V66.88C80.833 67.648 79.889 68.096 78.561 68.096C76.641 68.096 75.425 67.072 75.425 65.6C75.425 64.24 76.305 63.12 78.833 63.12H81.265V62.816C81.265 61.52 80.513 60.768 78.993 60.768C77.985 60.768 76.961 61.12 76.305 61.68L75.665 60.528C76.545 59.824 77.809 59.44 79.169 59.44ZM78.817 66.912C79.969 66.912 80.881 66.384 81.265 65.408V64.224H78.897C77.377 64.224 76.945 64.816 76.945 65.536C76.945 66.384 77.649 66.912 78.817 66.912ZM90.1395 59.44C92.6195 59.44 94.4275 61.168 94.4275 63.76C94.4275 66.368 92.6195 68.096 90.1395 68.096C88.9395 68.096 87.8835 67.632 87.1795 66.72V71.104H85.6435V59.52H87.1155V60.864C87.8035 59.92 88.8915 59.44 90.1395 59.44ZM90.0115 66.752C91.6435 66.752 92.8755 65.568 92.8755 63.76C92.8755 61.968 91.6435 60.784 90.0115 60.784C88.3955 60.784 87.1635 61.968 87.1635 63.76C87.1635 65.568 88.3955 66.752 90.0115 66.752ZM101.078 59.44C103.142 59.44 104.598 60.624 104.598 63.12V68H103.062V63.296C103.062 61.632 102.23 60.816 100.774 60.816C99.1418 60.816 98.0858 61.792 98.0858 63.632V68H96.5498V56.128H98.0858V60.72C98.7258 59.904 99.7818 59.44 101.078 59.44ZM115.151 63.808C115.151 63.936 115.135 64.128 115.119 64.272H108.239C108.431 65.76 109.631 66.752 111.311 66.752C112.303 66.752 113.135 66.416 113.759 65.728L114.607 66.72C113.839 67.616 112.671 68.096 111.263 68.096C108.527 68.096 106.703 66.288 106.703 63.76C106.703 61.248 108.511 59.44 110.959 59.44C113.407 59.44 115.151 61.2 115.151 63.808ZM110.959 60.736C109.487 60.736 108.399 61.728 108.239 63.168H113.679C113.519 61.744 112.447 60.736 110.959 60.736ZM118.756 60.944C119.3 59.952 120.356 59.44 121.844 59.44V60.928C121.716 60.912 121.604 60.912 121.492 60.912C119.844 60.912 118.82 61.92 118.82 63.776V68H117.284V59.52H118.756V60.944Z" fill="#444444" fill-opacity="0.8"/>
<g clip-path="url(#clip0_650_571)">
<path d="M55.9354 20.3425C55.9474 19.9546 55.9819 18.7738 56.8214 18.4566C57.6512 18.1405 58.5039 18.9933 58.6666 19.1668C58.8832 19.3989 58.8706 19.7627 58.639 19.9793C58.4091 20.1954 58.0448 20.1845 57.827 19.9523C57.6322 19.7466 57.334 19.5455 57.2139 19.5374C57.2225 19.557 57.1036 19.7437 57.0846 20.3758C57.0231 22.4732 58.6252 23.0587 58.6936 23.0829C58.8723 23.1455 59.0131 23.2932 59.0625 23.4759L59.0883 23.5707C59.0975 23.6046 59.1033 23.6391 59.1062 23.6736C59.5716 29.2164 63.9549 31.0098 66.0051 31.0098C68.0554 31.0098 72.4386 29.2164 72.9041 23.6736C72.907 23.6385 72.9133 23.6041 72.9219 23.5707L72.9478 23.4759C72.9983 23.2903 73.138 23.1426 73.3201 23.0817C73.3845 23.0593 74.9865 22.4732 74.925 20.3764C74.9044 19.6679 74.7572 19.5185 74.7561 19.5167C74.6935 19.5351 74.3734 19.7483 74.1826 19.9523C73.9648 20.1845 73.6005 20.1954 73.3707 19.9793C73.1391 19.7627 73.1265 19.3989 73.3431 19.1668C73.5057 18.9933 74.3573 18.1411 75.1882 18.4566C76.0277 18.7738 76.0622 19.954 76.0743 20.3425C76.1352 22.4301 74.9055 23.5851 74.0246 24.0287C73.4281 29.6342 69.0075 32.1591 66.0051 32.1591C63.0027 32.1591 58.5821 29.6342 57.9856 24.0287C57.1042 23.5851 55.8739 22.4301 55.9354 20.3425ZM78.3314 39.6269C79.0089 40.3079 79.0037 41.2606 78.9986 42.1013L78.998 46.0168C78.998 47.7182 77.6143 49.1025 75.9128 49.1025C74.2114 49.1025 72.8271 47.7182 72.8271 46.0168L72.8265 42.1013C72.8213 41.2606 72.8162 40.3073 73.4936 39.6269C73.9993 39.1184 74.7906 38.8713 75.9128 38.8713C77.0345 38.8713 77.8258 39.1184 78.3314 39.6269ZM77.8493 42.095C77.8533 41.418 77.8568 40.7785 77.5166 40.4372C77.2414 40.1608 76.7018 40.02 75.9128 40.02C75.1233 40.02 74.5837 40.1602 74.3085 40.4372C74.0844 40.6624 74.0148 41.0227 73.9907 41.4318H75.2871C75.6048 41.4318 75.8617 41.6893 75.8617 42.0065C75.8617 42.3237 75.6048 42.5811 75.2871 42.5811H73.9758V43.5878H75.2871C75.6048 43.5878 75.8617 43.8453 75.8617 44.1625C75.8617 44.4797 75.6048 44.7371 75.2871 44.7371H73.9758V45.6691H75.2865C75.6042 45.6691 75.8611 45.9266 75.8611 46.2438C75.8611 46.5609 75.6042 46.8184 75.2865 46.8184H74.1545C74.4602 47.4861 75.1308 47.9533 75.9122 47.9533C76.9793 47.9533 77.8482 47.0844 77.8482 46.0168L77.8493 42.095ZM58.512 39.6269C59.1895 40.3079 59.1843 41.2606 59.1791 42.1013L59.1786 46.0168C59.1786 47.7182 57.7943 49.1025 56.0928 49.1025C54.3913 49.1025 53.0076 47.7182 53.0076 46.0168L53.0071 42.1007C53.0019 41.26 52.9967 40.3073 53.6736 39.6269C54.1793 39.1184 54.9711 38.8713 56.0928 38.8713C57.2151 38.8713 58.0063 39.1184 58.512 39.6269ZM57.8506 46.819H56.7186C56.4008 46.819 56.144 46.5615 56.144 46.2443C56.144 45.9271 56.4008 45.6697 56.7186 45.6697H58.0293V44.7377H56.718C56.4002 44.7377 56.1434 44.4802 56.1434 44.163C56.1434 43.8458 56.4002 43.5884 56.718 43.5884H58.0293V42.5817H56.718C56.4002 42.5817 56.1434 42.3242 56.1434 42.007C56.1434 41.6898 56.4002 41.4324 56.718 41.4324H58.0144C57.9902 41.0233 57.9207 40.663 57.6966 40.4377C57.4214 40.1608 56.8818 40.0206 56.0922 40.0206C55.3027 40.0206 54.7631 40.1608 54.4879 40.4377C54.1483 40.7796 54.1517 41.4186 54.1558 42.095L54.1563 46.0179C54.1563 47.0856 55.0252 47.9544 56.0922 47.9544C56.8737 47.9538 57.5443 47.4867 57.8506 46.819ZM71.4118 21.5768C71.5663 21.5768 71.7135 21.6388 71.8215 21.7486C71.9295 21.8583 71.9893 22.0072 71.9864 22.1612C71.9766 22.6984 71.8847 24.5005 71.0952 25.1423C70.5906 25.552 69.8034 25.8066 69.0403 25.8066C68.3111 25.8066 67.6985 25.5756 67.3153 25.1561C66.901 24.7022 66.6251 23.75 66.4677 23.0426H65.5414C65.3839 23.75 65.1081 24.7022 64.6938 25.1561C64.3105 25.5756 63.698 25.8066 62.9688 25.8066C62.2057 25.8066 61.4185 25.552 60.9139 25.1423C60.1244 24.5005 60.0325 22.6984 60.0227 22.1612C60.0198 22.0072 60.0796 21.8583 60.1876 21.7486C60.2956 21.6388 60.4427 21.5768 60.5973 21.5768H65.1265C65.2943 21.5768 65.4535 21.6498 65.5627 21.7773C65.592 21.8118 65.6052 21.8543 65.6253 21.894H66.3844C66.4045 21.8549 66.4177 21.8118 66.447 21.7773C66.5556 21.6503 66.7154 21.5768 66.8831 21.5768H71.4118ZM64.4329 22.726H61.2087C61.2788 23.4104 61.4409 24.0902 61.6391 24.2511C61.9385 24.4942 62.4729 24.6579 62.9688 24.6579C63.3653 24.6579 63.6848 24.5574 63.8451 24.3815C64.0612 24.1448 64.2847 23.3995 64.4329 22.726ZM70.8009 22.726H67.5767C67.725 23.3995 67.9479 24.1448 68.164 24.381C68.3243 24.5568 68.6438 24.6573 69.0403 24.6573C69.5362 24.6573 70.0712 24.4942 70.37 24.2505C70.5682 24.0896 70.7308 23.4104 70.8009 22.726ZM72.4065 40.8072V47.6309C72.4065 47.9481 72.1496 48.2055 71.8318 48.2055H60.1531C59.8354 48.2055 59.5785 47.9481 59.5785 47.6309V40.8072C59.5785 40.49 59.8354 40.2326 60.1531 40.2326H71.8313C72.149 40.2326 72.4065 40.49 72.4065 40.8072ZM71.2572 41.3818H60.7278V47.0563H71.2566L71.2572 41.3818ZM63.263 44.2188C63.263 42.7138 64.4875 41.4893 65.9925 41.4893C67.4974 41.4893 68.722 42.7138 68.722 44.2188C68.722 45.7237 67.4974 46.9482 65.9925 46.9482C64.4875 46.9482 63.263 45.7237 63.263 44.2188ZM64.4123 44.2188C64.4123 45.0905 65.1208 45.799 65.9925 45.799C66.8642 45.799 67.5727 45.0905 67.5727 44.2188C67.5727 43.3471 66.8642 42.6385 65.9925 42.6385C65.1208 42.6385 64.4123 43.3476 64.4123 44.2188ZM67.9508 35.2644C68.1249 35.2644 68.2893 35.3431 68.3984 35.4787C68.507 35.6143 68.5496 35.7919 68.5116 35.962L67.8468 38.9943C67.7888 39.2574 67.5555 39.4459 67.2854 39.4459H64.6996C64.4295 39.4459 64.1962 39.258 64.1382 38.9943L63.4733 35.962C63.436 35.7919 63.4779 35.6143 63.5865 35.4787C63.6957 35.3431 63.8606 35.2644 64.0341 35.2644H67.9508ZM67.2365 36.4136H64.7496L65.1627 38.2967H66.824L67.2365 36.4136ZM57.7069 31.4793L57.8431 33.5485C57.8552 33.7382 57.9609 33.9094 58.1247 34.0059C58.2143 34.0588 58.3155 34.0858 58.4166 34.0858C58.4999 34.0858 58.5832 34.068 58.6608 34.0312L61.4064 32.7423C61.6937 32.6073 61.8172 32.2654 61.6822 31.9781C61.5483 31.6908 61.2047 31.5672 60.918 31.7023L58.9343 32.6337L58.7723 30.1657C58.751 29.8491 58.4746 29.6118 58.1615 29.6296C57.8443 29.6508 57.6047 29.9244 57.6253 30.2404L57.6294 30.3053C55.5825 30.9759 47.0361 34.6639 47.0361 49.4249C47.0361 49.7421 47.293 49.9995 47.6108 49.9995C47.9285 49.9995 48.1854 49.7421 48.1854 49.4249C48.1854 35.7792 55.5078 32.2361 57.7069 31.4793ZM74.3791 30.3082L74.3837 30.2404C74.4044 29.9238 74.1648 29.6503 73.8476 29.6296C73.5316 29.6112 73.2575 29.8485 73.2368 30.1657L73.0747 32.6337L71.0911 31.7023C70.8015 31.5672 70.4613 31.6913 70.3269 31.9781C70.1924 32.2654 70.3154 32.6073 70.6027 32.7423L73.3483 34.0312C73.4258 34.0674 73.5092 34.0858 73.5925 34.0858C73.6936 34.0858 73.7947 34.0594 73.8844 34.0059C74.0482 33.9094 74.1539 33.7382 74.166 33.5485L74.3016 31.4914C76.4874 32.2826 83.8151 35.9413 83.8151 49.4249C83.8151 49.7421 84.0719 49.9995 84.3897 49.9995C84.7075 49.9995 84.9643 49.7421 84.9643 49.4249C84.9643 34.6834 76.4403 30.9863 74.3791 30.3082ZM57.1513 17.1843C57.0272 17.0752 56.9553 16.9189 56.9553 16.7534C56.9553 12.45 56.9553 7.99951 65.9517 7.99951C74.8676 7.99951 74.9469 12.3707 74.9474 16.6384C74.9549 16.6758 74.9589 16.7143 74.9589 16.7534C74.9589 17.0706 74.7021 17.328 74.3843 17.328C74.3814 17.3286 74.3786 17.328 74.3728 17.328C74.3493 17.328 74.3251 17.3268 74.3016 17.3234H74.2993C74.2349 17.3154 74.1769 17.2878 74.1194 17.2596C74.0987 17.274 74.0838 17.2947 74.0608 17.3067L71.8152 18.4623C71.7336 18.5043 71.6433 18.5261 71.5526 18.5261C71.5204 18.5261 71.4882 18.5232 71.456 18.518C67.9807 17.9273 64.1542 17.9273 60.6801 18.518C60.564 18.5364 60.4468 18.5215 60.3405 18.4721L57.8615 17.3165C57.8357 17.3044 57.8184 17.2826 57.7949 17.2677C57.738 17.2947 57.6771 17.3142 57.6041 17.3234C57.4374 17.3458 57.2748 17.2935 57.1513 17.1843ZM72.9041 16.6103C71.4853 16.0966 68.7742 15.4197 65.966 15.4794C65.8046 15.476 65.6718 15.4748 65.5391 15.4748C62.9062 15.4748 60.4192 16.0977 59.0458 16.6005L60.6657 17.3556C64.1542 16.7838 67.9715 16.7832 71.46 17.3539L72.9041 16.6103ZM58.1086 15.7437C59.7607 15.0065 62.9682 14.2537 65.966 14.3313C66.0792 14.3279 66.2218 14.3261 66.3637 14.3261C69.2224 14.3261 72.2208 15.0421 73.7947 15.7437C73.7476 11.9851 73.165 9.14934 65.9517 9.14934C58.7378 9.14934 58.1557 11.9851 58.1086 15.7437Z" fill="#444444" fill-opacity="0.8"/>
</g>
<rect x="0.5" y="0.5" width="130" height="79" rx="11.5" stroke="#323232" stroke-opacity="0.133333"/>
<defs>
<clipPath id="clip0_650_571">
<rect width="42" height="42" fill="white" transform="translate(45 8)"/>
</clipPath>
</defs>
</svg>
