<svg width="42" height="42" viewBox="0 0 42 42" fill="none" xmlns="http://www.w3.org/2000/svg">
<g id="car-building" clip-path="url(#clip0_228_1124)">
<path id="Vector" d="M42 33.656C42 31.5438 41.6395 29.4648 40.929 27.4767L38.4037 20.4033C37.7842 18.6655 36.1287 17.5 34.2842 17.5H23.4658C21.6213 17.5 19.9675 18.6673 19.3463 20.4033L16.821 27.475C16.1105 29.4648 15.75 31.5438 15.75 33.656V38.5H19.25V42H24.5V38.5H33.25V42H38.5V38.5H42V33.656ZM20.9947 20.9912C21.3675 19.95 22.3598 19.25 23.4658 19.25H34.2842C35.3903 19.25 36.3825 19.95 36.7552 20.9912L39.2578 28H18.4923L20.9947 20.9912ZM22.75 40.25H21V38.5H22.75V40.25ZM36.75 40.25H35V38.5H36.75V40.25ZM40.25 36.75H17.5V33.656C17.5 32.3348 17.6558 31.0275 17.9655 29.75H22.75V32.375C22.75 32.858 23.142 33.25 23.625 33.25C24.108 33.25 24.5 32.858 24.5 32.375V29.75H33.25V32.375C33.25 32.858 33.642 33.25 34.125 33.25C34.608 33.25 35 32.858 35 32.375V29.75H39.7845C40.0942 31.0257 40.25 32.3348 40.25 33.656V36.75ZM23.625 1.75H4.375C2.92775 1.75 1.75 2.92775 1.75 4.375V42H0V4.375C0 1.9635 1.96175 0 4.375 0H23.625C26.0382 0 28 1.9635 28 4.375V14H26.25V4.375C26.25 2.92775 25.0723 1.75 23.625 1.75ZM7 12.25H12.25V7H7V12.25ZM8.75 8.75H10.5V10.5H8.75V8.75ZM7 21H12.25V15.75H7V21ZM8.75 17.5H10.5V19.25H8.75V17.5ZM7 29.75H12.25V24.5H7V29.75ZM8.75 26.25H10.5V28H8.75V26.25ZM7 38.5H12.25V33.25H7V38.5ZM8.75 35H10.5V36.75H8.75V35ZM21 12.25V7H15.75V12.25H21ZM17.5 8.75H19.25V10.5H17.5V8.75Z" fill="white" fill-opacity="0.8"/>
</g>
<defs>
<clipPath id="clip0_228_1124">
<rect width="42" height="42" fill="white"/>
</clipPath>
</defs>
</svg>
