<svg width="99" height="80" viewBox="0 0 99 80" fill="none" xmlns="http://www.w3.org/2000/svg">
<path d="M18.912 68H17.168L14.752 64.56C14.528 64.576 14.288 64.592 14.048 64.592H11.28V68H9.68V56.8H14.048C16.96 56.8 18.72 58.272 18.72 60.704C18.72 62.432 17.824 63.68 16.256 64.24L18.912 68ZM14 63.232C16.048 63.232 17.12 62.304 17.12 60.704C17.12 59.104 16.048 58.192 14 58.192H11.28V63.232H14ZM28.745 63.808C28.745 63.936 28.729 64.128 28.713 64.272H21.833C22.025 65.76 23.225 66.752 24.905 66.752C25.897 66.752 26.729 66.416 27.353 65.728L28.201 66.72C27.433 67.616 26.265 68.096 24.857 68.096C22.121 68.096 20.297 66.288 20.297 63.76C20.297 61.248 22.105 59.44 24.553 59.44C27.001 59.44 28.745 61.2 28.745 63.808ZM24.553 60.736C23.081 60.736 21.993 61.728 21.833 63.168H27.273C27.113 61.744 26.041 60.736 24.553 60.736ZM35.4059 59.44C37.4699 59.44 38.9259 60.624 38.9259 63.12V68H37.3899V63.296C37.3899 61.632 36.5579 60.816 35.1019 60.816C33.4699 60.816 32.4139 61.792 32.4139 63.632V68H30.8779V59.52H32.3499V60.8C32.9739 59.936 34.0619 59.44 35.4059 59.44ZM46.0565 66.4L46.5365 67.504C46.0725 67.904 45.3685 68.096 44.6805 68.096C42.9685 68.096 41.9925 67.152 41.9925 65.44V60.784H40.5525V59.52H41.9925V57.664H43.5285V59.52H45.9605V60.784H43.5285V65.376C43.5285 66.288 44.0085 66.8 44.8565 66.8C45.3045 66.8 45.7365 66.656 46.0565 66.4ZM57.5485 67.152L56.6845 68.176L55.1965 66.688C54.2205 67.632 52.9405 68.128 51.4525 68.128C49.1805 68.128 47.5325 66.928 47.5325 65.216C47.5325 63.84 48.3165 62.88 50.2525 61.776C49.2445 60.768 48.9085 60.048 48.9085 59.216C48.9085 57.712 50.0925 56.704 51.9325 56.704C53.6285 56.704 54.7165 57.584 54.7165 59.04C54.7165 60.176 54.0445 60.992 52.3325 61.968L55.1005 64.72C55.4045 64.144 55.6445 63.472 55.7885 62.688L57.0205 63.088C56.8285 64.08 56.4925 64.944 56.0445 65.648L57.5485 67.152ZM51.9325 57.824C50.9245 57.824 50.3325 58.384 50.3325 59.184C50.3325 59.76 50.5565 60.176 51.4685 61.104C52.9405 60.272 53.4205 59.76 53.4205 59.056C53.4205 58.32 52.8925 57.824 51.9325 57.824ZM51.5485 66.848C52.6205 66.848 53.5645 66.496 54.2845 65.792L51.1005 62.624C49.5325 63.504 49.0365 64.16 49.0365 65.056C49.0365 66.128 50.0445 66.848 51.5485 66.848ZM67.0221 68.128C65.3101 68.128 63.6301 67.552 62.7341 66.72L63.3261 65.472C64.1581 66.224 65.5821 66.768 67.0221 66.768C68.9581 66.768 69.7901 66.016 69.7901 65.04C69.7901 62.304 63.0061 64.032 63.0061 59.872C63.0061 58.144 64.3501 56.672 67.2941 56.672C68.6061 56.672 69.9661 57.024 70.8941 57.664L70.3661 58.944C69.3901 58.32 68.2861 58.032 67.2941 58.032C65.3901 58.032 64.5741 58.832 64.5741 59.808C64.5741 62.544 71.3581 60.832 71.3581 64.944C71.3581 66.656 69.9821 68.128 67.0221 68.128ZM81.1356 63.808C81.1356 63.936 81.1196 64.128 81.1036 64.272H74.2236C74.4156 65.76 75.6156 66.752 77.2956 66.752C78.2876 66.752 79.1196 66.416 79.7436 65.728L80.5916 66.72C79.8236 67.616 78.6556 68.096 77.2476 68.096C74.5116 68.096 72.6876 66.288 72.6876 63.76C72.6876 61.248 74.4956 59.44 76.9436 59.44C79.3916 59.44 81.1356 61.2 81.1356 63.808ZM76.9436 60.736C75.4716 60.736 74.3836 61.728 74.2236 63.168H79.6636C79.5036 61.744 78.4316 60.736 76.9436 60.736ZM83.2685 68V56.128H84.8045V68H83.2685ZM87.7373 68V56.128H89.2733V68H87.7373Z" fill="#444444" fill-opacity="0.8"/>
<g clip-path="url(#clip0_650_416)">
<path d="M71 41.656C71 39.5438 70.6395 37.4648 69.929 35.4768L67.4037 28.4033C66.7842 26.6655 65.1287 25.5 63.2842 25.5H52.4658C50.6213 25.5 48.9675 26.6673 48.3463 28.4033L45.821 35.475C45.1105 37.4647 44.75 39.5438 44.75 41.656V46.5H48.25V50H53.5V46.5H62.25V50H67.5V46.5H71V41.656ZM49.9947 28.9912C50.3675 27.95 51.3598 27.25 52.4658 27.25H63.2842C64.3902 27.25 65.3825 27.95 65.7553 28.9912L68.2578 36H47.4923L49.9947 28.9912ZM51.75 48.25H50V46.5H51.75V48.25ZM65.75 48.25H64V46.5H65.75V48.25ZM69.25 44.75H46.5V41.656C46.5 40.3348 46.6557 39.0275 46.9655 37.75H51.75V40.375C51.75 40.858 52.142 41.25 52.625 41.25C53.108 41.25 53.5 40.858 53.5 40.375V37.75H62.25V40.375C62.25 40.858 62.642 41.25 63.125 41.25C63.608 41.25 64 40.858 64 40.375V37.75H68.7845C69.0942 39.0257 69.25 40.3348 69.25 41.656V44.75ZM52.625 9.75H33.375C31.9277 9.75 30.75 10.9277 30.75 12.375V50H29V12.375C29 9.9635 30.9618 8 33.375 8H52.625C55.0382 8 57 9.9635 57 12.375V22H55.25V12.375C55.25 10.9277 54.0723 9.75 52.625 9.75ZM36 20.25H41.25V15H36V20.25ZM37.75 16.75H39.5V18.5H37.75V16.75ZM36 29H41.25V23.75H36V29ZM37.75 25.5H39.5V27.25H37.75V25.5ZM36 37.75H41.25V32.5H36V37.75ZM37.75 34.25H39.5V36H37.75V34.25ZM36 46.5H41.25V41.25H36V46.5ZM37.75 43H39.5V44.75H37.75V43ZM50 20.25V15H44.75V20.25H50ZM46.5 16.75H48.25V18.5H46.5V16.75Z" fill="#444444" fill-opacity="0.8"/>
</g>
<rect x="0.5" y="0.5" width="98" height="79" rx="11.5" stroke="#323232" stroke-opacity="0.133333"/>
<defs>
<clipPath id="clip0_650_416">
<rect width="42" height="42" fill="white" transform="translate(29 8)"/>
</clipPath>
</defs>
</svg>
