<svg width="106" height="80" viewBox="0 0 106 80" fill="none" xmlns="http://www.w3.org/2000/svg">
<path d="M18.912 68H17.168L14.752 64.56C14.528 64.576 14.288 64.592 14.048 64.592H11.28V68H9.68V56.8H14.048C16.96 56.8 18.72 58.272 18.72 60.704C18.72 62.432 17.824 63.68 16.256 64.24L18.912 68ZM14 63.232C16.048 63.232 17.12 62.304 17.12 60.704C17.12 59.104 16.048 58.192 14 58.192H11.28V63.232H14ZM28.745 63.808C28.745 63.936 28.729 64.128 28.713 64.272H21.833C22.025 65.76 23.225 66.752 24.905 66.752C25.897 66.752 26.729 66.416 27.353 65.728L28.201 66.72C27.433 67.616 26.265 68.096 24.857 68.096C22.121 68.096 20.297 66.288 20.297 63.76C20.297 61.248 22.105 59.44 24.553 59.44C27.001 59.44 28.745 61.2 28.745 63.808ZM24.553 60.736C23.081 60.736 21.993 61.728 21.833 63.168H27.273C27.113 61.744 26.041 60.736 24.553 60.736ZM33.3099 68.096C31.9019 68.096 30.5099 67.664 29.8059 67.104L30.4459 65.888C31.1659 66.4 32.3179 66.768 33.4219 66.768C34.8459 66.768 35.4379 66.336 35.4379 65.616C35.4379 63.712 30.0779 65.36 30.0779 61.984C30.0779 60.464 31.4379 59.44 33.6139 59.44C34.7179 59.44 35.9659 59.728 36.7019 60.208L36.0459 61.424C35.2779 60.928 34.4299 60.752 33.5979 60.752C32.2539 60.752 31.5979 61.248 31.5979 61.92C31.5979 63.92 36.9739 62.288 36.9739 65.584C36.9739 67.12 35.5659 68.096 33.3099 68.096ZM43.1815 66.4L43.6615 67.504C43.1975 67.904 42.4935 68.096 41.8055 68.096C40.0935 68.096 39.1175 67.152 39.1175 65.44V60.784H37.6775V59.52H39.1175V57.664H40.6535V59.52H43.0855V60.784H40.6535V65.376C40.6535 66.288 41.1335 66.8 41.9815 66.8C42.4295 66.8 42.8615 66.656 43.1815 66.4ZM48.6065 59.44C50.9265 59.44 52.2385 60.56 52.2385 62.88V68H50.7825V66.88C50.2705 67.648 49.3265 68.096 47.9985 68.096C46.0785 68.096 44.8625 67.072 44.8625 65.6C44.8625 64.24 45.7425 63.12 48.2705 63.12H50.7025V62.816C50.7025 61.52 49.9505 60.768 48.4305 60.768C47.4225 60.768 46.3985 61.12 45.7425 61.68L45.1025 60.528C45.9825 59.824 47.2465 59.44 48.6065 59.44ZM48.2545 66.912C49.4065 66.912 50.3185 66.384 50.7025 65.408V64.224H48.3345C46.8145 64.224 46.3825 64.816 46.3825 65.536C46.3825 66.384 47.0865 66.912 48.2545 66.912ZM61.449 59.52H62.985V68H61.529V66.72C60.905 67.6 59.849 68.096 58.649 68.096C56.457 68.096 55.001 66.896 55.001 64.4V59.52H56.537V64.224C56.537 65.888 57.369 66.72 58.825 66.72C60.425 66.72 61.449 65.728 61.449 63.904V59.52ZM67.3811 60.944C67.9251 59.952 68.9811 59.44 70.4691 59.44V60.928C70.3411 60.912 70.2291 60.912 70.1171 60.912C68.4691 60.912 67.4451 61.92 67.4451 63.776V68H65.9091V59.52H67.3811V60.944ZM75.4346 59.44C77.7546 59.44 79.0666 60.56 79.0666 62.88V68H77.6106V66.88C77.0986 67.648 76.1546 68.096 74.8266 68.096C72.9066 68.096 71.6906 67.072 71.6906 65.6C71.6906 64.24 72.5706 63.12 75.0986 63.12H77.5306V62.816C77.5306 61.52 76.7786 60.768 75.2586 60.768C74.2506 60.768 73.2266 61.12 72.5706 61.68L71.9306 60.528C72.8106 59.824 74.0746 59.44 75.4346 59.44ZM75.0826 66.912C76.2346 66.912 77.1466 66.384 77.5306 65.408V64.224H75.1626C73.6426 64.224 73.2106 64.816 73.2106 65.536C73.2106 66.384 73.9146 66.912 75.0826 66.912ZM86.4371 59.44C88.5011 59.44 89.9571 60.624 89.9571 63.12V68H88.4211V63.296C88.4211 61.632 87.5891 60.816 86.1331 60.816C84.5011 60.816 83.4451 61.792 83.4451 63.632V68H81.9091V59.52H83.3811V60.8C84.0051 59.936 85.0931 59.44 86.4371 59.44ZM97.0878 66.4L97.5678 67.504C97.1038 67.904 96.3998 68.096 95.7118 68.096C93.9998 68.096 93.0238 67.152 93.0238 65.44V60.784H91.5838V59.52H93.0238V57.664H94.5598V59.52H96.9918V60.784H94.5598V65.376C94.5598 66.288 95.0398 66.8 95.8878 66.8C96.3358 66.8 96.7678 66.656 97.0878 66.4Z" fill="#444444" fill-opacity="0.8"/>
<g clip-path="url(#clip0_650_401)">
<path d="M54.3777 28.8599L33.4949 49.7444C33.3234 49.9159 33.0994 49.9999 32.8754 49.9999C32.6514 49.9999 32.4274 49.9142 32.2559 49.7444C31.9147 49.4032 31.9147 48.8484 32.2559 48.5072L53.1404 27.6227C50.4437 24.3029 50.6379 19.4012 53.7267 16.3107L61.7819 8.25544C62.1232 7.91419 62.6779 7.91419 63.0192 8.25544C63.3604 8.59669 63.3604 9.15144 63.0192 9.49269L54.9639 17.5479C52.5594 19.9542 52.3669 23.7482 54.3864 26.3767L67.2559 13.5072C67.5972 13.1659 68.1519 13.1659 68.4932 13.5072C68.8344 13.8484 68.8344 14.4032 68.4932 14.7444L55.6237 27.6139C58.2522 29.6352 62.0462 29.4409 64.4524 27.0364L72.5077 18.9812C72.8489 18.6399 73.4037 18.6399 73.7449 18.9812C74.0862 19.3224 74.0862 19.8772 73.7449 20.2184L65.6897 28.2737C64.0412 29.9222 61.8747 30.7464 59.7082 30.7464C57.8164 30.7464 55.9264 30.1182 54.3777 28.8599ZM43.6957 32.0642C43.8584 32.1972 44.0544 32.2619 44.2487 32.2619C44.5024 32.2619 44.7544 32.1534 44.9277 31.9399C45.2339 31.5672 45.1779 31.0142 44.8034 30.7079C36.3719 23.8112 33.7522 14.2754 33.7522 11.5839V10.9417C33.7522 10.2259 34.1879 9.94419 34.4469 9.84094C34.8284 9.69219 35.4409 9.68869 35.9029 10.1769L46.5814 21.7199C46.9104 22.0752 47.4617 22.0962 47.8187 21.7689C48.1739 21.4399 48.1949 20.8869 47.8677 20.5317L37.1804 8.97994C36.2984 8.04719 34.9702 7.74444 33.7994 8.21519C32.6899 8.65619 32.0004 9.70094 32.0004 10.9452V11.5839C32.0004 15.0034 34.9457 24.9067 43.6957 32.0642ZM60.6427 34.3427C60.3137 33.9857 59.7607 33.9647 59.4054 34.2937C59.0502 34.6227 59.0292 35.1757 59.3564 35.5309L61.2552 37.5837C58.1279 37.1847 55.1792 36.4147 52.4597 35.2859C52.0117 35.1022 51.5024 35.3122 51.3152 35.7584C51.1297 36.2047 51.3414 36.7174 51.7877 36.9029C55.2317 38.3327 59.0204 39.2129 63.0507 39.5244L72.4797 49.7182C72.6529 49.9054 72.8874 49.9999 73.1219 49.9999C73.3354 49.9999 73.5472 49.9229 73.7152 49.7672C74.0704 49.4382 74.0914 48.8852 73.7642 48.5299L60.6392 34.3409L60.6427 34.3427Z" fill="#444444" fill-opacity="0.8"/>
</g>
<rect x="0.5" y="0.5" width="105" height="79" rx="11.5" stroke="#323232" stroke-opacity="0.133333"/>
<defs>
<clipPath id="clip0_650_401">
<rect width="42" height="42" fill="white" transform="translate(32 8)"/>
</clipPath>
</defs>
</svg>
