<svg width="64" height="80" viewBox="0 0 64 80" fill="none" xmlns="http://www.w3.org/2000/svg">
<path d="M11.904 68V58.192H8.064V56.8H17.328V58.192H13.488V68H11.904ZM20.1155 60.944C20.6595 59.952 21.7155 59.44 23.2035 59.44V60.928C23.0755 60.912 22.9635 60.912 22.8515 60.912C21.2035 60.912 20.1795 61.92 20.1795 63.776V68H18.6435V59.52H20.1155V60.944ZM28.169 59.44C30.489 59.44 31.801 60.56 31.801 62.88V68H30.345V66.88C29.833 67.648 28.889 68.096 27.561 68.096C25.641 68.096 24.425 67.072 24.425 65.6C24.425 64.24 25.305 63.12 27.833 63.12H30.265V62.816C30.265 61.52 29.513 60.768 27.993 60.768C26.985 60.768 25.961 61.12 25.305 61.68L24.665 60.528C25.545 59.824 26.809 59.44 28.169 59.44ZM27.817 66.912C28.969 66.912 29.881 66.384 30.265 65.408V64.224H27.897C26.377 64.224 25.945 64.816 25.945 65.536C25.945 66.384 26.649 66.912 27.817 66.912ZM40.4873 59.52H41.9913L38.2793 68H36.7113L32.9992 59.52H34.5993L37.5113 66.32L40.4873 59.52ZM50.8544 63.808C50.8544 63.936 50.8384 64.128 50.8224 64.272H43.9424C44.1344 65.76 45.3344 66.752 47.0144 66.752C48.0064 66.752 48.8384 66.416 49.4624 65.728L50.3104 66.72C49.5424 67.616 48.3744 68.096 46.9664 68.096C44.2304 68.096 42.4064 66.288 42.4064 63.76C42.4064 61.248 44.2144 59.44 46.6624 59.44C49.1104 59.44 50.8544 61.2 50.8544 63.808ZM46.6624 60.736C45.1904 60.736 44.1024 61.728 43.9424 63.168H49.3824C49.2224 61.744 48.1504 60.736 46.6624 60.736ZM52.9873 68V56.128H54.5233V68H52.9873Z" fill="#444444" fill-opacity="0.8"/>
<path d="M42.5 19.8125H37.25V13.25C37.9745 13.25 38.5625 12.662 38.5625 11.9375C38.5625 9.76269 36.7998 8 34.625 8H29.375C27.2002 8 25.4375 9.76269 25.4375 11.9375C25.4375 12.662 26.0255 13.25 26.75 13.25V19.8125H21.5C19.3252 19.8125 17.5625 21.5752 17.5625 23.75V42.125C17.5625 44.2998 19.3252 46.0625 21.5 46.0625H21.8636C21.5354 46.6269 21.3911 47.3133 21.5919 48.0549C21.8557 49.0327 22.676 49.7966 23.6748 49.9619C25.3233 50.2363 26.75 48.9723 26.75 47.375C26.75 46.8946 26.6109 46.4497 26.3864 46.0625H37.6149C37.2867 46.6269 37.1424 47.3133 37.3432 48.0549C37.607 49.0327 38.4273 49.7966 39.4261 49.9619C41.0733 50.2363 42.5 48.9723 42.5 47.375C42.5 46.8946 42.3609 46.4497 42.1364 46.0625H42.5C44.6748 46.0625 46.4375 44.2998 46.4375 42.125V23.75C46.4375 21.5752 44.6748 19.8125 42.5 19.8125ZM29.375 9.3125H34.625C36.0753 9.3125 37.25 10.4872 37.25 11.9375H35.9375C35.9375 11.213 35.3495 10.625 34.625 10.625H29.375C28.6505 10.625 28.0625 11.213 28.0625 11.9375H26.75C26.75 10.4872 27.9247 9.3125 29.375 9.3125ZM35.9375 13.25V19.8125H28.0625V13.25C28.787 13.25 29.375 12.662 29.375 11.9375H34.625C34.625 12.662 35.213 13.25 35.9375 13.25ZM24.125 48.6875C23.4018 48.6875 22.8125 48.0982 22.8125 47.375C22.8125 46.6518 23.4018 46.0625 24.125 46.0625C24.8482 46.0625 25.4375 46.6518 25.4375 47.375C25.4375 48.0982 24.8482 48.6875 24.125 48.6875ZM39.875 48.6875C39.1518 48.6875 38.5625 48.0982 38.5625 47.375C38.5625 46.6518 39.1518 46.0625 39.875 46.0625C40.5982 46.0625 41.1875 46.6518 41.1875 47.375C41.1875 48.0982 40.5982 48.6875 39.875 48.6875ZM45.125 42.125C45.125 43.5753 43.9503 44.75 42.5 44.75H21.5C20.0497 44.75 18.875 43.5753 18.875 42.125V29H29.375V30.3125C29.375 31.037 29.963 31.625 30.6875 31.625H33.3125C34.037 31.625 34.625 31.037 34.625 30.3125V29H45.125V42.125ZM30.6875 30.3125V26.375H33.3125V30.3125H30.6875ZM45.125 27.6875H34.625V26.375C34.625 25.6505 34.037 25.0625 33.3125 25.0625H30.6875C29.963 25.0625 29.375 25.6505 29.375 26.375V27.6875H18.875V23.75C18.875 22.2997 20.0497 21.125 21.5 21.125H42.5C43.9503 21.125 45.125 22.2997 45.125 23.75V27.6875Z" fill="#444444" fill-opacity="0.8"/>
<rect x="0.5" y="0.5" width="63" height="79" rx="11.5" stroke="#323232" stroke-opacity="0.133333"/>
</svg>
