<svg width="22" height="22" viewBox="0 0 22 22" fill="none" xmlns="http://www.w3.org/2000/svg">
<g id="ic:baseline-apple">
<path id="Vector" d="M15.6289 18.59C14.7306 19.4608 13.7497 19.3233 12.8056 18.9108C11.8064 18.4892 10.8897 18.4708 9.83558 18.9108C8.51558 19.4792 7.81891 19.3142 7.03058 18.59C2.55724 13.9792 3.21724 6.9575 8.29558 6.70083C9.53308 6.765 10.3947 7.37917 11.1189 7.43417C12.2006 7.21417 13.2364 6.58167 14.3914 6.66417C15.7756 6.77417 16.8206 7.32417 17.5081 8.31417C14.6481 10.0283 15.3264 13.7958 17.9481 14.85C17.4256 16.225 16.7472 17.5908 15.6197 18.5992L15.6289 18.59ZM11.0272 6.64583C10.8897 4.60167 12.5489 2.915 14.4556 2.75C14.7214 5.115 12.3106 6.875 11.0272 6.64583Z" fill="#676767"/>
</g>
</svg>
