<svg width="112" height="80" viewBox="0 0 112 80" fill="none" xmlns="http://www.w3.org/2000/svg">
<path d="M18.048 68L16.816 65.2H10.864L9.632 68H7.984L13.056 56.8H14.64L19.728 68H18.048ZM11.424 63.92H16.256L13.84 58.432L11.424 63.92ZM27.3865 59.52H28.9225V68H27.4665V66.72C26.8425 67.6 25.7865 68.096 24.5865 68.096C22.3945 68.096 20.9385 66.896 20.9385 64.4V59.52H22.4745V64.224C22.4745 65.888 23.3065 66.72 24.7625 66.72C26.3625 66.72 27.3865 65.728 27.3865 63.904V59.52ZM36.1346 66.4L36.6146 67.504C36.1506 67.904 35.4466 68.096 34.7586 68.096C33.0466 68.096 32.0706 67.152 32.0706 65.44V60.784H30.6306V59.52H32.0706V57.664H33.6066V59.52H36.0386V60.784H33.6066V65.376C33.6066 66.288 34.0866 66.8 34.9346 66.8C35.3826 66.8 35.8146 66.656 36.1346 66.4ZM41.8224 68.096C39.2784 68.096 37.4064 66.288 37.4064 63.76C37.4064 61.232 39.2784 59.44 41.8224 59.44C44.3664 59.44 46.2224 61.232 46.2224 63.76C46.2224 66.288 44.3664 68.096 41.8224 68.096ZM41.8224 66.752C43.4544 66.752 44.6704 65.568 44.6704 63.76C44.6704 61.952 43.4544 60.784 41.8224 60.784C40.1904 60.784 38.9584 61.952 38.9584 63.76C38.9584 65.568 40.1904 66.752 41.8224 66.752ZM58.9546 59.44C61.0186 59.44 62.4266 60.624 62.4266 63.12V68H60.8906V63.296C60.8906 61.632 60.0906 60.816 58.6986 60.816C57.1626 60.816 56.1546 61.792 56.1546 63.632V68H54.6186V63.296C54.6186 61.632 53.8186 60.816 52.4266 60.816C50.8906 60.816 49.8826 61.792 49.8826 63.632V68H48.3466V59.52H49.8186V60.784C50.4266 59.92 51.4666 59.44 52.7466 59.44C54.0426 59.44 55.1306 59.952 55.6906 61.008C56.3306 60.048 57.5146 59.44 58.9546 59.44ZM68.9318 68.096C66.3878 68.096 64.5158 66.288 64.5158 63.76C64.5158 61.232 66.3878 59.44 68.9318 59.44C71.4758 59.44 73.3318 61.232 73.3318 63.76C73.3318 66.288 71.4758 68.096 68.9318 68.096ZM68.9318 66.752C70.5638 66.752 71.7798 65.568 71.7798 63.76C71.7798 61.952 70.5638 60.784 68.9318 60.784C67.2998 60.784 66.0678 61.952 66.0678 63.76C66.0678 65.568 67.2998 66.752 68.9318 66.752ZM79.952 59.44C82.432 59.44 84.24 61.168 84.24 63.76C84.24 66.352 82.432 68.096 79.952 68.096C78.704 68.096 77.616 67.616 76.928 66.656V68H75.456V56.128H76.992V60.8C77.696 59.888 78.752 59.44 79.952 59.44ZM79.824 66.752C81.456 66.752 82.688 65.568 82.688 63.76C82.688 61.952 81.456 60.784 79.824 60.784C78.208 60.784 76.976 61.952 76.976 63.76C76.976 65.568 78.208 66.752 79.824 66.752ZM87.1303 57.888C86.5383 57.888 86.0903 57.456 86.0903 56.896C86.0903 56.336 86.5383 55.888 87.1303 55.888C87.7223 55.888 88.1703 56.32 88.1703 56.864C88.1703 57.44 87.7383 57.888 87.1303 57.888ZM86.3623 68V59.52H87.8983V68H86.3623ZM90.831 68V56.128H92.367V68H90.831ZM102.964 63.808C102.964 63.936 102.948 64.128 102.932 64.272H96.0518C96.2438 65.76 97.4438 66.752 99.1238 66.752C100.116 66.752 100.948 66.416 101.572 65.728L102.42 66.72C101.652 67.616 100.484 68.096 99.0758 68.096C96.3398 68.096 94.5158 66.288 94.5158 63.76C94.5158 61.248 96.3238 59.44 98.7718 59.44C101.22 59.44 102.964 61.2 102.964 63.808ZM98.7718 60.736C97.2998 60.736 96.2118 61.728 96.0518 63.168H101.492C101.332 61.744 100.26 60.736 98.7718 60.736Z" fill="#444444" fill-opacity="0.8"/>
<g clip-path="url(#clip0_650_411)">
<path d="M75.2501 15.0001H72.6251C72.1439 15.0001 71.7501 14.6063 71.7501 14.1251C71.7501 13.6438 72.1439 13.2501 72.6251 13.2501H75.2501C76.2826 13.2501 76.7464 12.7933 76.9547 12.4101C77.2802 11.8098 77.0982 11.1448 76.8462 10.7598C75.4794 8.67908 73.0066 7.64133 70.5356 8.11908C68.1066 8.59158 66.1764 10.5463 65.7319 12.9806C65.7162 13.0716 65.7021 13.1608 65.6916 13.2501H46.4399C46.4294 13.1608 46.4171 13.0716 46.3996 12.9806C45.9569 10.5446 44.0249 8.58983 41.5959 8.11733C39.1249 7.64133 36.6539 8.67558 35.2854 10.7581C35.0316 11.1431 34.8496 11.8081 35.1751 12.4083C35.3449 12.7233 35.7911 13.2483 36.8796 13.2483H39.3751C39.8581 13.2483 40.2501 13.6421 40.2501 14.1233C40.2501 14.6046 39.8581 14.9983 39.3751 14.9983H36.8796C35.7911 14.9983 35.3449 15.5251 35.1751 15.8383C34.8496 16.4403 35.0316 17.1053 35.2854 17.4886C36.4334 19.2333 38.3566 20.2431 40.4006 20.2431C40.7961 20.2431 41.1969 20.2063 41.5959 20.1293C44.0266 19.6568 45.9569 17.7021 46.4014 15.2643C46.4171 15.1751 46.4294 15.0858 46.4416 14.9983H65.6916C65.7021 15.0876 65.7144 15.1786 65.7319 15.2678C66.1764 17.7038 68.1066 19.6586 70.5356 20.1293C70.9364 20.2063 71.3371 20.2431 71.7326 20.2431C73.7766 20.2431 75.7016 19.2333 76.8479 17.4886C77.1016 17.1018 77.2819 16.4368 76.9564 15.8383C76.7499 15.4533 76.2844 14.9983 75.2519 14.9983L75.2501 15.0001ZM44.7319 14.1268C44.7319 14.3998 44.7301 14.6728 44.6794 14.9546C44.3679 16.6626 42.9644 18.0836 41.2616 18.4143C39.5606 18.7433 37.9121 18.1098 36.9024 16.7518H39.3751C40.8224 16.7518 42.0001 15.5741 42.0001 14.1268C42.0001 12.6796 40.8224 11.5018 39.3751 11.5018H36.9006C37.9121 10.1421 39.5606 9.50683 41.2616 9.83933C42.9626 10.1683 44.3679 11.5911 44.6776 13.2956C44.7284 13.5773 44.7319 13.8521 44.7319 14.1303V14.1268ZM70.8681 18.4126C69.1671 18.0836 67.7637 16.6608 67.4522 14.9546C67.3997 14.6711 67.3979 14.3981 67.3979 14.1233C67.3979 13.8486 67.3979 13.5773 67.4522 13.2921C67.7637 11.5858 69.1671 10.1648 70.8681 9.83408C71.1674 9.77633 71.4631 9.74658 71.7554 9.74658C73.1291 9.74658 74.3961 10.3748 75.2274 11.4966H72.6251C71.1779 11.4966 70.0001 12.6743 70.0001 14.1216C70.0001 15.5688 71.1779 16.7466 72.6251 16.7466H75.2292C74.2194 18.1063 72.5674 18.7433 70.8681 18.4091V18.4126ZM70.1507 24.2173C68.7506 21.7708 66.1309 20.2483 63.3134 20.2483H48.6869C45.8694 20.2483 43.2496 21.7691 41.8496 24.2173L38.2481 30.5191C37.2664 32.2358 36.7501 34.1888 36.7501 36.1646V38.6251C36.7501 41.0628 38.1834 43.1733 40.2501 44.1586V45.6251C40.2501 48.0383 42.2136 50.0001 44.6251 50.0001C47.0366 50.0001 49.0001 48.0383 49.0001 45.6251V44.7501H63.0001V45.6251C63.0001 48.0383 64.9619 50.0001 67.3751 50.0001C69.7884 50.0001 71.7501 48.0383 71.7501 45.6251V44.1586C73.8169 43.1733 75.2501 41.0628 75.2501 38.6251V36.1646C75.2501 34.1871 74.7321 32.2358 73.7521 30.5191L70.1507 24.2173ZM43.3686 25.0853C44.4571 23.1813 46.4959 21.9983 48.6869 21.9983H63.3116C65.5044 21.9983 67.5414 23.1813 68.6281 25.0853L72.2296 31.3871C72.4344 31.7458 72.6164 32.1186 72.7739 32.5001H39.2246C39.3821 32.1186 39.5624 31.7476 39.7671 31.3871L43.3686 25.0853ZM47.2501 45.6233C47.2501 47.0706 46.0724 48.2483 44.6251 48.2483C43.1779 48.2483 42.0001 47.0706 42.0001 45.6233V44.6853C42.2854 44.7256 42.5776 44.7483 42.8751 44.7483H47.2501V45.6233ZM70.0001 45.6233C70.0001 47.0706 68.8224 48.2483 67.3751 48.2483C65.9279 48.2483 64.7501 47.0706 64.7501 45.6233V44.7483H69.1251C69.4226 44.7483 69.7149 44.7273 70.0001 44.6853V45.6233ZM73.5001 38.6233C73.5001 41.0366 71.5384 42.9983 69.1251 42.9983H42.8751C40.4636 42.9983 38.5001 41.0366 38.5001 38.6233V36.1628C38.5001 35.5188 38.5666 34.8766 38.6944 34.2483H43.7501V36.8733C43.7501 37.3563 44.1421 37.7483 44.6251 37.7483C45.1081 37.7483 45.5001 37.3563 45.5001 36.8733V34.2483H66.5001V36.8733C66.5001 37.3563 66.8921 37.7483 67.3751 37.7483C67.8581 37.7483 68.2501 37.3563 68.2501 36.8733V34.2483H73.3059C73.4336 34.8766 73.5001 35.5171 73.5001 36.1628V38.6233Z" fill="#444444" fill-opacity="0.8"/>
</g>
<rect x="0.5" y="0.5" width="111" height="79" rx="11.5" stroke="#323232" stroke-opacity="0.133333"/>
<defs>
<clipPath id="clip0_650_411">
<rect width="42" height="42" fill="white" transform="translate(35 8)"/>
</clipPath>
</defs>
</svg>
