<?xml version="1.0" encoding="utf-8"?>
<!-- Generator: Adobe Illustrator 27.3.1, SVG Export Plug-In . SVG Version: 6.00 Build 0)  -->
<svg version="1.1" id="Layer_1" xmlns="http://www.w3.org/2000/svg" xmlns:xlink="http://www.w3.org/1999/xlink" x="0px" y="0px"
	 viewBox="0 0 131 35" style="enable-background:new 0 0 131 35;" xml:space="preserve">
<style type="text/css">
	.st0{fill:#C10037;}
	.st1{fill:#374B5C;}
	.st2{fill:none;}
</style>
<g>
	<path class="st0" d="M20.1,17c2.5,1.2,4,3.5,4,6.4c0,4.2-3.7,7.4-8.5,7.4H3.5V4.7h11.8c4.6,0,8,2.8,8,6.7
		C23.4,13.7,22.1,15.8,20.1,17L20.1,17z M16.9,22.5c0-1.4-1-2.4-2.6-2.4h-3.9v4.8h3.9C15.9,24.9,16.9,23.9,16.9,22.5z M16.5,12.6
		c0-1.4-0.9-2.3-2.4-2.3h-3.6v4.6h3.6C15.6,14.8,16.5,13.9,16.5,12.6L16.5,12.6z"/>
</g>
<g>
	<path class="st0" d="M25.9,11.7V4.8h3.2v6.9c0,1.1,0.7,1.8,1.8,1.8s1.8-0.7,1.8-1.8V4.8h3.2v6.9c0,2.8-2.1,4.7-4.9,4.7
		C28,16.4,25.9,14.5,25.9,11.7z"/>
	<path class="st0" d="M37.4,12.5h3.2c0,0.8,0.6,1.2,1.3,1.2c0.7,0,1.3-0.3,1.3-1c0-0.7-0.9-0.9-2-1.2c-1.6-0.4-3.7-0.9-3.7-3.5
		c0-2.2,1.6-3.5,4.3-3.5c2.7,0,4.3,1.4,4.3,3.7H43c0-0.7-0.5-1.1-1.2-1.1c-0.6,0-1.1,0.2-1.1,0.8c0,0.6,0.9,0.9,1.9,1.1
		c1.7,0.4,3.8,1,3.8,3.6c0,2.5-1.9,3.8-4.5,3.8C39.1,16.4,37.4,14.9,37.4,12.5z"/>
	<path class="st0" d="M48.1,4.8h3.2v11.3h-3.2V4.8z"/>
	<path class="st0" d="M63.5,4.8v11.3H61L56.5,10v6.1h-3V4.8h2.7l4.3,5.9V4.8H63.5z"/>
	<path class="st0" d="M73.1,13.4v2.7h-7.4V4.8H73v2.7h-4.1v1.7h3.7v2.6h-3.7v1.7H73.1z"/>
	<path class="st0" d="M74.4,12.5h3.2c0,0.8,0.6,1.2,1.3,1.2c0.7,0,1.3-0.3,1.3-1c0-0.7-0.9-0.9-2-1.2c-1.6-0.4-3.7-0.9-3.7-3.5
		c0-2.2,1.6-3.5,4.3-3.5c2.7,0,4.3,1.4,4.3,3.7H80c0-0.7-0.5-1.1-1.2-1.1c-0.6,0-1.1,0.2-1.1,0.8c0,0.6,0.9,0.9,1.9,1.1
		c1.7,0.4,3.8,1,3.8,3.6c0,2.5-1.9,3.8-4.5,3.8C76.2,16.4,74.4,14.9,74.4,12.5z"/>
	<path class="st0" d="M84.5,12.5h3.2c0,0.8,0.6,1.2,1.3,1.2c0.7,0,1.3-0.3,1.3-1c0-0.7-0.9-0.9-2-1.2c-1.6-0.4-3.7-0.9-3.7-3.5
		c0-2.2,1.6-3.5,4.3-3.5c2.7,0,4.3,1.4,4.3,3.7h-3.1c0-0.7-0.5-1.1-1.2-1.1c-0.6,0-1.1,0.2-1.1,0.8c0,0.6,0.9,0.9,1.9,1.1
		c1.7,0.4,3.8,1,3.8,3.6c0,2.5-1.9,3.8-4.5,3.8C86.3,16.4,84.5,14.9,84.5,12.5z"/>
</g>
<g>
	<path class="st1" d="M26,24.8c0-3.5,2.6-5.9,6.2-5.9c3.6,0,6.2,2.5,6.2,5.9s-2.6,5.9-6.2,5.9C28.5,30.7,26,28.3,26,24.8z
		 M35.2,24.8c0-1.8-1.2-3-3-3s-3,1.3-3,3c0,1.8,1.3,3,3,3S35.2,26.6,35.2,24.8z"/>
	<path class="st1" d="M50.4,24.8c0,3.3-2.4,5.7-5.8,5.7H40V19.1h4.6C48,19.1,50.4,21.5,50.4,24.8z M47.2,24.8c0-1.7-1.1-2.8-2.8-2.8
		h-1.3v5.6h1.3C46.1,27.6,47.2,26.5,47.2,24.8z"/>
	<path class="st1" d="M52.1,19.1h3.2v11.3h-3.2V19.1z"/>
	<path class="st1" d="M56.9,26.8h3.2c0,0.8,0.6,1.2,1.3,1.2c0.7,0,1.3-0.3,1.3-1c0-0.7-0.9-0.9-2-1.2c-1.6-0.4-3.7-0.9-3.7-3.5
		c0-2.2,1.6-3.5,4.3-3.5c2.7,0,4.3,1.4,4.3,3.7h-3.1c0-0.7-0.5-1.1-1.2-1.1c-0.6,0-1.1,0.2-1.1,0.8c0,0.6,0.9,0.9,1.9,1.1
		c1.7,0.4,3.8,1,3.8,3.6c0,2.5-1.9,3.8-4.5,3.8C58.7,30.7,56.9,29.3,56.9,26.8z"/>
	<path class="st1" d="M77.3,19.1v11.3h-3.1v-4.3h-3.4v4.3h-3.1V19.1h3.1v4.1h3.4v-4.1H77.3z"/>
	<path class="st1" d="M86.4,28.6h-4l-0.6,1.8h-3.3l4.4-11.3h3l4.5,11.3H87L86.4,28.6z M84.3,22.7l-1.2,3.5h2.5L84.3,22.7z"/>
</g>
<ellipse class="st0" cx="32.2" cy="24.8" rx="2.7" ry="2.7"/>
<g>
	<rect x="33.1" y="25" class="st2" width="29.2" height="18.1"/>
</g>
</svg>
