<svg width="139" height="80" viewBox="0 0 139 80" fill="none" xmlns="http://www.w3.org/2000/svg">
<path d="M14.688 68.128C11.296 68.128 8.768 65.712 8.768 62.4C8.768 59.088 11.296 56.672 14.704 56.672C16.432 56.672 17.936 57.264 18.96 58.416L17.92 59.424C17.056 58.512 16 58.096 14.768 58.096C12.24 58.096 10.368 59.92 10.368 62.4C10.368 64.88 12.24 66.704 14.768 66.704C16 66.704 17.056 66.272 17.92 65.36L18.96 66.368C17.936 67.52 16.432 68.128 14.688 68.128ZM24.2911 68.096C21.7471 68.096 19.8751 66.288 19.8751 63.76C19.8751 61.232 21.7471 59.44 24.2911 59.44C26.8351 59.44 28.6911 61.232 28.6911 63.76C28.6911 66.288 26.8351 68.096 24.2911 68.096ZM24.2911 66.752C25.9231 66.752 27.1391 65.568 27.1391 63.76C27.1391 61.952 25.9231 60.784 24.2911 60.784C22.6591 60.784 21.4271 61.952 21.4271 63.76C21.4271 65.568 22.6591 66.752 24.2911 66.752ZM37.1834 59.52H38.7194V68H37.2634V66.72C36.6394 67.6 35.5834 68.096 34.3834 68.096C32.1914 68.096 30.7354 66.896 30.7354 64.4V59.52H32.2714V64.224C32.2714 65.888 33.1034 66.72 34.5594 66.72C36.1594 66.72 37.1834 65.728 37.1834 63.904V59.52ZM43.1155 60.944C43.6595 59.952 44.7155 59.44 46.2035 59.44V60.928C46.0755 60.912 45.9635 60.912 45.8515 60.912C44.2035 60.912 43.1795 61.92 43.1795 63.776V68H41.6435V59.52H43.1155V60.944ZM48.8646 57.888C48.2726 57.888 47.8246 57.456 47.8246 56.896C47.8246 56.336 48.2726 55.888 48.8646 55.888C49.4566 55.888 49.9046 56.32 49.9046 56.864C49.9046 57.44 49.4726 57.888 48.8646 57.888ZM48.0966 68V59.52H49.6326V68H48.0966ZM60.2294 63.808C60.2294 63.936 60.2134 64.128 60.1974 64.272H53.3174C53.5094 65.76 54.7094 66.752 56.3894 66.752C57.3814 66.752 58.2134 66.416 58.8374 65.728L59.6854 66.72C58.9174 67.616 57.7494 68.096 56.3414 68.096C53.6054 68.096 51.7814 66.288 51.7814 63.76C51.7814 61.248 53.5894 59.44 56.0374 59.44C58.4854 59.44 60.2294 61.2 60.2294 63.808ZM56.0374 60.736C54.5654 60.736 53.4774 61.728 53.3174 63.168H58.7574C58.5974 61.744 57.5254 60.736 56.0374 60.736ZM63.8343 60.944C64.3783 59.952 65.4343 59.44 66.9223 59.44V60.928C66.7943 60.912 66.6823 60.912 66.5703 60.912C64.9223 60.912 63.8983 61.92 63.8983 63.776V68H62.3623V59.52H63.8343V60.944ZM76.7096 68.128C74.9976 68.128 73.3176 67.552 72.4216 66.72L73.0136 65.472C73.8456 66.224 75.2696 66.768 76.7096 66.768C78.6456 66.768 79.4776 66.016 79.4776 65.04C79.4776 62.304 72.6936 64.032 72.6936 59.872C72.6936 58.144 74.0376 56.672 76.9816 56.672C78.2936 56.672 79.6536 57.024 80.5816 57.664L80.0536 58.944C79.0776 58.32 77.9736 58.032 76.9816 58.032C75.0776 58.032 74.2616 58.832 74.2616 59.808C74.2616 62.544 81.0456 60.832 81.0456 64.944C81.0456 66.656 79.6696 68.128 76.7096 68.128ZM90.8231 63.808C90.8231 63.936 90.8071 64.128 90.7911 64.272H83.9111C84.1031 65.76 85.3031 66.752 86.9831 66.752C87.9751 66.752 88.8071 66.416 89.4311 65.728L90.2791 66.72C89.5111 67.616 88.3431 68.096 86.9351 68.096C84.1991 68.096 82.3751 66.288 82.3751 63.76C82.3751 61.248 84.1831 59.44 86.6311 59.44C89.0791 59.44 90.8231 61.2 90.8231 63.808ZM86.6311 60.736C85.1591 60.736 84.0711 61.728 83.9111 63.168H89.3511C89.1911 61.744 88.1191 60.736 86.6311 60.736ZM94.428 60.944C94.972 59.952 96.028 59.44 97.516 59.44V60.928C97.388 60.912 97.276 60.912 97.164 60.912C95.516 60.912 94.492 61.92 94.492 63.776V68H92.956V59.52H94.428V60.944ZM105.753 59.52H107.257L103.545 68H101.977L98.2649 59.52H99.8649L102.777 66.32L105.753 59.52ZM109.458 57.888C108.866 57.888 108.418 57.456 108.418 56.896C108.418 56.336 108.866 55.888 109.458 55.888C110.05 55.888 110.498 56.32 110.498 56.864C110.498 57.44 110.066 57.888 109.458 57.888ZM108.69 68V59.52H110.226V68H108.69ZM116.855 68.096C114.247 68.096 112.375 66.288 112.375 63.76C112.375 61.232 114.247 59.44 116.855 59.44C118.375 59.44 119.639 60.064 120.311 61.248L119.143 62C118.599 61.168 117.767 60.784 116.839 60.784C115.175 60.784 113.927 61.952 113.927 63.76C113.927 65.6 115.175 66.752 116.839 66.752C117.767 66.752 118.599 66.368 119.143 65.536L120.311 66.272C119.639 67.456 118.375 68.096 116.855 68.096ZM129.839 63.808C129.839 63.936 129.823 64.128 129.807 64.272H122.927C123.119 65.76 124.319 66.752 125.999 66.752C126.991 66.752 127.823 66.416 128.447 65.728L129.295 66.72C128.527 67.616 127.359 68.096 125.951 68.096C123.215 68.096 121.391 66.288 121.391 63.76C121.391 61.248 123.199 59.44 125.647 59.44C128.095 59.44 129.839 61.2 129.839 63.808ZM125.647 60.736C124.175 60.736 123.087 61.728 122.927 63.168H128.367C128.207 61.744 127.135 60.736 125.647 60.736Z" fill="#444444" fill-opacity="0.8"/>
<g clip-path="url(#clip0_650_496)">
<path d="M58.6249 16.75C61.0364 16.75 62.9999 14.7882 62.9999 12.375C62.9999 9.96175 61.0364 8 58.6249 8C56.2134 8 54.2499 9.96175 54.2499 12.375C54.2499 14.7882 56.2134 16.75 58.6249 16.75ZM58.6249 9.75C60.0721 9.75 61.2499 10.9277 61.2499 12.375C61.2499 13.8223 60.0721 15 58.6249 15C57.1776 15 55.9999 13.8223 55.9999 12.375C55.9999 10.9277 57.1776 9.75 58.6249 9.75ZM81.3749 16.75C83.7864 16.75 85.7499 14.7882 85.7499 12.375C85.7499 9.96175 83.7864 8 81.3749 8C78.9634 8 76.9999 9.96175 76.9999 12.375C76.9999 14.7882 78.9634 16.75 81.3749 16.75ZM81.3749 9.75C82.8221 9.75 83.9999 10.9277 83.9999 12.375C83.9999 13.8223 82.8221 15 81.3749 15C79.9276 15 78.7499 13.8223 78.7499 12.375C78.7499 10.9277 79.9276 9.75 81.3749 9.75ZM53.2156 40.6165L50.7149 49.3665C50.6046 49.7515 50.2546 50 49.8749 50C49.7944 50 49.7139 49.9895 49.6334 49.965C49.1679 49.8337 48.9001 49.3472 49.0314 48.8835L51.5321 40.1335C51.6651 39.6662 52.1516 39.3967 52.6136 39.5332C53.0791 39.6645 53.3469 40.151 53.2156 40.6147V40.6165ZM90.8599 28.8145L89.3479 23.2688C88.7774 20.5055 86.3169 18.5 83.4959 18.5C81.3941 18.5 79.4236 19.6217 78.3544 21.4277L76.2036 25.0555C75.5614 24.2663 74.5954 23.75 73.4999 23.75H66.4999C65.4044 23.75 64.4384 24.2663 63.7961 25.0555L61.6454 21.4277C60.5761 19.6217 58.6056 18.5 56.5039 18.5C53.6829 18.5 51.2206 20.5055 50.6641 23.2145L49.1276 28.867C48.6149 31.3502 49.7104 33.928 51.8419 35.2772L57.7499 39.1273V49.125C57.7499 49.608 58.1419 50 58.6249 50C59.1079 50 59.4999 49.608 59.4999 49.125V38.6548C59.4999 38.359 59.3511 38.0842 59.1026 37.9215L56.0541 35.9335L59.9969 22.1365C60.0406 22.2013 60.1001 22.252 60.1404 22.3185L63.0104 27.1572C63.0104 27.1887 63.0016 27.2167 63.0016 27.2482V34.2482C63.0016 36.1785 64.5714 37.7483 66.5016 37.7483H73.5016C75.4319 37.7483 77.0016 36.1785 77.0016 34.2482V27.2482C77.0016 27.2167 76.9929 27.1887 76.9929 27.1572L79.8629 22.3185C79.9031 22.2503 79.9626 22.1995 80.0064 22.1347L83.9474 35.9318L80.8989 37.918C80.6504 38.0808 80.5016 38.3555 80.5016 38.6512V49.1215C80.5016 49.6045 80.8936 49.9965 81.3766 49.9965C81.8596 49.9965 82.2516 49.6045 82.2516 49.1215V39.1237L88.1509 35.2807C90.2929 33.9262 91.3866 31.3468 90.8616 28.811L90.8599 28.8145ZM52.7869 33.8037C51.2556 32.836 50.4734 30.995 50.8269 29.273L52.3634 23.6223C52.7659 21.6692 54.5071 20.25 56.5021 20.25C57.2319 20.25 57.9371 20.446 58.5566 20.7908L54.5194 34.9325L52.7869 33.8037ZM75.2481 34.25C75.2481 35.216 74.4624 36 73.4981 36H66.4981C65.5339 36 64.7481 35.216 64.7481 34.25V27.25C64.7481 26.284 65.5339 25.5 66.4981 25.5H73.4981C74.4624 25.5 75.2481 26.284 75.2481 27.25V34.25ZM87.2024 33.8107L85.4804 34.9342L81.4396 20.7925C82.0609 20.4477 82.7661 20.2517 83.4941 20.2517C85.4891 20.2517 87.2304 21.671 87.6451 23.6765L89.1571 29.2222C89.5229 30.9967 88.7406 32.8378 87.2006 33.8125L87.2024 33.8107ZM90.3646 49.965C90.2841 49.9895 90.2036 50 90.1231 50C89.7434 50 89.3934 49.7498 89.2831 49.3665L86.7841 40.6165C86.6511 40.151 86.9206 39.6663 87.3861 39.535C87.8481 39.4003 88.3346 39.6698 88.4676 40.1353L90.9666 48.8853C91.0996 49.3508 90.8301 49.8355 90.3646 49.9668V49.965Z" fill="#444444" fill-opacity="0.8"/>
</g>
<rect x="0.5" y="0.5" width="138" height="79" rx="11.5" stroke="#323232" stroke-opacity="0.133333"/>
<defs>
<clipPath id="clip0_650_496">
<rect width="42" height="42" fill="white" transform="translate(49 8)"/>
</clipPath>
</defs>
</svg>
