<svg width="135" height="80" viewBox="0 0 135 80" fill="none" xmlns="http://www.w3.org/2000/svg">
<path d="M9.68 68V56.8H14.4C18 56.8 20.448 59.072 20.448 62.4C20.448 65.728 18 68 14.4 68H9.68ZM11.28 66.608H14.304C17.072 66.608 18.848 64.912 18.848 62.4C18.848 59.888 17.072 58.192 14.304 58.192H11.28V66.608ZM24.1468 60.944C24.6908 59.952 25.7468 59.44 27.2348 59.44V60.928C27.1068 60.912 26.9948 60.912 26.8828 60.912C25.2348 60.912 24.2108 61.92 24.2108 63.776V68H22.6748V59.52H24.1468V60.944ZM29.8959 57.888C29.3039 57.888 28.8559 57.456 28.8559 56.896C28.8559 56.336 29.3039 55.888 29.8959 55.888C30.4879 55.888 30.9359 56.32 30.9359 56.864C30.9359 57.44 30.5039 57.888 29.8959 57.888ZM29.1279 68V59.52H30.6639V68H29.1279ZM39.5966 59.52H41.1006L37.3886 68H35.8206L32.1086 59.52H33.7086L36.6206 66.32L39.5966 59.52ZM43.3021 57.888C42.7101 57.888 42.2621 57.456 42.2621 56.896C42.2621 56.336 42.7101 55.888 43.3021 55.888C43.8941 55.888 44.3421 56.32 44.3421 56.864C44.3421 57.44 43.9101 57.888 43.3021 57.888ZM42.5341 68V59.52H44.0701V68H42.5341ZM51.5309 59.44C53.5949 59.44 55.0509 60.624 55.0509 63.12V68H53.5149V63.296C53.5149 61.632 52.6829 60.816 51.2269 60.816C49.5949 60.816 48.5389 61.792 48.5389 63.632V68H47.0029V59.52H48.4749V60.8C49.0989 59.936 50.1869 59.44 51.5309 59.44ZM64.5964 59.52H66.0524V66.848C66.0524 69.84 64.5324 71.2 61.6524 71.2C60.1004 71.2 58.5324 70.768 57.6044 69.936L58.3404 68.752C59.1244 69.424 60.3564 69.856 61.6044 69.856C63.6044 69.856 64.5164 68.928 64.5164 67.008V66.336C63.7804 67.216 62.6764 67.648 61.4604 67.648C59.0124 67.648 57.1564 65.984 57.1564 63.536C57.1564 61.088 59.0124 59.44 61.4604 59.44C62.7244 59.44 63.8764 59.904 64.5964 60.832V59.52ZM61.6364 66.304C63.3324 66.304 64.5484 65.168 64.5484 63.536C64.5484 61.888 63.3324 60.784 61.6364 60.784C59.9244 60.784 58.7084 61.888 58.7084 63.536C58.7084 65.168 59.9244 66.304 61.6364 66.304ZM76.7721 68.128C75.0601 68.128 73.3801 67.552 72.4841 66.72L73.0761 65.472C73.9081 66.224 75.3321 66.768 76.7721 66.768C78.7081 66.768 79.5401 66.016 79.5401 65.04C79.5401 62.304 72.7561 64.032 72.7561 59.872C72.7561 58.144 74.1001 56.672 77.0441 56.672C78.3561 56.672 79.7161 57.024 80.6441 57.664L80.1161 58.944C79.1401 58.32 78.0361 58.032 77.0441 58.032C75.1401 58.032 74.3241 58.832 74.3241 59.808C74.3241 62.544 81.1081 60.832 81.1081 64.944C81.1081 66.656 79.7321 68.128 76.7721 68.128ZM86.9176 68.096C84.3096 68.096 82.4376 66.288 82.4376 63.76C82.4376 61.232 84.3096 59.44 86.9176 59.44C88.4376 59.44 89.7016 60.064 90.3736 61.248L89.2056 62C88.6616 61.168 87.8296 60.784 86.9016 60.784C85.2376 60.784 83.9896 61.952 83.9896 63.76C83.9896 65.6 85.2376 66.752 86.9016 66.752C87.8296 66.752 88.6616 66.368 89.2056 65.536L90.3736 66.272C89.7016 67.456 88.4376 68.096 86.9176 68.096ZM96.7809 59.44C98.8449 59.44 100.301 60.624 100.301 63.12V68H98.7649V63.296C98.7649 61.632 97.9329 60.816 96.4769 60.816C94.8449 60.816 93.7889 61.792 93.7889 63.632V68H92.2529V56.128H93.7889V60.72C94.4289 59.904 95.4849 59.44 96.7809 59.44ZM106.822 68.096C104.278 68.096 102.406 66.288 102.406 63.76C102.406 61.232 104.278 59.44 106.822 59.44C109.366 59.44 111.222 61.232 111.222 63.76C111.222 66.288 109.366 68.096 106.822 68.096ZM106.822 66.752C108.454 66.752 109.67 65.568 109.67 63.76C109.67 61.952 108.454 60.784 106.822 60.784C105.19 60.784 103.958 61.952 103.958 63.76C103.958 65.568 105.19 66.752 106.822 66.752ZM116.979 68.096C114.435 68.096 112.563 66.288 112.563 63.76C112.563 61.232 114.435 59.44 116.979 59.44C119.523 59.44 121.379 61.232 121.379 63.76C121.379 66.288 119.523 68.096 116.979 68.096ZM116.979 66.752C118.611 66.752 119.827 65.568 119.827 63.76C119.827 61.952 118.611 60.784 116.979 60.784C115.347 60.784 114.115 61.952 114.115 63.76C114.115 65.568 115.347 66.752 116.979 66.752ZM123.503 68V56.128H125.039V68H123.503Z" fill="#444444" fill-opacity="0.8"/>
<g clip-path="url(#clip0_650_469)">
<path d="M74.8582 35.552C74.279 33.7267 72.6025 32.5 70.688 32.5H65.312C63.3975 32.5 61.721 33.7267 61.1418 35.552L59.7015 40.0915C59.4022 41.0347 59.25 42.0147 59.25 43.0035V45.625C59.25 46.108 59.642 46.5 60.125 46.5H61V49.125C61 49.608 61.392 50 61.875 50C62.358 50 62.75 49.608 62.75 49.125V46.5H73.25V49.125C73.25 49.608 73.642 50 74.125 50C74.608 50 75 49.608 75 49.125V46.5H75.875C76.358 46.5 76.75 46.108 76.75 45.625V43.0035C76.75 42.0147 76.5978 41.0347 76.2985 40.0915L74.8582 35.552ZM62.8095 36.0822C63.156 34.9867 64.1622 34.25 65.312 34.25H70.688C71.836 34.25 72.8422 34.9867 73.1905 36.0822L74.2755 39.5H61.7245L62.8095 36.0822ZM75 44.75H61V43.0035C61 42.412 61.0683 41.8257 61.1995 41.25H74.8023C74.9335 41.8257 75.0017 42.412 75.0017 43.0035L75 44.75ZM85.5298 18.2042L72.4065 9.34922C69.7307 7.54147 66.2693 7.54147 63.597 9.34922L50.4703 18.2025C48.2968 19.669 47 22.1067 47 24.73V42.1232C47 46.465 50.5333 49.9982 54.875 49.9982C55.358 49.9982 55.75 49.6062 55.75 49.1232V29.875C55.75 27.4617 57.7118 25.5 60.125 25.5H75.875C78.2882 25.5 80.25 27.4617 80.25 29.875V49.125C80.25 49.608 80.642 50 81.125 50C85.4667 50 89 46.4667 89 42.125V24.7317C89 22.1102 87.7033 19.6672 85.5298 18.2042ZM87.25 42.125C87.25 45.205 84.9645 47.7617 82 48.1887V29.875C82 26.4975 79.2525 23.75 75.875 23.75H60.125C56.7475 23.75 54 26.4975 54 29.875V48.1887C51.0355 47.7617 48.75 45.205 48.75 42.125V24.7317C48.75 22.693 49.758 20.7942 51.4485 19.655L64.5753 10.7982C66.6543 9.39297 69.3458 9.39297 71.4265 10.7982L84.5515 19.655C86.242 20.7942 87.25 22.693 87.25 24.7317V42.125Z" fill="#444444" fill-opacity="0.8"/>
</g>
<rect x="0.5" y="0.5" width="134" height="79" rx="11.5" stroke="#323232" stroke-opacity="0.133333"/>
<defs>
<clipPath id="clip0_650_469">
<rect width="42" height="42" fill="white" transform="translate(47 8)"/>
</clipPath>
</defs>
</svg>
