<svg width="156" height="80" viewBox="0 0 156 80" fill="none" xmlns="http://www.w3.org/2000/svg">
<path d="M11.28 66.608H17.808V68H9.68V56.8H17.584V58.192H11.28V61.632H16.896V62.992H11.28V66.608ZM20.1748 68V56.128H21.7108V68H20.1748ZM32.3075 63.808C32.3075 63.936 32.2915 64.128 32.2755 64.272H25.3955C25.5875 65.76 26.7875 66.752 28.4675 66.752C29.4595 66.752 30.2915 66.416 30.9155 65.728L31.7635 66.72C30.9955 67.616 29.8275 68.096 28.4195 68.096C25.6835 68.096 23.8595 66.288 23.8595 63.76C23.8595 61.248 25.6675 59.44 28.1155 59.44C30.5635 59.44 32.3075 61.2 32.3075 63.808ZM28.1155 60.736C26.6435 60.736 25.5555 61.728 25.3955 63.168H30.8355C30.6755 61.744 29.6035 60.736 28.1155 60.736ZM38.1364 68.096C35.5284 68.096 33.6564 66.288 33.6564 63.76C33.6564 61.232 35.5284 59.44 38.1364 59.44C39.6564 59.44 40.9204 60.064 41.5924 61.248L40.4244 62C39.8804 61.168 39.0484 60.784 38.1204 60.784C36.4564 60.784 35.2084 61.952 35.2084 63.76C35.2084 65.6 36.4564 66.752 38.1204 66.752C39.0484 66.752 39.8804 66.368 40.4244 65.536L41.5924 66.272C40.9204 67.456 39.6564 68.096 38.1364 68.096ZM47.9784 66.4L48.4584 67.504C47.9944 67.904 47.2904 68.096 46.6024 68.096C44.8904 68.096 43.9144 67.152 43.9144 65.44V60.784H42.4744V59.52H43.9144V57.664H45.4504V59.52H47.8824V60.784H45.4504V65.376C45.4504 66.288 45.9304 66.8 46.7784 66.8C47.2264 66.8 47.6584 66.656 47.9784 66.4ZM51.7874 60.944C52.3314 59.952 53.3874 59.44 54.8754 59.44V60.928C54.7474 60.912 54.6354 60.912 54.5234 60.912C52.8754 60.912 51.8514 61.92 51.8514 63.776V68H50.3154V59.52H51.7874V60.944ZM60.3224 68.096C57.7784 68.096 55.9064 66.288 55.9064 63.76C55.9064 61.232 57.7784 59.44 60.3224 59.44C62.8664 59.44 64.7224 61.232 64.7224 63.76C64.7224 66.288 62.8664 68.096 60.3224 68.096ZM60.3224 66.752C61.9544 66.752 63.1704 65.568 63.1704 63.76C63.1704 61.952 61.9544 60.784 60.3224 60.784C58.6904 60.784 57.4584 61.952 57.4584 63.76C57.4584 65.568 58.6904 66.752 60.3224 66.752ZM71.3746 59.44C73.4386 59.44 74.8946 60.624 74.8946 63.12V68H73.3586V63.296C73.3586 61.632 72.5266 60.816 71.0706 60.816C69.4386 60.816 68.3826 61.792 68.3826 63.632V68H66.8466V59.52H68.3186V60.8C68.9426 59.936 70.0306 59.44 71.3746 59.44ZM78.5053 57.888C77.9133 57.888 77.4653 57.456 77.4653 56.896C77.4653 56.336 77.9133 55.888 78.5053 55.888C79.0973 55.888 79.5453 56.32 79.5453 56.864C79.5453 57.44 79.1133 57.888 78.5053 57.888ZM77.7373 68V59.52H79.2733V68H77.7373ZM85.902 68.096C83.294 68.096 81.422 66.288 81.422 63.76C81.422 61.232 83.294 59.44 85.902 59.44C87.422 59.44 88.686 60.064 89.358 61.248L88.19 62C87.646 61.168 86.814 60.784 85.886 60.784C84.222 60.784 82.974 61.952 82.974 63.76C82.974 65.6 84.222 66.752 85.886 66.752C86.814 66.752 87.646 66.368 88.19 65.536L89.358 66.272C88.686 67.456 87.422 68.096 85.902 68.096ZM105.1 68H103.356L100.94 64.56C100.716 64.576 100.476 64.592 100.236 64.592H97.4675V68H95.8675V56.8H100.236C103.148 56.8 104.908 58.272 104.908 60.704C104.908 62.432 104.012 63.68 102.444 64.24L105.1 68ZM100.188 63.232C102.236 63.232 103.308 62.304 103.308 60.704C103.308 59.104 102.236 58.192 100.188 58.192H97.4675V63.232H100.188ZM114.933 63.808C114.933 63.936 114.917 64.128 114.901 64.272H108.021C108.213 65.76 109.413 66.752 111.093 66.752C112.085 66.752 112.917 66.416 113.541 65.728L114.389 66.72C113.621 67.616 112.453 68.096 111.045 68.096C108.309 68.096 106.485 66.288 106.485 63.76C106.485 61.248 108.293 59.44 110.741 59.44C113.189 59.44 114.933 61.2 114.933 63.808ZM110.741 60.736C109.269 60.736 108.181 61.728 108.021 63.168H113.461C113.301 61.744 112.229 60.736 110.741 60.736ZM121.561 59.44C124.041 59.44 125.849 61.168 125.849 63.76C125.849 66.368 124.041 68.096 121.561 68.096C120.361 68.096 119.305 67.632 118.601 66.72V71.104H117.065V59.52H118.537V60.864C119.225 59.92 120.313 59.44 121.561 59.44ZM121.433 66.752C123.065 66.752 124.297 65.568 124.297 63.76C124.297 61.968 123.065 60.784 121.433 60.784C119.817 60.784 118.585 61.968 118.585 63.76C118.585 65.568 119.817 66.752 121.433 66.752ZM130.982 59.44C133.302 59.44 134.614 60.56 134.614 62.88V68H133.158V66.88C132.646 67.648 131.702 68.096 130.374 68.096C128.454 68.096 127.238 67.072 127.238 65.6C127.238 64.24 128.118 63.12 130.646 63.12H133.078V62.816C133.078 61.52 132.326 60.768 130.806 60.768C129.798 60.768 128.774 61.12 128.118 61.68L127.478 60.528C128.358 59.824 129.622 59.44 130.982 59.44ZM130.63 66.912C131.782 66.912 132.694 66.384 133.078 65.408V64.224H130.71C129.19 64.224 128.758 64.816 128.758 65.536C128.758 66.384 129.462 66.912 130.63 66.912ZM138.224 57.888C137.632 57.888 137.184 57.456 137.184 56.896C137.184 56.336 137.632 55.888 138.224 55.888C138.816 55.888 139.264 56.32 139.264 56.864C139.264 57.44 138.832 57.888 138.224 57.888ZM137.456 68V59.52H138.992V68H137.456ZM143.397 60.944C143.941 59.952 144.997 59.44 146.485 59.44V60.928C146.357 60.912 146.245 60.912 146.133 60.912C144.485 60.912 143.461 61.92 143.461 63.776V68H141.925V59.52H143.397V60.944Z" fill="#444444" fill-opacity="0.8"/>
<rect x="0.5" y="0.5" width="155" height="79" rx="11.5" stroke="#323232" stroke-opacity="0.133333"/>
<g clip-path="url(#clip0_650_588)">
<path d="M77.9668 29.9679C77.8028 29.7956 77.5239 29.7874 77.3516 29.9515C76.1293 31.1163 74.2098 31.1163 72.9876 29.9515C72.8153 29.7874 72.5364 29.7874 72.3723 29.9679C72.2083 30.1401 72.2083 30.419 72.3887 30.5831C73.9473 32.0679 76.3918 32.0679 77.9586 30.5831C78.1227 30.419 78.1309 30.1401 77.9668 29.9679ZM77.6961 25.1198C77.9176 25.2101 78.1719 25.1034 78.2704 24.8819C78.4016 24.562 78.861 24.5538 78.9922 24.8819C79.0825 25.1034 79.345 25.2101 79.5665 25.1198C79.7879 25.0296 79.8946 24.7671 79.8043 24.5456C79.3696 23.5038 77.893 23.512 77.4665 24.5456C77.368 24.7671 77.4747 25.0214 77.6961 25.1198ZM72.6594 25.1198C72.8809 25.0296 72.9876 24.7671 72.8973 24.5456C72.4708 23.512 70.986 23.5038 70.5594 24.5456C70.4692 24.7671 70.5758 25.0214 70.7973 25.1198C71.0188 25.2101 71.2731 25.1034 71.3715 24.8819C71.5028 24.562 71.9622 24.562 72.0934 24.8819C72.1836 25.1034 72.4379 25.2101 72.6594 25.1198Z" fill="#444444" fill-opacity="0.8"/>
<path d="M97.4 35.3656H97.3016V31.8875C97.3016 31.6496 97.1047 31.4527 96.8668 31.4527C96.6289 31.4527 96.432 31.6496 96.432 31.8875V35.3656H92.0105V31.8875C92.0105 31.6496 91.8137 31.4527 91.5758 31.4527C91.3379 31.4527 91.141 31.6496 91.141 31.8875V35.3656H91.0426C90.173 35.3656 89.4594 36.0793 89.4594 36.9488V37.6461C87.384 35.7758 84.6523 34.6273 81.6418 34.6273H81.1004L80.075 33.5773C82.1586 32.1336 83.4137 29.9434 83.7172 27.6055L83.8238 26.7934C84.7836 26.6129 85.5219 25.7598 85.5219 24.7426C85.5219 23.9797 85.1035 23.3152 84.4883 22.9543C84.6195 22.7574 84.6934 22.5195 84.6934 22.2652V21.1906H84.7426C85.5793 21.1906 86.2602 20.5098 86.2602 19.673C86.2602 18.9266 85.7187 18.3113 85.0051 18.1801C84.8246 14.259 82.1258 11.0023 78.4836 9.96875L78.582 9.41094C78.7051 8.68906 78.1309 8 77.368 8H72.9875C72.2246 8 71.6422 8.68906 71.7734 9.44375L71.8719 9.99336C68.2297 11.0187 65.5309 14.2836 65.3504 18.2047C64.6367 18.3277 64.0953 18.9512 64.0953 19.6977C64.0953 20.5344 64.7762 21.2152 65.6129 21.2152H65.6621V22.2898C65.6621 22.5441 65.7359 22.782 65.8672 22.9789C65.252 23.3398 64.8336 24.0043 64.8336 24.7672C64.8336 25.7844 65.5637 26.6293 66.5316 26.818L66.6383 27.6301C66.9582 30.1156 68.3363 32.2402 70.2723 33.5938L69.2387 34.652H68.6973C62.2496 34.652 57.0078 39.8937 57.0078 46.3414V49.5406C57.0078 49.7785 57.2047 49.9754 57.4426 49.9754C95.2262 49.9754 93.3148 50.2051 93.3148 49.5406V48.2363C94.1352 47.3176 94.6437 46.1117 94.6437 44.7828V43.134H95.0949C95.7922 43.134 96.4074 42.691 96.5961 42.0512C96.8094 41.3457 97.3262 40.7551 97.9496 40.5254C98.5566 40.2957 98.9668 39.6805 98.9668 38.9996V36.9652C98.9832 36.0793 98.2695 35.3656 97.4 35.3656ZM81.8305 36.6289L83.2332 40.5992L81.1742 39.4508C81.0348 39.377 80.8707 39.377 80.7312 39.459L76.6707 41.9035C77.9422 39.8363 79.8535 38.1793 79.9273 34.7012L81.8305 36.6289ZM84.1355 18.1801H77.048L78.3277 10.8629C81.5516 11.8063 83.9469 14.702 84.1355 18.1801ZM72.9875 8.87773H77.368C77.5895 8.87773 77.7535 9.07461 77.7207 9.29609L76.1621 18.1883H74.1934L72.6348 9.29609C72.602 9.07461 72.766 8.87773 72.9875 8.87773ZM72.0195 10.8629L73.2992 18.1801H66.2117C66.4004 14.702 68.8039 11.8063 72.0195 10.8629ZM65.6129 20.3375C65.2602 20.3375 64.973 20.0504 64.973 19.6977C64.973 19.3449 65.2602 19.0578 65.6129 19.0578C71.6094 19.0578 77.8355 19.0578 84.7344 19.0578C85.0871 19.0578 85.3742 19.3449 85.3742 19.6977C85.3742 20.0504 85.0871 20.3375 84.7344 20.3375H65.6129ZM83.0117 21.2152H83.8074V22.2898C83.8074 22.5031 83.6352 22.6754 83.4219 22.6754C83.2086 22.6754 83.0363 22.5031 83.0363 22.2898C83.0281 21.7977 83.0527 21.6418 83.0117 21.2152ZM67.3191 22.2816C67.3191 22.4949 67.1469 22.6672 66.9336 22.6672C66.7203 22.6672 66.548 22.4949 66.548 22.2816V21.207H67.3438C67.3027 21.5598 67.3273 21.4859 67.3191 22.2816ZM67.516 27.507L67.3684 26.3504C67.3438 26.1289 67.1551 25.973 66.9336 25.973C66.2609 25.973 65.7195 25.4316 65.7195 24.7672C65.7195 24.0863 66.2527 23.5531 66.9336 23.5531C67.6309 23.5531 68.1887 22.9871 68.1887 22.2898C68.1969 21.5352 68.1641 21.5598 68.2133 21.2152H82.1422C82.175 21.5105 82.1586 21.5598 82.1586 22.2898C82.1586 22.9789 82.7164 23.5449 83.4055 23.5531C84.1602 23.5777 84.6277 24.152 84.6277 24.7672C84.6277 25.4316 84.0863 25.973 83.4219 25.973C83.2004 25.973 83.0199 26.1371 82.9871 26.3504L82.8395 27.507C82.3473 31.3379 79.0906 34.25 75.1777 34.25C71.2977 34.25 68.0082 31.3461 67.516 27.507ZM70.4117 34.7012C70.4855 38.1629 72.3805 39.8117 73.6684 41.9035L69.6078 39.459C69.4766 39.377 69.3043 39.377 69.1648 39.4508L67.1141 40.5992L68.5168 36.6289L70.4117 34.7012ZM69.4027 49.0895H63.2258V47.3094L66.1707 48.3184C66.2609 48.3512 66.3594 48.3512 66.4496 48.3184L69.3945 47.3094V49.0895H69.4027ZM69.4027 46.3906L66.3184 47.4488L63.2258 46.3906V45.7344C63.2258 45.5047 63.4145 45.3242 63.6359 45.3242H68.9926C69.2223 45.3242 69.4027 45.5129 69.4027 45.7344V46.3906ZM74.7348 49.0895H70.2723C70.2723 48.9664 70.2723 45.5375 70.2723 45.7344C70.2723 45.0289 69.698 44.4465 68.9844 44.4465H63.6359C62.9305 44.4465 62.348 45.0207 62.348 45.7344C62.348 46.8008 62.348 49.1551 62.348 49.0895H57.8937V46.325C57.8937 40.468 62.5695 35.6937 68.3773 35.5215L67.8195 36.0875C67.7785 36.1367 67.7375 36.1859 67.7211 36.2516L65.9 41.4031C65.7688 41.7805 66.1789 42.125 66.5234 41.9281L69.3699 40.3449L74.7348 43.577V49.0895ZM71.2895 34.1844C72.4625 34.7832 73.7832 35.1195 75.1695 35.1195C76.5312 35.1195 77.8602 34.7914 79.0496 34.1926C79.2137 37.7035 77.2203 39.3277 75.1695 42.5516C73.1352 39.3441 71.1254 37.6953 71.2895 34.1844ZM87.1215 49.0895H80.9445V47.3094L83.8895 48.3184C83.9797 48.3512 84.0781 48.3512 84.1684 48.3184L87.1133 47.3094V49.0895H87.1215ZM87.1215 46.3906L84.0371 47.4488L80.9445 46.3906V45.7344C80.9445 45.5047 81.1332 45.3242 81.3547 45.3242H86.7113C86.941 45.3242 87.1215 45.5129 87.1215 45.7344V46.3906ZM92.4535 47.8754C91.6742 48.6219 90.6242 49.0895 89.4594 49.0895H87.991C87.991 48.9664 87.991 45.5375 87.991 45.7344C87.991 45.0289 87.4168 44.4465 86.7031 44.4465H81.3465C80.641 44.4465 80.0586 45.0207 80.0586 45.7344C80.0586 46.8008 80.0586 49.1551 80.0586 49.0895H75.5961V43.5688L80.9609 40.3367L83.8074 41.9199C84.1602 42.1168 84.5621 41.7723 84.4309 41.3949L82.618 36.2434C82.5934 36.1859 82.5605 36.1285 82.5195 36.0793L81.9617 35.5133C84.8984 35.6035 87.548 36.8668 89.4512 38.8602V38.975C89.4512 39.6641 89.8613 40.2793 90.4684 40.5008C90.6078 40.55 90.7391 40.6238 90.8703 40.7059C91.8629 42.3383 92.4453 44.2578 92.4453 46.3086L92.4535 47.8754ZM93.7824 44.7664C93.7824 45.4555 93.6184 46.1035 93.3312 46.6777C93.3148 46.4727 93.4215 44.9797 92.8555 43.0438C93.0113 43.093 93.1672 43.1176 93.3312 43.1176H93.7824V44.7664ZM98.1055 38.9832C98.1055 39.3113 97.925 39.5902 97.6543 39.6969C96.7766 40.025 96.0547 40.8207 95.7676 41.7887C95.6855 42.0594 95.4148 42.248 95.1031 42.248H93.3312C93.0195 42.248 92.7488 42.0594 92.6668 41.7805C92.3797 40.8125 91.6578 40.0086 90.7801 39.6887C90.5094 39.5902 90.3289 39.3031 90.3289 38.975V36.9406C90.3289 36.5469 90.6488 36.2352 91.0344 36.2352H97.3918C97.7855 36.2352 98.0973 36.5551 98.0973 36.9406L98.1055 38.9832Z" fill="#444444" fill-opacity="0.8"/>
<path d="M92.3723 37.9743L96.0637 37.9579C96.3016 37.9579 96.4984 37.761 96.4984 37.5231C96.4984 37.2853 96.3016 37.0884 96.0637 37.0884L92.3723 37.1048C92.1344 37.1048 91.9375 37.3017 91.9375 37.5396C91.9375 37.7774 92.1344 37.9743 92.3723 37.9743ZM96.0637 38.5813L92.3723 38.5978C92.1344 38.5978 91.9375 38.7946 91.9375 39.0325C91.9375 39.2704 92.1344 39.4673 92.3723 39.4673L96.0637 39.4509C96.3016 39.4509 96.4984 39.254 96.4984 39.0161C96.4984 38.77 96.3016 38.5813 96.0637 38.5813Z" fill="#444444" fill-opacity="0.8"/>
</g>
<defs>
<clipPath id="clip0_650_588">
<rect width="42" height="42" fill="white" transform="translate(57 8)"/>
</clipPath>
</defs>
</svg>
