<svg width="149" height="80" viewBox="0 0 149 80" fill="none" xmlns="http://www.w3.org/2000/svg">
<path d="M11.28 66.608H17.808V68H9.68V56.8H17.584V58.192H11.28V61.632H16.896V62.992H11.28V66.608ZM26.0341 59.52H27.5381L23.8261 68H22.2581L18.5461 59.52H20.1461L23.0581 66.32L26.0341 59.52ZM36.4013 63.808C36.4013 63.936 36.3853 64.128 36.3693 64.272H29.4893C29.6813 65.76 30.8813 66.752 32.5613 66.752C33.5533 66.752 34.3853 66.416 35.0093 65.728L35.8573 66.72C35.0893 67.616 33.9213 68.096 32.5133 68.096C29.7773 68.096 27.9533 66.288 27.9533 63.76C27.9533 61.248 29.7613 59.44 32.2093 59.44C34.6573 59.44 36.4013 61.2 36.4013 63.808ZM32.2093 60.736C30.7373 60.736 29.6493 61.728 29.4893 63.168H34.9293C34.7693 61.744 33.6973 60.736 32.2093 60.736ZM43.0621 59.44C45.1261 59.44 46.5821 60.624 46.5821 63.12V68H45.0461V63.296C45.0461 61.632 44.2141 60.816 42.7581 60.816C41.1261 60.816 40.0701 61.792 40.0701 63.632V68H38.5341V59.52H40.0061V60.8C40.6301 59.936 41.7181 59.44 43.0621 59.44ZM53.7128 66.4L54.1928 67.504C53.7288 67.904 53.0248 68.096 52.3368 68.096C50.6248 68.096 49.6488 67.152 49.6488 65.44V60.784H48.2088V59.52H49.6488V57.664H51.1848V59.52H53.6168V60.784H51.1848V65.376C51.1848 66.288 51.6648 66.8 52.5128 66.8C52.9608 66.8 53.3928 66.656 53.7128 66.4ZM65.6266 68.128C62.1866 68.128 59.6586 65.68 59.6586 62.4C59.6586 59.12 62.1866 56.672 65.6266 56.672C69.0346 56.672 71.5626 59.104 71.5626 62.4C71.5626 65.696 69.0346 68.128 65.6266 68.128ZM65.6266 66.704C68.1066 66.704 69.9626 64.88 69.9626 62.4C69.9626 59.92 68.1066 58.096 65.6266 58.096C63.1146 58.096 61.2586 59.92 61.2586 62.4C61.2586 64.88 63.1146 66.704 65.6266 66.704ZM75.2561 60.944C75.8001 59.952 76.8561 59.44 78.3441 59.44V60.928C78.2161 60.912 78.1041 60.912 77.9921 60.912C76.3441 60.912 75.3201 61.92 75.3201 63.776V68H73.7841V59.52H75.2561V60.944ZM86.8151 59.52H88.2711V66.848C88.2711 69.84 86.7511 71.2 83.8711 71.2C82.3191 71.2 80.7511 70.768 79.8231 69.936L80.5591 68.752C81.3431 69.424 82.5751 69.856 83.8231 69.856C85.8231 69.856 86.7351 68.928 86.7351 67.008V66.336C85.9991 67.216 84.8951 67.648 83.6791 67.648C81.2311 67.648 79.3751 65.984 79.3751 63.536C79.3751 61.088 81.2311 59.44 83.6791 59.44C84.9431 59.44 86.0951 59.904 86.8151 60.832V59.52ZM83.8551 66.304C85.5511 66.304 86.7671 65.168 86.7671 63.536C86.7671 61.888 85.5511 60.784 83.8551 60.784C82.1431 60.784 80.9271 61.888 80.9271 63.536C80.9271 65.168 82.1431 66.304 83.8551 66.304ZM94.294 59.44C96.614 59.44 97.926 60.56 97.926 62.88V68H96.47V66.88C95.958 67.648 95.014 68.096 93.686 68.096C91.766 68.096 90.55 67.072 90.55 65.6C90.55 64.24 91.43 63.12 93.958 63.12H96.39V62.816C96.39 61.52 95.638 60.768 94.118 60.768C93.11 60.768 92.086 61.12 91.43 61.68L90.79 60.528C91.67 59.824 92.934 59.44 94.294 59.44ZM93.942 66.912C95.094 66.912 96.006 66.384 96.39 65.408V64.224H94.022C92.502 64.224 92.07 64.816 92.07 65.536C92.07 66.384 92.774 66.912 93.942 66.912ZM105.297 59.44C107.361 59.44 108.817 60.624 108.817 63.12V68H107.281V63.296C107.281 61.632 106.449 60.816 104.993 60.816C103.361 60.816 102.305 61.792 102.305 63.632V68H100.769V59.52H102.241V60.8C102.865 59.936 103.953 59.44 105.297 59.44ZM112.427 57.888C111.835 57.888 111.387 57.456 111.387 56.896C111.387 56.336 111.835 55.888 112.427 55.888C113.019 55.888 113.467 56.32 113.467 56.864C113.467 57.44 113.035 57.888 112.427 57.888ZM111.659 68V59.52H113.195V68H111.659ZM117.28 66.736H122.416V68H115.312V67.008L120.32 60.784H115.408V59.52H122.288V60.528L117.28 66.736ZM132.011 63.808C132.011 63.936 131.995 64.128 131.979 64.272H125.099C125.291 65.76 126.491 66.752 128.171 66.752C129.163 66.752 129.995 66.416 130.619 65.728L131.467 66.72C130.699 67.616 129.531 68.096 128.123 68.096C125.387 68.096 123.563 66.288 123.563 63.76C123.563 61.248 125.371 59.44 127.819 59.44C130.267 59.44 132.011 61.2 132.011 63.808ZM127.819 60.736C126.347 60.736 125.259 61.728 125.099 63.168H130.539C130.379 61.744 129.307 60.736 127.819 60.736ZM136.576 68.096C135.168 68.096 133.776 67.664 133.072 67.104L133.712 65.888C134.432 66.4 135.584 66.768 136.688 66.768C138.112 66.768 138.704 66.336 138.704 65.616C138.704 63.712 133.344 65.36 133.344 61.984C133.344 60.464 134.704 59.44 136.88 59.44C137.984 59.44 139.232 59.728 139.968 60.208L139.312 61.424C138.544 60.928 137.696 60.752 136.864 60.752C135.52 60.752 134.864 61.248 134.864 61.92C134.864 63.92 140.24 62.288 140.24 65.584C140.24 67.12 138.832 68.096 136.576 68.096Z" fill="#444444" fill-opacity="0.8"/>
<g clip-path="url(#clip0_650_501)">
<path d="M88.125 11.5H85.5V8.875C85.5 8.392 85.108 8 84.625 8C84.142 8 83.75 8.392 83.75 8.875V11.5H66.25V8.875C66.25 8.392 65.858 8 65.375 8C64.892 8 64.5 8.392 64.5 8.875V11.5H61.875C57.5333 11.5 54 15.0333 54 19.375V42.125C54 46.4667 57.5333 50 61.875 50H88.125C92.4667 50 96 46.4667 96 42.125V19.375C96 15.0333 92.4667 11.5 88.125 11.5ZM61.875 13.25H88.125C91.5025 13.25 94.25 15.9975 94.25 19.375V22H55.75V19.375C55.75 15.9975 58.4975 13.25 61.875 13.25ZM88.125 48.25H61.875C58.4975 48.25 55.75 45.5025 55.75 42.125V23.75H94.25V42.125C94.25 45.5025 91.5025 48.25 88.125 48.25ZM81.5975 32.521H78.1955L77.2855 29.0298C77.016 28.0025 76.0833 27.2692 74.9843 27.2482C73.9168 27.2692 72.984 28.0008 72.7162 29.0298L71.8063 32.5192H68.4042C67.0445 32.5192 66.2028 33.6095 66.2028 34.621C66.2028 35.5572 66.7697 36.4515 67.6797 36.9573L69.8655 38.1717L68.8628 40.9052C68.4848 41.9395 68.8208 43.0805 69.701 43.7437C70.142 44.0762 70.6688 44.2407 71.1955 44.2407C71.7328 44.2407 72.2683 44.0675 72.7145 43.7245L75.0035 41.9552L77.2908 43.7245C78.1728 44.407 79.4118 44.414 80.3043 43.7437C81.1845 43.0805 81.5205 41.9395 81.1425 40.9052L80.1398 38.1717L82.3237 36.9573C83.2355 36.4515 83.8025 35.5555 83.8025 34.621C83.8025 33.6095 82.9608 32.5192 81.601 32.5192L81.5975 32.521ZM81.4697 35.4295L77.9768 37.372L79.494 41.509C79.6042 41.81 79.5028 42.1548 79.2473 42.3473C78.9848 42.5433 78.619 42.5415 78.3582 42.342L75 39.745L71.6418 42.342C71.381 42.5433 71.0152 42.5468 70.7527 42.3473C70.4972 42.1548 70.3957 41.81 70.5042 41.509L72.0232 37.3703L68.5303 35.4278C68.2433 35.2685 67.9528 34.9552 67.9528 34.621C67.9528 34.5265 68.0595 34.2692 68.4042 34.2692H73.1572L74.4085 29.4708C74.4802 29.1978 74.7305 29.0018 74.9843 28.9965C75.2713 29.0018 75.5215 29.196 75.5915 29.469L76.8428 34.2675H81.5958C81.9405 34.2675 82.0473 34.5248 82.0473 34.6193C82.0473 34.9553 81.7568 35.2667 81.468 35.426L81.4697 35.4295Z" fill="#444444" fill-opacity="0.8"/>
</g>
<rect x="0.5" y="0.5" width="148" height="79" rx="11.5" stroke="#323232" stroke-opacity="0.133333"/>
<defs>
<clipPath id="clip0_650_501">
<rect width="42" height="42" fill="white" transform="translate(54 8)"/>
</clipPath>
</defs>
</svg>
