<svg width="42" height="42" viewBox="0 0 42 42" fill="none" xmlns="http://www.w3.org/2000/svg">
<g id="hostel-svgrepo-com">
<path id="Vector" d="M20.9705 0.839862C20.7927 0.8462 20.6215 0.908817 20.4816 1.01869L1.16159 16.1387C1.07473 16.2068 1.00213 16.2913 0.94794 16.3874C0.89375 16.4835 0.859028 16.5894 0.845758 16.699C0.832487 16.8085 0.840929 16.9196 0.870599 17.0259C0.90027 17.1322 0.950589 17.2316 1.01868 17.3184C1.08678 17.4053 1.17131 17.4778 1.26746 17.532C1.3636 17.5862 1.46948 17.6209 1.57903 17.6341C1.68859 17.6474 1.79968 17.6389 1.90596 17.6092C2.01225 17.5795 2.11164 17.5292 2.19846 17.461L3.68651 16.2962H5.04002V15.2363L21 2.74627L36.96 15.2363V16.2962H38.3135L39.8016 17.461C39.8884 17.5291 39.9878 17.5795 40.0941 17.6092C40.2004 17.6389 40.3115 17.6473 40.421 17.6341C40.5306 17.6209 40.6364 17.5862 40.7326 17.532C40.8287 17.4778 40.9132 17.4053 40.9813 17.3184C41.0494 17.2316 41.0998 17.1322 41.1294 17.0259C41.1591 16.9196 41.1675 16.8085 41.1543 16.699C41.141 16.5894 41.1063 16.4835 41.0521 16.3874C40.9979 16.2913 40.9253 16.2068 40.8385 16.1387L21.5185 1.01869C21.3626 0.896322 21.1685 0.832982 20.9705 0.839862ZM9.24002 17.6399V37.7999H7.47143V39.4799H10.6542V38.6399H10.92V36.9599H31.08V38.6399H31.3458V39.4799H34.5286V37.7999H32.76V36.1199V35.2799V26.0399V25.1999V24.3599V17.6399H31.08V20.6176C30.1864 19.8141 29.0098 19.3199 27.72 19.3199H21V24.3599H18.1535C18.8612 23.7423 19.32 22.8455 19.32 21.8399C19.32 19.9941 17.8057 18.4799 15.96 18.4799C14.1143 18.4799 12.6 19.9941 12.6 21.8399C12.6 22.8455 13.0588 23.7423 13.7665 24.3599H10.92V17.6399H9.24002ZM3.36002 17.886V21.0655H5.04002V17.886H3.36002ZM36.96 17.886V21.0638H38.64V17.886H36.96ZM15.96 20.1599C16.8978 20.1599 17.64 20.9021 17.64 21.8399C17.64 22.7777 16.8978 23.5199 15.96 23.5199C15.0222 23.5199 14.28 22.7777 14.28 21.8399C14.28 20.9021 15.0222 20.1599 15.96 20.1599ZM22.68 20.9999H27.72C29.5851 20.9999 31.08 22.4947 31.08 24.3599H22.68V20.9999ZM3.36002 22.6536V25.8331H5.04002V22.6536H3.36002ZM36.96 22.6536V25.8331H38.64V22.6536H36.96ZM10.92 26.0399H31.08V31.5376C30.1864 30.7341 29.0098 30.2399 27.72 30.2399H21V35.2799H18.1535C18.8612 34.6623 19.32 33.7655 19.32 32.7599C19.32 30.9141 17.8057 29.3999 15.96 29.3999C14.1143 29.3999 12.6 30.9141 12.6 32.7599C12.6 33.7655 13.0588 34.6623 13.7665 35.2799H10.92V26.0399ZM3.36002 27.4229V30.6024H5.04002V27.4229H3.36002ZM36.96 27.4229V30.6008H38.64V27.4229H36.96ZM15.96 31.0799C16.8978 31.0799 17.64 31.8221 17.64 32.7599C17.64 33.6977 16.8978 34.4399 15.96 34.4399C15.0222 34.4399 14.28 33.6977 14.28 32.7599C14.28 31.8221 15.0222 31.0799 15.96 31.0799ZM22.68 31.9199H27.72C29.5851 31.9199 31.08 33.4147 31.08 35.2799H22.68V31.9199ZM36.96 32.1906V35.3701H38.64V32.1906H36.96ZM3.36002 32.1922V35.3701H5.04002V32.1922H3.36002ZM3.36002 36.9599V38.6399C3.36005 38.8626 3.44855 39.0763 3.60608 39.2338C3.7636 39.3913 3.97725 39.4798 4.20002 39.4799H5.88002V37.7999H5.04002V36.9599H3.36002ZM36.96 36.9599V37.7999H36.12V39.4799H37.8C38.0228 39.4798 38.2364 39.3913 38.394 39.2338C38.5515 39.0763 38.64 38.8626 38.64 38.6399V36.9599H36.96ZM12.2456 37.7999V39.4799H15.4301V37.7999H12.2456ZM17.0215 37.7999V39.4799H20.2043V37.7999H17.0215ZM21.7957 37.7999V39.4799H24.9785V37.7999H21.7957ZM26.5699 37.7999V39.4799H29.7528V37.7999H26.5699Z" fill="#444444" fill-opacity="0.8"/>
</g>
</svg>
