<svg width="64" height="80" viewBox="0 0 64 80" fill="none" xmlns="http://www.w3.org/2000/svg">
<path d="M14.736 68.128C11.296 68.128 8.768 65.68 8.768 62.4C8.768 59.12 11.296 56.672 14.736 56.672C18.144 56.672 20.672 59.104 20.672 62.4C20.672 65.696 18.144 68.128 14.736 68.128ZM14.736 66.704C17.216 66.704 19.072 64.88 19.072 62.4C19.072 59.92 17.216 58.096 14.736 58.096C12.224 58.096 10.368 59.92 10.368 62.4C10.368 64.88 12.224 66.704 14.736 66.704ZM27.2596 66.4L27.7396 67.504C27.2756 67.904 26.5716 68.096 25.8836 68.096C24.1716 68.096 23.1956 67.152 23.1956 65.44V60.784H21.7556V59.52H23.1956V57.664H24.7316V59.52H27.1636V60.784H24.7316V65.376C24.7316 66.288 25.2116 66.8 26.0596 66.8C26.5076 66.8 26.9396 66.656 27.2596 66.4ZM34.1246 59.44C36.1886 59.44 37.6446 60.624 37.6446 63.12V68H36.1086V63.296C36.1086 61.632 35.2766 60.816 33.8206 60.816C32.1886 60.816 31.1326 61.792 31.1326 63.632V68H29.5966V56.128H31.1326V60.72C31.7726 59.904 32.8286 59.44 34.1246 59.44ZM48.1981 63.808C48.1981 63.936 48.1821 64.128 48.1661 64.272H41.2861C41.4781 65.76 42.6781 66.752 44.3581 66.752C45.3501 66.752 46.1821 66.416 46.8061 65.728L47.6541 66.72C46.8861 67.616 45.7181 68.096 44.3101 68.096C41.5741 68.096 39.7501 66.288 39.7501 63.76C39.7501 61.248 41.5581 59.44 44.0061 59.44C46.4541 59.44 48.1981 61.2 48.1981 63.808ZM44.0061 60.736C42.5341 60.736 41.4461 61.728 41.2861 63.168H46.7261C46.5661 61.744 45.4941 60.736 44.0061 60.736ZM51.803 60.944C52.347 59.952 53.403 59.44 54.891 59.44V60.928C54.763 60.912 54.651 60.912 54.539 60.912C52.891 60.912 51.867 61.92 51.867 63.776V68H50.331V59.52H51.803V60.944Z" fill="#444444" fill-opacity="0.8"/>
<g clip-path="url(#clip0_650_486)">
<path d="M37.25 29.875V15.875C37.25 12.4975 34.5025 9.75 31.125 9.75H18.875C15.4975 9.75 12.75 12.4975 12.75 15.875V42.125C12.75 45.5025 15.4975 48.25 18.875 48.25H32.875C33.358 48.25 33.75 48.642 33.75 49.125C33.75 49.608 33.358 50 32.875 50H18.875C14.5333 50 11 46.4667 11 42.125V15.875C11 11.5333 14.5333 8 18.875 8H31.125C35.4668 8 39 11.5333 39 15.875V29.875C39 30.358 38.608 30.75 38.125 30.75C37.642 30.75 37.25 30.358 37.25 29.875ZM22.375 32.5H18.875C18.392 32.5 18 32.892 18 33.375C18 33.858 18.392 34.25 18.875 34.25H22.375C22.858 34.25 23.25 33.858 23.25 33.375C23.25 32.892 22.858 32.5 22.375 32.5ZM31.125 32.5H27.625C27.142 32.5 26.75 32.892 26.75 33.375C26.75 33.858 27.142 34.25 27.625 34.25H31.125C31.608 34.25 32 33.858 32 33.375C32 32.892 31.608 32.5 31.125 32.5ZM22.375 39.5H18.875C18.392 39.5 18 39.892 18 40.375C18 40.858 18.392 41.25 18.875 41.25H22.375C22.858 41.25 23.25 40.858 23.25 40.375C23.25 39.892 22.858 39.5 22.375 39.5ZM31.125 39.5H27.625C27.142 39.5 26.75 39.892 26.75 40.375C26.75 40.858 27.142 41.25 27.625 41.25H31.125C31.608 41.25 32 40.858 32 40.375C32 39.892 31.608 39.5 31.125 39.5ZM25 25.5C25.483 25.5 25.875 25.108 25.875 24.625V21.125H29.375C29.858 21.125 30.25 20.733 30.25 20.25C30.25 19.767 29.858 19.375 29.375 19.375H25.875V15.875C25.875 15.392 25.483 15 25 15C24.517 15 24.125 15.392 24.125 15.875V19.375H20.625C20.142 19.375 19.75 19.767 19.75 20.25C19.75 20.733 20.142 21.125 20.625 21.125H24.125V24.625C24.125 25.108 24.517 25.5 25 25.5ZM40.75 35.125C40.75 32.7135 42.7118 30.75 45.125 30.75C47.5383 30.75 49.5 32.7135 49.5 35.125C49.5 37.5365 47.5383 39.5 45.125 39.5C42.7118 39.5 40.75 37.5365 40.75 35.125ZM42.5 35.125C42.5 36.5723 43.6778 37.75 45.125 37.75C46.5723 37.75 47.75 36.5723 47.75 35.125C47.75 33.6777 46.5723 32.5 45.125 32.5C43.6778 32.5 42.5 33.6777 42.5 35.125ZM52.972 48.9062C52.09 45.4833 48.7895 43 45.125 43C41.4605 43 38.16 45.4833 37.278 48.9062C37.159 49.3735 37.439 49.8512 37.9063 49.972C38.377 50.0927 38.8513 49.8093 38.972 49.342C39.6458 46.724 42.29 44.7483 45.125 44.7483C47.96 44.7483 50.6043 46.7223 51.278 49.342C51.3813 49.7375 51.7365 49.9983 52.125 49.9983C52.1968 49.9983 52.2703 49.9895 52.3438 49.9702C52.8128 49.8495 53.0928 49.3735 52.972 48.9062Z" fill="#444444" fill-opacity="0.8"/>
</g>
<rect x="0.5" y="0.5" width="63" height="79" rx="11.5" stroke="#323232" stroke-opacity="0.133333"/>
<defs>
<clipPath id="clip0_650_486">
<rect width="42" height="42" fill="white" transform="translate(11 8)"/>
</clipPath>
</defs>
</svg>
