<svg width="99" height="80" viewBox="0 0 99 80" fill="none" xmlns="http://www.w3.org/2000/svg">
<path d="M14.048 56.8C16.96 56.8 18.72 58.272 18.72 60.704C18.72 63.136 16.96 64.608 14.048 64.608H11.28V68H9.68V56.8H14.048ZM14 63.216C16.048 63.216 17.12 62.304 17.12 60.704C17.12 59.104 16.048 58.192 14 58.192H11.28V63.216H14ZM28.4794 63.808C28.4794 63.936 28.4634 64.128 28.4474 64.272H21.5674C21.7594 65.76 22.9594 66.752 24.6394 66.752C25.6314 66.752 26.4634 66.416 27.0874 65.728L27.9354 66.72C27.1674 67.616 25.9994 68.096 24.5914 68.096C21.8554 68.096 20.0314 66.288 20.0314 63.76C20.0314 61.248 21.8394 59.44 24.2874 59.44C26.7354 59.44 28.4794 61.2 28.4794 63.808ZM24.2874 60.736C22.8154 60.736 21.7274 61.728 21.5674 63.168H27.0074C26.8474 61.744 25.7754 60.736 24.2874 60.736ZM34.9003 66.4L35.3803 67.504C34.9163 67.904 34.2123 68.096 33.5243 68.096C31.8123 68.096 30.8363 67.152 30.8363 65.44V60.784H29.3963V59.52H30.8363V57.664H32.3723V59.52H34.8043V60.784H32.3723V65.376C32.3723 66.288 32.8523 66.8 33.7003 66.8C34.1483 66.8 34.5803 66.656 34.9003 66.4ZM45.0221 68.128C43.3101 68.128 41.6301 67.552 40.7341 66.72L41.3261 65.472C42.1581 66.224 43.5821 66.768 45.0221 66.768C46.9581 66.768 47.7901 66.016 47.7901 65.04C47.7901 62.304 41.0061 64.032 41.0061 59.872C41.0061 58.144 42.3501 56.672 45.2941 56.672C46.6061 56.672 47.9661 57.024 48.8941 57.664L48.3661 58.944C47.3901 58.32 46.2861 58.032 45.2941 58.032C43.3901 58.032 42.5741 58.832 42.5741 59.808C42.5741 62.544 49.3581 60.832 49.3581 64.944C49.3581 66.656 47.9821 68.128 45.0221 68.128ZM55.9996 59.44C58.0636 59.44 59.5196 60.624 59.5196 63.12V68H57.9836V63.296C57.9836 61.632 57.1516 60.816 55.6956 60.816C54.0636 60.816 53.0076 61.792 53.0076 63.632V68H51.4716V56.128H53.0076V60.72C53.6476 59.904 54.7036 59.44 55.9996 59.44ZM66.0411 68.096C63.4971 68.096 61.6251 66.288 61.6251 63.76C61.6251 61.232 63.4971 59.44 66.0411 59.44C68.5851 59.44 70.4411 61.232 70.4411 63.76C70.4411 66.288 68.5851 68.096 66.0411 68.096ZM66.0411 66.752C67.6731 66.752 68.8891 65.568 68.8891 63.76C68.8891 61.952 67.6731 60.784 66.0411 60.784C64.4091 60.784 63.1771 61.952 63.1771 63.76C63.1771 65.568 64.4091 66.752 66.0411 66.752ZM77.0614 59.44C79.5414 59.44 81.3494 61.168 81.3494 63.76C81.3494 66.368 79.5414 68.096 77.0614 68.096C75.8614 68.096 74.8054 67.632 74.1014 66.72V71.104H72.5654V59.52H74.0374V60.864C74.7254 59.92 75.8134 59.44 77.0614 59.44ZM76.9334 66.752C78.5654 66.752 79.7974 65.568 79.7974 63.76C79.7974 61.968 78.5654 60.784 76.9334 60.784C75.3174 60.784 74.0854 61.968 74.0854 63.76C74.0854 65.568 75.3174 66.752 76.9334 66.752ZM85.9036 68.096C84.4956 68.096 83.1036 67.664 82.3996 67.104L83.0396 65.888C83.7596 66.4 84.9116 66.768 86.0156 66.768C87.4396 66.768 88.0316 66.336 88.0316 65.616C88.0316 63.712 82.6716 65.36 82.6716 61.984C82.6716 60.464 84.0316 59.44 86.2076 59.44C87.3116 59.44 88.5596 59.728 89.2956 60.208L88.6396 61.424C87.8716 60.928 87.0236 60.752 86.1916 60.752C84.8476 60.752 84.1916 61.248 84.1916 61.92C84.1916 63.92 89.5676 62.288 89.5676 65.584C89.5676 67.12 88.1596 68.096 85.9036 68.096Z" fill="#444444" fill-opacity="0.8"/>
<g clip-path="url(#clip0_650_506)">
<path d="M35.125 48.25C33.6778 48.25 32.5 47.0723 32.5 45.625V39.5H48.25V37.75H32.5V28.4085C33.2963 28.7883 34.187 29 35.125 29H36.875C39.101 29 41.0522 27.8065 42.125 26.0268C43.1978 27.8065 45.149 29 47.375 29H52.1228C52.2978 28.3823 52.5323 27.7908 52.8228 27.2308C52.7563 27.2343 47.375 27.25 47.375 27.25C44.9617 27.25 43 25.2883 43 22.875V22H41.25V22.875C41.25 25.2883 39.2883 27.25 36.875 27.25H35.125C32.7555 27.25 30.82 25.3565 30.7518 23.0028L34.8923 9.75H41.25V16.75H43V9.75H57V16.75H58.75V9.75H65.1077L69.2483 23.0028C69.2238 23.8235 68.963 24.5795 68.5465 25.227C68.9508 25.6803 69.3113 26.1702 69.6245 26.6917C70.4715 25.6417 71 24.324 71 22.8732L66.3923 8H33.6077L29 22.875C29 24.5393 29.6685 26.0512 30.75 27.1572V45.625C30.75 48.0383 32.7118 50 35.125 50H49.5835C49.223 49.4627 48.9553 48.8678 48.7348 48.25H35.125Z" fill="#444444" fill-opacity="0.8"/>
<g clip-path="url(#clip1_650_506)">
<path d="M52.7807 41.2501C52.3073 41.2501 51.8427 41.0742 51.4253 40.7347C50.678 40.1275 50.1653 39.0512 50.0515 37.8542C49.8669 35.91 50.7988 34.4339 52.3169 34.2632C52.9355 34.1959 53.5489 34.377 54.0424 34.7777C54.703 35.315 55.1239 36.2066 55.2272 37.2899C55.4232 39.3417 54.4432 41.076 52.9959 41.2379C52.9242 41.2457 52.8533 41.2501 52.7824 41.2501H52.7807ZM52.5777 35.1251C52.5234 35.1251 52.4683 35.1277 52.414 35.1347C51.399 35.2476 50.7857 36.3326 50.9222 37.7729C51.014 38.7406 51.4087 39.5946 51.9774 40.0566C52.1822 40.2237 52.5059 40.4136 52.897 40.369C53.8324 40.2649 54.5 38.8929 54.3557 37.3739C54.2752 36.526 53.968 35.8461 53.4903 35.4585C53.2199 35.2397 52.9075 35.1251 52.5777 35.1251ZM68.2192 41.2501C68.1483 41.2501 68.0765 41.2457 68.0057 41.2379C66.5593 41.076 65.5793 39.3417 65.7744 37.2899C65.8777 36.2075 66.2977 35.315 66.9592 34.7777C67.4518 34.377 68.0678 34.1959 68.6847 34.2632C70.2037 34.433 71.1355 35.91 70.95 37.8542C70.8363 39.0504 70.3227 40.1275 69.5763 40.7347C69.158 41.0742 68.6934 41.2501 68.2209 41.2501H68.2192ZM68.4222 35.1251C68.0923 35.1251 67.7799 35.2389 67.5095 35.4576C67.0327 35.8452 66.7255 36.526 66.6442 37.373C66.4998 38.892 67.1674 40.264 68.1028 40.3681C68.4913 40.4119 68.8177 40.222 69.0224 40.0557C69.5912 39.5937 69.9858 38.7406 70.0777 37.772C70.215 36.3317 69.6017 35.2476 68.5858 35.1339C68.5315 35.1277 68.4764 35.1251 68.4222 35.1251ZM63.8214 36.0001C63.7532 36.0001 63.6858 35.9966 63.6175 35.9896C62.8904 35.9144 62.2613 35.4392 61.8465 34.6526C61.4624 33.9237 61.3049 32.9997 61.4038 32.0521C61.6077 30.1026 62.8292 28.8514 64.3464 29.0132C65.077 29.0894 65.707 29.4901 66.1192 30.142C66.5313 30.7939 66.6975 31.6417 66.5969 32.5946C66.3922 34.5537 65.1934 36.001 63.8223 36.001L63.8214 36.0001ZM64.0979 29.8751C63.1555 29.8751 62.4162 30.7807 62.2735 32.1431C62.1922 32.921 62.3155 33.6674 62.62 34.244C62.8939 34.7637 63.2807 35.0744 63.7077 35.119C64.65 35.2082 65.5679 34.0182 65.7263 32.5019C65.805 31.7476 65.6852 31.0931 65.3789 30.6084C65.1085 30.1822 64.7209 29.9311 64.2554 29.8821C64.202 29.8769 64.1504 29.8742 64.0988 29.8742L64.0979 29.8751ZM57.1775 36.0001C55.8055 36.0001 54.6077 34.5537 54.4029 32.5937C54.3032 31.6417 54.4685 30.793 54.8807 30.1411C55.2937 29.4901 55.9237 29.0894 56.6534 29.0132C58.1847 28.8487 59.3922 30.1026 59.5952 32.0512C59.694 32.9997 59.5374 33.9237 59.1524 34.6526C58.7377 35.4392 58.1085 35.9135 57.3814 35.9896C57.3132 35.9966 57.2449 36.0001 57.1775 36.0001ZM56.901 29.8751C56.8494 29.8751 56.7969 29.8777 56.7444 29.883C56.2789 29.932 55.8904 30.1831 55.6209 30.6092C55.3147 31.0931 55.1948 31.7476 55.2735 32.5027C55.4319 34.0191 56.3594 35.2091 57.2922 35.1199C57.7192 35.0752 58.1059 34.7646 58.3798 34.2449C58.6843 33.6674 58.8077 32.921 58.7263 32.1431C58.5837 30.7816 57.8443 29.876 56.9019 29.876L56.901 29.8751ZM65.3124 50.0001C64.6702 50.0001 64.0209 49.8155 63.334 49.6204C62.5177 49.3885 61.5928 49.1251 60.4999 49.1251C59.407 49.1251 58.4813 49.3885 57.6658 49.6204C56.9789 49.8155 56.3305 50.0001 55.6874 50.0001C54.2122 50.0001 52.6249 49.042 52.6249 46.9376C52.6249 42.8181 56.9325 39.5001 60.4999 39.5001C64.0673 39.5001 68.3749 42.8181 68.3749 46.9376C68.3749 49.042 66.7877 50.0001 65.3124 50.0001ZM60.4999 48.2501C61.7153 48.2501 62.7032 48.531 63.5738 48.7786C64.2274 48.9641 64.7927 49.1251 65.3124 49.1251C66.3213 49.1251 67.4999 48.552 67.4999 46.9376C67.4999 43.4035 63.6508 40.3751 60.4999 40.3751C57.349 40.3751 53.4999 43.4035 53.4999 46.9376C53.4999 48.552 54.6785 49.1251 55.6874 49.1251C56.208 49.1251 56.7724 48.9641 57.426 48.7786C58.2967 48.531 59.2845 48.2501 60.4999 48.2501Z" fill="#444444" fill-opacity="0.8"/>
</g>
</g>
<rect x="0.5" y="0.5" width="98" height="79" rx="11.5" stroke="#323232" stroke-opacity="0.133333"/>
<defs>
<clipPath id="clip0_650_506">
<rect width="42" height="42" fill="white" transform="translate(29 8)"/>
</clipPath>
<clipPath id="clip1_650_506">
<rect width="21" height="21" fill="white" transform="translate(50 29)"/>
</clipPath>
</defs>
</svg>
