<svg width="63" height="80" viewBox="0 0 63 80" fill="none" xmlns="http://www.w3.org/2000/svg">
<path d="M18.912 68H17.168L14.752 64.56C14.528 64.576 14.288 64.592 14.048 64.592H11.28V68H9.68V56.8H14.048C16.96 56.8 18.72 58.272 18.72 60.704C18.72 62.432 17.824 63.68 16.256 64.24L18.912 68ZM14 63.232C16.048 63.232 17.12 62.304 17.12 60.704C17.12 59.104 16.048 58.192 14 58.192H11.28V63.232H14ZM28.745 63.808C28.745 63.936 28.729 64.128 28.713 64.272H21.833C22.025 65.76 23.225 66.752 24.905 66.752C25.897 66.752 26.729 66.416 27.353 65.728L28.201 66.72C27.433 67.616 26.265 68.096 24.857 68.096C22.121 68.096 20.297 66.288 20.297 63.76C20.297 61.248 22.105 59.44 24.553 59.44C27.001 59.44 28.745 61.2 28.745 63.808ZM24.553 60.736C23.081 60.736 21.993 61.728 21.833 63.168H27.273C27.113 61.744 26.041 60.736 24.553 60.736ZM35.1659 66.4L35.6459 67.504C35.1819 67.904 34.4779 68.096 33.7899 68.096C32.0779 68.096 31.1019 67.152 31.1019 65.44V60.784H29.6619V59.52H31.1019V57.664H32.6379V59.52H35.0699V60.784H32.6379V65.376C32.6379 66.288 33.1179 66.8 33.9659 66.8C34.4139 66.8 34.8459 66.656 35.1659 66.4ZM40.5909 59.44C42.9109 59.44 44.2229 60.56 44.2229 62.88V68H42.7669V66.88C42.2549 67.648 41.3109 68.096 39.9829 68.096C38.0629 68.096 36.8469 67.072 36.8469 65.6C36.8469 64.24 37.7269 63.12 40.2549 63.12H42.6869V62.816C42.6869 61.52 41.9349 60.768 40.4149 60.768C39.4069 60.768 38.3829 61.12 37.7269 61.68L37.0869 60.528C37.9669 59.824 39.2309 59.44 40.5909 59.44ZM40.2389 66.912C41.3909 66.912 42.3029 66.384 42.6869 65.408V64.224H40.3189C38.7989 64.224 38.3669 64.816 38.3669 65.536C38.3669 66.384 39.0709 66.912 40.2389 66.912ZM47.8334 57.888C47.2414 57.888 46.7934 57.456 46.7934 56.896C46.7934 56.336 47.2414 55.888 47.8334 55.888C48.4254 55.888 48.8734 56.32 48.8734 56.864C48.8734 57.44 48.4414 57.888 47.8334 57.888ZM47.0654 68V59.52H48.6014V68H47.0654ZM51.5341 68V56.128H53.0701V68H51.5341Z" fill="#444444" fill-opacity="0.8"/>
<path d="M28.5 35.125L33.75 36.875C33.75 36.875 46.875 34.25 48.625 34.25C50.375 34.25 50.375 36 48.625 37.75C46.875 39.5 40.75 44.75 35.5 44.75C30.25 44.75 26.75 42.125 23.25 42.125C19.75 42.125 14.5 42.125 14.5 42.125" stroke="#444444" stroke-opacity="0.8" stroke-width="1.4" stroke-linecap="round" stroke-linejoin="round"/>
<path d="M14.5 31.625C16.25 29.875 19.75 27.25 23.25 27.25C26.75 27.25 35.0625 30.75 36.375 32.5C37.6875 34.25 33.75 36.875 33.75 36.875" stroke="#444444" stroke-opacity="0.8" stroke-width="1.4" stroke-linecap="round" stroke-linejoin="round"/>
<path d="M25 22V15C25 14.0335 25.7835 13.25 26.75 13.25H47.75C48.7165 13.25 49.5 14.0335 49.5 15V29" stroke="#444444" stroke-opacity="0.8" stroke-width="1.4" stroke-linecap="round" stroke-linejoin="round"/>
<path d="M41.625 13.25H32.875V21.125H41.625V13.25Z" stroke="#444444" stroke-opacity="0.8" stroke-width="1.4" stroke-linecap="round" stroke-linejoin="round"/>
<rect x="0.5" y="0.5" width="62" height="79" rx="11.5" stroke="#323232" stroke-opacity="0.133333"/>
</svg>
