<svg xmlns="http://www.w3.org/2000/svg" width="20.741" height="18.762" viewBox="0 0 20.741 18.762">
    <path data-name="Review Comment" d="M-8444.155-5033.238a.466.466 0 0 1-.32-.127l-4.247-3.822h-8.59a2.592 2.592 0 0 1-2.69-2.467v-9.877a2.592 2.592 0 0 1 2.69-2.467h15.363a2.591 2.591 0 0 1 2.688 2.467v9.877a2.591 2.591 0 0 1-2.687 2.467h-1.7v3.457a.494.494 0 0 1-.493.493zm-4.329-4.934a.5.5 0 0 1 .333.127l3.512 3.206v-2.841a.5.5 0 0 1 .5-.492h2.191a1.6 1.6 0 0 0 1.7-1.482v-9.877a1.592 1.592 0 0 0-1.7-1.478h-15.363a1.6 1.6 0 0 0-1.7 1.478v9.877a1.6 1.6 0 0 0 1.7 1.482zm-6.552-3.665a.647.647 0 0 1-.642-.645.644.644 0 0 1 .642-.642h7.975a.643.643 0 0 1 .639.642.647.647 0 0 1-.639.645zm0-3.214a.644.644 0 0 1-.642-.646.644.644 0 0 1 .642-.641h3.471a.644.644 0 0 1 .644.641.645.645 0 0 1-.644.646z" transform="translate(8460.003 5052)" style="fill:#777"/>
</svg>
