<svg width="32" height="32" viewBox="0 0 32 32" fill="none" xmlns="http://www.w3.org/2000/svg">
<g id="Search">
<g id="Iconly/Light-Outline/Search">
<g id="Search_2">
<path id="Combined-Shape" fill-rule="evenodd" clip-rule="evenodd" d="M15.6523 2.6665C22.8123 2.6665 28.6363 8.4905 28.6363 15.6505C28.6363 19.0286 27.34 22.1095 25.2185 24.4218L29.3929 28.5874C29.7835 28.9781 29.7849 29.6101 29.3942 30.0008C29.1995 30.1981 28.9422 30.2954 28.6862 30.2954C28.4315 30.2954 28.1755 30.1981 27.9795 30.0034L23.7548 25.7905C21.5324 27.5703 18.7146 28.6358 15.6523 28.6358C8.49233 28.6358 2.66699 22.8105 2.66699 15.6505C2.66699 8.4905 8.49233 2.6665 15.6523 2.6665ZM15.6523 4.6665C9.59499 4.6665 4.66699 9.59317 4.66699 15.6505C4.66699 21.7078 9.59499 26.6358 15.6523 26.6358C21.7083 26.6358 26.6363 21.7078 26.6363 15.6505C26.6363 9.59317 21.7083 4.6665 15.6523 4.6665Z" fill="#5448C8"/>
</g>
</g>
</g>
</svg>
