<svg width="104" height="80" viewBox="0 0 104 80" fill="none" xmlns="http://www.w3.org/2000/svg">
<path d="M12.944 68.128C11.232 68.128 9.552 67.552 8.656 66.72L9.248 65.472C10.08 66.224 11.504 66.768 12.944 66.768C14.88 66.768 15.712 66.016 15.712 65.04C15.712 62.304 8.928 64.032 8.928 59.872C8.928 58.144 10.272 56.672 13.216 56.672C14.528 56.672 15.888 57.024 16.816 57.664L16.288 58.944C15.312 58.32 14.208 58.032 13.216 58.032C11.312 58.032 10.496 58.832 10.496 59.808C10.496 62.544 17.28 60.832 17.28 64.944C17.28 66.656 15.904 68.128 12.944 68.128ZM23.8895 59.44C26.3695 59.44 28.1775 61.168 28.1775 63.76C28.1775 66.368 26.3695 68.096 23.8895 68.096C22.6895 68.096 21.6335 67.632 20.9295 66.72V71.104H19.3935V59.52H20.8655V60.864C21.5535 59.92 22.6415 59.44 23.8895 59.44ZM23.7615 66.752C25.3935 66.752 26.6255 65.568 26.6255 63.76C26.6255 61.968 25.3935 60.784 23.7615 60.784C22.1455 60.784 20.9135 61.968 20.9135 63.76C20.9135 65.568 22.1455 66.752 23.7615 66.752ZM31.0678 57.888C30.4758 57.888 30.0278 57.456 30.0278 56.896C30.0278 56.336 30.4758 55.888 31.0678 55.888C31.6598 55.888 32.1078 56.32 32.1078 56.864C32.1078 57.44 31.6758 57.888 31.0678 57.888ZM30.2998 68V59.52H31.8358V68H30.2998ZM36.2405 60.944C36.7845 59.952 37.8405 59.44 39.3285 59.44V60.928C39.2005 60.912 39.0885 60.912 38.9765 60.912C37.3285 60.912 36.3045 61.92 36.3045 63.776V68H34.7685V59.52H36.2405V60.944ZM41.9896 57.888C41.3976 57.888 40.9496 57.456 40.9496 56.896C40.9496 56.336 41.3976 55.888 41.9896 55.888C42.5816 55.888 43.0296 56.32 43.0296 56.864C43.0296 57.44 42.5976 57.888 41.9896 57.888ZM41.2216 68V59.52H42.7576V68H41.2216ZM49.9784 66.4L50.4584 67.504C49.9944 67.904 49.2904 68.096 48.6024 68.096C46.8904 68.096 45.9144 67.152 45.9144 65.44V60.784H44.4744V59.52H45.9144V57.664H47.4504V59.52H49.8824V60.784H47.4504V65.376C47.4504 66.288 47.9304 66.8 48.7784 66.8C49.2264 66.8 49.6584 66.656 49.9784 66.4ZM58.6834 59.52H60.2194V68H58.7634V66.72C58.1394 67.6 57.0834 68.096 55.8834 68.096C53.6914 68.096 52.2354 66.896 52.2354 64.4V59.52H53.7714V64.224C53.7714 65.888 54.6034 66.72 56.0594 66.72C57.6594 66.72 58.6834 65.728 58.6834 63.904V59.52ZM66.2315 59.44C68.5515 59.44 69.8635 60.56 69.8635 62.88V68H68.4075V66.88C67.8955 67.648 66.9515 68.096 65.6235 68.096C63.7035 68.096 62.4875 67.072 62.4875 65.6C62.4875 64.24 63.3675 63.12 65.8955 63.12H68.3275V62.816C68.3275 61.52 67.5755 60.768 66.0555 60.768C65.0475 60.768 64.0235 61.12 63.3675 61.68L62.7275 60.528C63.6075 59.824 64.8715 59.44 66.2315 59.44ZM65.8795 66.912C67.0315 66.912 67.9435 66.384 68.3275 65.408V64.224H65.9595C64.4395 64.224 64.0075 64.816 64.0075 65.536C64.0075 66.384 64.7115 66.912 65.8795 66.912ZM72.706 68V56.128H74.242V68H72.706ZM77.9428 57.888C77.3508 57.888 76.9028 57.456 76.9028 56.896C76.9028 56.336 77.3508 55.888 77.9428 55.888C78.5348 55.888 78.9828 56.32 78.9828 56.864C78.9828 57.44 78.5508 57.888 77.9428 57.888ZM77.1748 68V59.52H78.7108V68H77.1748ZM85.9315 66.4L86.4115 67.504C85.9475 67.904 85.2435 68.096 84.5555 68.096C82.8435 68.096 81.8675 67.152 81.8675 65.44V60.784H80.4275V59.52H81.8675V57.664H83.4035V59.52H85.8355V60.784H83.4035V65.376C83.4035 66.288 83.8835 66.8 84.7315 66.8C85.1795 66.8 85.6115 66.656 85.9315 66.4ZM94.1123 59.52H95.6163L91.5043 68.848C90.7523 70.64 89.7763 71.2 88.4803 71.2C87.6643 71.2 86.8323 70.928 86.3042 70.416L86.9603 69.264C87.3763 69.664 87.9043 69.888 88.4803 69.888C89.2163 69.888 89.6803 69.552 90.0963 68.576L90.3683 67.984L86.6242 59.52H88.2243L91.1843 66.304L94.1123 59.52Z" fill="#444444" fill-opacity="0.8"/>
<path d="M70.2632 33.1858C70.1723 32.8232 69.9853 32.4918 69.7217 32.2267C69.5058 32.0098 69.2467 31.8406 68.9613 31.7302C68.6759 31.6197 68.3704 31.5705 68.0647 31.5855C67.7425 31.5712 67.4247 31.6647 67.1616 31.8512C66.9686 31.7281 66.7374 31.6793 66.5111 31.7139C66.27 31.7475 66.0395 31.8349 65.8368 31.9697C65.6341 32.1046 65.4644 32.2834 65.3403 32.4928C65.1652 32.7676 65.0615 33.0818 65.0387 33.4068C65.0158 33.7318 65.0745 34.0574 65.2094 34.354H63.3757C62.3444 34.354 61.6313 34.1227 61.1955 33.647C60.4102 32.7896 60.5533 31.16 60.6918 29.5841C60.7394 29.0421 60.7887 28.4818 60.796 27.9673C60.8604 26.6892 60.4598 25.6037 59.6052 24.7408C57.6188 22.7351 53.7352 22.5467 52.4198 22.5429C52.2045 22.5423 51.8338 22.5434 51.6645 22.5429C50.4398 22.5391 46.4256 22.6902 44.3946 24.7408C43.54 25.6037 43.1393 26.6892 43.2037 27.9673C43.2111 28.4818 43.2603 29.0421 43.308 29.5841C43.4465 31.16 43.5897 32.7895 42.8043 33.6469C42.3685 34.1227 41.6554 34.354 40.6241 34.354H38.7904C38.9253 34.0574 38.984 33.7318 38.9611 33.4068C38.9383 33.0818 38.8347 32.7677 38.6596 32.4929C38.5355 32.2834 38.3658 32.1047 38.1632 31.9698C37.9605 31.835 37.73 31.7475 37.4889 31.714C37.2765 31.6815 37.0594 31.7223 36.8734 31.8298C36.5912 31.687 36.2824 31.6044 35.9666 31.5872C35.6559 31.5675 35.3445 31.6143 35.0533 31.7246C34.7621 31.8348 34.4978 32.006 34.2781 32.2267C34.0146 32.4918 33.8276 32.8232 33.7366 33.1858C33.415 34.346 33.8716 35.6143 34.8729 36.3417C36.0316 37.1834 37.7724 38.2811 40.1333 38.7199C39.4957 39.702 39.1374 40.8391 39.0968 42.0092C39.0948 42.0743 39.0939 42.6448 39.0939 42.6448C39.0939 43.8568 39.5754 45.0192 40.4324 45.8762C41.2894 46.7333 42.4518 47.2147 43.6638 47.2147H60.336C61.548 47.2147 62.7104 46.7332 63.5674 45.8762C64.4244 45.0192 64.9059 43.8568 64.9059 42.6448C64.9059 42.6448 64.905 42.0743 64.9031 42.0094C64.8659 40.8429 64.5099 39.709 63.8737 38.7307C66.1509 38.2988 68.0879 37.0965 69.1269 36.3417C70.1282 35.6143 70.5848 34.346 70.2632 33.1858ZM68.5484 35.5452C67.4111 36.3715 65.1216 37.7759 62.5664 37.8989L62.5668 37.9058C61.8591 37.7124 61.039 37.5846 60.1317 37.4434C59.9586 37.4164 59.7814 37.3885 59.6001 37.3598C58.9139 37.257 58.2794 36.935 57.7913 36.4418C57.4813 36.1344 57.2643 35.7457 57.1654 35.3205C57.0153 34.6257 57.0941 33.1089 57.3828 31.1574C57.4013 31.0285 57.368 30.8976 57.2901 30.7932C57.2123 30.6889 57.0962 30.6196 56.9675 30.6007C56.8387 30.5817 56.7076 30.6145 56.6029 30.6919C56.4983 30.7694 56.4286 30.8851 56.4091 31.0138C56.1901 32.4953 55.9768 34.4813 56.2032 35.5288C56.3401 36.1332 56.6449 36.6865 57.0826 37.1252C57.7197 37.7716 58.5487 38.1949 59.4459 38.3318C59.6288 38.3606 59.8071 38.3884 59.9807 38.4155C61.27 38.6159 62.2187 38.7771 62.8996 39.047C63.5282 39.921 63.8831 40.962 63.9192 42.038C63.9208 42.0935 63.9216 42.6448 63.9216 42.6448C63.9215 43.5957 63.5438 44.5077 62.8713 45.1802C62.1989 45.8526 61.2869 46.2303 60.336 46.2304H56.42V43.933C56.42 43.294 56.2265 42.7808 55.8954 42.3879H58.4966C58.6271 42.3879 58.7523 42.336 58.8446 42.2437C58.9369 42.1514 58.9888 42.0262 58.9888 41.8957C58.9888 41.7652 58.9369 41.64 58.8446 41.5477C58.7523 41.4554 58.6271 41.4035 58.4966 41.4035H45.955C45.8245 41.4035 45.6993 41.4554 45.607 41.5477C45.5147 41.64 45.4628 41.7652 45.4628 41.8957C45.4628 42.0262 45.5147 42.1514 45.607 42.2437C45.6993 42.336 45.8245 42.3879 45.955 42.3879H53.3024C54.4787 42.3879 55.4356 42.7567 55.4356 43.933V46.2304H43.6638C43.193 46.2304 42.7267 46.1377 42.2917 45.9575C41.8567 45.7773 41.4614 45.5132 41.1285 45.1802C40.456 44.5078 40.0783 43.5958 40.0783 42.6448C40.0783 42.6448 40.0791 42.0936 40.0807 42.0379C40.1197 40.9655 40.4723 39.9281 41.0948 39.054C41.779 38.7721 42.7426 38.608 44.0634 38.4024C44.2373 38.3754 44.4153 38.3475 44.5974 38.3188C45.4947 38.1818 46.3236 37.7585 46.9607 37.1121C47.3985 36.6732 47.7034 36.1195 47.8401 35.5149C48.0673 34.4674 47.8541 32.4814 47.635 30.9999C47.6256 30.936 47.6037 30.8745 47.5705 30.8191C47.5373 30.7636 47.4936 30.7152 47.4417 30.6767C47.3898 30.6381 47.3308 30.6102 47.2682 30.5944C47.2055 30.5787 47.1403 30.5754 47.0764 30.5848C47.0125 30.5943 46.951 30.6162 46.8955 30.6494C46.8401 30.6825 46.7917 30.7263 46.7532 30.7782C46.7146 30.8301 46.6867 30.889 46.6709 30.9517C46.6552 31.0144 46.6519 31.0795 46.6613 31.1435C46.9492 33.095 47.0288 34.6126 46.8779 35.3066C46.7793 35.7318 46.5626 36.1205 46.2528 36.4279C45.7645 36.9212 45.1297 37.2432 44.4432 37.3459C44.2619 37.3746 44.0847 37.4025 43.9116 37.4295C42.9937 37.5729 42.1658 37.7019 41.4514 37.9004C41.4497 37.9002 41.4481 37.8999 41.4464 37.8998C38.7259 37.6966 36.8135 36.5348 35.4514 35.5452C35.1264 35.3145 34.8791 34.9905 34.7423 34.6162C34.6055 34.2418 34.5856 33.8347 34.6853 33.4488C34.7367 33.2585 34.8314 33.0826 34.9619 32.9348C35.0809 32.8001 35.231 32.6965 35.3991 32.6331C35.5673 32.5696 35.7484 32.5482 35.9267 32.5708C36.0903 32.5821 36.2504 32.6237 36.3989 32.6935C36.3921 32.8178 36.344 32.9363 36.2624 33.0302C36.2384 33.052 36.1643 33.1177 35.9475 33.1019C35.8827 33.0965 35.8175 33.1041 35.7557 33.1241C35.6939 33.144 35.6366 33.1761 35.5873 33.2183C35.5379 33.2605 35.4973 33.3121 35.468 33.3701C35.4386 33.428 35.4211 33.4912 35.4163 33.556C35.4115 33.6208 35.4195 33.6859 35.44 33.7476C35.4605 33.8092 35.493 33.8662 35.5356 33.9153C35.5782 33.9643 35.6301 34.0044 35.6883 34.0333C35.7465 34.0622 35.8099 34.0792 35.8747 34.0835C36.4097 34.1236 36.7462 33.9241 36.9339 33.75C37.3442 33.3697 37.3814 32.8177 37.3845 32.6951C37.475 32.7126 37.5606 32.7493 37.6356 32.8029C37.7106 32.8564 37.7732 32.9254 37.8191 33.0053C38.0419 33.3707 38.036 33.7379 37.8011 34.1279C37.7287 34.2486 37.6896 34.3864 37.6879 34.5272C37.6861 34.6679 37.7217 34.8066 37.791 34.9291C37.8611 35.0532 37.9629 35.1564 38.0859 35.2283C38.209 35.3002 38.3489 35.3382 38.4914 35.3384H40.6242C41.8887 35.3384 42.8123 35.0307 43.444 34.4002C43.4987 34.4672 43.5425 34.5425 43.5737 34.6232C43.6212 34.7447 43.7151 34.8424 43.8346 34.8947C43.8938 34.9206 43.9575 34.9345 44.0221 34.9358C44.0867 34.9371 44.1509 34.9256 44.211 34.9021C44.2712 34.8786 44.3261 34.8434 44.3727 34.7986C44.4193 34.7539 44.4566 34.7004 44.4825 34.6412C44.5084 34.582 44.5224 34.5183 44.5237 34.4537C44.5249 34.3891 44.5135 34.3249 44.49 34.2647C44.3888 34.0001 44.2255 33.7636 44.014 33.5752C44.5451 32.417 44.4103 30.8825 44.2886 29.4979C44.2401 28.9463 44.1944 28.4252 44.1879 27.9447L44.1873 27.9257C44.1348 26.9184 44.431 26.1036 45.0929 25.4347C46.8483 23.6606 50.5918 23.5282 51.6781 23.5287C51.8639 23.5288 52.1343 23.5289 52.3177 23.5288C53.399 23.5281 57.1495 23.6585 58.9069 25.4346C59.5688 26.1036 59.865 26.9184 59.8125 27.9257L59.8119 27.9447C59.8054 28.4252 59.7597 28.9462 59.7112 29.4979C59.5896 30.8823 59.4547 32.4167 59.9856 33.5747C59.7738 33.7632 59.6103 33.9999 59.509 34.2647C59.4615 34.3862 59.4641 34.5216 59.5165 34.6412C59.5688 34.7607 59.6664 34.8546 59.7879 34.9021C59.9094 34.9496 60.0448 34.947 60.1644 34.8947C60.2839 34.8424 60.3778 34.7447 60.4253 34.6232C60.4568 34.5425 60.5009 34.4673 60.5559 34.4003C61.1876 35.0307 62.1112 35.3384 63.3756 35.3384H65.5085C65.6509 35.3381 65.7908 35.3002 65.9138 35.2283C66.0369 35.1564 66.1386 35.0532 66.2088 34.9292C66.2781 34.8067 66.3137 34.6679 66.3119 34.5272C66.3102 34.3864 66.2711 34.2486 66.1988 34.1279C65.9638 33.7378 65.958 33.3706 66.1807 33.0052C66.2268 32.9251 66.2897 32.8558 66.365 32.8022C66.4403 32.7486 66.5263 32.7119 66.6171 32.6946C66.6561 33.2173 67.0209 33.976 67.8828 33.976C68.0133 33.976 68.1385 33.9241 68.2308 33.8318C68.3231 33.7395 68.3749 33.6143 68.3749 33.4838C68.3749 33.3533 68.3231 33.2281 68.2308 33.1358C68.1385 33.0435 68.0133 32.9916 67.8828 32.9916C67.7274 32.9916 67.6564 32.8648 67.6241 32.7544C67.7736 32.5764 68.0882 32.57 68.0882 32.57C68.2635 32.5586 68.4391 32.5853 68.6031 32.6483C68.767 32.7113 68.9154 32.809 69.0379 32.9348C69.1741 33.0785 69.2695 33.2559 69.3145 33.4487C69.4142 33.8346 69.3943 34.2417 69.2575 34.6161C69.1207 34.9905 68.8734 35.3145 68.5484 35.5452Z" fill="#444444" fill-opacity="0.8"/>
<path d="M52.0097 21.7897C54.2433 21.7897 56.0604 20.066 56.0604 17.9473C56.0604 15.8286 54.2433 14.105 52.0097 14.105C49.7761 14.105 47.959 15.8286 47.959 17.9473C47.959 20.066 49.7761 21.7897 52.0097 21.7897ZM52.0097 15.0894C53.7005 15.0894 55.076 16.3714 55.076 17.9473C55.076 19.5232 53.7005 20.8053 52.0097 20.8053C50.3189 20.8053 48.9434 19.5232 48.9434 17.9473C48.9434 16.3714 50.3189 15.0894 52.0097 15.0894Z" fill="#444444" fill-opacity="0.8"/>
<path d="M51.5962 18.2376C51.6349 18.1996 51.6656 18.1544 51.6867 18.1045C51.7078 18.0546 51.7188 18.0011 51.7191 17.9469C51.7194 17.8928 51.7089 17.8391 51.6883 17.789C51.6678 17.7389 51.6375 17.6933 51.5992 17.655C51.5609 17.6167 51.5154 17.5863 51.4654 17.5657C51.4153 17.545 51.3616 17.5345 51.3075 17.5347C51.2533 17.5349 51.1997 17.5458 51.1498 17.5668C51.0999 17.5878 51.0546 17.6185 51.0166 17.6571C50.718 17.9554 50.4465 17.7838 50.3109 17.6545C50.2334 17.5789 50.1291 17.537 50.0208 17.5379C49.9126 17.5388 49.809 17.5826 49.7329 17.6595C49.6567 17.7365 49.6141 17.8405 49.6143 17.9488C49.6145 18.0571 49.6575 18.1609 49.7339 18.2376C49.9888 18.4896 50.3306 18.6343 50.689 18.6416C50.8597 18.6391 51.0281 18.6019 51.184 18.5325C51.3399 18.463 51.4801 18.3627 51.5962 18.2376Z" fill="#444444" fill-opacity="0.8"/>
<path d="M53.3794 18.6416C53.55 18.639 53.7184 18.6019 53.8744 18.5324C54.0303 18.463 54.1705 18.3626 54.2866 18.2375C54.3626 18.1604 54.4051 18.0565 54.4047 17.9482C54.4044 17.84 54.3613 17.7363 54.2848 17.6597C54.2083 17.5831 54.1047 17.5399 53.9965 17.5394C53.8882 17.5389 53.7842 17.5812 53.707 17.657C53.4084 17.9553 53.1369 17.7837 53.0013 17.6545C52.9238 17.5788 52.8196 17.5369 52.7113 17.5379C52.603 17.5388 52.4995 17.5825 52.4233 17.6595C52.3472 17.7364 52.3045 17.8404 52.3047 17.9487C52.3049 18.057 52.3479 18.1608 52.4243 18.2375C52.6791 18.4895 53.021 18.6342 53.3794 18.6416Z" fill="#444444" fill-opacity="0.8"/>
<path d="M52.01 27.924C52.2875 27.5358 52.7473 27.1305 53.159 26.8503C53.0098 26.4469 52.8046 26.0666 52.5496 25.7203C52.4882 25.6363 52.4078 25.5679 52.315 25.5207C52.2222 25.4736 52.1196 25.449 52.0154 25.449C51.9113 25.449 51.8087 25.4736 51.7159 25.5207C51.6231 25.5679 51.5427 25.6363 51.4813 25.7203C51.2249 26.068 51.0191 26.4502 50.8701 26.8557C51.2773 27.1359 51.7352 27.5413 52.01 27.924Z" fill="#444444" fill-opacity="0.8"/>
<path d="M54.8739 26.9115C52.4441 27.342 52.0557 29.2132 52.0098 30.0924C51.964 29.2132 51.5756 27.342 49.1458 26.9115C49.053 26.8955 48.9577 26.9017 48.8677 26.9295C48.7777 26.9573 48.6955 27.006 48.6279 27.0716C48.5603 27.1372 48.5091 27.2179 48.4786 27.307C48.448 27.3961 48.439 27.4912 48.4522 27.5844C48.9223 30.8041 52.0099 30.6407 52.0099 30.6407C52.0099 30.6407 55.0975 30.8041 55.5676 27.5844C55.5807 27.4912 55.5717 27.3961 55.5411 27.307C55.5106 27.2178 55.4594 27.1372 55.3918 27.0716C55.3242 27.006 55.242 26.9573 55.152 26.9295C55.062 26.9017 54.9667 26.8955 54.8739 26.9115Z" fill="#444444" fill-opacity="0.8"/>
<path d="M52.0049 13.0215C52.1354 13.0215 52.2606 12.9697 52.3529 12.8774C52.4452 12.7851 52.4971 12.6599 52.4971 12.5294V11.2773C52.4971 11.1468 52.4452 11.0216 52.3529 10.9293C52.2606 10.837 52.1354 10.7852 52.0049 10.7852C51.8743 10.7852 51.7492 10.837 51.6569 10.9293C51.5646 11.0216 51.5127 11.1468 51.5127 11.2773V12.5294C51.5127 12.6599 51.5646 12.7851 51.6569 12.8774C51.7492 12.9697 51.8743 13.0215 52.0049 13.0215Z" fill="#444444" fill-opacity="0.8"/>
<path d="M56.9007 16.1065C56.9738 16.1065 57.046 16.0901 57.1119 16.0586L58.2425 15.5205C58.3594 15.4639 58.4492 15.3633 58.4922 15.2407C58.5352 15.1181 58.528 14.9834 58.4722 14.8661C58.4164 14.7488 58.3164 14.6583 58.1941 14.6144C58.0718 14.5705 57.9371 14.5767 57.8194 14.6317L56.6889 15.1698C56.588 15.2178 56.5065 15.2987 56.4576 15.3992C56.4088 15.4997 56.3957 15.6139 56.4203 15.7228C56.445 15.8318 56.506 15.9292 56.5933 15.9989C56.6806 16.0686 56.789 16.1066 56.9007 16.1065Z" fill="#444444" fill-opacity="0.8"/>
<path d="M45.8186 15.4184L46.9392 15.9767C47.0561 16.0349 47.1913 16.0443 47.3151 16.0029C47.4388 15.9614 47.5411 15.8725 47.5993 15.7556C47.6575 15.6388 47.6669 15.5036 47.6255 15.3798C47.584 15.256 47.4951 15.1538 47.3782 15.0956L46.2576 14.5372C46.1998 14.5084 46.1368 14.4913 46.0723 14.4868C46.0078 14.4823 45.9431 14.4905 45.8818 14.5111C45.8205 14.5316 45.7639 14.564 45.7151 14.6064C45.6663 14.6488 45.6264 14.7005 45.5976 14.7583C45.5687 14.8162 45.5516 14.8791 45.5471 14.9436C45.5426 15.0081 45.5509 15.0728 45.5714 15.1341C45.5919 15.1954 45.6243 15.2521 45.6667 15.3008C45.7091 15.3496 45.7608 15.3895 45.8186 15.4184Z" fill="#444444" fill-opacity="0.8"/>
<path d="M54.5554 13.8436C54.6077 13.8815 54.6671 13.9087 54.7299 13.9236C54.7928 13.9386 54.858 13.941 54.9219 13.9308C54.9857 13.9205 55.0469 13.8978 55.1019 13.8639C55.1569 13.83 55.2047 13.7855 55.2426 13.7332L55.9762 12.7186C56.0527 12.6128 56.084 12.481 56.0633 12.3521C56.0426 12.2232 55.9715 12.1078 55.8657 12.0313C55.7599 11.9548 55.6281 11.9235 55.4992 11.9442C55.3703 11.9649 55.255 12.036 55.1785 12.1418L54.4449 13.1564C54.3684 13.2622 54.3371 13.394 54.3578 13.5229C54.3785 13.6518 54.4496 13.7671 54.5554 13.8436Z" fill="#444444" fill-opacity="0.8"/>
<path d="M48.9008 13.6262C48.9367 13.6801 48.9829 13.7263 49.0367 13.7623C49.0905 13.7982 49.1509 13.8232 49.2143 13.8358C49.2778 13.8484 49.3432 13.8484 49.4066 13.8357C49.4701 13.8231 49.5304 13.798 49.5842 13.762C49.638 13.7259 49.6841 13.6797 49.72 13.6258C49.7558 13.5719 49.7807 13.5115 49.7932 13.448C49.8057 13.3845 49.8055 13.3191 49.7927 13.2557C49.7799 13.1922 49.7547 13.1319 49.7185 13.0782L49.0216 12.0382C48.9488 11.93 48.8361 11.8552 48.7082 11.83C48.5803 11.8049 48.4476 11.8315 48.3393 11.9041C48.231 11.9767 48.1559 12.0892 48.1305 12.2171C48.1051 12.345 48.1315 12.4777 48.2038 12.5861L48.9008 13.6262Z" fill="#444444" fill-opacity="0.8"/>
<rect x="0.5" y="0.5" width="103" height="79" rx="11.5" stroke="#323232" stroke-opacity="0.133333"/>
</svg>
