<svg xmlns="http://www.w3.org/2000/svg" id="Layer_1" data-name="Layer 1" viewBox="-1.55 275.54 1906.1 155.3"><defs><style>.cls-1,.cls-3,.cls-5,.cls-6,.cls-8{fill:none;}.cls-1,.cls-3,.cls-5,.cls-8{stroke:#231f20;stroke-width:3.1px;}.cls-1,.cls-5{stroke-miterlimit:10;}.cls-2{fill:#8a8c8e;}.cls-3,.cls-5{stroke-linecap:round;}.cls-3,.cls-8{stroke-linejoin:round;}.cls-4{fill:#fff;}.cls-7{fill:#00aabc;}</style></defs><line class="cls-1" x1="265.18" y1="357.12" x2="110.81" y2="357.12"/><polyline class="cls-1" points="288.31 357.12 330.1 357.12 337.92 357.12 450.8 357.12"/><line class="cls-1" x1="686.31" y1="357.12" x2="563.98" y2="357.12"/><polyline class="cls-1" points="721.73 357.12 723.16 357.12 777.98 357.12 791.72 357.12 793.2 357.12 814.54 357.12"/><polyline class="cls-1" points="948.08 357.12 949.49 357.12 954.07 357.12 961.17 357.12 968.13 357.12 974.81 357.12 987.31 357.12"/><polyline class="cls-1" points="1195.76 357.12 1239.35 357.12 1244.06 357.12 1269.63 357.12 1283.5 357.12 1285.96 357.12 1392.06 357.12 1426.5 357.12 1460.93 357.12 1582.61 357.12"/><polyline class="cls-1" points="1903 357.12 1852.99 357.12 1846.43 357.12 1826.29 357.12 1809.37 357.12 1804.54 357.12"/><polyline class="cls-1" points="1793.32 357.12 1673.14 357.12 1667.65 357.12 1625.76 357.12 1619.72 357.12 1601.19 357.12"/><polyline class="cls-1" points="1166.62 357.12 1050.79 357.12 1047.48 357.12 1018.57 357.12 1013.67 357.12"/><line class="cls-1" x1="938.81" y1="357.12" x2="825.7" y2="357.12"/><line class="cls-1" x1="709.4" y1="357.12" x2="696.02" y2="357.12"/><polyline class="cls-1" points="544.86 357.12 505.3 357.12 469.79 357.12"/><line class="cls-1" x1="101.88" y1="357.12" y2="357.12"/><path class="cls-2" d="M288,376.2c3.27-.22,35.4-7.43,51.23-10.55a340.08,340.08,0,0,0-10-46.82l-38.19,8c-3.43.72-11.32,3-14,3.85.1,3,1.78,7.88,2.48,10.8l2.28,9.39C283.54,357.93,287.08,373.65,288,376.2Z"/><path class="cls-2" d="M293.51,288.43l-36.62,8.37c2.1,8.39,4,16.75,6.09,25.14,12-2.67,23.95-5.14,35.95-7.8C297.21,305.75,295.23,296.81,293.51,288.43Z"/><circle class="cls-3" cx="265.15" cy="381.35" r="15.84"/><polyline class="cls-3" points="266.87 364.74 247.41 277.09 231.94 280.53"/><polyline class="cls-3" points="281.53 383.12 328.16 372.77 341.2 380.69"/><rect class="cls-3" x="273.69" y="320.07" width="52.81" height="47.53" transform="translate(-67.4 73.24) rotate(-12.52)"/><rect class="cls-3" x="265.86" y="296.26" width="36.97" height="26.41" transform="translate(-60.33 69) rotate(-12.52)"/><line class="cls-3" x1="318.42" y1="353.29" x2="308.11" y2="355.58"/><line class="cls-3" x1="282.34" y1="312.61" x2="277.19" y2="313.76"/><circle class="cls-3" cx="265.15" cy="381.35" r="7.83"/><path class="cls-4" d="M1860.27,349.4c4.45-4.71,8.71-9.79,11.19-15.78s3-13.09,0-18.85a18.06,18.06,0,0,0-13.12-9.34,18.37,18.37,0,0,0-7.38.4c-2.24.58-5,3-7.12,3.13-2.55.13-3.41-2.73-5.08-4.42a17.15,17.15,0,0,0-6.7-4.2,17.44,17.44,0,0,0-15.42,2.29c-4.58,3.27-7.29,8.62-8.64,14.08a39,39,0,0,0,.85,21.54c.59,1.75,1.31,3.54,1.11,5.38-.26,2.42-2,4.35-3.55,6.23a47.57,47.57,0,0,0-9.68,20.38c-.61,3-.66,6.63,1.85,8.33,1.92,1.31,4.65.77,6.51-.63a17.54,17.54,0,0,0,4.22-5.52c1.94-3.37,4-6.76,6.85-9.4s6.7-4.46,10.57-4.09c5.51.54,9.78,5.4,11.52,10.65s1.51,10.93,1.57,16.46c0,1.92.14,4,1.39,5.46,2.2,2.58,7.31,1.86,8.77-1.2A27.87,27.87,0,0,0,1852.5,379c.24-5,0-7.34.23-12.33.15-3-.64-7.68.59-10.47S1858.16,351.64,1860.27,349.4Zm-19-8.38-8.92-2.55-2.55,8.92-10.89-3.1,2.55-8.93-8.92-2.54,3.11-10.89,8.92,2.54,2.54-8.92,10.89,3.11-2.54,8.92,8.92,2.55Z"/><path class="cls-5" d="M1862.53,328.86c3.31-11.57-1.57-22.82-10.81-25.46a17.34,17.34,0,0,0-16.37,3.8,17.34,17.34,0,0,0-11.91-11.87c-9.23-2.64-19.31,4.35-22.62,15.91-3.57,12.52-1.84,21.65,1.84,28.24a55.32,55.32,0,0,0-9.91,19.51,58.44,58.44,0,0,0-2.11,11.79,3.5,3.5,0,0,0,2.53,3.63,3.66,3.66,0,0,0,4.4-2.13c5-12.42,15.26-20.07,24.2-17.51s13.59,14.49,11.29,27.75a3.52,3.52,0,0,0,2.51,4,3.66,3.66,0,0,0,4.25-1.83,59.57,59.57,0,0,0,4.36-11,55.29,55.29,0,0,0,1.89-21.8C1852.66,348.22,1859,341.38,1862.53,328.86Z"/><polygon class="cls-1" points="1821.42 335.37 1818.87 344.29 1829.76 347.39 1832.31 338.47 1841.23 341.02 1844.34 330.13 1835.42 327.58 1837.96 318.66 1827.07 315.55 1824.53 324.48 1815.61 321.93 1812.5 332.82 1821.42 335.37"/><path class="cls-6" d="M1285.36,400.2s.14-12.94.29-27.8a51.43,51.43,0,0,0-42.4-51.19,54.2,54.2,0,0,0-54.77,23.65l-4.92,7.5c-17.34-3.07-22.87,11.35-25.34,25.32l11.55,2"/><path class="cls-4" d="M1250.68,394.06a11.74,11.74,0,1,1,22.11,7.18l20.38,3.84a91.17,91.17,0,0,0-10.64-54.85,43.63,43.63,0,0,0-9.21-12.08c-4.72-4.09-10.68-6.52-16.75-8a61.34,61.34,0,0,0-37.54,2.42,53.32,53.32,0,0,0-27.61,25.24,23.48,23.48,0,0,0-17.85,6.92,23,23,0,0,0-6.3,12.69,3.57,3.57,0,0,0,2.34,4.24,11.48,11.48,0,0,1,.16-1.92,11.74,11.74,0,1,1,22.49,6.34l41.82,7.88,16.47,3.11A12.06,12.06,0,0,1,1250.68,394.06Z"/><circle class="cls-5" cx="1181.33" cy="381.77" r="11.74"/><line class="cls-5" x1="1273.8" y1="398.15" x2="1291.14" y2="401.22"/><circle class="cls-5" cx="1262.24" cy="396.1" r="11.74"/><line class="cls-5" x1="1192.89" y1="383.82" x2="1250.68" y2="394.06"/><path class="cls-5" d="M1285.36,400.2s.14-12.94.29-27.8a51.43,51.43,0,0,0-42.4-51.19,54.2,54.2,0,0,0-54.77,23.65l-4.92,7.5c-17.34-3.07-22.87,11.35-25.34,25.32l11.55,2"/><path class="cls-5" d="M1199,349.14c6.68-9.34,18.61-17.74,31-17.88l-4,22.65Z"/><path class="cls-5" d="M1235.4,379.43l8.19-46.24h0c14,2.48,24.22,16.21,27.68,28.75l-31.78-5.63"/><rect class="cls-5" x="441.24" y="366.05" width="26.8" height="43.27" transform="translate(78.08 -76.21) rotate(10.48)"/><path class="cls-4" d="M498,405.27a27.82,27.82,0,0,0,2.33,10.18c.72,1.92,1.52,5.93,3.2,5.81s5-4,6.26-5.6c2.53-3.12,3.66-4.35,4.84-8.57A333.27,333.27,0,0,0,520.14,372c0-.15-14.61-3-16.11-2.86-.73,3.2-1.6,9.13-2.32,12C500.72,385,497.82,401.23,498,405.27Z"/><path class="cls-4" d="M533.12,424.2l37.71,6.64,3.47-41.41s-24.93-4.44-27.2-4.84c-.69-.12-2.49-.82-3.11-.53s-.91,1.69-1.16,2.42c-.84,2.4-1.63,4.83-2.39,7.26q-2.18,7-3.92,14.09C535.2,413.24,534.06,418.71,533.12,424.2Z"/><path class="cls-4" d="M479,328.4c.11-.69-.58-1.33-1.46-1.38-3.61-.2-7.49.51-10,2.32a13.36,13.36,0,0,0-4.93,7.59,36.67,36.67,0,0,0-.81,8.89c0,.25,12.62,2.18,13.51,2.18C475.54,346.51,477.93,334.75,479,328.4Z"/><line class="cls-5" x1="506.88" y1="319.6" x2="516.96" y2="321.46"/><path class="cls-1" d="M492.8,366.75l-6.05,32.71a16,16,0,0,0,1.77,10.71l4.28,7.63a1.64,1.64,0,0,0,2.48.45l6.72-5.59a16,16,0,0,0,5.48-9.37l6-32.7Z"/><line class="cls-5" x1="513.02" y1="315.36" x2="503.25" y2="368.19"/><line class="cls-5" x1="501.75" y1="331.69" x2="517.43" y2="334.59"/><line class="cls-5" x1="500.58" y1="337.99" x2="516.27" y2="340.89"/><line class="cls-5" x1="502.22" y1="344.81" x2="512.3" y2="346.67"/><line class="cls-5" x1="502.91" y1="325.38" x2="518.6" y2="328.28"/><polygon class="cls-5" points="561.71 428.75 522 421.4 535.61 368.29 567.99 374.28 561.71 428.75"/><polyline class="cls-1" points="542.55 369.58 548.15 339.32 566.64 342.74 561.04 373"/><line class="cls-1" x1="551.8" y1="371.29" x2="547.06" y2="396.92"/><path class="cls-1" d="M543.82,414.46h0a5.62,5.62,0,0,1-4.38-7.13l2.07-7a4.87,4.87,0,0,1,5.55-3.41h0a4.87,4.87,0,0,1,4,5.17l-.58,7.28A5.62,5.62,0,0,1,543.82,414.46Z"/><line class="cls-1" x1="532.3" y1="382.03" x2="566.17" y2="388.3"/><polyline class="cls-1" points="449.38 364.71 453.13 344.45 471.51 347.85 467.76 368.11"/><path class="cls-1" d="M455.94,344.36l2.45-13.25a7.75,7.75,0,0,1,5.36-6l7.69-2.33a1.3,1.3,0,0,1,1.65,1.47l-4.17,22.53"/><path class="cls-7" d="M720.52,346.16a36.89,36.89,0,1,0,62.66-17c-15-15.76-40.54-14.72-54.63,1.51A36.52,36.52,0,0,0,720.52,346.16Z"/><circle class="cls-1" cx="750.56" cy="350.23" r="41.72"/><circle class="cls-1" cx="750.56" cy="350.23" r="28.26"/><path class="cls-1" d="M802.75,289h0a5,5,0,0,1,6.09,3.58l19.53,74.8a5.42,5.42,0,0,1-3.88,6.61h0a5.42,5.42,0,0,1-6.61-3.88L810,339.56a7.39,7.39,0,0,0-4.74-5.29,6.14,6.14,0,0,1-4.28-5.51l-2-34.69A5,5,0,0,1,802.75,289Z"/><path class="cls-1" d="M695,341.36a.36.36,0,0,1,.43.26,20.54,20.54,0,0,1,.81,9.42l0,.19a28.33,28.33,0,0,0,.8,11.92l10.14,35.56A4.84,4.84,0,1,1,698,401.1l-8.45-36a28.22,28.22,0,0,0-5.1-10.81l-.11-.15a20.5,20.5,0,0,1-3.87-8.63.36.36,0,0,1,.24-.43Z"/><line class="cls-5" x1="679.71" y1="337.74" x2="675.62" y2="321.97"/><line class="cls-5" x1="686.01" y1="336.1" x2="681.92" y2="320.33"/><line class="cls-5" x1="692.31" y1="334.46" x2="688.22" y2="318.7"/><path class="cls-2" d="M1011.31,341.8c-5.63,2-10.88,5.53-14.17,10.54-2.4,3.65-3.67,7.93-4.65,12.19-1.12,4.84-1.92,9.87-1.06,14.77,1.21,6.88,5.69,12.95,11.48,16.87a39.9,39.9,0,0,0,19.74,6.29,31.69,31.69,0,0,0,12.81-1.42c6.22-2.24,11.22-7.22,14.35-13a34.53,34.53,0,0,0-14.9-47.29C1027.76,337.05,1018.61,339.17,1011.31,341.8Z"/><path class="cls-2" d="M930.86,399.36l52.73,6.1c-2.36-10.25-4.66-20.87-6.12-32.12-1.25-9.58-3.59-20.23-4.83-29.81-.61-4.7-3.95-19.93-4.39-23.47-1.39.87-4.14,6.48-4.94,7.87q-1.72,3-3.42,6.08-3.24,5.91-6.3,11.9Q947.37,358.12,942,370.7,935.88,384.83,930.86,399.36Z"/><path class="cls-3" d="M973.77,391.78a7.25,7.25,0,0,1-8.14,6.22l-33.48-4.49a7.24,7.24,0,0,1-6.22-8.13l34.49-75.73Z"/><path class="cls-3" d="M949.85,388.58A16.9,16.9,0,0,1,971,374.5"/><path class="cls-3" d="M933.19,369.45a16.88,16.88,0,0,1,16.66,19.13"/><path class="cls-3" d="M952.73,367.05a12.07,12.07,0,0,1,15.34-10"/><path class="cls-3" d="M940.5,353.38a12.08,12.08,0,0,1,12.23,13.67"/><circle class="cls-3" cx="1017.39" cy="365.97" r="31.37"/><path class="cls-3" d="M1014.18,389.89c1-7.52,7.1-13.93,14.2-15.14"/><path class="cls-3" d="M1005.43,364.37a12.06,12.06,0,0,1,10.35,13.56"/><line class="cls-3" x1="1009.06" y1="428.16" x2="1018.67" y2="356.4"/><line class="cls-3" x1="945.69" y1="419.67" x2="955.93" y2="343.14"/><path class="cls-7" d="M61.05,321.36c-1.16.83-2.43,1.82-2.61,3.24a5.28,5.28,0,0,0,.94,3.07c2.43,4.39,4.86,8.79,7.51,13.06a18.42,18.42,0,0,0,3.68,4.63,6.7,6.7,0,0,0,5.5,1.63,10.11,10.11,0,0,0,3.52-1.82L112,322.6a5.06,5.06,0,0,0,2.26-2.5,4.83,4.83,0,0,0-.4-2.93,42.56,42.56,0,0,0-14.43-19.06c-.64-.47-1.79-1.62-2.57-1.75-1-.17-1.86.83-2.67,1.4l-6.3,4.49-12.61,9Z"/><path class="cls-7" d="M88.57,402.94A8.37,8.37,0,0,0,84,399.12a24.92,24.92,0,0,0-5.94-1.24L46.77,394c-1.82-.22-3.91-.37-5.25.88-2.12,2-.91,6-3,7.93a12.53,12.53,0,0,1-1.87,1.22,6.6,6.6,0,0,0-2.81,6.65c18,2.37,36,4.83,54,7.13.71.09,1.75.25,2.3.29a6.66,6.66,0,0,0,1.64-5c-.26-1.77-2.81-2.55-3.1-4.33C88.35,406.73,89.64,405.1,88.57,402.94Z"/><path class="cls-1" d="M32.86,400.74H83.09a3.13,3.13,0,0,1,3.13,3.13v4.27a0,0,0,0,1,0,0H29.73a0,0,0,0,1,0,0v-4.27a3.13,3.13,0,0,1,3.13-3.13Z" transform="translate(51.54 -4.08) rotate(7.25)"/><path class="cls-1" d="M83.11,403.88l.46-3.59h0a6,6,0,0,0-5.07-6.76l-37.65-4.79a6,6,0,0,0-6.6,5.27h0l-.46,3.59"/><path class="cls-1" d="M91.75,330.76l21.72,30c4.52,6.25,17.2,16.38,25,27.13a61,61,0,0,1,10.34,23.76,1.56,1.56,0,0,1,0,.57h0a3.5,3.5,0,0,1-3.34,2.42,1.76,1.76,0,0,1-.55-.17,61.11,61.11,0,0,1-19.32-17.27c-7.78-10.75-13.42-26-17.94-32.21L85.89,335"/><path class="cls-1" d="M146,414.76a3.47,3.47,0,1,0,2.64-1.91"/><line class="cls-1" x1="97.86" y1="325.96" x2="79.42" y2="339.3"/><polyline class="cls-1" points="61.85 315 78.68 302.84 80.29 301.68"/><path class="cls-1" d="M56.46,318.9v0l-1.6,1.16L52.24,322c-1.46,1.06,1.28,7.37,6.13,14.07s10,11.27,11.43,10.23l2.27-1.65L74,343.2"/><path class="cls-1" d="M85.71,297.76l4.21-3c1.46-1.06,6.59,3.52,11.43,10.23s7.6,13,6.14,14.05l-2.62,1.89-1.61,1.17"/><path class="cls-1" d="M74.5,343.86A3.33,3.33,0,0,0,79.9,340l-18.51-25.6a3.33,3.33,0,0,0-5.4,3.9Z"/><path class="cls-1" d="M98.33,326.62a3.33,3.33,0,0,0,5.41-3.9L85.22,297.11a3.33,3.33,0,0,0-5.4,3.91Z"/><path class="cls-2" d="M1670.9,341c-.74-2-2.87-2.28-4.74-3.1-2.64-1.15-5.25-2.35-7.84-3.62s-30.27-17-29.66-17.8c.84.49-19.44,25.07-21.42,27.17s-4,4.15-6,6.17c-1.46,1.42-3.35,2.45-3.33,4.57,0,2.94,1.45,6.38,2.11,9.26.71,3.12,1.43,6.25,2.14,9.37l4.77,20.88c2.33,10.18,4.66,20.44,4.8,30.88l35.58-6.84,35.69-6.23c-3.58-9.81-5-20.23-6.48-30.57L1673.54,360c-.44-3.18-.89-6.35-1.33-9.53C1671.81,347.51,1671.92,343.79,1670.9,341Z"/><polyline class="cls-5" points="1593.39 363.05 1604.01 420.97 1676.91 407.6 1666.28 349.68"/><polyline class="cls-5" points="1570.06 372.78 1621.15 309 1691.55 350.5"/><polyline class="cls-5" points="1669.41 321.07 1665.7 300.83 1645.45 304.54 1646.92 312.55"/><polyline class="cls-1" points="1652.09 412.15 1645.09 373.96 1621.82 378.23 1628.83 416.42"/><rect class="cls-5" x="1617.93" y="336.36" width="20.17" height="20.17" transform="translate(-35.79 299.35) rotate(-10.39)"/><line class="cls-1" x1="1626.2" y1="336.53" x2="1629.84" y2="356.36"/><line class="cls-1" x1="1637.94" y1="344.63" x2="1618.1" y2="348.26"/><path class="cls-7" d="M1468.22,385.82a19.34,19.34,0,0,0-6-9.83,12.61,12.61,0,0,0-4.35-2.31A25.32,25.32,0,0,0,1452,372a20.7,20.7,0,0,0-6.8.21,19.5,19.5,0,0,0-12,7.79,19.15,19.15,0,0,0-1.74,18.29A19.71,19.71,0,0,0,1446,409.58a19.52,19.52,0,0,0,22.21-23.76ZM1439.05,395l5.93-6.93-3.89-2,7-11.13,7.42,3.74-6.17,6.8,5,2.52Z"/><path class="cls-7" d="M1393.92,323.29c-.58,7.27,2.1,15.3,8.39,19.48,7,4.63,16.68,3.28,23.3-1.41,6.21-4.39,10.16-11.14,13.1-18.11a1.46,1.46,0,0,0-.9-1.92,202.77,202.77,0,0,1-23.13-10.09c-3.91-2-7.71-4.56-11.64-6.47-2.53-1.23-2.4-.94-4.13,2.63C1397,311.35,1394.27,318.87,1393.92,323.29Z"/><path class="cls-8" d="M1387.83,304.83h42.39a0,0,0,0,1,0,0v16A21.19,21.19,0,0,1,1409,342h0a21.19,21.19,0,0,1-21.19-21.19v-16A0,0,0,0,1,1387.83,304.83Z" transform="translate(296.13 -599.29) rotate(26.73)"/><line class="cls-3" x1="1409.64" y1="302.91" x2="1415.72" y2="290.83"/><line class="cls-3" x1="1425.15" y1="310.73" x2="1431.24" y2="298.64"/><circle class="cls-3" cx="1446.83" cy="385.11" r="20.01"/><path class="cls-3" d="M1400.65,340.06l-10.84,21.52a15.38,15.38,0,1,0,27.47,13.83l18.07-35.87a15.38,15.38,0,0,1,27.46,13.84l-7,13.86"/><polygon class="cls-3" points="1448.07 374.97 1441.09 386.1 1444.98 388.06 1439.05 394.99 1454.3 388.02 1449.32 385.51 1455.49 378.71 1448.07 374.97"/></svg>